<?xml version="1.0" encoding="UTF-8" standalone="no"?>
<!DOCTYPE svg PUBLIC "-//W3C//DTD SVG 1.1//EN"
 "http://www.w3.org/Graphics/SVG/1.1/DTD/svg11.dtd">
<!-- Generated by graphviz version 12.2.1 (20241206.2353)
 -->
<!-- Pages: 1 -->
<svg width="472pt" height="6149pt"
 viewBox="0.00 0.00 472.00 6149.20" xmlns="http://www.w3.org/2000/svg" xmlns:xlink="http://www.w3.org/1999/xlink">
<g id="graph0" class="graph" transform="scale(1 1) rotate(0) translate(4 6145.2)">
<polygon fill="white" stroke="none" points="-4,4 -4,-6145.2 468,-6145.2 468,4 -4,4"/>
<g id="clust1" class="cluster">
<title>cluster_2000</title>
<polygon fill="none" stroke="black" stroke-width="0.2" stroke-dasharray="5,2" points="10,-5997.2 10,-6133.2 454,-6133.2 454,-5997.2 10,-5997.2"/>
<text text-anchor="middle" x="232" y="-6116.6" font-family="Master Photograph" font-size="14.00">2000</text>
</g>
<g id="clust2" class="cluster">
<title>%3</title>
</g>
<g id="clust3" class="cluster">
<title>cluster_2002</title>
<polygon fill="none" stroke="black" stroke-width="0.2" stroke-dasharray="5,2" points="10,-5714.4 10,-5850.4 454,-5850.4 454,-5714.4 10,-5714.4"/>
<text text-anchor="middle" x="232" y="-5833.8" font-family="Master Photograph" font-size="14.00">2002</text>
</g>
<g id="clust4" class="cluster">
<title>%7</title>
</g>
<g id="clust5" class="cluster">
<title>cluster_2003</title>
<polygon fill="none" stroke="black" stroke-width="0.2" stroke-dasharray="5,2" points="8,-5469.6 8,-5605.6 456,-5605.6 456,-5469.6 8,-5469.6"/>
<text text-anchor="middle" x="232" y="-5589" font-family="Master Photograph" font-size="14.00">2003</text>
</g>
<g id="clust6" class="cluster">
<title>%11</title>
</g>
<g id="clust7" class="cluster">
<title>cluster_2004</title>
<polygon fill="none" stroke="black" stroke-width="0.2" stroke-dasharray="5,2" points="10,-5224.8 10,-5360.8 454,-5360.8 454,-5224.8 10,-5224.8"/>
<text text-anchor="middle" x="232" y="-5344.2" font-family="Master Photograph" font-size="14.00">2004</text>
</g>
<g id="clust8" class="cluster">
<title>%15</title>
</g>
<g id="clust9" class="cluster">
<title>cluster_2005</title>
<polygon fill="none" stroke="black" stroke-width="0.2" stroke-dasharray="5,2" points="10,-4980 10,-5116 454,-5116 454,-4980 10,-4980"/>
<text text-anchor="middle" x="232" y="-5099.4" font-family="Master Photograph" font-size="14.00">2005</text>
</g>
<g id="clust10" class="cluster">
<title>%19</title>
</g>
<g id="clust11" class="cluster">
<title>cluster_2006</title>
<polygon fill="none" stroke="black" stroke-width="0.2" stroke-dasharray="5,2" points="10,-4735.2 10,-4871.2 454,-4871.2 454,-4735.2 10,-4735.2"/>
<text text-anchor="middle" x="232" y="-4854.6" font-family="Master Photograph" font-size="14.00">2006</text>
</g>
<g id="clust12" class="cluster">
<title>%23</title>
</g>
<g id="clust13" class="cluster">
<title>cluster_2007</title>
<polygon fill="none" stroke="black" stroke-width="0.2" stroke-dasharray="5,2" points="24,-4490.4 24,-4626.4 440,-4626.4 440,-4490.4 24,-4490.4"/>
<text text-anchor="middle" x="232" y="-4609.8" font-family="Master Photograph" font-size="14.00">2007</text>
</g>
<g id="clust14" class="cluster">
<title>%27</title>
</g>
<g id="clust15" class="cluster">
<title>cluster_2008</title>
<polygon fill="none" stroke="black" stroke-width="0.2" stroke-dasharray="5,2" points="10,-4245.6 10,-4381.6 454,-4381.6 454,-4245.6 10,-4245.6"/>
<text text-anchor="middle" x="232" y="-4365" font-family="Master Photograph" font-size="14.00">2008</text>
</g>
<g id="clust16" class="cluster">
<title>%31</title>
</g>
<g id="clust17" class="cluster">
<title>cluster_2009</title>
<polygon fill="none" stroke="black" stroke-width="0.2" stroke-dasharray="5,2" points="10,-4000.8 10,-4136.8 454,-4136.8 454,-4000.8 10,-4000.8"/>
<text text-anchor="middle" x="232" y="-4120.2" font-family="Master Photograph" font-size="14.00">2009</text>
</g>
<g id="clust18" class="cluster">
<title>%35</title>
</g>
<g id="clust19" class="cluster">
<title>cluster_2010</title>
<polygon fill="none" stroke="black" stroke-width="0.2" stroke-dasharray="5,2" points="10,-3718 10,-3854 454,-3854 454,-3718 10,-3718"/>
<text text-anchor="middle" x="232" y="-3837.4" font-family="Master Photograph" font-size="14.00">2010</text>
</g>
<g id="clust20" class="cluster">
<title>%39</title>
</g>
<g id="clust21" class="cluster">
<title>cluster_2011</title>
<polygon fill="none" stroke="black" stroke-width="0.2" stroke-dasharray="5,2" points="10,-3473.2 10,-3609.2 454,-3609.2 454,-3473.2 10,-3473.2"/>
<text text-anchor="middle" x="232" y="-3592.6" font-family="Master Photograph" font-size="14.00">2011</text>
</g>
<g id="clust22" class="cluster">
<title>%43</title>
</g>
<g id="clust23" class="cluster">
<title>cluster_2012</title>
<polygon fill="none" stroke="black" stroke-width="0.2" stroke-dasharray="5,2" points="10,-3228.4 10,-3364.4 454,-3364.4 454,-3228.4 10,-3228.4"/>
<text text-anchor="middle" x="232" y="-3347.8" font-family="Master Photograph" font-size="14.00">2012</text>
</g>
<g id="clust24" class="cluster">
<title>%47</title>
</g>
<g id="clust25" class="cluster">
<title>cluster_2013</title>
<polygon fill="none" stroke="black" stroke-width="0.2" stroke-dasharray="5,2" points="10,-2983.6 10,-3119.6 454,-3119.6 454,-2983.6 10,-2983.6"/>
<text text-anchor="middle" x="232" y="-3103" font-family="Master Photograph" font-size="14.00">2013</text>
</g>
<g id="clust26" class="cluster">
<title>%51</title>
</g>
<g id="clust27" class="cluster">
<title>cluster_2014</title>
<polygon fill="none" stroke="black" stroke-width="0.2" stroke-dasharray="5,2" points="10,-2738.8 10,-2874.8 454,-2874.8 454,-2738.8 10,-2738.8"/>
<text text-anchor="middle" x="232" y="-2858.2" font-family="Master Photograph" font-size="14.00">2014</text>
</g>
<g id="clust28" class="cluster">
<title>%55</title>
</g>
<g id="clust29" class="cluster">
<title>cluster_2015</title>
<polygon fill="none" stroke="black" stroke-width="0.2" stroke-dasharray="5,2" points="10,-2494 10,-2630 448,-2630 448,-2494 10,-2494"/>
<text text-anchor="middle" x="229" y="-2613.4" font-family="Master Photograph" font-size="14.00">2015</text>
</g>
<g id="clust30" class="cluster">
<title>%59</title>
</g>
<g id="clust31" class="cluster">
<title>cluster_2016</title>
<polygon fill="none" stroke="black" stroke-width="0.2" stroke-dasharray="5,2" points="10,-2249.2 10,-2385.2 448,-2385.2 448,-2249.2 10,-2249.2"/>
<text text-anchor="middle" x="229" y="-2368.6" font-family="Master Photograph" font-size="14.00">2016</text>
</g>
<g id="clust32" class="cluster">
<title>%63</title>
</g>
<g id="clust33" class="cluster">
<title>cluster_2017</title>
<polygon fill="none" stroke="black" stroke-width="0.2" stroke-dasharray="5,2" points="24,-2004.4 24,-2140.4 434,-2140.4 434,-2004.4 24,-2004.4"/>
<text text-anchor="middle" x="229" y="-2123.8" font-family="Master Photograph" font-size="14.00">2017</text>
</g>
<g id="clust34" class="cluster">
<title>%67</title>
</g>
<g id="clust35" class="cluster">
<title>cluster_2018</title>
<polygon fill="none" stroke="black" stroke-width="0.2" stroke-dasharray="5,2" points="10,-1759.6 10,-1895.6 448,-1895.6 448,-1759.6 10,-1759.6"/>
<text text-anchor="middle" x="229" y="-1879" font-family="Master Photograph" font-size="14.00">2018</text>
</g>
<g id="clust36" class="cluster">
<title>%71</title>
</g>
<g id="clust37" class="cluster">
<title>cluster_2019</title>
<polygon fill="none" stroke="black" stroke-width="0.2" stroke-dasharray="5,2" points="10,-1514.8 10,-1650.8 448,-1650.8 448,-1514.8 10,-1514.8"/>
<text text-anchor="middle" x="229" y="-1634.2" font-family="Master Photograph" font-size="14.00">2019</text>
</g>
<g id="clust38" class="cluster">
<title>%75</title>
</g>
<g id="clust39" class="cluster">
<title>cluster_2020</title>
<polygon fill="none" stroke="black" stroke-width="0.2" stroke-dasharray="5,2" points="26,-1270 26,-1406 432,-1406 432,-1270 26,-1270"/>
<text text-anchor="middle" x="229" y="-1389.4" font-family="Master Photograph" font-size="14.00">2020</text>
</g>
<g id="clust40" class="cluster">
<title>%79</title>
</g>
<g id="clust41" class="cluster">
<title>cluster_2021</title>
<polygon fill="none" stroke="black" stroke-width="0.2" stroke-dasharray="5,2" points="33,-1025.2 33,-1161.2 425,-1161.2 425,-1025.2 33,-1025.2"/>
<text text-anchor="middle" x="229" y="-1144.6" font-family="Master Photograph" font-size="14.00">2021</text>
</g>
<g id="clust42" class="cluster">
<title>%83</title>
</g>
<g id="clust43" class="cluster">
<title>cluster_2022</title>
<polygon fill="none" stroke="black" stroke-width="0.2" stroke-dasharray="5,2" points="10,-780.4 10,-916.4 448,-916.4 448,-780.4 10,-780.4"/>
<text text-anchor="middle" x="229" y="-899.8" font-family="Master Photograph" font-size="14.00">2022</text>
</g>
<g id="clust44" class="cluster">
<title>%87</title>
</g>
<g id="clust45" class="cluster">
<title>cluster_2023</title>
<polygon fill="none" stroke="black" stroke-width="0.2" stroke-dasharray="5,2" points="10,-535.6 10,-671.6 448,-671.6 448,-535.6 10,-535.6"/>
<text text-anchor="middle" x="229" y="-655" font-family="Master Photograph" font-size="14.00">2023</text>
</g>
<g id="clust46" class="cluster">
<title>%91</title>
</g>
<g id="clust47" class="cluster">
<title>cluster_2024</title>
<polygon fill="none" stroke="black" stroke-width="0.2" stroke-dasharray="5,2" points="10,-252.8 10,-388.8 426,-388.8 426,-252.8 10,-252.8"/>
<text text-anchor="middle" x="218" y="-372.2" font-family="Master Photograph" font-size="14.00">2024</text>
</g>
<g id="clust48" class="cluster">
<title>%95</title>
</g>
<g id="clust49" class="cluster">
<title>cluster_2025</title>
<polygon fill="none" stroke="black" stroke-width="0.2" stroke-dasharray="5,2" points="10,-8 10,-144 358,-144 358,-8 10,-8"/>
<text text-anchor="middle" x="184" y="-127.4" font-family="Master Photograph" font-size="14.00">2025</text>
</g>
<g id="clust50" class="cluster">
<title>%99</title>
</g>
<!-- Evoke 2000 -->
<g id="node1" class="node">
<title>Evoke 2000</title>
<ellipse fill="none" stroke="#aacf1f" cx="105" cy="-6052.8" rx="79.26" ry="22.63"/>
<text text-anchor="middle" x="105" y="-6046.8" font-family="Simple Plan" font-size="20.00">Evoke 2000</text>
</g>
<!-- Evoke 2002 -->
<g id="node3" class="node">
<title>Evoke 2002</title>
<ellipse fill="none" stroke="#aacf1f" cx="105" cy="-5770" rx="79.26" ry="22.63"/>
<text text-anchor="middle" x="105" y="-5764" font-family="Simple Plan" font-size="20.00">Evoke 2002</text>
</g>
<!-- Evoke 2000&#45;&gt;Evoke 2002 -->
<g id="edge26" class="edge">
<title>Evoke 2000&#45;&gt;Evoke 2002</title>
<path fill="none" stroke="#aacf1f" stroke-width="0.5" d="M105,-6029.98C105,-6013.55 105,-5990.46 105,-5970.2 105,-5970.2 105,-5970.2 105,-5877.4 105,-5852.66 105,-5824.68 105,-5803.63"/>
<polygon fill="#aacf1f" stroke="#aacf1f" stroke-width="0.5" points="108.5,-5803.76 105,-5793.76 101.5,-5803.76 108.5,-5803.76"/>
<text text-anchor="middle" x="141.62" y="-5919.6" font-family="Master Photograph" font-size="14.00">2y 12d +0ms</text>
</g>
<!-- annotation0 -->
<g id="node2" class="node">
<title>annotation0</title>
<text text-anchor="middle" x="329" y="-6065.4" font-family="Simple Plan" font-size="14.00">Fri Aug 18 2000</text>
<text text-anchor="middle" x="329" y="-6048.6" font-family="Simple Plan" font-size="14.00">0ms</text>
<text text-anchor="middle" x="329" y="-6031.8" font-family="Simple Plan" font-size="14.00">&#45;24y &#45;291d &#45;14h &#45;4m &#45;59s &#45;352ms</text>
</g>
<!-- annotation0&#45;&gt;Evoke 2000 -->
<g id="edge1" class="edge">
<title>annotation0&#45;&gt;Evoke 2000</title>
<path fill="none" stroke="black" stroke-width="0.5" stroke-dasharray="1,5" d="M329,-6052.8C280.88,-6052.8 232.75,-6052.8 184.62,-6052.8"/>
</g>
<!-- Evoke Z003 -->
<g id="node5" class="node">
<title>Evoke Z003</title>
<ellipse fill="none" stroke="#aacf1f" cx="105" cy="-5525.2" rx="80.83" ry="22.63"/>
<text text-anchor="middle" x="105" y="-5519.2" font-family="Simple Plan" font-size="20.00">Evoke Z003</text>
</g>
<!-- Evoke 2002&#45;&gt;Evoke Z003 -->
<g id="edge27" class="edge">
<title>Evoke 2002&#45;&gt;Evoke Z003</title>
<path fill="none" stroke="#aacf1f" stroke-width="0.5" d="M105,-5747.02C105,-5704.16 105,-5609.18 105,-5558.9"/>
<polygon fill="#aacf1f" stroke="#aacf1f" stroke-width="0.5" points="108.5,-5559.06 105,-5549.06 101.5,-5559.06 108.5,-5559.06"/>
<text text-anchor="middle" x="136.37" y="-5655.8" font-family="Master Photograph" font-size="14.00">355d +0ms</text>
</g>
<!-- annotation1 -->
<g id="node4" class="node">
<title>annotation1</title>
<text text-anchor="middle" x="329" y="-5782.6" font-family="Simple Plan" font-size="14.00">Fri Aug 30 2002</text>
<text text-anchor="middle" x="329" y="-5765.8" font-family="Simple Plan" font-size="14.00">2y 12d</text>
<text text-anchor="middle" x="329" y="-5749" font-family="Simple Plan" font-size="14.00">&#45;22y &#45;279d &#45;14h &#45;4m &#45;59s &#45;352ms</text>
</g>
<!-- annotation1&#45;&gt;Evoke 2002 -->
<g id="edge2" class="edge">
<title>annotation1&#45;&gt;Evoke 2002</title>
<path fill="none" stroke="black" stroke-width="0.5" stroke-dasharray="1,5" d="M329,-5770C280.88,-5770 232.75,-5770 184.62,-5770"/>
</g>
<!-- Evoke 2004 -->
<g id="node7" class="node">
<title>Evoke 2004</title>
<ellipse fill="none" stroke="#aacf1f" cx="105" cy="-5280.4" rx="79.26" ry="22.63"/>
<text text-anchor="middle" x="105" y="-5274.4" font-family="Simple Plan" font-size="20.00">Evoke 2004</text>
</g>
<!-- Evoke Z003&#45;&gt;Evoke 2004 -->
<g id="edge28" class="edge">
<title>Evoke Z003&#45;&gt;Evoke 2004</title>
<path fill="none" stroke="#aacf1f" stroke-width="0.5" d="M105,-5502.22C105,-5459.36 105,-5364.38 105,-5314.1"/>
<polygon fill="#aacf1f" stroke="#aacf1f" stroke-width="0.5" points="108.5,-5314.26 105,-5304.26 101.5,-5314.26 108.5,-5314.26"/>
<text text-anchor="middle" x="138.12" y="-5411" font-family="Master Photograph" font-size="14.00">1y 8d +0ms</text>
</g>
<!-- annotation2 -->
<g id="node6" class="node">
<title>annotation2</title>
<text text-anchor="middle" x="331" y="-5537.8" font-family="Simple Plan" font-size="14.00">Wed Aug 20 2003</text>
<text text-anchor="middle" x="331" y="-5521" font-family="Simple Plan" font-size="14.00">3y 2d</text>
<text text-anchor="middle" x="331" y="-5504.2" font-family="Simple Plan" font-size="14.00">&#45;21y &#45;289d &#45;14h &#45;4m &#45;59s &#45;352ms</text>
</g>
<!-- annotation2&#45;&gt;Evoke Z003 -->
<g id="edge3" class="edge">
<title>annotation2&#45;&gt;Evoke Z003</title>
<path fill="none" stroke="black" stroke-width="0.5" stroke-dasharray="1,5" d="M331,-5525.2C282.74,-5525.2 234.48,-5525.2 186.22,-5525.2"/>
</g>
<!-- Evoke 2005 -->
<g id="node9" class="node">
<title>Evoke 2005</title>
<ellipse fill="none" stroke="#aacf1f" cx="105" cy="-5035.6" rx="79.26" ry="22.63"/>
<text text-anchor="middle" x="105" y="-5029.6" font-family="Simple Plan" font-size="20.00">Evoke 2005</text>
</g>
<!-- Evoke 2004&#45;&gt;Evoke 2005 -->
<g id="edge29" class="edge">
<title>Evoke 2004&#45;&gt;Evoke 2005</title>
<path fill="none" stroke="#aacf1f" stroke-width="0.5" d="M105,-5257.42C105,-5214.56 105,-5119.58 105,-5069.3"/>
<polygon fill="#aacf1f" stroke="#aacf1f" stroke-width="0.5" points="108.5,-5069.46 105,-5059.46 101.5,-5069.46 108.5,-5069.46"/>
<text text-anchor="middle" x="136.37" y="-5166.2" font-family="Master Photograph" font-size="14.00">364d +0ms</text>
</g>
<!-- annotation3 -->
<g id="node8" class="node">
<title>annotation3</title>
<text text-anchor="middle" x="329" y="-5293" font-family="Simple Plan" font-size="14.00">Fri Aug 27 2004</text>
<text text-anchor="middle" x="329" y="-5276.2" font-family="Simple Plan" font-size="14.00">4y 10d</text>
<text text-anchor="middle" x="329" y="-5259.4" font-family="Simple Plan" font-size="14.00">&#45;20y &#45;281d &#45;14h &#45;4m &#45;59s &#45;352ms</text>
</g>
<!-- annotation3&#45;&gt;Evoke 2004 -->
<g id="edge4" class="edge">
<title>annotation3&#45;&gt;Evoke 2004</title>
<path fill="none" stroke="black" stroke-width="0.5" stroke-dasharray="1,5" d="M329,-5280.4C280.88,-5280.4 232.75,-5280.4 184.62,-5280.4"/>
</g>
<!-- Evoke 2006 -->
<g id="node11" class="node">
<title>Evoke 2006</title>
<ellipse fill="none" stroke="#aacf1f" cx="105" cy="-4790.8" rx="79.26" ry="22.63"/>
<text text-anchor="middle" x="105" y="-4784.8" font-family="Simple Plan" font-size="20.00">Evoke 2006</text>
</g>
<!-- Evoke 2005&#45;&gt;Evoke 2006 -->
<g id="edge30" class="edge">
<title>Evoke 2005&#45;&gt;Evoke 2006</title>
<path fill="none" stroke="#aacf1f" stroke-width="0.5" d="M105,-5012.62C105,-4969.76 105,-4874.78 105,-4824.5"/>
<polygon fill="#aacf1f" stroke="#aacf1f" stroke-width="0.5" points="108.5,-4824.66 105,-4814.66 101.5,-4824.66 108.5,-4824.66"/>
<text text-anchor="middle" x="136.37" y="-4921.4" font-family="Master Photograph" font-size="14.00">350d +0ms</text>
</g>
<!-- annotation4 -->
<g id="node10" class="node">
<title>annotation4</title>
<text text-anchor="middle" x="329" y="-5048.2" font-family="Simple Plan" font-size="14.00">Fri Aug 26 2005</text>
<text text-anchor="middle" x="329" y="-5031.4" font-family="Simple Plan" font-size="14.00">5y 9d</text>
<text text-anchor="middle" x="329" y="-5014.6" font-family="Simple Plan" font-size="14.00">&#45;19y &#45;282d &#45;14h &#45;4m &#45;59s &#45;352ms</text>
</g>
<!-- annotation4&#45;&gt;Evoke 2005 -->
<g id="edge5" class="edge">
<title>annotation4&#45;&gt;Evoke 2005</title>
<path fill="none" stroke="black" stroke-width="0.5" stroke-dasharray="1,5" d="M329,-5035.6C280.88,-5035.6 232.75,-5035.6 184.62,-5035.6"/>
</g>
<!-- Evoke 10 -->
<g id="node13" class="node">
<title>Evoke 10</title>
<ellipse fill="none" stroke="#aacf1f" cx="105" cy="-4546" rx="65.12" ry="22.63"/>
<text text-anchor="middle" x="105" y="-4540" font-family="Simple Plan" font-size="20.00">Evoke 10</text>
</g>
<!-- Evoke 2006&#45;&gt;Evoke 10 -->
<g id="edge31" class="edge">
<title>Evoke 2006&#45;&gt;Evoke 10</title>
<path fill="none" stroke="#aacf1f" stroke-width="0.5" d="M105,-4767.82C105,-4724.96 105,-4629.98 105,-4579.7"/>
<polygon fill="#aacf1f" stroke="#aacf1f" stroke-width="0.5" points="108.5,-4579.86 105,-4569.86 101.5,-4579.86 108.5,-4579.86"/>
<text text-anchor="middle" x="136.37" y="-4676.6" font-family="Master Photograph" font-size="14.00">364d +0ms</text>
</g>
<!-- annotation5 -->
<g id="node12" class="node">
<title>annotation5</title>
<text text-anchor="middle" x="329" y="-4803.4" font-family="Simple Plan" font-size="14.00">Fri Aug 11 2006</text>
<text text-anchor="middle" x="329" y="-4786.6" font-family="Simple Plan" font-size="14.00">5y 359d</text>
<text text-anchor="middle" x="329" y="-4769.8" font-family="Simple Plan" font-size="14.00">&#45;18y &#45;297d &#45;14h &#45;4m &#45;59s &#45;352ms</text>
</g>
<!-- annotation5&#45;&gt;Evoke 2006 -->
<g id="edge6" class="edge">
<title>annotation5&#45;&gt;Evoke 2006</title>
<path fill="none" stroke="black" stroke-width="0.5" stroke-dasharray="1,5" d="M329,-4790.8C280.88,-4790.8 232.75,-4790.8 184.62,-4790.8"/>
</g>
<!-- Evoke 2008 -->
<g id="node15" class="node">
<title>Evoke 2008</title>
<ellipse fill="none" stroke="#aacf1f" cx="105" cy="-4301.2" rx="79.26" ry="22.63"/>
<text text-anchor="middle" x="105" y="-4295.2" font-family="Simple Plan" font-size="20.00">Evoke 2008</text>
</g>
<!-- Evoke 10&#45;&gt;Evoke 2008 -->
<g id="edge32" class="edge">
<title>Evoke 10&#45;&gt;Evoke 2008</title>
<path fill="none" stroke="#aacf1f" stroke-width="0.5" d="M105,-4523.02C105,-4480.16 105,-4385.18 105,-4334.9"/>
<polygon fill="#aacf1f" stroke="#aacf1f" stroke-width="0.5" points="108.5,-4335.06 105,-4325.06 101.5,-4335.06 108.5,-4335.06"/>
<text text-anchor="middle" x="136.37" y="-4431.8" font-family="Master Photograph" font-size="14.00">364d +0ms</text>
</g>
<!-- annotation6 -->
<g id="node14" class="node">
<title>annotation6</title>
<text text-anchor="middle" x="315" y="-4558.6" font-family="Simple Plan" font-size="14.00">Fri Aug 10 2007</text>
<text text-anchor="middle" x="315" y="-4541.8" font-family="Simple Plan" font-size="14.00">6y 358d</text>
<text text-anchor="middle" x="315" y="-4525" font-family="Simple Plan" font-size="14.00">&#45;17y &#45;298d &#45;14h &#45;4m &#45;59s &#45;353ms</text>
</g>
<!-- annotation6&#45;&gt;Evoke 10 -->
<g id="edge7" class="edge">
<title>annotation6&#45;&gt;Evoke 10</title>
<path fill="none" stroke="black" stroke-width="0.5" stroke-dasharray="1,5" d="M315,-4546C266.74,-4546 218.48,-4546 170.21,-4546"/>
</g>
<!-- Evoke 2009 -->
<g id="node17" class="node">
<title>Evoke 2009</title>
<ellipse fill="none" stroke="#aacf1f" cx="105" cy="-4056.4" rx="79.26" ry="22.63"/>
<text text-anchor="middle" x="105" y="-4050.4" font-family="Simple Plan" font-size="20.00">Evoke 2009</text>
</g>
<!-- Evoke 2008&#45;&gt;Evoke 2009 -->
<g id="edge33" class="edge">
<title>Evoke 2008&#45;&gt;Evoke 2009</title>
<path fill="none" stroke="#aacf1f" stroke-width="0.5" d="M105,-4278.22C105,-4235.36 105,-4140.38 105,-4090.1"/>
<polygon fill="#aacf1f" stroke="#aacf1f" stroke-width="0.5" points="108.5,-4090.26 105,-4080.26 101.5,-4090.26 108.5,-4090.26"/>
<text text-anchor="middle" x="136.37" y="-4187" font-family="Master Photograph" font-size="14.00">357d +0ms</text>
</g>
<!-- annotation7 -->
<g id="node16" class="node">
<title>annotation7</title>
<text text-anchor="middle" x="329" y="-4313.8" font-family="Simple Plan" font-size="14.00">Fri Aug 08 2008</text>
<text text-anchor="middle" x="329" y="-4297" font-family="Simple Plan" font-size="14.00">7y 357d</text>
<text text-anchor="middle" x="329" y="-4280.2" font-family="Simple Plan" font-size="14.00">&#45;16y &#45;299d &#45;14h &#45;4m &#45;59s &#45;353ms</text>
</g>
<!-- annotation7&#45;&gt;Evoke 2008 -->
<g id="edge8" class="edge">
<title>annotation7&#45;&gt;Evoke 2008</title>
<path fill="none" stroke="black" stroke-width="0.5" stroke-dasharray="1,5" d="M329,-4301.2C280.88,-4301.2 232.75,-4301.2 184.62,-4301.2"/>
</g>
<!-- Evoke 2010 -->
<g id="node19" class="node">
<title>Evoke 2010</title>
<ellipse fill="none" stroke="#aacf1f" cx="105" cy="-3773.6" rx="79.26" ry="22.63"/>
<text text-anchor="middle" x="105" y="-3767.6" font-family="Simple Plan" font-size="20.00">Evoke 2010</text>
</g>
<!-- Evoke 2009&#45;&gt;Evoke 2010 -->
<g id="edge34" class="edge">
<title>Evoke 2009&#45;&gt;Evoke 2010</title>
<path fill="none" stroke="#aacf1f" stroke-width="0.5" d="M105,-4033.58C105,-4017.15 105,-3994.06 105,-3973.8 105,-3973.8 105,-3973.8 105,-3881 105,-3856.26 105,-3828.28 105,-3807.23"/>
<polygon fill="#aacf1f" stroke="#aacf1f" stroke-width="0.5" points="108.5,-3807.36 105,-3797.36 101.5,-3807.36 108.5,-3807.36"/>
<text text-anchor="middle" x="141.62" y="-3923.2" font-family="Master Photograph" font-size="14.00">1y 27d +0ms</text>
</g>
<!-- annotation8 -->
<g id="node18" class="node">
<title>annotation8</title>
<text text-anchor="middle" x="329" y="-4069" font-family="Simple Plan" font-size="14.00">Fri Jul 31 2009</text>
<text text-anchor="middle" x="329" y="-4052.2" font-family="Simple Plan" font-size="14.00">8y 349d</text>
<text text-anchor="middle" x="329" y="-4035.4" font-family="Simple Plan" font-size="14.00">&#45;15y &#45;307d &#45;14h &#45;4m &#45;59s &#45;353ms</text>
</g>
<!-- annotation8&#45;&gt;Evoke 2009 -->
<g id="edge9" class="edge">
<title>annotation8&#45;&gt;Evoke 2009</title>
<path fill="none" stroke="black" stroke-width="0.5" stroke-dasharray="1,5" d="M329,-4056.4C280.88,-4056.4 232.75,-4056.4 184.62,-4056.4"/>
</g>
<!-- Evoke 2011 -->
<g id="node21" class="node">
<title>Evoke 2011</title>
<ellipse fill="none" stroke="#aacf1f" cx="105" cy="-3528.8" rx="79.26" ry="22.63"/>
<text text-anchor="middle" x="105" y="-3522.8" font-family="Simple Plan" font-size="20.00">Evoke 2011</text>
</g>
<!-- Evoke 2010&#45;&gt;Evoke 2011 -->
<g id="edge35" class="edge">
<title>Evoke 2010&#45;&gt;Evoke 2011</title>
<path fill="none" stroke="#aacf1f" stroke-width="0.5" d="M105,-3750.62C105,-3707.76 105,-3612.78 105,-3562.5"/>
<polygon fill="#aacf1f" stroke="#aacf1f" stroke-width="0.5" points="108.5,-3562.66 105,-3552.66 101.5,-3562.66 108.5,-3562.66"/>
<text text-anchor="middle" x="136.37" y="-3659.4" font-family="Master Photograph" font-size="14.00">350d +0ms</text>
</g>
<!-- annotation9 -->
<g id="node20" class="node">
<title>annotation9</title>
<text text-anchor="middle" x="329" y="-3786.2" font-family="Simple Plan" font-size="14.00">Fri Aug 27 2010</text>
<text text-anchor="middle" x="329" y="-3769.4" font-family="Simple Plan" font-size="14.00">10y 11d</text>
<text text-anchor="middle" x="329" y="-3752.6" font-family="Simple Plan" font-size="14.00">&#45;14y &#45;280d &#45;14h &#45;4m &#45;59s &#45;353ms</text>
</g>
<!-- annotation9&#45;&gt;Evoke 2010 -->
<g id="edge10" class="edge">
<title>annotation9&#45;&gt;Evoke 2010</title>
<path fill="none" stroke="black" stroke-width="0.5" stroke-dasharray="1,5" d="M329,-3773.6C280.88,-3773.6 232.75,-3773.6 184.62,-3773.6"/>
</g>
<!-- Evoke 2012 -->
<g id="node23" class="node">
<title>Evoke 2012</title>
<ellipse fill="none" stroke="#aacf1f" cx="105" cy="-3284" rx="79.26" ry="22.63"/>
<text text-anchor="middle" x="105" y="-3278" font-family="Simple Plan" font-size="20.00">Evoke 2012</text>
</g>
<!-- Evoke 2011&#45;&gt;Evoke 2012 -->
<g id="edge36" class="edge">
<title>Evoke 2011&#45;&gt;Evoke 2012</title>
<path fill="none" stroke="#aacf1f" stroke-width="0.5" d="M105,-3505.82C105,-3462.96 105,-3367.98 105,-3317.7"/>
<polygon fill="#aacf1f" stroke="#aacf1f" stroke-width="0.5" points="108.5,-3317.86 105,-3307.86 101.5,-3317.86 108.5,-3317.86"/>
<text text-anchor="middle" x="136.37" y="-3414.6" font-family="Master Photograph" font-size="14.00">364d +0ms</text>
</g>
<!-- annotation10 -->
<g id="node22" class="node">
<title>annotation10</title>
<text text-anchor="middle" x="329" y="-3541.4" font-family="Simple Plan" font-size="14.00">Fri Aug 12 2011</text>
<text text-anchor="middle" x="329" y="-3524.6" font-family="Simple Plan" font-size="14.00">10y 361d</text>
<text text-anchor="middle" x="329" y="-3507.8" font-family="Simple Plan" font-size="14.00">&#45;13y &#45;295d &#45;14h &#45;4m &#45;59s &#45;353ms</text>
</g>
<!-- annotation10&#45;&gt;Evoke 2011 -->
<g id="edge11" class="edge">
<title>annotation10&#45;&gt;Evoke 2011</title>
<path fill="none" stroke="black" stroke-width="0.5" stroke-dasharray="1,5" d="M329,-3528.8C280.88,-3528.8 232.75,-3528.8 184.62,-3528.8"/>
</g>
<!-- Evoke 2013 -->
<g id="node25" class="node">
<title>Evoke 2013</title>
<ellipse fill="none" stroke="#aacf1f" cx="105" cy="-3039.2" rx="79.26" ry="22.63"/>
<text text-anchor="middle" x="105" y="-3033.2" font-family="Simple Plan" font-size="20.00">Evoke 2013</text>
</g>
<!-- Evoke 2012&#45;&gt;Evoke 2013 -->
<g id="edge37" class="edge">
<title>Evoke 2012&#45;&gt;Evoke 2013</title>
<path fill="none" stroke="#aacf1f" stroke-width="0.5" d="M105,-3261.02C105,-3218.16 105,-3123.18 105,-3072.9"/>
<polygon fill="#aacf1f" stroke="#aacf1f" stroke-width="0.5" points="108.5,-3073.06 105,-3063.06 101.5,-3073.06 108.5,-3073.06"/>
<text text-anchor="middle" x="138.12" y="-3169.8" font-family="Master Photograph" font-size="14.00">1y 6d +0ms</text>
</g>
<!-- annotation11 -->
<g id="node24" class="node">
<title>annotation11</title>
<text text-anchor="middle" x="329" y="-3296.6" font-family="Simple Plan" font-size="14.00">Fri Aug 10 2012</text>
<text text-anchor="middle" x="329" y="-3279.8" font-family="Simple Plan" font-size="14.00">11y 360d</text>
<text text-anchor="middle" x="329" y="-3263" font-family="Simple Plan" font-size="14.00">&#45;12y &#45;296d &#45;14h &#45;4m &#45;59s &#45;353ms</text>
</g>
<!-- annotation11&#45;&gt;Evoke 2012 -->
<g id="edge12" class="edge">
<title>annotation11&#45;&gt;Evoke 2012</title>
<path fill="none" stroke="black" stroke-width="0.5" stroke-dasharray="1,5" d="M329,-3284C280.88,-3284 232.75,-3284 184.62,-3284"/>
</g>
<!-- Evoke 2014 -->
<g id="node27" class="node">
<title>Evoke 2014</title>
<ellipse fill="none" stroke="#aacf1f" cx="105" cy="-2794.4" rx="79.26" ry="22.63"/>
<text text-anchor="middle" x="105" y="-2788.4" font-family="Simple Plan" font-size="20.00">Evoke 2014</text>
</g>
<!-- Evoke 2013&#45;&gt;Evoke 2014 -->
<g id="edge38" class="edge">
<title>Evoke 2013&#45;&gt;Evoke 2014</title>
<path fill="none" stroke="#aacf1f" stroke-width="0.5" d="M105,-3016.22C105,-2973.36 105,-2878.38 105,-2828.1"/>
<polygon fill="#aacf1f" stroke="#aacf1f" stroke-width="0.5" points="108.5,-2828.26 105,-2818.26 101.5,-2828.26 108.5,-2828.26"/>
<text text-anchor="middle" x="136.37" y="-2925" font-family="Master Photograph" font-size="14.00">357d +0ms</text>
</g>
<!-- annotation12 -->
<g id="node26" class="node">
<title>annotation12</title>
<text text-anchor="middle" x="329" y="-3051.8" font-family="Simple Plan" font-size="14.00">Fri Aug 16 2013</text>
<text text-anchor="middle" x="329" y="-3035" font-family="Simple Plan" font-size="14.00">13y 1d</text>
<text text-anchor="middle" x="329" y="-3018.2" font-family="Simple Plan" font-size="14.00">&#45;11y &#45;290d &#45;14h &#45;4m &#45;59s &#45;353ms</text>
</g>
<!-- annotation12&#45;&gt;Evoke 2013 -->
<g id="edge13" class="edge">
<title>annotation12&#45;&gt;Evoke 2013</title>
<path fill="none" stroke="black" stroke-width="0.5" stroke-dasharray="1,5" d="M329,-3039.2C280.88,-3039.2 232.75,-3039.2 184.62,-3039.2"/>
</g>
<!-- Evoke 2015 -->
<g id="node29" class="node">
<title>Evoke 2015</title>
<ellipse fill="none" stroke="#aacf1f" cx="105" cy="-2549.6" rx="79.26" ry="22.63"/>
<text text-anchor="middle" x="105" y="-2543.6" font-family="Simple Plan" font-size="20.00">Evoke 2015</text>
</g>
<!-- Evoke 2014&#45;&gt;Evoke 2015 -->
<g id="edge39" class="edge">
<title>Evoke 2014&#45;&gt;Evoke 2015</title>
<path fill="none" stroke="#aacf1f" stroke-width="0.5" d="M105,-2771.42C105,-2728.56 105,-2633.58 105,-2583.3"/>
<polygon fill="#aacf1f" stroke="#aacf1f" stroke-width="0.5" points="108.5,-2583.46 105,-2573.46 101.5,-2583.46 108.5,-2583.46"/>
<text text-anchor="middle" x="136.37" y="-2680.2" font-family="Master Photograph" font-size="14.00">357d +0ms</text>
</g>
<!-- annotation13 -->
<g id="node28" class="node">
<title>annotation13</title>
<text text-anchor="middle" x="329" y="-2807" font-family="Simple Plan" font-size="14.00">Fri Aug 08 2014</text>
<text text-anchor="middle" x="329" y="-2790.2" font-family="Simple Plan" font-size="14.00">13y 358d</text>
<text text-anchor="middle" x="329" y="-2773.4" font-family="Simple Plan" font-size="14.00">&#45;10y &#45;298d &#45;14h &#45;4m &#45;59s &#45;353ms</text>
</g>
<!-- annotation13&#45;&gt;Evoke 2014 -->
<g id="edge14" class="edge">
<title>annotation13&#45;&gt;Evoke 2014</title>
<path fill="none" stroke="black" stroke-width="0.5" stroke-dasharray="1,5" d="M329,-2794.4C280.88,-2794.4 232.75,-2794.4 184.62,-2794.4"/>
</g>
<!-- Evoke 2016 -->
<g id="node31" class="node">
<title>Evoke 2016</title>
<ellipse fill="none" stroke="#aacf1f" cx="105" cy="-2304.8" rx="79.26" ry="22.63"/>
<text text-anchor="middle" x="105" y="-2298.8" font-family="Simple Plan" font-size="20.00">Evoke 2016</text>
</g>
<!-- Evoke 2015&#45;&gt;Evoke 2016 -->
<g id="edge40" class="edge">
<title>Evoke 2015&#45;&gt;Evoke 2016</title>
<path fill="none" stroke="#aacf1f" stroke-width="0.5" d="M105,-2526.62C105,-2483.76 105,-2388.78 105,-2338.5"/>
<polygon fill="#aacf1f" stroke="#aacf1f" stroke-width="0.5" points="108.5,-2338.66 105,-2328.66 101.5,-2338.66 108.5,-2338.66"/>
<text text-anchor="middle" x="141.62" y="-2435.4" font-family="Master Photograph" font-size="14.00">1y 13d +0ms</text>
</g>
<!-- annotation14 -->
<g id="node30" class="node">
<title>annotation14</title>
<text text-anchor="middle" x="326" y="-2562.2" font-family="Simple Plan" font-size="14.00">Fri Jul 31 2015</text>
<text text-anchor="middle" x="326" y="-2545.4" font-family="Simple Plan" font-size="14.00">14y 350d</text>
<text text-anchor="middle" x="326" y="-2528.6" font-family="Simple Plan" font-size="14.00">&#45;9y &#45;306d &#45;14h &#45;4m &#45;59s &#45;353ms</text>
</g>
<!-- annotation14&#45;&gt;Evoke 2015 -->
<g id="edge15" class="edge">
<title>annotation14&#45;&gt;Evoke 2015</title>
<path fill="none" stroke="black" stroke-width="0.5" stroke-dasharray="1,5" d="M326,-2549.6C278.81,-2549.6 231.61,-2549.6 184.42,-2549.6"/>
</g>
<!-- Evoke 20 -->
<g id="node33" class="node">
<title>Evoke 20</title>
<ellipse fill="none" stroke="#aacf1f" cx="105" cy="-2060" rx="65.12" ry="22.63"/>
<text text-anchor="middle" x="105" y="-2054" font-family="Simple Plan" font-size="20.00">Evoke 20</text>
</g>
<!-- Evoke 2016&#45;&gt;Evoke 20 -->
<g id="edge41" class="edge">
<title>Evoke 2016&#45;&gt;Evoke 20</title>
<path fill="none" stroke="#aacf1f" stroke-width="0.5" d="M105,-2281.82C105,-2238.96 105,-2143.98 105,-2093.7"/>
<polygon fill="#aacf1f" stroke="#aacf1f" stroke-width="0.5" points="108.5,-2093.86 105,-2083.86 101.5,-2093.86 108.5,-2093.86"/>
<text text-anchor="middle" x="138.12" y="-2190.6" font-family="Master Photograph" font-size="14.00">1y 6d +0ms</text>
</g>
<!-- annotation15 -->
<g id="node32" class="node">
<title>annotation15</title>
<text text-anchor="middle" x="326" y="-2317.4" font-family="Simple Plan" font-size="14.00">Fri Aug 12 2016</text>
<text text-anchor="middle" x="326" y="-2300.6" font-family="Simple Plan" font-size="14.00">15y 363d</text>
<text text-anchor="middle" x="326" y="-2283.8" font-family="Simple Plan" font-size="14.00">&#45;8y &#45;293d &#45;14h &#45;4m &#45;59s &#45;353ms</text>
</g>
<!-- annotation15&#45;&gt;Evoke 2016 -->
<g id="edge16" class="edge">
<title>annotation15&#45;&gt;Evoke 2016</title>
<path fill="none" stroke="black" stroke-width="0.5" stroke-dasharray="1,5" d="M326,-2304.8C278.81,-2304.8 231.61,-2304.8 184.42,-2304.8"/>
</g>
<!-- Evoke 2018 -->
<g id="node35" class="node">
<title>Evoke 2018</title>
<ellipse fill="none" stroke="#aacf1f" cx="105" cy="-1815.2" rx="79.26" ry="22.63"/>
<text text-anchor="middle" x="105" y="-1809.2" font-family="Simple Plan" font-size="20.00">Evoke 2018</text>
</g>
<!-- Evoke 20&#45;&gt;Evoke 2018 -->
<g id="edge42" class="edge">
<title>Evoke 20&#45;&gt;Evoke 2018</title>
<path fill="none" stroke="#aacf1f" stroke-width="0.5" d="M105,-2037.02C105,-1994.16 105,-1899.18 105,-1848.9"/>
<polygon fill="#aacf1f" stroke="#aacf1f" stroke-width="0.5" points="108.5,-1849.06 105,-1839.06 101.5,-1849.06 108.5,-1849.06"/>
<text text-anchor="middle" x="136.37" y="-1945.8" font-family="Master Photograph" font-size="14.00">364d +0ms</text>
</g>
<!-- annotation16 -->
<g id="node34" class="node">
<title>annotation16</title>
<text text-anchor="middle" x="312" y="-2072.6" font-family="Simple Plan" font-size="14.00">Fri Aug 18 2017</text>
<text text-anchor="middle" x="312" y="-2055.8" font-family="Simple Plan" font-size="14.00">17y 4d</text>
<text text-anchor="middle" x="312" y="-2039" font-family="Simple Plan" font-size="14.00">&#45;7y &#45;287d &#45;14h &#45;4m &#45;59s &#45;353ms</text>
</g>
<!-- annotation16&#45;&gt;Evoke 20 -->
<g id="edge17" class="edge">
<title>annotation16&#45;&gt;Evoke 20</title>
<path fill="none" stroke="black" stroke-width="0.5" stroke-dasharray="1,5" d="M312,-2060C264.83,-2060 217.66,-2060 170.5,-2060"/>
</g>
<!-- Evoke 2019 -->
<g id="node37" class="node">
<title>Evoke 2019</title>
<ellipse fill="none" stroke="#aacf1f" cx="105" cy="-1570.4" rx="79.26" ry="22.63"/>
<text text-anchor="middle" x="105" y="-1564.4" font-family="Simple Plan" font-size="20.00">Evoke 2019</text>
</g>
<!-- Evoke 2018&#45;&gt;Evoke 2019 -->
<g id="edge43" class="edge">
<title>Evoke 2018&#45;&gt;Evoke 2019</title>
<path fill="none" stroke="#aacf1f" stroke-width="0.5" d="M105,-1792.22C105,-1749.36 105,-1654.38 105,-1604.1"/>
<polygon fill="#aacf1f" stroke="#aacf1f" stroke-width="0.5" points="108.5,-1604.26 105,-1594.26 101.5,-1604.26 108.5,-1604.26"/>
<text text-anchor="middle" x="136.37" y="-1701" font-family="Master Photograph" font-size="14.00">364d +0ms</text>
</g>
<!-- annotation17 -->
<g id="node36" class="node">
<title>annotation17</title>
<text text-anchor="middle" x="326" y="-1827.8" font-family="Simple Plan" font-size="14.00">Fri Aug 17 2018</text>
<text text-anchor="middle" x="326" y="-1811" font-family="Simple Plan" font-size="14.00">18y 3d</text>
<text text-anchor="middle" x="326" y="-1794.2" font-family="Simple Plan" font-size="14.00">&#45;6y &#45;288d &#45;14h &#45;4m &#45;59s &#45;353ms</text>
</g>
<!-- annotation17&#45;&gt;Evoke 2018 -->
<g id="edge18" class="edge">
<title>annotation17&#45;&gt;Evoke 2018</title>
<path fill="none" stroke="black" stroke-width="0.5" stroke-dasharray="1,5" d="M326,-1815.2C278.81,-1815.2 231.61,-1815.2 184.42,-1815.2"/>
</g>
<!-- Novoque -->
<g id="node39" class="node">
<title>Novoque</title>
<ellipse fill="none" stroke="#aacf1f" cx="105" cy="-1325.6" rx="63.16" ry="22.63"/>
<text text-anchor="middle" x="105" y="-1319.6" font-family="Simple Plan" font-size="20.00">Novoque</text>
</g>
<!-- Evoke 2019&#45;&gt;Novoque -->
<g id="edge44" class="edge">
<title>Evoke 2019&#45;&gt;Novoque</title>
<path fill="none" stroke="#aacf1f" stroke-width="0.5" d="M105,-1547.42C105,-1504.56 105,-1409.58 105,-1359.3"/>
<polygon fill="#aacf1f" stroke="#aacf1f" stroke-width="0.5" points="108.5,-1359.46 105,-1349.46 101.5,-1359.46 108.5,-1359.46"/>
<text text-anchor="middle" x="129.37" y="-1456.2" font-family="Master Photograph" font-size="14.00">1y +0ms</text>
</g>
<!-- annotation18 -->
<g id="node38" class="node">
<title>annotation18</title>
<text text-anchor="middle" x="326" y="-1583" font-family="Simple Plan" font-size="14.00">Fri Aug 16 2019</text>
<text text-anchor="middle" x="326" y="-1566.2" font-family="Simple Plan" font-size="14.00">19y 2d</text>
<text text-anchor="middle" x="326" y="-1549.4" font-family="Simple Plan" font-size="14.00">&#45;5y &#45;289d &#45;14h &#45;4m &#45;59s &#45;353ms</text>
</g>
<!-- annotation18&#45;&gt;Evoke 2019 -->
<g id="edge19" class="edge">
<title>annotation18&#45;&gt;Evoke 2019</title>
<path fill="none" stroke="black" stroke-width="0.5" stroke-dasharray="1,5" d="M326,-1570.4C278.81,-1570.4 231.61,-1570.4 184.42,-1570.4"/>
</g>
<!-- Névoke -->
<g id="node41" class="node">
<title>Névoke</title>
<ellipse fill="none" stroke="#aacf1f" cx="105" cy="-1080.8" rx="56.09" ry="22.63"/>
<text text-anchor="middle" x="105" y="-1074.8" font-family="Simple Plan" font-size="20.00">Névoke</text>
</g>
<!-- Novoque&#45;&gt;Névoke -->
<g id="edge45" class="edge">
<title>Novoque&#45;&gt;Névoke</title>
<path fill="none" stroke="#aacf1f" stroke-width="0.5" d="M105,-1302.62C105,-1259.76 105,-1164.78 105,-1114.5"/>
<polygon fill="#aacf1f" stroke="#aacf1f" stroke-width="0.5" points="108.5,-1114.66 105,-1104.66 101.5,-1114.66 108.5,-1114.66"/>
<text text-anchor="middle" x="136.37" y="-1211.4" font-family="Master Photograph" font-size="14.00">364d +0ms</text>
</g>
<!-- annotation19 -->
<g id="node40" class="node">
<title>annotation19</title>
<text text-anchor="middle" x="310" y="-1338.2" font-family="Simple Plan" font-size="14.00">Sat Aug 15 2020</text>
<text text-anchor="middle" x="310" y="-1321.4" font-family="Simple Plan" font-size="14.00">20y 2d</text>
<text text-anchor="middle" x="310" y="-1304.6" font-family="Simple Plan" font-size="14.00">&#45;4y &#45;289d &#45;14h &#45;4m &#45;59s &#45;353ms</text>
</g>
<!-- annotation19&#45;&gt;Novoque -->
<g id="edge20" class="edge">
<title>annotation19&#45;&gt;Novoque</title>
<path fill="none" stroke="black" stroke-width="0.5" stroke-dasharray="1,5" d="M310,-1325.6C262.75,-1325.6 215.51,-1325.6 168.26,-1325.6"/>
</g>
<!-- Evoke 2022 -->
<g id="node43" class="node">
<title>Evoke 2022</title>
<ellipse fill="none" stroke="#aacf1f" cx="105" cy="-836" rx="79.26" ry="22.63"/>
<text text-anchor="middle" x="105" y="-830" font-family="Simple Plan" font-size="20.00">Evoke 2022</text>
</g>
<!-- Névoke&#45;&gt;Evoke 2022 -->
<g id="edge46" class="edge">
<title>Névoke&#45;&gt;Evoke 2022</title>
<path fill="none" stroke="#aacf1f" stroke-width="0.5" d="M105,-1057.82C105,-1014.96 105,-919.98 105,-869.7"/>
<polygon fill="#aacf1f" stroke="#aacf1f" stroke-width="0.5" points="108.5,-869.86 105,-859.86 101.5,-869.86 108.5,-869.86"/>
<text text-anchor="middle" x="136.37" y="-966.6" font-family="Master Photograph" font-size="14.00">356d +0ms</text>
</g>
<!-- annotation20 -->
<g id="node42" class="node">
<title>annotation20</title>
<text text-anchor="middle" x="303" y="-1093.4" font-family="Simple Plan" font-size="14.00">Sat Aug 14 2021</text>
<text text-anchor="middle" x="303" y="-1076.6" font-family="Simple Plan" font-size="14.00">21y 1d</text>
<text text-anchor="middle" x="303" y="-1059.8" font-family="Simple Plan" font-size="14.00">&#45;3y &#45;290d &#45;14h &#45;4m &#45;59s &#45;353ms</text>
</g>
<!-- annotation20&#45;&gt;Névoke -->
<g id="edge21" class="edge">
<title>annotation20&#45;&gt;Névoke</title>
<path fill="none" stroke="black" stroke-width="0.5" stroke-dasharray="1,5" d="M303,-1080.8C255.82,-1080.8 208.64,-1080.8 161.46,-1080.8"/>
</g>
<!-- Evoke 2023 -->
<g id="node45" class="node">
<title>Evoke 2023</title>
<ellipse fill="none" stroke="#aacf1f" cx="105" cy="-591.2" rx="79.26" ry="22.63"/>
<text text-anchor="middle" x="105" y="-585.2" font-family="Simple Plan" font-size="20.00">Evoke 2023</text>
</g>
<!-- Evoke 2022&#45;&gt;Evoke 2023 -->
<g id="edge47" class="edge">
<title>Evoke 2022&#45;&gt;Evoke 2023</title>
<path fill="none" stroke="#aacf1f" stroke-width="0.5" d="M105,-813.02C105,-770.16 105,-675.18 105,-624.9"/>
<polygon fill="#aacf1f" stroke="#aacf1f" stroke-width="0.5" points="108.5,-625.06 105,-615.06 101.5,-625.06 108.5,-625.06"/>
<text text-anchor="middle" x="136.37" y="-721.8" font-family="Master Photograph" font-size="14.00">357d +0ms</text>
</g>
<!-- annotation21 -->
<g id="node44" class="node">
<title>annotation21</title>
<text text-anchor="middle" x="326" y="-848.6" font-family="Simple Plan" font-size="14.00">Fri Aug 05 2022</text>
<text text-anchor="middle" x="326" y="-831.8" font-family="Simple Plan" font-size="14.00">21y 357d</text>
<text text-anchor="middle" x="326" y="-815" font-family="Simple Plan" font-size="14.00">&#45;2y &#45;299d &#45;14h &#45;4m &#45;59s &#45;353ms</text>
</g>
<!-- annotation21&#45;&gt;Evoke 2022 -->
<g id="edge22" class="edge">
<title>annotation21&#45;&gt;Evoke 2022</title>
<path fill="none" stroke="black" stroke-width="0.5" stroke-dasharray="1,5" d="M326,-836C278.81,-836 231.61,-836 184.42,-836"/>
</g>
<!-- Evoke 2024 -->
<g id="node47" class="node">
<title>Evoke 2024</title>
<ellipse fill="none" stroke="#aacf1f" cx="105" cy="-308.4" rx="79.26" ry="22.63"/>
<text text-anchor="middle" x="105" y="-302.4" font-family="Simple Plan" font-size="20.00">Evoke 2024</text>
</g>
<!-- Evoke 2023&#45;&gt;Evoke 2024 -->
<g id="edge48" class="edge">
<title>Evoke 2023&#45;&gt;Evoke 2024</title>
<path fill="none" stroke="#aacf1f" stroke-width="0.5" d="M105,-568.38C105,-551.95 105,-528.86 105,-508.6 105,-508.6 105,-508.6 105,-415.8 105,-391.06 105,-363.08 105,-342.03"/>
<polygon fill="#aacf1f" stroke="#aacf1f" stroke-width="0.5" points="108.5,-342.16 105,-332.16 101.5,-342.16 108.5,-342.16"/>
<text text-anchor="middle" x="141.62" y="-458" font-family="Master Photograph" font-size="14.00">1y 20d +0ms</text>
</g>
<!-- annotation22 -->
<g id="node46" class="node">
<title>annotation22</title>
<text text-anchor="middle" x="326" y="-603.8" font-family="Simple Plan" font-size="14.00">Fri Jul 28 2023</text>
<text text-anchor="middle" x="326" y="-587" font-family="Simple Plan" font-size="14.00">22y 349d</text>
<text text-anchor="middle" x="326" y="-570.2" font-family="Simple Plan" font-size="14.00">&#45;1y &#45;307d &#45;14h &#45;4m &#45;59s &#45;353ms</text>
</g>
<!-- annotation22&#45;&gt;Evoke 2023 -->
<g id="edge23" class="edge">
<title>annotation22&#45;&gt;Evoke 2023</title>
<path fill="none" stroke="black" stroke-width="0.5" stroke-dasharray="1,5" d="M326,-591.2C278.81,-591.2 231.61,-591.2 184.42,-591.2"/>
</g>
<!-- Evoke 2025 -->
<g id="node49" class="node">
<title>Evoke 2025</title>
<ellipse fill="none" stroke="#aacf1f" cx="105" cy="-63.6" rx="79.26" ry="22.63"/>
<text text-anchor="middle" x="105" y="-57.6" font-family="Simple Plan" font-size="20.00">Evoke 2025</text>
</g>
<!-- Evoke 2024&#45;&gt;Evoke 2025 -->
<g id="edge49" class="edge">
<title>Evoke 2024&#45;&gt;Evoke 2025</title>
<path fill="none" stroke="#aacf1f" stroke-width="0.5" d="M105,-285.42C105,-242.56 105,-147.58 105,-97.3"/>
<polygon fill="#aacf1f" stroke="#aacf1f" stroke-width="0.5" points="108.5,-97.46 105,-87.46 101.5,-97.46 108.5,-97.46"/>
<text text-anchor="middle" x="136.37" y="-194.2" font-family="Master Photograph" font-size="14.00">364d +0ms</text>
</g>
<!-- annotation23 -->
<g id="node48" class="node">
<title>annotation23</title>
<text text-anchor="middle" x="315" y="-321" font-family="Simple Plan" font-size="14.00">Fri Aug 16 2024</text>
<text text-anchor="middle" x="315" y="-304.2" font-family="Simple Plan" font-size="14.00">24y 4d</text>
<text text-anchor="middle" x="315" y="-287.4" font-family="Simple Plan" font-size="14.00">&#45;287d &#45;14h &#45;4m &#45;59s &#45;353ms</text>
</g>
<!-- annotation23&#45;&gt;Evoke 2024 -->
<g id="edge24" class="edge">
<title>annotation23&#45;&gt;Evoke 2024</title>
<path fill="none" stroke="black" stroke-width="0.5" stroke-dasharray="1,5" d="M315,-308.4C271.52,-308.4 228.05,-308.4 184.57,-308.4"/>
</g>
<!-- annotation24 -->
<g id="node50" class="node">
<title>annotation24</title>
<text text-anchor="middle" x="281" y="-76.2" font-family="Simple Plan" font-size="14.00">Fri Aug 15 2025</text>
<text text-anchor="middle" x="281" y="-59.4" font-family="Simple Plan" font-size="14.00">25y 3d</text>
<text text-anchor="middle" x="281" y="-42.6" font-family="Simple Plan" font-size="14.00">76d 9h 55m 0.6s</text>
</g>
<!-- annotation24&#45;&gt;Evoke 2025 -->
<g id="edge25" class="edge">
<title>annotation24&#45;&gt;Evoke 2025</title>
<path fill="none" stroke="black" stroke-width="0.5" stroke-dasharray="1,5" d="M281,-63.6C248.92,-63.6 216.83,-63.6 184.75,-63.6"/>
</g>
</g>
</svg>
