<?xml version="1.0" encoding="UTF-8" standalone="no"?>
<!DOCTYPE svg PUBLIC "-//W3C//DTD SVG 1.1//EN"
 "http://www.w3.org/Graphics/SVG/1.1/DTD/svg11.dtd">
<!-- Generated by graphviz version 12.2.1 (20241206.2353)
 -->
<!-- Pages: 1 -->
<svg width="479pt" height="6149pt"
 viewBox="0.00 0.00 479.00 6149.20" xmlns="http://www.w3.org/2000/svg" xmlns:xlink="http://www.w3.org/1999/xlink">
<g id="graph0" class="graph" transform="scale(1 1) rotate(0) translate(4 6145.2)">
<polygon fill="white" stroke="none" points="-4,4 -4,-6145.2 475,-6145.2 475,4 -4,4"/>
<g id="clust1" class="cluster">
<title>cluster_2000</title>
<polygon fill="none" stroke="black" stroke-width="0.2" stroke-dasharray="5,2" points="10,-5997.2 10,-6133.2 462,-6133.2 462,-5997.2 10,-5997.2"/>
<text text-anchor="middle" x="236" y="-6116.6" font-family="Master Photograph" font-size="14.00">2000</text>
</g>
<g id="clust2" class="cluster">
<title>%3</title>
</g>
<g id="clust3" class="cluster">
<title>cluster_2002</title>
<polygon fill="none" stroke="black" stroke-width="0.2" stroke-dasharray="5,2" points="10,-5714.4 10,-5850.4 462,-5850.4 462,-5714.4 10,-5714.4"/>
<text text-anchor="middle" x="236" y="-5833.8" font-family="Master Photograph" font-size="14.00">2002</text>
</g>
<g id="clust4" class="cluster">
<title>%7</title>
</g>
<g id="clust5" class="cluster">
<title>cluster_2003</title>
<polygon fill="none" stroke="black" stroke-width="0.2" stroke-dasharray="5,2" points="8,-5469.6 8,-5605.6 463,-5605.6 463,-5469.6 8,-5469.6"/>
<text text-anchor="middle" x="235.5" y="-5589" font-family="Master Photograph" font-size="14.00">2003</text>
</g>
<g id="clust6" class="cluster">
<title>%11</title>
</g>
<g id="clust7" class="cluster">
<title>cluster_2004</title>
<polygon fill="none" stroke="black" stroke-width="0.2" stroke-dasharray="5,2" points="10,-5224.8 10,-5360.8 462,-5360.8 462,-5224.8 10,-5224.8"/>
<text text-anchor="middle" x="236" y="-5344.2" font-family="Master Photograph" font-size="14.00">2004</text>
</g>
<g id="clust8" class="cluster">
<title>%15</title>
</g>
<g id="clust9" class="cluster">
<title>cluster_2005</title>
<polygon fill="none" stroke="black" stroke-width="0.2" stroke-dasharray="5,2" points="10,-4980 10,-5116 462,-5116 462,-4980 10,-4980"/>
<text text-anchor="middle" x="236" y="-5099.4" font-family="Master Photograph" font-size="14.00">2005</text>
</g>
<g id="clust10" class="cluster">
<title>%19</title>
</g>
<g id="clust11" class="cluster">
<title>cluster_2006</title>
<polygon fill="none" stroke="black" stroke-width="0.2" stroke-dasharray="5,2" points="10,-4735.2 10,-4871.2 462,-4871.2 462,-4735.2 10,-4735.2"/>
<text text-anchor="middle" x="236" y="-4854.6" font-family="Master Photograph" font-size="14.00">2006</text>
</g>
<g id="clust12" class="cluster">
<title>%23</title>
</g>
<g id="clust13" class="cluster">
<title>cluster_2007</title>
<polygon fill="none" stroke="black" stroke-width="0.2" stroke-dasharray="5,2" points="24,-4490.4 24,-4626.4 448,-4626.4 448,-4490.4 24,-4490.4"/>
<text text-anchor="middle" x="236" y="-4609.8" font-family="Master Photograph" font-size="14.00">2007</text>
</g>
<g id="clust14" class="cluster">
<title>%27</title>
</g>
<g id="clust15" class="cluster">
<title>cluster_2008</title>
<polygon fill="none" stroke="black" stroke-width="0.2" stroke-dasharray="5,2" points="10,-4245.6 10,-4381.6 462,-4381.6 462,-4245.6 10,-4245.6"/>
<text text-anchor="middle" x="236" y="-4365" font-family="Master Photograph" font-size="14.00">2008</text>
</g>
<g id="clust16" class="cluster">
<title>%31</title>
</g>
<g id="clust17" class="cluster">
<title>cluster_2009</title>
<polygon fill="none" stroke="black" stroke-width="0.2" stroke-dasharray="5,2" points="10,-4000.8 10,-4136.8 462,-4136.8 462,-4000.8 10,-4000.8"/>
<text text-anchor="middle" x="236" y="-4120.2" font-family="Master Photograph" font-size="14.00">2009</text>
</g>
<g id="clust18" class="cluster">
<title>%35</title>
</g>
<g id="clust19" class="cluster">
<title>cluster_2010</title>
<polygon fill="none" stroke="black" stroke-width="0.2" stroke-dasharray="5,2" points="10,-3718 10,-3854 462,-3854 462,-3718 10,-3718"/>
<text text-anchor="middle" x="236" y="-3837.4" font-family="Master Photograph" font-size="14.00">2010</text>
</g>
<g id="clust20" class="cluster">
<title>%39</title>
</g>
<g id="clust21" class="cluster">
<title>cluster_2011</title>
<polygon fill="none" stroke="black" stroke-width="0.2" stroke-dasharray="5,2" points="10,-3473.2 10,-3609.2 462,-3609.2 462,-3473.2 10,-3473.2"/>
<text text-anchor="middle" x="236" y="-3592.6" font-family="Master Photograph" font-size="14.00">2011</text>
</g>
<g id="clust22" class="cluster">
<title>%43</title>
</g>
<g id="clust23" class="cluster">
<title>cluster_2012</title>
<polygon fill="none" stroke="black" stroke-width="0.2" stroke-dasharray="5,2" points="10,-3228.4 10,-3364.4 462,-3364.4 462,-3228.4 10,-3228.4"/>
<text text-anchor="middle" x="236" y="-3347.8" font-family="Master Photograph" font-size="14.00">2012</text>
</g>
<g id="clust24" class="cluster">
<title>%47</title>
</g>
<g id="clust25" class="cluster">
<title>cluster_2013</title>
<polygon fill="none" stroke="black" stroke-width="0.2" stroke-dasharray="5,2" points="10,-2983.6 10,-3119.6 462,-3119.6 462,-2983.6 10,-2983.6"/>
<text text-anchor="middle" x="236" y="-3103" font-family="Master Photograph" font-size="14.00">2013</text>
</g>
<g id="clust26" class="cluster">
<title>%51</title>
</g>
<g id="clust27" class="cluster">
<title>cluster_2014</title>
<polygon fill="none" stroke="black" stroke-width="0.2" stroke-dasharray="5,2" points="10,-2738.8 10,-2874.8 462,-2874.8 462,-2738.8 10,-2738.8"/>
<text text-anchor="middle" x="236" y="-2858.2" font-family="Master Photograph" font-size="14.00">2014</text>
</g>
<g id="clust28" class="cluster">
<title>%55</title>
</g>
<g id="clust29" class="cluster">
<title>cluster_2015</title>
<polygon fill="none" stroke="black" stroke-width="0.2" stroke-dasharray="5,2" points="10,-2494 10,-2630 454,-2630 454,-2494 10,-2494"/>
<text text-anchor="middle" x="232" y="-2613.4" font-family="Master Photograph" font-size="14.00">2015</text>
</g>
<g id="clust30" class="cluster">
<title>%59</title>
</g>
<g id="clust31" class="cluster">
<title>cluster_2016</title>
<polygon fill="none" stroke="black" stroke-width="0.2" stroke-dasharray="5,2" points="10,-2249.2 10,-2385.2 454,-2385.2 454,-2249.2 10,-2249.2"/>
<text text-anchor="middle" x="232" y="-2368.6" font-family="Master Photograph" font-size="14.00">2016</text>
</g>
<g id="clust32" class="cluster">
<title>%63</title>
</g>
<g id="clust33" class="cluster">
<title>cluster_2017</title>
<polygon fill="none" stroke="black" stroke-width="0.2" stroke-dasharray="5,2" points="24,-2004.4 24,-2140.4 440,-2140.4 440,-2004.4 24,-2004.4"/>
<text text-anchor="middle" x="232" y="-2123.8" font-family="Master Photograph" font-size="14.00">2017</text>
</g>
<g id="clust34" class="cluster">
<title>%67</title>
</g>
<g id="clust35" class="cluster">
<title>cluster_2018</title>
<polygon fill="none" stroke="black" stroke-width="0.2" stroke-dasharray="5,2" points="10,-1759.6 10,-1895.6 454,-1895.6 454,-1759.6 10,-1759.6"/>
<text text-anchor="middle" x="232" y="-1879" font-family="Master Photograph" font-size="14.00">2018</text>
</g>
<g id="clust36" class="cluster">
<title>%71</title>
</g>
<g id="clust37" class="cluster">
<title>cluster_2019</title>
<polygon fill="none" stroke="black" stroke-width="0.2" stroke-dasharray="5,2" points="10,-1514.8 10,-1650.8 454,-1650.8 454,-1514.8 10,-1514.8"/>
<text text-anchor="middle" x="232" y="-1634.2" font-family="Master Photograph" font-size="14.00">2019</text>
</g>
<g id="clust38" class="cluster">
<title>%75</title>
</g>
<g id="clust39" class="cluster">
<title>cluster_2020</title>
<polygon fill="none" stroke="black" stroke-width="0.2" stroke-dasharray="5,2" points="26,-1270 26,-1406 438,-1406 438,-1270 26,-1270"/>
<text text-anchor="middle" x="232" y="-1389.4" font-family="Master Photograph" font-size="14.00">2020</text>
</g>
<g id="clust40" class="cluster">
<title>%79</title>
</g>
<g id="clust41" class="cluster">
<title>cluster_2021</title>
<polygon fill="none" stroke="black" stroke-width="0.2" stroke-dasharray="5,2" points="33,-1025.2 33,-1161.2 431,-1161.2 431,-1025.2 33,-1025.2"/>
<text text-anchor="middle" x="232" y="-1144.6" font-family="Master Photograph" font-size="14.00">2021</text>
</g>
<g id="clust42" class="cluster">
<title>%83</title>
</g>
<g id="clust43" class="cluster">
<title>cluster_2022</title>
<polygon fill="none" stroke="black" stroke-width="0.2" stroke-dasharray="5,2" points="10,-780.4 10,-916.4 454,-916.4 454,-780.4 10,-780.4"/>
<text text-anchor="middle" x="232" y="-899.8" font-family="Master Photograph" font-size="14.00">2022</text>
</g>
<g id="clust44" class="cluster">
<title>%87</title>
</g>
<g id="clust45" class="cluster">
<title>cluster_2023</title>
<polygon fill="none" stroke="black" stroke-width="0.2" stroke-dasharray="5,2" points="10,-535.6 10,-671.6 454,-671.6 454,-535.6 10,-535.6"/>
<text text-anchor="middle" x="232" y="-655" font-family="Master Photograph" font-size="14.00">2023</text>
</g>
<g id="clust46" class="cluster">
<title>%91</title>
</g>
<g id="clust47" class="cluster">
<title>cluster_2024</title>
<polygon fill="none" stroke="black" stroke-width="0.2" stroke-dasharray="5,2" points="10,-252.8 10,-388.8 432,-388.8 432,-252.8 10,-252.8"/>
<text text-anchor="middle" x="221" y="-372.2" font-family="Master Photograph" font-size="14.00">2024</text>
</g>
<g id="clust48" class="cluster">
<title>%95</title>
</g>
<g id="clust49" class="cluster">
<title>cluster_2025</title>
<polygon fill="none" stroke="black" stroke-width="0.2" stroke-dasharray="5,2" points="10,-8 10,-144 358,-144 358,-8 10,-8"/>
<text text-anchor="middle" x="184" y="-127.4" font-family="Master Photograph" font-size="14.00">2025</text>
</g>
<g id="clust50" class="cluster">
<title>%99</title>
</g>
<!-- 1 -->
<g id="node1" class="node">
<title>1</title>
<ellipse fill="none" stroke="#aacf1f" cx="105" cy="-6052.8" rx="79.26" ry="22.63"/>
<text text-anchor="start" x="56.95" y="-6046.8" font-family="Simple Plan" font-size="20.00">Evoke 2000</text>
</g>
<!-- 3 -->
<g id="node3" class="node">
<title>3</title>
<ellipse fill="none" stroke="#aacf1f" cx="105" cy="-5770" rx="79.26" ry="22.63"/>
<text text-anchor="start" x="56.95" y="-5764" font-family="Simple Plan" font-size="20.00">Evoke 2002</text>
</g>
<!-- 1&#45;&gt;3 -->
<g id="edge26" class="edge">
<title>1&#45;&gt;3</title>
<path fill="none" stroke="#aacf1f" stroke-width="0.5" d="M105,-6029.98C105,-6013.55 105,-5990.46 105,-5970.2 105,-5970.2 105,-5970.2 105,-5877.4 105,-5852.66 105,-5824.68 105,-5803.63"/>
<polygon fill="#aacf1f" stroke="#aacf1f" stroke-width="0.5" points="108.5,-5803.76 105,-5793.76 101.5,-5803.76 108.5,-5803.76"/>
<text text-anchor="start" x="105" y="-5919.6" font-family="Master Photograph" font-size="14.00">2y 12d +0ms</text>
</g>
<!-- 2 -->
<g id="node2" class="node">
<title>2</title>
<text text-anchor="start" x="286.53" y="-6065.4" font-family="Simple Plan" font-size="14.00">Fri Aug 18 2000</text>
<text text-anchor="start" x="321.33" y="-6048.6" font-family="Simple Plan" font-size="14.00">0ms</text>
<text text-anchor="start" x="234.43" y="-6031.8" font-family="Simple Plan" font-size="14.00">&#45;24y &#45;291d &#45;18h &#45;27m &#45;50s &#45;193ms</text>
</g>
<!-- 2&#45;&gt;1 -->
<g id="edge1" class="edge">
<title>2&#45;&gt;1</title>
<path fill="none" stroke="black" stroke-width="0.5" stroke-dasharray="1,5" d="M333,-6052.8C283.57,-6052.8 234.14,-6052.8 184.71,-6052.8"/>
</g>
<!-- 5 -->
<g id="node5" class="node">
<title>5</title>
<ellipse fill="none" stroke="#aacf1f" cx="105" cy="-5525.2" rx="80.83" ry="22.63"/>
<text text-anchor="start" x="55.84" y="-5519.2" font-family="Simple Plan" font-size="20.00">Evoke Z003</text>
</g>
<!-- 3&#45;&gt;5 -->
<g id="edge27" class="edge">
<title>3&#45;&gt;5</title>
<path fill="none" stroke="#aacf1f" stroke-width="0.5" d="M105,-5747.02C105,-5704.16 105,-5609.18 105,-5558.9"/>
<polygon fill="#aacf1f" stroke="#aacf1f" stroke-width="0.5" points="108.5,-5559.06 105,-5549.06 101.5,-5559.06 108.5,-5559.06"/>
<text text-anchor="start" x="105" y="-5655.8" font-family="Master Photograph" font-size="14.00">355d +0ms</text>
</g>
<!-- 4 -->
<g id="node4" class="node">
<title>4</title>
<text text-anchor="start" x="286.53" y="-5782.6" font-family="Simple Plan" font-size="14.00">Fri Aug 30 2002</text>
<text text-anchor="start" x="313.75" y="-5765.8" font-family="Simple Plan" font-size="14.00">2y 12d</text>
<text text-anchor="start" x="234.43" y="-5749" font-family="Simple Plan" font-size="14.00">&#45;22y &#45;279d &#45;18h &#45;27m &#45;50s &#45;193ms</text>
</g>
<!-- 4&#45;&gt;3 -->
<g id="edge2" class="edge">
<title>4&#45;&gt;3</title>
<path fill="none" stroke="black" stroke-width="0.5" stroke-dasharray="1,5" d="M333,-5770C283.57,-5770 234.14,-5770 184.71,-5770"/>
</g>
<!-- 7 -->
<g id="node7" class="node">
<title>7</title>
<ellipse fill="none" stroke="#aacf1f" cx="105" cy="-5280.4" rx="79.26" ry="22.63"/>
<text text-anchor="start" x="56.95" y="-5274.4" font-family="Simple Plan" font-size="20.00">Evoke 2004</text>
</g>
<!-- 5&#45;&gt;7 -->
<g id="edge28" class="edge">
<title>5&#45;&gt;7</title>
<path fill="none" stroke="#aacf1f" stroke-width="0.5" d="M105,-5502.22C105,-5459.36 105,-5364.38 105,-5314.1"/>
<polygon fill="#aacf1f" stroke="#aacf1f" stroke-width="0.5" points="108.5,-5314.26 105,-5304.26 101.5,-5314.26 108.5,-5314.26"/>
<text text-anchor="start" x="105" y="-5411" font-family="Master Photograph" font-size="14.00">1y 8d +0ms</text>
</g>
<!-- 6 -->
<g id="node6" class="node">
<title>6</title>
<text text-anchor="start" x="282.48" y="-5537.8" font-family="Simple Plan" font-size="14.00">Wed Aug 20 2003</text>
<text text-anchor="start" x="318.25" y="-5521" font-family="Simple Plan" font-size="14.00">3y 2d</text>
<text text-anchor="start" x="235.43" y="-5504.2" font-family="Simple Plan" font-size="14.00">&#45;21y &#45;289d &#45;18h &#45;27m &#45;50s &#45;193ms</text>
</g>
<!-- 6&#45;&gt;5 -->
<g id="edge3" class="edge">
<title>6&#45;&gt;5</title>
<path fill="none" stroke="black" stroke-width="0.5" stroke-dasharray="1,5" d="M334,-5525.2C284.65,-5525.2 235.3,-5525.2 185.96,-5525.2"/>
</g>
<!-- 9 -->
<g id="node9" class="node">
<title>9</title>
<ellipse fill="none" stroke="#aacf1f" cx="105" cy="-5035.6" rx="79.26" ry="22.63"/>
<text text-anchor="start" x="56.95" y="-5029.6" font-family="Simple Plan" font-size="20.00">Evoke 2005</text>
</g>
<!-- 7&#45;&gt;9 -->
<g id="edge29" class="edge">
<title>7&#45;&gt;9</title>
<path fill="none" stroke="#aacf1f" stroke-width="0.5" d="M105,-5257.42C105,-5214.56 105,-5119.58 105,-5069.3"/>
<polygon fill="#aacf1f" stroke="#aacf1f" stroke-width="0.5" points="108.5,-5069.46 105,-5059.46 101.5,-5069.46 108.5,-5069.46"/>
<text text-anchor="start" x="105" y="-5166.2" font-family="Master Photograph" font-size="14.00">364d +0ms</text>
</g>
<!-- 8 -->
<g id="node8" class="node">
<title>8</title>
<text text-anchor="start" x="286.53" y="-5293" font-family="Simple Plan" font-size="14.00">Fri Aug 27 2004</text>
<text text-anchor="start" x="313.75" y="-5276.2" font-family="Simple Plan" font-size="14.00">4y 10d</text>
<text text-anchor="start" x="234.43" y="-5259.4" font-family="Simple Plan" font-size="14.00">&#45;20y &#45;281d &#45;18h &#45;27m &#45;50s &#45;193ms</text>
</g>
<!-- 8&#45;&gt;7 -->
<g id="edge4" class="edge">
<title>8&#45;&gt;7</title>
<path fill="none" stroke="black" stroke-width="0.5" stroke-dasharray="1,5" d="M333,-5280.4C283.57,-5280.4 234.14,-5280.4 184.71,-5280.4"/>
</g>
<!-- 11 -->
<g id="node11" class="node">
<title>11</title>
<ellipse fill="none" stroke="#aacf1f" cx="105" cy="-4790.8" rx="79.26" ry="22.63"/>
<text text-anchor="start" x="56.95" y="-4784.8" font-family="Simple Plan" font-size="20.00">Evoke 2006</text>
</g>
<!-- 9&#45;&gt;11 -->
<g id="edge30" class="edge">
<title>9&#45;&gt;11</title>
<path fill="none" stroke="#aacf1f" stroke-width="0.5" d="M105,-5012.62C105,-4969.76 105,-4874.78 105,-4824.5"/>
<polygon fill="#aacf1f" stroke="#aacf1f" stroke-width="0.5" points="108.5,-4824.66 105,-4814.66 101.5,-4824.66 108.5,-4824.66"/>
<text text-anchor="start" x="105" y="-4921.4" font-family="Master Photograph" font-size="14.00">350d +0ms</text>
</g>
<!-- 10 -->
<g id="node10" class="node">
<title>10</title>
<text text-anchor="start" x="286.53" y="-5048.2" font-family="Simple Plan" font-size="14.00">Fri Aug 26 2005</text>
<text text-anchor="start" x="317.25" y="-5031.4" font-family="Simple Plan" font-size="14.00">5y 9d</text>
<text text-anchor="start" x="234.43" y="-5014.6" font-family="Simple Plan" font-size="14.00">&#45;19y &#45;282d &#45;18h &#45;27m &#45;50s &#45;193ms</text>
</g>
<!-- 10&#45;&gt;9 -->
<g id="edge5" class="edge">
<title>10&#45;&gt;9</title>
<path fill="none" stroke="black" stroke-width="0.5" stroke-dasharray="1,5" d="M333,-5035.6C283.57,-5035.6 234.14,-5035.6 184.71,-5035.6"/>
</g>
<!-- 13 -->
<g id="node13" class="node">
<title>13</title>
<ellipse fill="none" stroke="#aacf1f" cx="105" cy="-4546" rx="65.12" ry="22.63"/>
<text text-anchor="start" x="66.95" y="-4540" font-family="Simple Plan" font-size="20.00">Evoke 10</text>
</g>
<!-- 11&#45;&gt;13 -->
<g id="edge31" class="edge">
<title>11&#45;&gt;13</title>
<path fill="none" stroke="#aacf1f" stroke-width="0.5" d="M105,-4767.82C105,-4724.96 105,-4629.98 105,-4579.7"/>
<polygon fill="#aacf1f" stroke="#aacf1f" stroke-width="0.5" points="108.5,-4579.86 105,-4569.86 101.5,-4579.86 108.5,-4579.86"/>
<text text-anchor="start" x="105" y="-4676.6" font-family="Master Photograph" font-size="14.00">364d +0ms</text>
</g>
<!-- 12 -->
<g id="node12" class="node">
<title>12</title>
<text text-anchor="start" x="286.53" y="-4803.4" font-family="Simple Plan" font-size="14.00">Fri Aug 11 2006</text>
<text text-anchor="start" x="310.25" y="-4786.6" font-family="Simple Plan" font-size="14.00">5y 359d</text>
<text text-anchor="start" x="234.43" y="-4769.8" font-family="Simple Plan" font-size="14.00">&#45;18y &#45;297d &#45;18h &#45;27m &#45;50s &#45;193ms</text>
</g>
<!-- 12&#45;&gt;11 -->
<g id="edge6" class="edge">
<title>12&#45;&gt;11</title>
<path fill="none" stroke="black" stroke-width="0.5" stroke-dasharray="1,5" d="M333,-4790.8C283.57,-4790.8 234.14,-4790.8 184.71,-4790.8"/>
</g>
<!-- 15 -->
<g id="node15" class="node">
<title>15</title>
<ellipse fill="none" stroke="#aacf1f" cx="105" cy="-4301.2" rx="79.26" ry="22.63"/>
<text text-anchor="start" x="56.95" y="-4295.2" font-family="Simple Plan" font-size="20.00">Evoke 2008</text>
</g>
<!-- 13&#45;&gt;15 -->
<g id="edge32" class="edge">
<title>13&#45;&gt;15</title>
<path fill="none" stroke="#aacf1f" stroke-width="0.5" d="M105,-4523.02C105,-4480.16 105,-4385.18 105,-4334.9"/>
<polygon fill="#aacf1f" stroke="#aacf1f" stroke-width="0.5" points="108.5,-4335.06 105,-4325.06 101.5,-4335.06 108.5,-4335.06"/>
<text text-anchor="start" x="105" y="-4431.8" font-family="Master Photograph" font-size="14.00">364d +0ms</text>
</g>
<!-- 14 -->
<g id="node14" class="node">
<title>14</title>
<text text-anchor="start" x="272.53" y="-4558.6" font-family="Simple Plan" font-size="14.00">Fri Aug 10 2007</text>
<text text-anchor="start" x="296.25" y="-4541.8" font-family="Simple Plan" font-size="14.00">6y 358d</text>
<text text-anchor="start" x="220.43" y="-4525" font-family="Simple Plan" font-size="14.00">&#45;17y &#45;298d &#45;18h &#45;27m &#45;50s &#45;193ms</text>
</g>
<!-- 14&#45;&gt;13 -->
<g id="edge7" class="edge">
<title>14&#45;&gt;13</title>
<path fill="none" stroke="black" stroke-width="0.5" stroke-dasharray="1,5" d="M319,-4546C269.4,-4546 219.8,-4546 170.2,-4546"/>
</g>
<!-- 17 -->
<g id="node17" class="node">
<title>17</title>
<ellipse fill="none" stroke="#aacf1f" cx="105" cy="-4056.4" rx="79.26" ry="22.63"/>
<text text-anchor="start" x="56.95" y="-4050.4" font-family="Simple Plan" font-size="20.00">Evoke 2009</text>
</g>
<!-- 15&#45;&gt;17 -->
<g id="edge33" class="edge">
<title>15&#45;&gt;17</title>
<path fill="none" stroke="#aacf1f" stroke-width="0.5" d="M105,-4278.22C105,-4235.36 105,-4140.38 105,-4090.1"/>
<polygon fill="#aacf1f" stroke="#aacf1f" stroke-width="0.5" points="108.5,-4090.26 105,-4080.26 101.5,-4090.26 108.5,-4090.26"/>
<text text-anchor="start" x="105" y="-4187" font-family="Master Photograph" font-size="14.00">357d +0ms</text>
</g>
<!-- 16 -->
<g id="node16" class="node">
<title>16</title>
<text text-anchor="start" x="286.53" y="-4313.8" font-family="Simple Plan" font-size="14.00">Fri Aug 08 2008</text>
<text text-anchor="start" x="310.25" y="-4297" font-family="Simple Plan" font-size="14.00">7y 357d</text>
<text text-anchor="start" x="234.43" y="-4280.2" font-family="Simple Plan" font-size="14.00">&#45;16y &#45;299d &#45;18h &#45;27m &#45;50s &#45;193ms</text>
</g>
<!-- 16&#45;&gt;15 -->
<g id="edge8" class="edge">
<title>16&#45;&gt;15</title>
<path fill="none" stroke="black" stroke-width="0.5" stroke-dasharray="1,5" d="M333,-4301.2C283.57,-4301.2 234.14,-4301.2 184.71,-4301.2"/>
</g>
<!-- 19 -->
<g id="node19" class="node">
<title>19</title>
<ellipse fill="none" stroke="#aacf1f" cx="105" cy="-3773.6" rx="79.26" ry="22.63"/>
<text text-anchor="start" x="56.95" y="-3767.6" font-family="Simple Plan" font-size="20.00">Evoke 2010</text>
</g>
<!-- 17&#45;&gt;19 -->
<g id="edge34" class="edge">
<title>17&#45;&gt;19</title>
<path fill="none" stroke="#aacf1f" stroke-width="0.5" d="M105,-4033.58C105,-4017.15 105,-3994.06 105,-3973.8 105,-3973.8 105,-3973.8 105,-3881 105,-3856.26 105,-3828.28 105,-3807.23"/>
<polygon fill="#aacf1f" stroke="#aacf1f" stroke-width="0.5" points="108.5,-3807.36 105,-3797.36 101.5,-3807.36 108.5,-3807.36"/>
<text text-anchor="start" x="105" y="-3923.2" font-family="Master Photograph" font-size="14.00">1y 27d +0ms</text>
</g>
<!-- 18 -->
<g id="node18" class="node">
<title>18</title>
<text text-anchor="start" x="290.41" y="-4069" font-family="Simple Plan" font-size="14.00">Fri Jul 31 2009</text>
<text text-anchor="start" x="310.25" y="-4052.2" font-family="Simple Plan" font-size="14.00">8y 349d</text>
<text text-anchor="start" x="234.43" y="-4035.4" font-family="Simple Plan" font-size="14.00">&#45;15y &#45;307d &#45;18h &#45;27m &#45;50s &#45;193ms</text>
</g>
<!-- 18&#45;&gt;17 -->
<g id="edge9" class="edge">
<title>18&#45;&gt;17</title>
<path fill="none" stroke="black" stroke-width="0.5" stroke-dasharray="1,5" d="M333,-4056.4C283.57,-4056.4 234.14,-4056.4 184.71,-4056.4"/>
</g>
<!-- 21 -->
<g id="node21" class="node">
<title>21</title>
<ellipse fill="none" stroke="#aacf1f" cx="105" cy="-3528.8" rx="79.26" ry="22.63"/>
<text text-anchor="start" x="56.95" y="-3522.8" font-family="Simple Plan" font-size="20.00">Evoke 2011</text>
</g>
<!-- 19&#45;&gt;21 -->
<g id="edge35" class="edge">
<title>19&#45;&gt;21</title>
<path fill="none" stroke="#aacf1f" stroke-width="0.5" d="M105,-3750.62C105,-3707.76 105,-3612.78 105,-3562.5"/>
<polygon fill="#aacf1f" stroke="#aacf1f" stroke-width="0.5" points="108.5,-3562.66 105,-3552.66 101.5,-3562.66 108.5,-3562.66"/>
<text text-anchor="start" x="105" y="-3659.4" font-family="Master Photograph" font-size="14.00">350d +0ms</text>
</g>
<!-- 20 -->
<g id="node20" class="node">
<title>20</title>
<text text-anchor="start" x="286.53" y="-3786.2" font-family="Simple Plan" font-size="14.00">Fri Aug 27 2010</text>
<text text-anchor="start" x="310.25" y="-3769.4" font-family="Simple Plan" font-size="14.00">10y 11d</text>
<text text-anchor="start" x="234.43" y="-3752.6" font-family="Simple Plan" font-size="14.00">&#45;14y &#45;280d &#45;18h &#45;27m &#45;50s &#45;193ms</text>
</g>
<!-- 20&#45;&gt;19 -->
<g id="edge10" class="edge">
<title>20&#45;&gt;19</title>
<path fill="none" stroke="black" stroke-width="0.5" stroke-dasharray="1,5" d="M333,-3773.6C283.57,-3773.6 234.14,-3773.6 184.71,-3773.6"/>
</g>
<!-- 23 -->
<g id="node23" class="node">
<title>23</title>
<ellipse fill="none" stroke="#aacf1f" cx="105" cy="-3284" rx="79.26" ry="22.63"/>
<text text-anchor="start" x="56.95" y="-3278" font-family="Simple Plan" font-size="20.00">Evoke 2012</text>
</g>
<!-- 21&#45;&gt;23 -->
<g id="edge36" class="edge">
<title>21&#45;&gt;23</title>
<path fill="none" stroke="#aacf1f" stroke-width="0.5" d="M105,-3505.82C105,-3462.96 105,-3367.98 105,-3317.7"/>
<polygon fill="#aacf1f" stroke="#aacf1f" stroke-width="0.5" points="108.5,-3317.86 105,-3307.86 101.5,-3317.86 108.5,-3317.86"/>
<text text-anchor="start" x="105" y="-3414.6" font-family="Master Photograph" font-size="14.00">364d +0ms</text>
</g>
<!-- 22 -->
<g id="node22" class="node">
<title>22</title>
<text text-anchor="start" x="286.53" y="-3541.4" font-family="Simple Plan" font-size="14.00">Fri Aug 12 2011</text>
<text text-anchor="start" x="306.75" y="-3524.6" font-family="Simple Plan" font-size="14.00">10y 361d</text>
<text text-anchor="start" x="234.43" y="-3507.8" font-family="Simple Plan" font-size="14.00">&#45;13y &#45;295d &#45;18h &#45;27m &#45;50s &#45;193ms</text>
</g>
<!-- 22&#45;&gt;21 -->
<g id="edge11" class="edge">
<title>22&#45;&gt;21</title>
<path fill="none" stroke="black" stroke-width="0.5" stroke-dasharray="1,5" d="M333,-3528.8C283.57,-3528.8 234.14,-3528.8 184.71,-3528.8"/>
</g>
<!-- 25 -->
<g id="node25" class="node">
<title>25</title>
<ellipse fill="none" stroke="#aacf1f" cx="105" cy="-3039.2" rx="79.26" ry="22.63"/>
<text text-anchor="start" x="56.95" y="-3033.2" font-family="Simple Plan" font-size="20.00">Evoke 2013</text>
</g>
<!-- 23&#45;&gt;25 -->
<g id="edge37" class="edge">
<title>23&#45;&gt;25</title>
<path fill="none" stroke="#aacf1f" stroke-width="0.5" d="M105,-3261.02C105,-3218.16 105,-3123.18 105,-3072.9"/>
<polygon fill="#aacf1f" stroke="#aacf1f" stroke-width="0.5" points="108.5,-3073.06 105,-3063.06 101.5,-3073.06 108.5,-3073.06"/>
<text text-anchor="start" x="105" y="-3169.8" font-family="Master Photograph" font-size="14.00">1y 6d +0ms</text>
</g>
<!-- 24 -->
<g id="node24" class="node">
<title>24</title>
<text text-anchor="start" x="286.53" y="-3296.6" font-family="Simple Plan" font-size="14.00">Fri Aug 10 2012</text>
<text text-anchor="start" x="306.75" y="-3279.8" font-family="Simple Plan" font-size="14.00">11y 360d</text>
<text text-anchor="start" x="234.43" y="-3263" font-family="Simple Plan" font-size="14.00">&#45;12y &#45;296d &#45;18h &#45;27m &#45;50s &#45;193ms</text>
</g>
<!-- 24&#45;&gt;23 -->
<g id="edge12" class="edge">
<title>24&#45;&gt;23</title>
<path fill="none" stroke="black" stroke-width="0.5" stroke-dasharray="1,5" d="M333,-3284C283.57,-3284 234.14,-3284 184.71,-3284"/>
</g>
<!-- 27 -->
<g id="node27" class="node">
<title>27</title>
<ellipse fill="none" stroke="#aacf1f" cx="105" cy="-2794.4" rx="79.26" ry="22.63"/>
<text text-anchor="start" x="56.95" y="-2788.4" font-family="Simple Plan" font-size="20.00">Evoke 2014</text>
</g>
<!-- 25&#45;&gt;27 -->
<g id="edge38" class="edge">
<title>25&#45;&gt;27</title>
<path fill="none" stroke="#aacf1f" stroke-width="0.5" d="M105,-3016.22C105,-2973.36 105,-2878.38 105,-2828.1"/>
<polygon fill="#aacf1f" stroke="#aacf1f" stroke-width="0.5" points="108.5,-2828.26 105,-2818.26 101.5,-2828.26 108.5,-2828.26"/>
<text text-anchor="start" x="105" y="-2925" font-family="Master Photograph" font-size="14.00">357d +0ms</text>
</g>
<!-- 26 -->
<g id="node26" class="node">
<title>26</title>
<text text-anchor="start" x="286.53" y="-3051.8" font-family="Simple Plan" font-size="14.00">Fri Aug 16 2013</text>
<text text-anchor="start" x="313.75" y="-3035" font-family="Simple Plan" font-size="14.00">13y 1d</text>
<text text-anchor="start" x="234.43" y="-3018.2" font-family="Simple Plan" font-size="14.00">&#45;11y &#45;290d &#45;18h &#45;27m &#45;50s &#45;193ms</text>
</g>
<!-- 26&#45;&gt;25 -->
<g id="edge13" class="edge">
<title>26&#45;&gt;25</title>
<path fill="none" stroke="black" stroke-width="0.5" stroke-dasharray="1,5" d="M333,-3039.2C283.57,-3039.2 234.14,-3039.2 184.71,-3039.2"/>
</g>
<!-- 29 -->
<g id="node29" class="node">
<title>29</title>
<ellipse fill="none" stroke="#aacf1f" cx="105" cy="-2549.6" rx="79.26" ry="22.63"/>
<text text-anchor="start" x="56.95" y="-2543.6" font-family="Simple Plan" font-size="20.00">Evoke 2015</text>
</g>
<!-- 27&#45;&gt;29 -->
<g id="edge39" class="edge">
<title>27&#45;&gt;29</title>
<path fill="none" stroke="#aacf1f" stroke-width="0.5" d="M105,-2771.42C105,-2728.56 105,-2633.58 105,-2583.3"/>
<polygon fill="#aacf1f" stroke="#aacf1f" stroke-width="0.5" points="108.5,-2583.46 105,-2573.46 101.5,-2583.46 108.5,-2583.46"/>
<text text-anchor="start" x="105" y="-2680.2" font-family="Master Photograph" font-size="14.00">357d +0ms</text>
</g>
<!-- 28 -->
<g id="node28" class="node">
<title>28</title>
<text text-anchor="start" x="286.53" y="-2807" font-family="Simple Plan" font-size="14.00">Fri Aug 08 2014</text>
<text text-anchor="start" x="306.75" y="-2790.2" font-family="Simple Plan" font-size="14.00">13y 358d</text>
<text text-anchor="start" x="234.43" y="-2773.4" font-family="Simple Plan" font-size="14.00">&#45;10y &#45;298d &#45;18h &#45;27m &#45;50s &#45;193ms</text>
</g>
<!-- 28&#45;&gt;27 -->
<g id="edge14" class="edge">
<title>28&#45;&gt;27</title>
<path fill="none" stroke="black" stroke-width="0.5" stroke-dasharray="1,5" d="M333,-2794.4C283.57,-2794.4 234.14,-2794.4 184.71,-2794.4"/>
</g>
<!-- 31 -->
<g id="node31" class="node">
<title>31</title>
<ellipse fill="none" stroke="#aacf1f" cx="105" cy="-2304.8" rx="79.26" ry="22.63"/>
<text text-anchor="start" x="56.95" y="-2298.8" font-family="Simple Plan" font-size="20.00">Evoke 2016</text>
</g>
<!-- 29&#45;&gt;31 -->
<g id="edge40" class="edge">
<title>29&#45;&gt;31</title>
<path fill="none" stroke="#aacf1f" stroke-width="0.5" d="M105,-2526.62C105,-2483.76 105,-2388.78 105,-2338.5"/>
<polygon fill="#aacf1f" stroke="#aacf1f" stroke-width="0.5" points="108.5,-2338.66 105,-2328.66 101.5,-2338.66 108.5,-2338.66"/>
<text text-anchor="start" x="105" y="-2435.4" font-family="Master Photograph" font-size="14.00">1y 13d +0ms</text>
</g>
<!-- 30 -->
<g id="node30" class="node">
<title>30</title>
<text text-anchor="start" x="286.41" y="-2562.2" font-family="Simple Plan" font-size="14.00">Fri Jul 31 2015</text>
<text text-anchor="start" x="302.75" y="-2545.4" font-family="Simple Plan" font-size="14.00">14y 350d</text>
<text text-anchor="start" x="233.93" y="-2528.6" font-family="Simple Plan" font-size="14.00">&#45;9y &#45;306d &#45;18h &#45;27m &#45;50s &#45;193ms</text>
</g>
<!-- 30&#45;&gt;29 -->
<g id="edge15" class="edge">
<title>30&#45;&gt;29</title>
<path fill="none" stroke="black" stroke-width="0.5" stroke-dasharray="1,5" d="M329,-2549.6C280.88,-2549.6 232.75,-2549.6 184.62,-2549.6"/>
</g>
<!-- 33 -->
<g id="node33" class="node">
<title>33</title>
<ellipse fill="none" stroke="#aacf1f" cx="105" cy="-2060" rx="65.12" ry="22.63"/>
<text text-anchor="start" x="66.95" y="-2054" font-family="Simple Plan" font-size="20.00">Evoke 20</text>
</g>
<!-- 31&#45;&gt;33 -->
<g id="edge41" class="edge">
<title>31&#45;&gt;33</title>
<path fill="none" stroke="#aacf1f" stroke-width="0.5" d="M105,-2281.82C105,-2238.96 105,-2143.98 105,-2093.7"/>
<polygon fill="#aacf1f" stroke="#aacf1f" stroke-width="0.5" points="108.5,-2093.86 105,-2083.86 101.5,-2093.86 108.5,-2093.86"/>
<text text-anchor="start" x="105" y="-2190.6" font-family="Master Photograph" font-size="14.00">1y 6d +0ms</text>
</g>
<!-- 32 -->
<g id="node32" class="node">
<title>32</title>
<text text-anchor="start" x="282.53" y="-2317.4" font-family="Simple Plan" font-size="14.00">Fri Aug 12 2016</text>
<text text-anchor="start" x="302.75" y="-2300.6" font-family="Simple Plan" font-size="14.00">15y 363d</text>
<text text-anchor="start" x="233.93" y="-2283.8" font-family="Simple Plan" font-size="14.00">&#45;8y &#45;293d &#45;18h &#45;27m &#45;50s &#45;193ms</text>
</g>
<!-- 32&#45;&gt;31 -->
<g id="edge16" class="edge">
<title>32&#45;&gt;31</title>
<path fill="none" stroke="black" stroke-width="0.5" stroke-dasharray="1,5" d="M329,-2304.8C280.88,-2304.8 232.75,-2304.8 184.62,-2304.8"/>
</g>
<!-- 35 -->
<g id="node35" class="node">
<title>35</title>
<ellipse fill="none" stroke="#aacf1f" cx="105" cy="-1815.2" rx="79.26" ry="22.63"/>
<text text-anchor="start" x="56.95" y="-1809.2" font-family="Simple Plan" font-size="20.00">Evoke 2018</text>
</g>
<!-- 33&#45;&gt;35 -->
<g id="edge42" class="edge">
<title>33&#45;&gt;35</title>
<path fill="none" stroke="#aacf1f" stroke-width="0.5" d="M105,-2037.02C105,-1994.16 105,-1899.18 105,-1848.9"/>
<polygon fill="#aacf1f" stroke="#aacf1f" stroke-width="0.5" points="108.5,-1849.06 105,-1839.06 101.5,-1849.06 108.5,-1849.06"/>
<text text-anchor="start" x="105" y="-1945.8" font-family="Master Photograph" font-size="14.00">364d +0ms</text>
</g>
<!-- 34 -->
<g id="node34" class="node">
<title>34</title>
<text text-anchor="start" x="268.53" y="-2072.6" font-family="Simple Plan" font-size="14.00">Fri Aug 18 2017</text>
<text text-anchor="start" x="295.75" y="-2055.8" font-family="Simple Plan" font-size="14.00">17y 4d</text>
<text text-anchor="start" x="219.93" y="-2039" font-family="Simple Plan" font-size="14.00">&#45;7y &#45;287d &#45;18h &#45;27m &#45;50s &#45;193ms</text>
</g>
<!-- 34&#45;&gt;33 -->
<g id="edge17" class="edge">
<title>34&#45;&gt;33</title>
<path fill="none" stroke="black" stroke-width="0.5" stroke-dasharray="1,5" d="M315,-2060C266.74,-2060 218.48,-2060 170.21,-2060"/>
</g>
<!-- 37 -->
<g id="node37" class="node">
<title>37</title>
<ellipse fill="none" stroke="#aacf1f" cx="105" cy="-1570.4" rx="79.26" ry="22.63"/>
<text text-anchor="start" x="56.95" y="-1564.4" font-family="Simple Plan" font-size="20.00">Evoke 2019</text>
</g>
<!-- 35&#45;&gt;37 -->
<g id="edge43" class="edge">
<title>35&#45;&gt;37</title>
<path fill="none" stroke="#aacf1f" stroke-width="0.5" d="M105,-1792.22C105,-1749.36 105,-1654.38 105,-1604.1"/>
<polygon fill="#aacf1f" stroke="#aacf1f" stroke-width="0.5" points="108.5,-1604.26 105,-1594.26 101.5,-1604.26 108.5,-1604.26"/>
<text text-anchor="start" x="105" y="-1701" font-family="Master Photograph" font-size="14.00">364d +0ms</text>
</g>
<!-- 36 -->
<g id="node36" class="node">
<title>36</title>
<text text-anchor="start" x="282.53" y="-1827.8" font-family="Simple Plan" font-size="14.00">Fri Aug 17 2018</text>
<text text-anchor="start" x="309.75" y="-1811" font-family="Simple Plan" font-size="14.00">18y 3d</text>
<text text-anchor="start" x="233.93" y="-1794.2" font-family="Simple Plan" font-size="14.00">&#45;6y &#45;288d &#45;18h &#45;27m &#45;50s &#45;193ms</text>
</g>
<!-- 36&#45;&gt;35 -->
<g id="edge18" class="edge">
<title>36&#45;&gt;35</title>
<path fill="none" stroke="black" stroke-width="0.5" stroke-dasharray="1,5" d="M329,-1815.2C280.88,-1815.2 232.75,-1815.2 184.62,-1815.2"/>
</g>
<!-- 39 -->
<g id="node39" class="node">
<title>39</title>
<ellipse fill="none" stroke="#aacf1f" cx="105" cy="-1325.6" rx="63.16" ry="22.63"/>
<text text-anchor="start" x="68.34" y="-1319.6" font-family="Simple Plan" font-size="20.00">Novoque</text>
</g>
<!-- 37&#45;&gt;39 -->
<g id="edge44" class="edge">
<title>37&#45;&gt;39</title>
<path fill="none" stroke="#aacf1f" stroke-width="0.5" d="M105,-1547.42C105,-1504.56 105,-1409.58 105,-1359.3"/>
<polygon fill="#aacf1f" stroke="#aacf1f" stroke-width="0.5" points="108.5,-1359.46 105,-1349.46 101.5,-1359.46 108.5,-1359.46"/>
<text text-anchor="start" x="105" y="-1456.2" font-family="Master Photograph" font-size="14.00">1y +0ms</text>
</g>
<!-- 38 -->
<g id="node38" class="node">
<title>38</title>
<text text-anchor="start" x="282.53" y="-1583" font-family="Simple Plan" font-size="14.00">Fri Aug 16 2019</text>
<text text-anchor="start" x="309.75" y="-1566.2" font-family="Simple Plan" font-size="14.00">19y 2d</text>
<text text-anchor="start" x="233.93" y="-1549.4" font-family="Simple Plan" font-size="14.00">&#45;5y &#45;289d &#45;18h &#45;27m &#45;50s &#45;193ms</text>
</g>
<!-- 38&#45;&gt;37 -->
<g id="edge19" class="edge">
<title>38&#45;&gt;37</title>
<path fill="none" stroke="black" stroke-width="0.5" stroke-dasharray="1,5" d="M329,-1570.4C280.88,-1570.4 232.75,-1570.4 184.62,-1570.4"/>
</g>
<!-- 41 -->
<g id="node41" class="node">
<title>41</title>
<ellipse fill="none" stroke="#aacf1f" cx="105" cy="-1080.8" rx="56.09" ry="22.63"/>
<text text-anchor="start" x="73.34" y="-1074.8" font-family="Simple Plan" font-size="20.00">Névoke</text>
</g>
<!-- 39&#45;&gt;41 -->
<g id="edge45" class="edge">
<title>39&#45;&gt;41</title>
<path fill="none" stroke="#aacf1f" stroke-width="0.5" d="M105,-1302.62C105,-1259.76 105,-1164.78 105,-1114.5"/>
<polygon fill="#aacf1f" stroke="#aacf1f" stroke-width="0.5" points="108.5,-1114.66 105,-1104.66 101.5,-1114.66 108.5,-1114.66"/>
<text text-anchor="start" x="105" y="-1211.4" font-family="Master Photograph" font-size="14.00">364d +0ms</text>
</g>
<!-- 40 -->
<g id="node40" class="node">
<title>40</title>
<text text-anchor="start" x="265.75" y="-1338.2" font-family="Simple Plan" font-size="14.00">Sat Aug 15 2020</text>
<text text-anchor="start" x="293.75" y="-1321.4" font-family="Simple Plan" font-size="14.00">20y 2d</text>
<text text-anchor="start" x="217.93" y="-1304.6" font-family="Simple Plan" font-size="14.00">&#45;4y &#45;289d &#45;18h &#45;27m &#45;50s &#45;194ms</text>
</g>
<!-- 40&#45;&gt;39 -->
<g id="edge20" class="edge">
<title>40&#45;&gt;39</title>
<path fill="none" stroke="black" stroke-width="0.5" stroke-dasharray="1,5" d="M313,-1325.6C264.79,-1325.6 216.58,-1325.6 168.38,-1325.6"/>
</g>
<!-- 43 -->
<g id="node43" class="node">
<title>43</title>
<ellipse fill="none" stroke="#aacf1f" cx="105" cy="-836" rx="79.26" ry="22.63"/>
<text text-anchor="start" x="56.95" y="-830" font-family="Simple Plan" font-size="20.00">Evoke 2022</text>
</g>
<!-- 41&#45;&gt;43 -->
<g id="edge46" class="edge">
<title>41&#45;&gt;43</title>
<path fill="none" stroke="#aacf1f" stroke-width="0.5" d="M105,-1057.82C105,-1014.96 105,-919.98 105,-869.7"/>
<polygon fill="#aacf1f" stroke="#aacf1f" stroke-width="0.5" points="108.5,-869.86 105,-859.86 101.5,-869.86 108.5,-869.86"/>
<text text-anchor="start" x="105" y="-966.6" font-family="Master Photograph" font-size="14.00">356d +0ms</text>
</g>
<!-- 42 -->
<g id="node42" class="node">
<title>42</title>
<text text-anchor="start" x="258.75" y="-1093.4" font-family="Simple Plan" font-size="14.00">Sat Aug 14 2021</text>
<text text-anchor="start" x="286.75" y="-1076.6" font-family="Simple Plan" font-size="14.00">21y 1d</text>
<text text-anchor="start" x="210.93" y="-1059.8" font-family="Simple Plan" font-size="14.00">&#45;3y &#45;290d &#45;18h &#45;27m &#45;50s &#45;194ms</text>
</g>
<!-- 42&#45;&gt;41 -->
<g id="edge21" class="edge">
<title>42&#45;&gt;41</title>
<path fill="none" stroke="black" stroke-width="0.5" stroke-dasharray="1,5" d="M306,-1080.8C257.84,-1080.8 209.69,-1080.8 161.53,-1080.8"/>
</g>
<!-- 45 -->
<g id="node45" class="node">
<title>45</title>
<ellipse fill="none" stroke="#aacf1f" cx="105" cy="-591.2" rx="79.26" ry="22.63"/>
<text text-anchor="start" x="56.95" y="-585.2" font-family="Simple Plan" font-size="20.00">Evoke 2023</text>
</g>
<!-- 43&#45;&gt;45 -->
<g id="edge47" class="edge">
<title>43&#45;&gt;45</title>
<path fill="none" stroke="#aacf1f" stroke-width="0.5" d="M105,-813.02C105,-770.16 105,-675.18 105,-624.9"/>
<polygon fill="#aacf1f" stroke="#aacf1f" stroke-width="0.5" points="108.5,-625.06 105,-615.06 101.5,-625.06 108.5,-625.06"/>
<text text-anchor="start" x="105" y="-721.8" font-family="Master Photograph" font-size="14.00">357d +0ms</text>
</g>
<!-- 44 -->
<g id="node44" class="node">
<title>44</title>
<text text-anchor="start" x="282.53" y="-848.6" font-family="Simple Plan" font-size="14.00">Fri Aug 05 2022</text>
<text text-anchor="start" x="302.75" y="-831.8" font-family="Simple Plan" font-size="14.00">21y 357d</text>
<text text-anchor="start" x="233.93" y="-815" font-family="Simple Plan" font-size="14.00">&#45;2y &#45;299d &#45;18h &#45;27m &#45;50s &#45;194ms</text>
</g>
<!-- 44&#45;&gt;43 -->
<g id="edge22" class="edge">
<title>44&#45;&gt;43</title>
<path fill="none" stroke="black" stroke-width="0.5" stroke-dasharray="1,5" d="M329,-836C280.88,-836 232.75,-836 184.62,-836"/>
</g>
<!-- 47 -->
<g id="node47" class="node">
<title>47</title>
<ellipse fill="none" stroke="#aacf1f" cx="105" cy="-308.4" rx="79.26" ry="22.63"/>
<text text-anchor="start" x="56.95" y="-302.4" font-family="Simple Plan" font-size="20.00">Evoke 2024</text>
</g>
<!-- 45&#45;&gt;47 -->
<g id="edge48" class="edge">
<title>45&#45;&gt;47</title>
<path fill="none" stroke="#aacf1f" stroke-width="0.5" d="M105,-568.38C105,-551.95 105,-528.86 105,-508.6 105,-508.6 105,-508.6 105,-415.8 105,-391.06 105,-363.08 105,-342.03"/>
<polygon fill="#aacf1f" stroke="#aacf1f" stroke-width="0.5" points="108.5,-342.16 105,-332.16 101.5,-342.16 108.5,-342.16"/>
<text text-anchor="start" x="105" y="-458" font-family="Master Photograph" font-size="14.00">1y 20d +0ms</text>
</g>
<!-- 46 -->
<g id="node46" class="node">
<title>46</title>
<text text-anchor="start" x="286.41" y="-603.8" font-family="Simple Plan" font-size="14.00">Fri Jul 28 2023</text>
<text text-anchor="start" x="302.75" y="-587" font-family="Simple Plan" font-size="14.00">22y 349d</text>
<text text-anchor="start" x="233.93" y="-570.2" font-family="Simple Plan" font-size="14.00">&#45;1y &#45;307d &#45;18h &#45;27m &#45;50s &#45;194ms</text>
</g>
<!-- 46&#45;&gt;45 -->
<g id="edge23" class="edge">
<title>46&#45;&gt;45</title>
<path fill="none" stroke="black" stroke-width="0.5" stroke-dasharray="1,5" d="M329,-591.2C280.88,-591.2 232.75,-591.2 184.62,-591.2"/>
</g>
<!-- 49 -->
<g id="node49" class="node">
<title>49</title>
<ellipse fill="none" stroke="#aacf1f" cx="105" cy="-63.6" rx="79.26" ry="22.63"/>
<text text-anchor="start" x="56.95" y="-57.6" font-family="Simple Plan" font-size="20.00">Evoke 2025</text>
</g>
<!-- 47&#45;&gt;49 -->
<g id="edge49" class="edge">
<title>47&#45;&gt;49</title>
<path fill="none" stroke="#aacf1f" stroke-width="0.5" d="M105,-285.42C105,-242.56 105,-147.58 105,-97.3"/>
<polygon fill="#aacf1f" stroke="#aacf1f" stroke-width="0.5" points="108.5,-97.46 105,-87.46 101.5,-97.46 108.5,-97.46"/>
<text text-anchor="start" x="105" y="-194.2" font-family="Master Photograph" font-size="14.00">364d +0ms</text>
</g>
<!-- 48 -->
<g id="node48" class="node">
<title>48</title>
<text text-anchor="start" x="271.53" y="-321" font-family="Simple Plan" font-size="14.00">Fri Aug 16 2024</text>
<text text-anchor="start" x="298.75" y="-304.2" font-family="Simple Plan" font-size="14.00">24y 4d</text>
<text text-anchor="start" x="234.01" y="-287.4" font-family="Simple Plan" font-size="14.00">&#45;287d &#45;18h &#45;27m &#45;50s &#45;194ms</text>
</g>
<!-- 48&#45;&gt;47 -->
<g id="edge24" class="edge">
<title>48&#45;&gt;47</title>
<path fill="none" stroke="black" stroke-width="0.5" stroke-dasharray="1,5" d="M318,-308.4C273.49,-308.4 228.97,-308.4 184.46,-308.4"/>
</g>
<!-- 50 -->
<g id="node50" class="node">
<title>50</title>
<text text-anchor="start" x="234.53" y="-76.2" font-family="Simple Plan" font-size="14.00">Fri Aug 15 2025</text>
<text text-anchor="start" x="261.75" y="-59.4" font-family="Simple Plan" font-size="14.00">25y 3d</text>
<text text-anchor="start" x="234.33" y="-42.6" font-family="Simple Plan" font-size="14.00">76d 5h 32m 9.8s</text>
</g>
<!-- 50&#45;&gt;49 -->
<g id="edge25" class="edge">
<title>50&#45;&gt;49</title>
<path fill="none" stroke="black" stroke-width="0.5" stroke-dasharray="1,5" d="M281,-63.6C248.92,-63.6 216.83,-63.6 184.75,-63.6"/>
</g>
</g>
</svg>
