<?xml version="1.0" encoding="UTF-8" standalone="no"?>
<!DOCTYPE svg PUBLIC "-//W3C//DTD SVG 1.1//EN"
 "http://www.w3.org/Graphics/SVG/1.1/DTD/svg11.dtd">
<!-- Generated by graphviz version 12.2.1 (20241206.2353)
 -->
<!-- Pages: 1 -->
<svg width="4924pt" height="2602pt"
 viewBox="0.00 0.00 4924.00 2602.40" xmlns="http://www.w3.org/2000/svg" xmlns:xlink="http://www.w3.org/1999/xlink">
<g id="graph0" class="graph" transform="scale(1 1) rotate(0) translate(4 2598.4)">
<polygon fill="white" stroke="none" points="-4,4 -4,-2598.4 4920,-2598.4 4920,4 -4,4"/>
<g id="clust1" class="cluster">
<title>cluster_2015</title>
<polygon fill="none" stroke="black" stroke-width="0.2" stroke-dasharray="5,2" points="9,-2425.6 9,-2586.4 463,-2586.4 463,-2425.6 9,-2425.6"/>
<text text-anchor="middle" x="236" y="-2569.8" font-family="Master Photograph" font-size="14.00">2015</text>
</g>
<g id="clust2" class="cluster">
<title>%3</title>
</g>
<g id="clust3" class="cluster">
<title>cluster_2021</title>
<polygon fill="none" stroke="black" stroke-width="0.2" stroke-dasharray="5,2" points="8,-2080 8,-2240.8 454,-2240.8 454,-2080 8,-2080"/>
<text text-anchor="middle" x="231" y="-2224.2" font-family="Master Photograph" font-size="14.00">2021</text>
</g>
<g id="clust4" class="cluster">
<title>%7</title>
</g>
<g id="clust5" class="cluster">
<title>cluster_2022</title>
<polygon fill="none" stroke="black" stroke-width="0.2" stroke-dasharray="5,2" points="8,-1174.8 8,-1971.2 3044,-1971.2 3044,-1174.8 8,-1174.8"/>
<text text-anchor="middle" x="1526" y="-1954.6" font-family="Master Photograph" font-size="14.00">2022</text>
</g>
<g id="clust6" class="cluster">
<title>%11</title>
</g>
<g id="clust7" class="cluster">
<title>%15</title>
</g>
<g id="clust8" class="cluster">
<title>%19</title>
</g>
<g id="clust9" class="cluster">
<title>%23</title>
</g>
<g id="clust10" class="cluster">
<title>%27</title>
</g>
<g id="clust11" class="cluster">
<title>%31</title>
</g>
<g id="clust12" class="cluster">
<title>%35</title>
</g>
<g id="clust13" class="cluster">
<title>%39</title>
</g>
<g id="clust14" class="cluster">
<title>%43</title>
</g>
<g id="clust15" class="cluster">
<title>%47</title>
</g>
<g id="clust16" class="cluster">
<title>%51</title>
</g>
<g id="clust17" class="cluster">
<title>%55</title>
</g>
<g id="clust18" class="cluster">
<title>%59</title>
</g>
<g id="clust19" class="cluster">
<title>cluster_2023</title>
<polygon fill="none" stroke="black" stroke-width="0.2" stroke-dasharray="5,2" points="2605,-641.2 2605,-1142 4311,-1142 4311,-641.2 2605,-641.2"/>
<text text-anchor="middle" x="3458" y="-1125.4" font-family="Master Photograph" font-size="14.00">2023</text>
</g>
<g id="clust20" class="cluster">
<title>%63</title>
</g>
<g id="clust21" class="cluster">
<title>%67</title>
</g>
<g id="clust22" class="cluster">
<title>%71</title>
</g>
<g id="clust23" class="cluster">
<title>%75</title>
</g>
<g id="clust24" class="cluster">
<title>%79</title>
</g>
<g id="clust25" class="cluster">
<title>%83</title>
</g>
<g id="clust26" class="cluster">
<title>%87</title>
</g>
<g id="clust27" class="cluster">
<title>cluster_2024</title>
<polygon fill="none" stroke="black" stroke-width="0.2" stroke-dasharray="5,2" points="3868,-371.6 3868,-532.4 4311,-532.4 4311,-371.6 3868,-371.6"/>
<text text-anchor="middle" x="4089.5" y="-515.8" font-family="Master Photograph" font-size="14.00">2024</text>
</g>
<g id="clust28" class="cluster">
<title>%91</title>
</g>
<g id="clust29" class="cluster">
<title>cluster_2025</title>
<polygon fill="none" stroke="black" stroke-width="0.2" stroke-dasharray="5,2" points="3861,-8 3861,-300.8 4908,-300.8 4908,-8 3861,-8"/>
<text text-anchor="middle" x="4384.5" y="-284.2" font-family="Master Photograph" font-size="14.00">2025</text>
</g>
<g id="clust30" class="cluster">
<title>%95</title>
</g>
<g id="clust31" class="cluster">
<title>%99</title>
</g>
<g id="clust32" class="cluster">
<title>%103</title>
</g>
<g id="clust33" class="cluster">
<title>%107</title>
</g>
<!-- Initial commit -->
<g id="node1" class="node">
<title>Initial commit</title>
<ellipse fill="none" stroke="black" cx="117" cy="-2481.2" rx="91.83" ry="22.63"/>
<text text-anchor="middle" x="117" y="-2475.2" font-family="Simple Plan" font-size="20.00">Initial commit</text>
</g>
<!-- v2.0.0&#45;alpha.0 -->
<g id="node3" class="node">
<title>v2.0.0&#45;alpha.0</title>
<ellipse fill="none" stroke="black" cx="117" cy="-2135.6" rx="92.61" ry="22.63"/>
<text text-anchor="middle" x="117" y="-2129.6" font-family="Simple Plan" font-size="20.00">v2.0.0&#45;alpha.0</text>
</g>
<!-- Initial commit&#45;&gt;v2.0.0&#45;alpha.0 -->
<g id="edge28" class="edge">
<title>Initial commit&#45;&gt;v2.0.0&#45;alpha.0</title>
<path fill="none" stroke="black" stroke-width="0.5" d="M117,-2458.38C117,-2441.95 117,-2418.86 117,-2398.6 117,-2398.6 117,-2398.6 117,-2267.8 117,-2234.12 117,-2195.57 117,-2169.02"/>
<polygon fill="black" stroke="black" stroke-width="0.5" points="120.5,-2169.18 117,-2159.18 113.5,-2169.18 120.5,-2169.18"/>
<text text-anchor="middle" x="177.67" y="-2329" font-family="Master Photograph" font-size="14.00">6y 138d 16h 57m 47s</text>
</g>
<!-- annotation0 -->
<g id="node2" class="node">
<title>annotation0</title>
<text text-anchor="middle" x="337" y="-2493.8" font-family="Simple Plan" font-size="14.00">Wed, 25 Feb 2015 01:25:04 GMT</text>
<text text-anchor="middle" x="337" y="-2477" font-family="Simple Plan" font-size="14.00">0ms</text>
<text text-anchor="middle" x="337" y="-2460.2" font-family="Simple Plan" font-size="14.00">&#45;10y 96d 15h 6m 5.2s</text>
</g>
<!-- annotation0&#45;&gt;Initial commit -->
<g id="edge1" class="edge">
<title>annotation0&#45;&gt;Initial commit</title>
<path fill="none" stroke="black" stroke-width="0.5" stroke-dasharray="1,5" d="M337,-2481.2C294.32,-2481.2 251.64,-2481.2 208.95,-2481.2"/>
</g>
<!-- v2.0.0&#45;alpha.1 -->
<g id="node5" class="node">
<title>v2.0.0&#45;alpha.1</title>
<ellipse fill="none" stroke="black" cx="117" cy="-1866" rx="92.61" ry="22.63"/>
<text text-anchor="middle" x="117" y="-1860" font-family="Simple Plan" font-size="20.00">v2.0.0&#45;alpha.1</text>
</g>
<!-- v2.0.0&#45;alpha.0&#45;&gt;v2.0.0&#45;alpha.1 -->
<g id="edge29" class="edge">
<title>v2.0.0&#45;alpha.0&#45;&gt;v2.0.0&#45;alpha.1</title>
<path fill="none" stroke="black" stroke-width="0.5" d="M117,-2112.7C117,-2065.64 117,-1954.66 117,-1899.41"/>
<polygon fill="black" stroke="black" stroke-width="0.5" points="120.5,-1899.58 117,-1889.58 113.5,-1899.58 120.5,-1899.58"/>
<text text-anchor="middle" x="168.92" y="-2021.4" font-family="Master Photograph" font-size="14.00">291d 18h 25m 40s</text>
</g>
<!-- annotation1 -->
<g id="node4" class="node">
<title>annotation1</title>
<text text-anchor="middle" x="333" y="-2148.2" font-family="Simple Plan" font-size="14.00">Sun, 11 Jul 2021 18:22:51 GMT</text>
<text text-anchor="middle" x="333" y="-2131.4" font-family="Simple Plan" font-size="14.00">6y 138d 16h 57m 47s</text>
<text text-anchor="middle" x="333" y="-2114.6" font-family="Simple Plan" font-size="14.00">&#45;3y 322d 22h 8m 18.2s</text>
</g>
<!-- annotation1&#45;&gt;v2.0.0&#45;alpha.0 -->
<g id="edge2" class="edge">
<title>annotation1&#45;&gt;v2.0.0&#45;alpha.0</title>
<path fill="none" stroke="black" stroke-width="0.5" stroke-dasharray="1,5" d="M333,-2135.6C291.94,-2135.6 250.88,-2135.6 209.81,-2135.6"/>
</g>
<!-- v2.0.0&#45;alpha.2 -->
<g id="node7" class="node">
<title>v2.0.0&#45;alpha.2</title>
<ellipse fill="none" stroke="black" cx="117" cy="-1680.2" rx="92.61" ry="22.63"/>
<text text-anchor="middle" x="117" y="-1674.2" font-family="Simple Plan" font-size="20.00">v2.0.0&#45;alpha.2</text>
</g>
<!-- v2.0.0&#45;alpha.1&#45;&gt;v2.0.0&#45;alpha.2 -->
<g id="edge30" class="edge">
<title>v2.0.0&#45;alpha.1&#45;&gt;v2.0.0&#45;alpha.2</title>
<path fill="none" stroke="black" stroke-width="0.5" d="M117,-1843.19C117,-1811.08 117,-1750.87 117,-1713.59"/>
<polygon fill="black" stroke="black" stroke-width="0.5" points="120.5,-1714.02 117,-1704.02 113.5,-1714.02 120.5,-1714.02"/>
<text text-anchor="middle" x="146.17" y="-1776.8" font-family="Master Photograph" font-size="14.00">56d 3m 4s</text>
</g>
<!-- annotation2 -->
<g id="node6" class="node">
<title>annotation2</title>
<text text-anchor="middle" x="333" y="-1878.6" font-family="Simple Plan" font-size="14.00">Fri, 29 Apr 2022 12:48:31 GMT</text>
<text text-anchor="middle" x="333" y="-1861.8" font-family="Simple Plan" font-size="14.00">7y 65d 11h 23m 27s</text>
<text text-anchor="middle" x="333" y="-1845" font-family="Simple Plan" font-size="14.00">&#45;3y 31d 3h 42m 38.2s</text>
</g>
<!-- annotation2&#45;&gt;v2.0.0&#45;alpha.1 -->
<g id="edge3" class="edge">
<title>annotation2&#45;&gt;v2.0.0&#45;alpha.1</title>
<path fill="none" stroke="black" stroke-width="0.5" stroke-dasharray="1,5" d="M333,-1866C291.94,-1866 250.88,-1866 209.81,-1866"/>
</g>
<!-- v2.0.0&#45;alpha.3 -->
<g id="node9" class="node">
<title>v2.0.0&#45;alpha.3</title>
<ellipse fill="none" stroke="black" cx="553" cy="-1680.2" rx="92.61" ry="22.63"/>
<text text-anchor="middle" x="553" y="-1674.2" font-family="Simple Plan" font-size="20.00">v2.0.0&#45;alpha.3</text>
</g>
<!-- v2.0.0&#45;alpha.2&#45;&gt;v2.0.0&#45;alpha.3 -->
<g id="edge31" class="edge">
<title>v2.0.0&#45;alpha.2&#45;&gt;v2.0.0&#45;alpha.3</title>
<path fill="none" stroke="black" stroke-width="0.5" d="M158.77,-1700.83C177.07,-1709.57 198.92,-1719.61 219,-1727.8 296.25,-1759.31 323.96,-1758.54 406.04,-1743.6 441.77,-1737.1 479.33,-1720.7 507.54,-1706.22"/>
<polygon fill="black" stroke="black" stroke-width="0.5" points="508.83,-1709.49 516.06,-1701.74 505.58,-1703.29 508.83,-1709.49"/>
<text text-anchor="middle" x="335" y="-1742" font-family="Master Photograph" font-size="14.00">5d 14m 17s +5d 14m 17s</text>
</g>
<!-- annotation3 -->
<g id="node8" class="node">
<title>annotation3</title>
<text text-anchor="middle" x="332" y="-1692.8" font-family="Simple Plan" font-size="14.00">Fri, 24 Jun 2022 12:51:35 GMT</text>
<text text-anchor="middle" x="332" y="-1676" font-family="Simple Plan" font-size="14.00">7y 121d 11h 26m 31s</text>
<text text-anchor="middle" x="332" y="-1659.2" font-family="Simple Plan" font-size="14.00">&#45;2y 340d 3h 39m 34.2s</text>
</g>
<!-- annotation3&#45;&gt;v2.0.0&#45;alpha.2 -->
<g id="edge4" class="edge">
<title>annotation3&#45;&gt;v2.0.0&#45;alpha.2</title>
<path fill="none" stroke="black" stroke-width="0.5" stroke-dasharray="1,5" d="M332,-1680.2C291.27,-1680.2 250.54,-1680.2 209.8,-1680.2"/>
</g>
<!-- v2.0.0&#45;alpha.4 -->
<g id="node11" class="node">
<title>v2.0.0&#45;alpha.4</title>
<ellipse fill="none" stroke="black" cx="117" cy="-1494.4" rx="92.61" ry="22.63"/>
<text text-anchor="middle" x="117" y="-1488.4" font-family="Simple Plan" font-size="20.00">v2.0.0&#45;alpha.4</text>
</g>
<!-- v2.0.0&#45;alpha.3&#45;&gt;v2.0.0&#45;alpha.4 -->
<g id="edge32" class="edge">
<title>v2.0.0&#45;alpha.3&#45;&gt;v2.0.0&#45;alpha.4</title>
<path fill="none" stroke="black" stroke-width="0.5" d="M510.27,-1659.74C491.28,-1651.22 468.6,-1641.23 448,-1632.6 346.66,-1590.17 319.03,-1585.16 218,-1542 201.53,-1534.96 183.74,-1526.91 167.74,-1519.5"/>
<polygon fill="black" stroke="black" stroke-width="0.5" points="169.27,-1516.35 158.73,-1515.3 166.31,-1522.69 169.27,-1516.35"/>
<text text-anchor="middle" x="420" y="-1591" font-family="Master Photograph" font-size="14.00">83d 4h 45m 35s</text>
</g>
<!-- annotation4 -->
<g id="node10" class="node">
<title>annotation4</title>
<text text-anchor="middle" x="773" y="-1692.8" font-family="Simple Plan" font-size="14.00">Wed, 29 Jun 2022 13:05:52 GMT</text>
<text text-anchor="middle" x="773" y="-1676" font-family="Simple Plan" font-size="14.00">7y 126d 11h 40m 48s</text>
<text text-anchor="middle" x="773" y="-1659.2" font-family="Simple Plan" font-size="14.00">&#45;2y 335d 3h 25m 17.2s</text>
</g>
<!-- annotation4&#45;&gt;v2.0.0&#45;alpha.3 -->
<g id="edge5" class="edge">
<title>annotation4&#45;&gt;v2.0.0&#45;alpha.3</title>
<path fill="none" stroke="black" stroke-width="0.5" stroke-dasharray="1,5" d="M773,-1680.2C730.6,-1680.2 688.21,-1680.2 645.81,-1680.2"/>
</g>
<!-- v2.0.0&#45;alpha.5 -->
<g id="node13" class="node">
<title>v2.0.0&#45;alpha.5</title>
<ellipse fill="none" stroke="black" cx="560" cy="-1494.4" rx="92.61" ry="22.63"/>
<text text-anchor="middle" x="560" y="-1488.4" font-family="Simple Plan" font-size="20.00">v2.0.0&#45;alpha.5</text>
</g>
<!-- v2.0.0&#45;alpha.4&#45;&gt;v2.0.0&#45;alpha.5 -->
<g id="edge33" class="edge">
<title>v2.0.0&#45;alpha.4&#45;&gt;v2.0.0&#45;alpha.5</title>
<path fill="none" stroke="black" stroke-width="0.5" d="M155.93,-1515.36C174.34,-1524.58 196.87,-1534.9 218,-1542 287.8,-1565.44 309.71,-1565.73 382.92,-1557.8 415.52,-1554.27 423.88,-1552.34 455,-1542 473.43,-1535.88 492.97,-1527.56 510.14,-1519.59"/>
<polygon fill="black" stroke="black" stroke-width="0.5" points="511.18,-1522.97 518.72,-1515.53 508.19,-1516.64 511.18,-1522.97"/>
<text text-anchor="middle" x="338" y="-1556.2" font-family="Master Photograph" font-size="14.00">16d 2h 39m 39s</text>
</g>
<!-- annotation5 -->
<g id="node12" class="node">
<title>annotation5</title>
<text text-anchor="middle" x="335" y="-1507" font-family="Simple Plan" font-size="14.00">Tue, 20 Sep 2022 17:51:27 GMT</text>
<text text-anchor="middle" x="335" y="-1490.2" font-family="Simple Plan" font-size="14.00">7y 209d 16h 26m 23s</text>
<text text-anchor="middle" x="335" y="-1473.4" font-family="Simple Plan" font-size="14.00">&#45;2y 251d 22h 39m 42.2s</text>
</g>
<!-- annotation5&#45;&gt;v2.0.0&#45;alpha.4 -->
<g id="edge6" class="edge">
<title>annotation5&#45;&gt;v2.0.0&#45;alpha.4</title>
<path fill="none" stroke="black" stroke-width="0.5" stroke-dasharray="1,5" d="M335,-1494.4C293.27,-1494.4 251.55,-1494.4 209.82,-1494.4"/>
</g>
<!-- v2.0.0&#45;alpha.6 -->
<g id="node15" class="node">
<title>v2.0.0&#45;alpha.6</title>
<ellipse fill="none" stroke="black" cx="1076" cy="-1494.4" rx="92.61" ry="22.63"/>
<text text-anchor="middle" x="1076" y="-1488.4" font-family="Simple Plan" font-size="20.00">v2.0.0&#45;alpha.6</text>
</g>
<!-- v2.0.0&#45;alpha.5&#45;&gt;v2.0.0&#45;alpha.6 -->
<g id="edge34" class="edge">
<title>v2.0.0&#45;alpha.5&#45;&gt;v2.0.0&#45;alpha.6</title>
<path fill="none" stroke="black" stroke-width="0.5" d="M596.71,-1515.43C615.38,-1525.14 638.77,-1535.86 661,-1542 730.17,-1561.11 914.99,-1579.04 983.54,-1557.8 1005.7,-1550.93 1027.27,-1536.71 1044,-1523.47"/>
<polygon fill="black" stroke="black" stroke-width="0.5" points="1046.18,-1526.21 1051.7,-1517.17 1041.74,-1520.8 1046.18,-1526.21"/>
<text text-anchor="middle" x="902" y="-1556.2" font-family="Master Photograph" font-size="14.00">5d 22h 9m 5s +5d 22h 9m 5s</text>
</g>
<!-- annotation6 -->
<g id="node14" class="node">
<title>annotation6</title>
<text text-anchor="middle" x="778" y="-1507" font-family="Simple Plan" font-size="14.00">Thu, 06 Oct 2022 20:31:06 GMT</text>
<text text-anchor="middle" x="778" y="-1490.2" font-family="Simple Plan" font-size="14.00">7y 225d 19h 6m 2s</text>
<text text-anchor="middle" x="778" y="-1473.4" font-family="Simple Plan" font-size="14.00">&#45;2y 235d 20h 3.2s</text>
</g>
<!-- annotation6&#45;&gt;v2.0.0&#45;alpha.5 -->
<g id="edge7" class="edge">
<title>annotation6&#45;&gt;v2.0.0&#45;alpha.5</title>
<path fill="none" stroke="black" stroke-width="0.5" stroke-dasharray="1,5" d="M778,-1494.4C736.27,-1494.4 694.55,-1494.4 652.82,-1494.4"/>
</g>
<!-- v2.0.0&#45;alpha.7 -->
<g id="node17" class="node">
<title>v2.0.0&#45;alpha.7</title>
<ellipse fill="none" stroke="black" cx="1585" cy="-1494.4" rx="92.61" ry="22.63"/>
<text text-anchor="middle" x="1585" y="-1488.4" font-family="Simple Plan" font-size="20.00">v2.0.0&#45;alpha.7</text>
</g>
<!-- v2.0.0&#45;alpha.6&#45;&gt;v2.0.0&#45;alpha.7 -->
<g id="edge35" class="edge">
<title>v2.0.0&#45;alpha.6&#45;&gt;v2.0.0&#45;alpha.7</title>
<path fill="none" stroke="black" stroke-width="0.5" d="M1099.64,-1516.69C1117.1,-1531.53 1142.24,-1549.73 1168.21,-1557.8 1235.94,-1578.84 1257.13,-1563.94 1327.79,-1557.8 1368.34,-1554.28 1378.33,-1551.1 1418,-1542 1451,-1534.43 1487.19,-1524.34 1517.41,-1515.4"/>
<polygon fill="black" stroke="black" stroke-width="0.5" points="1518.11,-1518.84 1526.69,-1512.63 1516.11,-1512.13 1518.11,-1518.84"/>
<text text-anchor="middle" x="1248" y="-1556.2" font-family="Master Photograph" font-size="14.00">22h 13m 2s +6d 20h 22m 7s</text>
</g>
<!-- annotation7 -->
<g id="node16" class="node">
<title>annotation7</title>
<text text-anchor="middle" x="1296" y="-1507" font-family="Simple Plan" font-size="14.00">Wed, 12 Oct 2022 18:40:11 GMT</text>
<text text-anchor="middle" x="1296" y="-1490.2" font-family="Simple Plan" font-size="14.00">7y 231d 17h 15m 7s</text>
<text text-anchor="middle" x="1296" y="-1473.4" font-family="Simple Plan" font-size="14.00">&#45;2y 229d 21h 50m 58.2s</text>
</g>
<!-- annotation7&#45;&gt;v2.0.0&#45;alpha.6 -->
<g id="edge8" class="edge">
<title>annotation7&#45;&gt;v2.0.0&#45;alpha.6</title>
<path fill="none" stroke="black" stroke-width="0.5" stroke-dasharray="1,5" d="M1296,-1494.4C1253.6,-1494.4 1211.21,-1494.4 1168.81,-1494.4"/>
</g>
<!-- v2.0.0&#45;alpha.8 -->
<g id="node19" class="node">
<title>v2.0.0&#45;alpha.8</title>
<ellipse fill="none" stroke="black" cx="2144" cy="-1494.4" rx="92.61" ry="22.63"/>
<text text-anchor="middle" x="2144" y="-1488.4" font-family="Simple Plan" font-size="20.00">v2.0.0&#45;alpha.8</text>
</g>
<!-- v2.0.0&#45;alpha.7&#45;&gt;v2.0.0&#45;alpha.8 -->
<g id="edge36" class="edge">
<title>v2.0.0&#45;alpha.7&#45;&gt;v2.0.0&#45;alpha.8</title>
<path fill="none" stroke="black" stroke-width="0.5" d="M1608.87,-1516.69C1626.48,-1531.53 1651.83,-1549.74 1677.96,-1557.8 1717.05,-1569.86 1821.38,-1562.31 1862.04,-1557.8 1935.15,-1549.68 2017.01,-1530.06 2073.61,-1514.78"/>
<polygon fill="black" stroke="black" stroke-width="0.5" points="2074.42,-1518.19 2083.15,-1512.18 2072.58,-1511.44 2074.42,-1518.19"/>
<text text-anchor="middle" x="1770" y="-1556.2" font-family="Master Photograph" font-size="14.00">6d 1h 42m 44s +12d 22h 4m 51s</text>
</g>
<!-- annotation8 -->
<g id="node18" class="node">
<title>annotation8</title>
<text text-anchor="middle" x="1803" y="-1507" font-family="Simple Plan" font-size="14.00">Thu, 13 Oct 2022 16:53:13 GMT</text>
<text text-anchor="middle" x="1803" y="-1490.2" font-family="Simple Plan" font-size="14.00">7y 232d 15h 28m 9s</text>
<text text-anchor="middle" x="1803" y="-1473.4" font-family="Simple Plan" font-size="14.00">&#45;2y 228d 23h 37m 56.2s</text>
</g>
<!-- annotation8&#45;&gt;v2.0.0&#45;alpha.7 -->
<g id="edge9" class="edge">
<title>annotation8&#45;&gt;v2.0.0&#45;alpha.7</title>
<path fill="none" stroke="black" stroke-width="0.5" stroke-dasharray="1,5" d="M1803,-1494.4C1761.27,-1494.4 1719.55,-1494.4 1677.82,-1494.4"/>
</g>
<!-- v2.0.0&#45;alpha.9 -->
<g id="node21" class="node">
<title>v2.0.0&#45;alpha.9</title>
<ellipse fill="none" stroke="black" cx="2703" cy="-1494.4" rx="92.61" ry="22.63"/>
<text text-anchor="middle" x="2703" y="-1488.4" font-family="Simple Plan" font-size="20.00">v2.0.0&#45;alpha.9</text>
</g>
<!-- v2.0.0&#45;alpha.8&#45;&gt;v2.0.0&#45;alpha.9 -->
<g id="edge37" class="edge">
<title>v2.0.0&#45;alpha.8&#45;&gt;v2.0.0&#45;alpha.9</title>
<path fill="none" stroke="black" stroke-width="0.5" d="M2180.68,-1515.54C2199.34,-1525.28 2222.73,-1535.99 2245,-1542 2284.19,-1552.58 2571.24,-1569.77 2610.04,-1557.8 2632.29,-1550.93 2653.98,-1536.71 2670.8,-1523.48"/>
<polygon fill="black" stroke="black" stroke-width="0.5" points="2673,-1526.2 2678.55,-1517.17 2668.58,-1520.77 2673,-1526.2"/>
<text text-anchor="middle" x="2518" y="-1556.2" font-family="Master Photograph" font-size="14.00">5d 21h 57m 16s +18d 20h 2m 7s</text>
</g>
<!-- annotation9 -->
<g id="node20" class="node">
<title>annotation9</title>
<text text-anchor="middle" x="2364" y="-1507" font-family="Simple Plan" font-size="14.00">Wed, 19 Oct 2022 18:35:57 GMT</text>
<text text-anchor="middle" x="2364" y="-1490.2" font-family="Simple Plan" font-size="14.00">7y 238d 17h 10m 53s</text>
<text text-anchor="middle" x="2364" y="-1473.4" font-family="Simple Plan" font-size="14.00">&#45;2y 222d 21h 55m 12.2s</text>
</g>
<!-- annotation9&#45;&gt;v2.0.0&#45;alpha.8 -->
<g id="edge10" class="edge">
<title>annotation9&#45;&gt;v2.0.0&#45;alpha.8</title>
<path fill="none" stroke="black" stroke-width="0.5" stroke-dasharray="1,5" d="M2364,-1494.4C2321.6,-1494.4 2279.21,-1494.4 2236.81,-1494.4"/>
</g>
<!-- v2.0.0&#45;alpha.10 -->
<g id="node23" class="node">
<title>v2.0.0&#45;alpha.10</title>
<ellipse fill="none" stroke="black" cx="2223" cy="-1362.4" rx="99.68" ry="22.63"/>
<text text-anchor="middle" x="2223" y="-1356.4" font-family="Simple Plan" font-size="20.00">v2.0.0&#45;alpha.10</text>
</g>
<!-- v2.0.0&#45;alpha.9&#45;&gt;v2.0.0&#45;alpha.10 -->
<g id="edge38" class="edge">
<title>v2.0.0&#45;alpha.9&#45;&gt;v2.0.0&#45;alpha.10</title>
<path fill="none" stroke="black" stroke-width="0.5" d="M2634.68,-1478.75C2535.56,-1457.39 2360.54,-1419.22 2332,-1410 2312.83,-1403.81 2292.39,-1395.54 2274.45,-1387.68"/>
<polygon fill="black" stroke="black" stroke-width="0.5" points="2276.01,-1384.55 2265.45,-1383.69 2273.17,-1390.95 2276.01,-1384.55"/>
<text text-anchor="middle" x="2480.92" y="-1424.2" font-family="Master Photograph" font-size="14.00">26d 2h 1m 21s</text>
</g>
<!-- annotation10 -->
<g id="node22" class="node">
<title>annotation10</title>
<text text-anchor="middle" x="2921" y="-1507" font-family="Simple Plan" font-size="14.00">Tue, 25 Oct 2022 16:33:13 GMT</text>
<text text-anchor="middle" x="2921" y="-1490.2" font-family="Simple Plan" font-size="14.00">7y 244d 15h 8m 9s</text>
<text text-anchor="middle" x="2921" y="-1473.4" font-family="Simple Plan" font-size="14.00">&#45;2y 216d 23h 57m 56.2s</text>
</g>
<!-- annotation10&#45;&gt;v2.0.0&#45;alpha.9 -->
<g id="edge11" class="edge">
<title>annotation10&#45;&gt;v2.0.0&#45;alpha.9</title>
<path fill="none" stroke="black" stroke-width="0.5" stroke-dasharray="1,5" d="M2921,-1494.4C2879.27,-1494.4 2837.55,-1494.4 2795.82,-1494.4"/>
</g>
<!-- v2.0.0&#45;alpha.11 -->
<g id="node25" class="node">
<title>v2.0.0&#45;alpha.11</title>
<ellipse fill="none" stroke="black" cx="1708" cy="-1230.4" rx="99.68" ry="22.63"/>
<text text-anchor="middle" x="1708" y="-1224.4" font-family="Simple Plan" font-size="20.00">v2.0.0&#45;alpha.11</text>
</g>
<!-- v2.0.0&#45;alpha.10&#45;&gt;v2.0.0&#45;alpha.11 -->
<g id="edge39" class="edge">
<title>v2.0.0&#45;alpha.10&#45;&gt;v2.0.0&#45;alpha.11</title>
<path fill="none" stroke="black" stroke-width="0.5" d="M2126.12,-1356.83C2013.46,-1350.19 1835.38,-1335.19 1776.16,-1304.8 1756.84,-1294.88 1740.15,-1277.18 1728.12,-1261.64"/>
<polygon fill="black" stroke="black" stroke-width="0.5" points="1731.15,-1259.85 1722.38,-1253.9 1725.53,-1264.02 1731.15,-1259.85"/>
<text text-anchor="middle" x="1824.58" y="-1292.2" font-family="Master Photograph" font-size="14.00">26d 20h 12m 28s</text>
</g>
<!-- annotation11 -->
<g id="node24" class="node">
<title>annotation11</title>
<text text-anchor="middle" x="2450" y="-1375" font-family="Simple Plan" font-size="14.00">Sun, 20 Nov 2022 18:34:34 GMT</text>
<text text-anchor="middle" x="2450" y="-1358.2" font-family="Simple Plan" font-size="14.00">7y 270d 17h 9m 30s</text>
<text text-anchor="middle" x="2450" y="-1341.4" font-family="Simple Plan" font-size="14.00">&#45;2y 190d 21h 56m 35.2s</text>
</g>
<!-- annotation11&#45;&gt;v2.0.0&#45;alpha.10 -->
<g id="edge12" class="edge">
<title>annotation11&#45;&gt;v2.0.0&#45;alpha.10</title>
<path fill="none" stroke="black" stroke-width="0.5" stroke-dasharray="1,5" d="M2450,-1362.4C2407.59,-1362.4 2365.17,-1362.4 2322.76,-1362.4"/>
</g>
<!-- v2.0.0&#45;alpha.12 -->
<g id="node27" class="node">
<title>v2.0.0&#45;alpha.12</title>
<ellipse fill="none" stroke="black" cx="2163" cy="-1230.4" rx="99.68" ry="22.63"/>
<text text-anchor="middle" x="2163" y="-1224.4" font-family="Simple Plan" font-size="20.00">v2.0.0&#45;alpha.12</text>
</g>
<!-- v2.0.0&#45;alpha.11&#45;&gt;v2.0.0&#45;alpha.12 -->
<g id="edge40" class="edge">
<title>v2.0.0&#45;alpha.11&#45;&gt;v2.0.0&#45;alpha.12</title>
<path fill="none" stroke="black" stroke-width="0.5" d="M1751.3,-1251.18C1770.81,-1260.1 1794.29,-1270.24 1816,-1278 1842.7,-1287.55 1849.37,-1291.29 1877.46,-1295.13 1913.37,-1300.04 2005.36,-1303.86 2040.54,-1295.13 2069.87,-1287.86 2099.92,-1272.12 2122.91,-1257.99"/>
<polygon fill="black" stroke="black" stroke-width="0.5" points="2124.76,-1260.96 2131.35,-1252.67 2121.03,-1255.04 2124.76,-1260.96"/>
<text text-anchor="middle" x="1959" y="-1292.2" font-family="Master Photograph" font-size="14.00">3d 4h 9m 24s +3d 4h 9m 24s</text>
</g>
<!-- annotation12 -->
<g id="node26" class="node">
<title>annotation12</title>
<text text-anchor="middle" x="1932" y="-1243" font-family="Simple Plan" font-size="14.00">Sat, 17 Dec 2022 14:47:02 GMT</text>
<text text-anchor="middle" x="1932" y="-1226.2" font-family="Simple Plan" font-size="14.00">7y 297d 13h 21m 58s</text>
<text text-anchor="middle" x="1932" y="-1209.4" font-family="Simple Plan" font-size="14.00">&#45;2y 164d 1h 44m 7.2s</text>
</g>
<!-- annotation12&#45;&gt;v2.0.0&#45;alpha.11 -->
<g id="edge13" class="edge">
<title>annotation12&#45;&gt;v2.0.0&#45;alpha.11</title>
<path fill="none" stroke="black" stroke-width="0.5" stroke-dasharray="1,5" d="M1932,-1230.4C1890.58,-1230.4 1849.17,-1230.4 1807.75,-1230.4"/>
</g>
<!-- v2.0.0&#45;beta.1 -->
<g id="node29" class="node">
<title>v2.0.0&#45;beta.1</title>
<ellipse fill="none" stroke="black" cx="2707" cy="-1230.4" rx="85.54" ry="22.63"/>
<text text-anchor="middle" x="2707" y="-1224.4" font-family="Simple Plan" font-size="20.00">v2.0.0&#45;beta.1</text>
</g>
<!-- v2.0.0&#45;alpha.12&#45;&gt;v2.0.0&#45;beta.1 -->
<g id="edge41" class="edge">
<title>v2.0.0&#45;alpha.12&#45;&gt;v2.0.0&#45;beta.1</title>
<path fill="none" stroke="black" stroke-width="0.5" d="M2203.07,-1251.5C2223.21,-1261.16 2248.32,-1271.82 2272,-1278 2346.53,-1297.46 2367.53,-1291.32 2444.46,-1295.13 2483.77,-1297.08 2584.24,-1307.67 2621.54,-1295.13 2642.72,-1288.02 2662.83,-1273.33 2678.22,-1259.75"/>
<polygon fill="black" stroke="black" stroke-width="0.5" points="2680.25,-1262.64 2685.26,-1253.3 2675.52,-1257.48 2680.25,-1262.64"/>
<text text-anchor="middle" x="2533" y="-1292.2" font-family="Master Photograph" font-size="14.00">4d 23h 34m 6s +8d 3h 43m 30s</text>
</g>
<!-- annotation13 -->
<g id="node28" class="node">
<title>annotation13</title>
<text text-anchor="middle" x="2389" y="-1243" font-family="Simple Plan" font-size="14.00">Tue, 20 Dec 2022 18:56:26 GMT</text>
<text text-anchor="middle" x="2389" y="-1226.2" font-family="Simple Plan" font-size="14.00">7y 300d 17h 31m 22s</text>
<text text-anchor="middle" x="2389" y="-1209.4" font-family="Simple Plan" font-size="14.00">&#45;2y 160d 21h 34m 43.2s</text>
</g>
<!-- annotation13&#45;&gt;v2.0.0&#45;alpha.12 -->
<g id="edge14" class="edge">
<title>annotation13&#45;&gt;v2.0.0&#45;alpha.12</title>
<path fill="none" stroke="black" stroke-width="0.5" stroke-dasharray="1,5" d="M2389,-1230.4C2346.92,-1230.4 2304.84,-1230.4 2262.76,-1230.4"/>
</g>
<!-- v2.0.0&#45;beta.2 -->
<g id="node31" class="node">
<title>v2.0.0&#45;beta.2</title>
<ellipse fill="none" stroke="black" cx="2707" cy="-1036.8" rx="85.54" ry="22.63"/>
<text text-anchor="middle" x="2707" y="-1030.8" font-family="Simple Plan" font-size="20.00">v2.0.0&#45;beta.2</text>
</g>
<!-- v2.0.0&#45;beta.1&#45;&gt;v2.0.0&#45;beta.2 -->
<g id="edge42" class="edge">
<title>v2.0.0&#45;beta.1&#45;&gt;v2.0.0&#45;beta.2</title>
<path fill="none" stroke="black" stroke-width="0.5" d="M2707,-1207.42C2707,-1173.8 2707,-1109.4 2707,-1070.35"/>
<polygon fill="black" stroke="black" stroke-width="0.5" points="2710.5,-1070.57 2707,-1060.57 2703.5,-1070.57 2710.5,-1070.57"/>
<text text-anchor="middle" x="2751.92" y="-1154.2" font-family="Master Photograph" font-size="14.00">13d 1h 53m 34s</text>
</g>
<!-- annotation14 -->
<g id="node30" class="node">
<title>annotation14</title>
<text text-anchor="middle" x="2919" y="-1243" font-family="Simple Plan" font-size="14.00">Sun, 25 Dec 2022 18:30:32 GMT</text>
<text text-anchor="middle" x="2919" y="-1226.2" font-family="Simple Plan" font-size="14.00">7y 305d 17h 5m 28s</text>
<text text-anchor="middle" x="2919" y="-1209.4" font-family="Simple Plan" font-size="14.00">&#45;2y 155d 22h 37.2s</text>
</g>
<!-- annotation14&#45;&gt;v2.0.0&#45;beta.1 -->
<g id="edge15" class="edge">
<title>annotation14&#45;&gt;v2.0.0&#45;beta.1</title>
<path fill="none" stroke="black" stroke-width="0.5" stroke-dasharray="1,5" d="M2919,-1230.4C2876.9,-1230.4 2834.81,-1230.4 2792.71,-1230.4"/>
</g>
<!-- v2.0.0&#45;beta.3 -->
<g id="node33" class="node">
<title>v2.0.0&#45;beta.3</title>
<ellipse fill="none" stroke="black" cx="3130" cy="-1036.8" rx="85.54" ry="22.63"/>
<text text-anchor="middle" x="3130" y="-1030.8" font-family="Simple Plan" font-size="20.00">v2.0.0&#45;beta.3</text>
</g>
<!-- v2.0.0&#45;beta.2&#45;&gt;v2.0.0&#45;beta.3 -->
<g id="edge43" class="edge">
<title>v2.0.0&#45;beta.2&#45;&gt;v2.0.0&#45;beta.3</title>
<path fill="none" stroke="black" stroke-width="0.5" d="M2720.22,-1059.4C2735.94,-1083.78 2764.68,-1121.21 2801,-1136.93 2848.11,-1157.32 2984.68,-1156.83 3032,-1136.93 3065,-1123.05 3092.45,-1092.03 3109.83,-1068.17"/>
<polygon fill="black" stroke="black" stroke-width="0.5" points="3112.65,-1070.23 3115.54,-1060.04 3106.93,-1066.2 3112.65,-1070.23"/>
<text text-anchor="middle" x="2923" y="-1154.2" font-family="Master Photograph" font-size="14.00">6d 21h 58m 2s +6d 21h 58m 2s</text>
</g>
<!-- annotation15 -->
<g id="node32" class="node">
<title>annotation15</title>
<text text-anchor="middle" x="2915" y="-1049.4" font-family="Simple Plan" font-size="14.00">Sat, 07 Jan 2023 20:24:06 GMT</text>
<text text-anchor="middle" x="2915" y="-1032.6" font-family="Simple Plan" font-size="14.00">7y 318d 18h 59m 2s</text>
<text text-anchor="middle" x="2915" y="-1015.8" font-family="Simple Plan" font-size="14.00">&#45;2y 142d 20h 7m 3.2s</text>
</g>
<!-- annotation15&#45;&gt;v2.0.0&#45;beta.2 -->
<g id="edge16" class="edge">
<title>annotation15&#45;&gt;v2.0.0&#45;beta.2</title>
<path fill="none" stroke="black" stroke-width="0.5" stroke-dasharray="1,5" d="M2915,-1036.8C2874.24,-1036.8 2833.48,-1036.8 2792.72,-1036.8"/>
</g>
<!-- v2.0.0&#45;beta.4 -->
<g id="node35" class="node">
<title>v2.0.0&#45;beta.4</title>
<ellipse fill="none" stroke="black" cx="3553" cy="-1036.8" rx="85.54" ry="22.63"/>
<text text-anchor="middle" x="3553" y="-1030.8" font-family="Simple Plan" font-size="20.00">v2.0.0&#45;beta.4</text>
</g>
<!-- v2.0.0&#45;beta.3&#45;&gt;v2.0.0&#45;beta.4 -->
<g id="edge44" class="edge">
<title>v2.0.0&#45;beta.3&#45;&gt;v2.0.0&#45;beta.4</title>
<path fill="none" stroke="black" stroke-width="0.5" d="M3143.22,-1059.4C3158.94,-1083.78 3187.68,-1121.21 3224,-1136.93 3271.11,-1157.32 3407.68,-1156.83 3455,-1136.93 3488,-1123.05 3515.45,-1092.03 3532.83,-1068.17"/>
<polygon fill="black" stroke="black" stroke-width="0.5" points="3535.65,-1070.23 3538.54,-1060.04 3529.93,-1066.2 3535.65,-1070.23"/>
<text text-anchor="middle" x="3297" y="-1154.2" font-family="Master Photograph" font-size="14.00">10d 1h 57m 4s</text>
</g>
<!-- annotation16 -->
<g id="node34" class="node">
<title>annotation16</title>
<text text-anchor="middle" x="3338" y="-1049.4" font-family="Simple Plan" font-size="14.00">Sat, 14 Jan 2023 18:22:08 GMT</text>
<text text-anchor="middle" x="3338" y="-1032.6" font-family="Simple Plan" font-size="14.00">7y 325d 16h 57m 4s</text>
<text text-anchor="middle" x="3338" y="-1015.8" font-family="Simple Plan" font-size="14.00">&#45;2y 135d 22h 9m 1.2s</text>
</g>
<!-- annotation16&#45;&gt;v2.0.0&#45;beta.3 -->
<g id="edge17" class="edge">
<title>annotation16&#45;&gt;v2.0.0&#45;beta.3</title>
<path fill="none" stroke="black" stroke-width="0.5" stroke-dasharray="1,5" d="M3338,-1036.8C3297.24,-1036.8 3256.48,-1036.8 3215.72,-1036.8"/>
</g>
<!-- v2.0.0&#45;beta.5 -->
<g id="node37" class="node">
<title>v2.0.0&#45;beta.5</title>
<ellipse fill="none" stroke="black" cx="3980" cy="-1036.8" rx="85.54" ry="22.63"/>
<text text-anchor="middle" x="3980" y="-1030.8" font-family="Simple Plan" font-size="20.00">v2.0.0&#45;beta.5</text>
</g>
<!-- v2.0.0&#45;beta.4&#45;&gt;v2.0.0&#45;beta.5 -->
<g id="edge45" class="edge">
<title>v2.0.0&#45;beta.4&#45;&gt;v2.0.0&#45;beta.5</title>
<path fill="none" stroke="black" stroke-width="0.5" d="M3566.22,-1059.4C3581.94,-1083.78 3610.68,-1121.21 3647,-1136.93 3694.93,-1157.68 3833.86,-1157.18 3882,-1136.93 3915,-1123.05 3942.45,-1092.03 3959.83,-1068.17"/>
<polygon fill="black" stroke="black" stroke-width="0.5" points="3962.65,-1070.23 3965.54,-1060.04 3956.93,-1066.2 3962.65,-1070.23"/>
<text text-anchor="middle" x="3831" y="-1154.2" font-family="Master Photograph" font-size="14.00">17d 21h 43m 57s</text>
</g>
<!-- annotation17 -->
<g id="node36" class="node">
<title>annotation17</title>
<text text-anchor="middle" x="3763" y="-1049.4" font-family="Simple Plan" font-size="14.00">Tue, 24 Jan 2023 20:19:12 GMT</text>
<text text-anchor="middle" x="3763" y="-1032.6" font-family="Simple Plan" font-size="14.00">7y 335d 18h 54m 8s</text>
<text text-anchor="middle" x="3763" y="-1015.8" font-family="Simple Plan" font-size="14.00">&#45;2y 125d 20h 11m 57.2s</text>
</g>
<!-- annotation17&#45;&gt;v2.0.0&#45;beta.4 -->
<g id="edge18" class="edge">
<title>annotation17&#45;&gt;v2.0.0&#45;beta.4</title>
<path fill="none" stroke="black" stroke-width="0.5" stroke-dasharray="1,5" d="M3763,-1036.8C3721.57,-1036.8 3680.15,-1036.8 3638.72,-1036.8"/>
</g>
<!-- v2.0.0&#45;beta.6 -->
<g id="node39" class="node">
<title>v2.0.0&#45;beta.6</title>
<ellipse fill="none" stroke="black" cx="3542" cy="-904.8" rx="85.54" ry="22.63"/>
<text text-anchor="middle" x="3542" y="-898.8" font-family="Simple Plan" font-size="20.00">v2.0.0&#45;beta.6</text>
</g>
<!-- v2.0.0&#45;beta.5&#45;&gt;v2.0.0&#45;beta.6 -->
<g id="edge46" class="edge">
<title>v2.0.0&#45;beta.5&#45;&gt;v2.0.0&#45;beta.6</title>
<path fill="none" stroke="black" stroke-width="0.5" d="M3946.34,-1015.67C3927.99,-1005.78 3904.48,-994.8 3882,-989.2 3833.69,-977.16 3705.67,-994.11 3658.16,-979.2 3627.62,-969.62 3597.18,-949.91 3575.13,-933.33"/>
<polygon fill="black" stroke="black" stroke-width="0.5" points="3577.47,-930.71 3567.41,-927.39 3573.19,-936.26 3577.47,-930.71"/>
<text text-anchor="middle" x="3703.08" y="-966.6" font-family="Master Photograph" font-size="14.00">22d 3h 21m 36s</text>
</g>
<!-- annotation18 -->
<g id="node38" class="node">
<title>annotation18</title>
<text text-anchor="middle" x="4189" y="-1049.4" font-family="Simple Plan" font-size="14.00">Sat, 11 Feb 2023 18:03:09 GMT</text>
<text text-anchor="middle" x="4189" y="-1032.6" font-family="Simple Plan" font-size="14.00">7y 353d 16h 38m 5s</text>
<text text-anchor="middle" x="4189" y="-1015.8" font-family="Simple Plan" font-size="14.00">&#45;2y 107d 22h 28m 0.2s</text>
</g>
<!-- annotation18&#45;&gt;v2.0.0&#45;beta.5 -->
<g id="edge19" class="edge">
<title>annotation18&#45;&gt;v2.0.0&#45;beta.5</title>
<path fill="none" stroke="black" stroke-width="0.5" stroke-dasharray="1,5" d="M4189,-1036.8C4147.91,-1036.8 4106.82,-1036.8 4065.72,-1036.8"/>
</g>
<!-- v2.0.0&#45;beta.7 -->
<g id="node41" class="node">
<title>v2.0.0&#45;beta.7</title>
<ellipse fill="none" stroke="black" cx="3973" cy="-904.8" rx="85.54" ry="22.63"/>
<text text-anchor="middle" x="3973" y="-898.8" font-family="Simple Plan" font-size="20.00">v2.0.0&#45;beta.7</text>
</g>
<!-- v2.0.0&#45;beta.6&#45;&gt;v2.0.0&#45;beta.7 -->
<g id="edge47" class="edge">
<title>v2.0.0&#45;beta.6&#45;&gt;v2.0.0&#45;beta.7</title>
<path fill="none" stroke="black" stroke-width="0.5" d="M3576.53,-925.78C3593.81,-935.36 3615.39,-945.97 3636,-952.4 3681.19,-966.49 3802.39,-979.24 3848.42,-968.2 3878.21,-961.06 3908.92,-945.54 3932.39,-931.65"/>
<polygon fill="black" stroke="black" stroke-width="0.5" points="3933.95,-934.79 3940.69,-926.61 3930.32,-928.81 3933.95,-934.79"/>
<text text-anchor="middle" x="3800" y="-966.6" font-family="Master Photograph" font-size="14.00">13d 22h 31m 57s</text>
</g>
<!-- annotation19 -->
<g id="node40" class="node">
<title>annotation19</title>
<text text-anchor="middle" x="3754" y="-917.4" font-family="Simple Plan" font-size="14.00">Sun, 05 Mar 2023 21:24:45 GMT</text>
<text text-anchor="middle" x="3754" y="-900.6" font-family="Simple Plan" font-size="14.00">8y 10d 19h 59m 41s</text>
<text text-anchor="middle" x="3754" y="-883.8" font-family="Simple Plan" font-size="14.00">&#45;2y 85d 19h 6m 24.2s</text>
</g>
<!-- annotation19&#45;&gt;v2.0.0&#45;beta.6 -->
<g id="edge20" class="edge">
<title>annotation19&#45;&gt;v2.0.0&#45;beta.6</title>
<path fill="none" stroke="black" stroke-width="0.5" stroke-dasharray="1,5" d="M3754,-904.8C3711.9,-904.8 3669.81,-904.8 3627.71,-904.8"/>
</g>
<!-- v2.0.0&#45;beta.8 -->
<g id="node43" class="node">
<title>v2.0.0&#45;beta.8</title>
<ellipse fill="none" stroke="black" cx="3970" cy="-696.8" rx="85.54" ry="22.63"/>
<text text-anchor="middle" x="3970" y="-690.8" font-family="Simple Plan" font-size="20.00">v2.0.0&#45;beta.8</text>
</g>
<!-- v2.0.0&#45;beta.7&#45;&gt;v2.0.0&#45;beta.8 -->
<g id="edge48" class="edge">
<title>v2.0.0&#45;beta.7&#45;&gt;v2.0.0&#45;beta.8</title>
<path fill="none" stroke="black" stroke-width="0.5" d="M3972.68,-881.75C3972.15,-845.36 3971.09,-772.53 3970.47,-730.24"/>
<polygon fill="black" stroke="black" stroke-width="0.5" points="3973.98,-730.39 3970.33,-720.44 3966.98,-730.49 3973.98,-730.39"/>
<text text-anchor="middle" x="4020.04" y="-796.6" font-family="Master Photograph" font-size="14.00">280d 17h 20m 9s</text>
</g>
<!-- annotation20 -->
<g id="node42" class="node">
<title>annotation20</title>
<text text-anchor="middle" x="4185" y="-917.4" font-family="Simple Plan" font-size="14.00">Sun, 19 Mar 2023 19:56:42 GMT</text>
<text text-anchor="middle" x="4185" y="-900.6" font-family="Simple Plan" font-size="14.00">8y 24d 18h 31m 38s</text>
<text text-anchor="middle" x="4185" y="-883.8" font-family="Simple Plan" font-size="14.00">&#45;2y 71d 20h 34m 27.2s</text>
</g>
<!-- annotation20&#45;&gt;v2.0.0&#45;beta.7 -->
<g id="edge21" class="edge">
<title>annotation20&#45;&gt;v2.0.0&#45;beta.7</title>
<path fill="none" stroke="black" stroke-width="0.5" stroke-dasharray="1,5" d="M4185,-904.8C4142.9,-904.8 4100.81,-904.8 4058.71,-904.8"/>
</g>
<!-- v2.0.0&#45;beta.9 -->
<g id="node45" class="node">
<title>v2.0.0&#45;beta.9</title>
<ellipse fill="none" stroke="black" cx="3970" cy="-427.2" rx="85.54" ry="22.63"/>
<text text-anchor="middle" x="3970" y="-421.2" font-family="Simple Plan" font-size="20.00">v2.0.0&#45;beta.9</text>
</g>
<!-- v2.0.0&#45;beta.8&#45;&gt;v2.0.0&#45;beta.9 -->
<g id="edge49" class="edge">
<title>v2.0.0&#45;beta.8&#45;&gt;v2.0.0&#45;beta.9</title>
<path fill="none" stroke="black" stroke-width="0.5" d="M3970,-673.9C3970,-626.84 3970,-515.86 3970,-460.61"/>
<polygon fill="black" stroke="black" stroke-width="0.5" points="3973.5,-460.78 3970,-450.78 3966.5,-460.78 3973.5,-460.78"/>
<text text-anchor="middle" x="4011.42" y="-582.6" font-family="Master Photograph" font-size="14.00">1y 23h 54m 4s</text>
</g>
<!-- annotation21 -->
<g id="node44" class="node">
<title>annotation21</title>
<text text-anchor="middle" x="4184" y="-709.4" font-family="Simple Plan" font-size="14.00">Mon, 25 Dec 2023 13:16:51 GMT</text>
<text text-anchor="middle" x="4184" y="-692.6" font-family="Simple Plan" font-size="14.00">8y 305d 11h 51m 47s</text>
<text text-anchor="middle" x="4184" y="-675.8" font-family="Simple Plan" font-size="14.00">&#45;1y 156d 3h 14m 18.2s</text>
</g>
<!-- annotation21&#45;&gt;v2.0.0&#45;beta.8 -->
<g id="edge22" class="edge">
<title>annotation21&#45;&gt;v2.0.0&#45;beta.8</title>
<path fill="none" stroke="black" stroke-width="0.5" stroke-dasharray="1,5" d="M4184,-696.8C4141.23,-696.8 4098.46,-696.8 4055.68,-696.8"/>
</g>
<!-- v2.0.0&#45;beta.10 -->
<g id="node47" class="node">
<title>v2.0.0&#45;beta.10</title>
<ellipse fill="none" stroke="black" cx="3970" cy="-195.6" rx="92.61" ry="22.63"/>
<text text-anchor="middle" x="3970" y="-189.6" font-family="Simple Plan" font-size="20.00">v2.0.0&#45;beta.10</text>
</g>
<!-- v2.0.0&#45;beta.9&#45;&gt;v2.0.0&#45;beta.10 -->
<g id="edge50" class="edge">
<title>v2.0.0&#45;beta.9&#45;&gt;v2.0.0&#45;beta.10</title>
<path fill="none" stroke="black" stroke-width="0.5" d="M3970,-404.18C3970,-363.56 3970,-276.62 3970,-229.16"/>
<polygon fill="black" stroke="black" stroke-width="0.5" points="3973.5,-229.31 3970,-219.31 3966.5,-229.31 3973.5,-229.31"/>
<text text-anchor="middle" x="4018.42" y="-332" font-family="Master Photograph" font-size="14.00">115d 4h 43m 57s</text>
</g>
<!-- annotation22 -->
<g id="node46" class="node">
<title>annotation22</title>
<text text-anchor="middle" x="4184" y="-439.8" font-family="Simple Plan" font-size="14.00">Wed, 25 Dec 2024 13:10:55 GMT</text>
<text text-anchor="middle" x="4184" y="-423" font-family="Simple Plan" font-size="14.00">9y 306d 11h 45m 51s</text>
<text text-anchor="middle" x="4184" y="-406.2" font-family="Simple Plan" font-size="14.00">&#45;155d 3h 20m 14.2s</text>
</g>
<!-- annotation22&#45;&gt;v2.0.0&#45;beta.9 -->
<g id="edge23" class="edge">
<title>annotation22&#45;&gt;v2.0.0&#45;beta.9</title>
<path fill="none" stroke="black" stroke-width="0.5" stroke-dasharray="1,5" d="M4184,-427.2C4141.23,-427.2 4098.46,-427.2 4055.68,-427.2"/>
</g>
<!-- dev -->
<g id="node49" class="node">
<title>dev</title>
<ellipse fill="none" stroke="black" cx="3909" cy="-63.6" rx="31.73" ry="22.63"/>
<text text-anchor="middle" x="3909" y="-57.6" font-family="Simple Plan" font-size="20.00">dev</text>
</g>
<!-- v2.0.0&#45;beta.10&#45;&gt;dev -->
<g id="edge51" class="edge">
<title>v2.0.0&#45;beta.10&#45;&gt;dev</title>
<path fill="none" stroke="black" stroke-width="0.5" d="M3959.79,-172.84C3949.82,-151.59 3934.55,-119.05 3923.36,-95.2"/>
<polygon fill="black" stroke="black" stroke-width="0.5" points="3926.58,-93.82 3919.16,-86.25 3920.24,-96.79 3926.58,-93.82"/>
<text text-anchor="middle" x="3991.57" y="-125.4" font-family="Master Photograph" font-size="14.00">31d 16h 36m 56s</text>
</g>
<!-- annotation23 -->
<g id="node48" class="node">
<title>annotation23</title>
<text text-anchor="middle" x="4187" y="-208.2" font-family="Simple Plan" font-size="14.00">Sat, 19 Apr 2025 17:54:52 GMT</text>
<text text-anchor="middle" x="4187" y="-191.4" font-family="Simple Plan" font-size="14.00">10y 56d 16h 29m 48s</text>
<text text-anchor="middle" x="4187" y="-174.6" font-family="Simple Plan" font-size="14.00">&#45;39d 22h 36m 17.2s</text>
</g>
<!-- annotation23&#45;&gt;v2.0.0&#45;beta.10 -->
<g id="edge24" class="edge">
<title>annotation23&#45;&gt;v2.0.0&#45;beta.10</title>
<path fill="none" stroke="black" stroke-width="0.5" stroke-dasharray="1,5" d="M4187,-195.6C4145.61,-195.6 4104.21,-195.6 4062.82,-195.6"/>
</g>
<!-- nightly -->
<g id="node51" class="node">
<title>nightly</title>
<ellipse fill="none" stroke="black" cx="4258" cy="-63.6" rx="51.39" ry="22.63"/>
<text text-anchor="middle" x="4258" y="-57.6" font-family="Simple Plan" font-size="20.00">nightly</text>
</g>
<!-- dev&#45;&gt;nightly -->
<g id="edge52" class="edge">
<title>dev&#45;&gt;nightly</title>
<path fill="none" stroke="black" stroke-width="0.5" d="M3922.13,-84.67C3929.21,-94.27 3938.79,-104.87 3950,-111.2 3989.64,-133.57 4005.61,-124.51 4050.96,-128.33 4082.42,-130.98 4163.86,-140.39 4193.04,-128.33 4210.34,-121.18 4225.45,-106.94 4236.74,-93.64"/>
<polygon fill="black" stroke="black" stroke-width="0.5" points="4239.24,-96.11 4242.78,-86.13 4233.78,-91.72 4239.24,-96.11"/>
<text text-anchor="middle" x="4122" y="-125.4" font-family="Master Photograph" font-size="14.00">6h 25m 25s +6h 25m 25s</text>
</g>
<!-- annotation24 -->
<g id="node50" class="node">
<title>annotation24</title>
<text text-anchor="middle" x="4071" y="-76.2" font-family="Simple Plan" font-size="14.00">Wed, 21 May 2025 10:31:48 GMT</text>
<text text-anchor="middle" x="4071" y="-59.4" font-family="Simple Plan" font-size="14.00">10y 88d 9h 6m 44s</text>
<text text-anchor="middle" x="4071" y="-42.6" font-family="Simple Plan" font-size="14.00">&#45;8d 5h 59m 21.2s</text>
</g>
<!-- annotation24&#45;&gt;dev -->
<g id="edge25" class="edge">
<title>annotation24&#45;&gt;dev</title>
<path fill="none" stroke="black" stroke-width="0.5" stroke-dasharray="1,5" d="M4071,-63.6C4027.65,-63.6 3984.3,-63.6 3940.96,-63.6"/>
</g>
<!-- Now -->
<g id="node53" class="node">
<title>Now</title>
<ellipse fill="none" stroke="black" cx="4615" cy="-63.6" rx="38.81" ry="22.63"/>
<text text-anchor="middle" x="4615" y="-57.6" font-family="Simple Plan" font-size="20.00">Now</text>
</g>
<!-- nightly&#45;&gt;Now -->
<g id="edge53" class="edge">
<title>nightly&#45;&gt;Now</title>
<path fill="none" stroke="black" stroke-width="0.5" d="M4279.02,-84.66C4290.01,-94.38 4304.23,-105.1 4319,-111.2 4343.83,-121.46 4535.8,-139.63 4560.17,-128.33 4575.59,-121.19 4588.24,-107.33 4597.5,-94.27"/>
<polygon fill="black" stroke="black" stroke-width="0.5" points="4600.32,-96.34 4602.93,-86.08 4594.49,-92.47 4600.32,-96.34"/>
<text text-anchor="middle" x="4510" y="-125.4" font-family="Master Photograph" font-size="14.00">7d 23h 33m 56.2s</text>
</g>
<!-- annotation25 -->
<g id="node52" class="node">
<title>annotation25</title>
<text text-anchor="middle" x="4440" y="-76.2" font-family="Simple Plan" font-size="14.00">Wed, 21 May 2025 16:57:13 GMT</text>
<text text-anchor="middle" x="4440" y="-59.4" font-family="Simple Plan" font-size="14.00">10y 88d 15h 32m 9s</text>
<text text-anchor="middle" x="4440" y="-42.6" font-family="Simple Plan" font-size="14.00">&#45;7d 23h 33m 56.2s</text>
</g>
<!-- annotation25&#45;&gt;nightly -->
<g id="edge26" class="edge">
<title>annotation25&#45;&gt;nightly</title>
<path fill="none" stroke="black" stroke-width="0.5" stroke-dasharray="1,5" d="M4440,-63.6C4396.51,-63.6 4353.03,-63.6 4309.54,-63.6"/>
</g>
<!-- annotation26 -->
<g id="node54" class="node">
<title>annotation26</title>
<text text-anchor="middle" x="4782" y="-76.2" font-family="Simple Plan" font-size="14.00">Thu, 29 May 2025 16:31:09 GMT</text>
<text text-anchor="middle" x="4782" y="-59.4" font-family="Simple Plan" font-size="14.00">10y 96d 15h 6m 5.2s</text>
<text text-anchor="middle" x="4782" y="-42.6" font-family="Simple Plan" font-size="14.00">&#45;8ms</text>
</g>
<!-- annotation26&#45;&gt;Now -->
<g id="edge27" class="edge">
<title>annotation26&#45;&gt;Now</title>
<path fill="none" stroke="black" stroke-width="0.5" stroke-dasharray="1,5" d="M4782,-63.6C4739.38,-63.6 4696.76,-63.6 4654.14,-63.6"/>
</g>
</g>
</svg>
