<?xml version="1.0" encoding="UTF-8" standalone="no"?>
<!DOCTYPE svg PUBLIC "-//W3C//DTD SVG 1.1//EN"
 "http://www.w3.org/Graphics/SVG/1.1/DTD/svg11.dtd">
<!-- Generated by graphviz version 12.2.1 (20241206.2353)
 -->
<!-- Pages: 1 -->
<svg width="4691pt" height="2602pt"
 viewBox="0.00 0.00 4691.00 2602.40" xmlns="http://www.w3.org/2000/svg" xmlns:xlink="http://www.w3.org/1999/xlink">
<g id="graph0" class="graph" transform="scale(1 1) rotate(0) translate(4 2598.4)">
<polygon fill="white" stroke="none" points="-4,4 -4,-2598.4 4687,-2598.4 4687,4 -4,4"/>
<g id="clust1" class="cluster">
<title>cluster_2015</title>
<polygon fill="none" stroke="black" stroke-width="0.2" stroke-dasharray="5,2" points="9,-2425.6 9,-2586.4 480,-2586.4 480,-2425.6 9,-2425.6"/>
<text text-anchor="middle" x="244.5" y="-2569.8" font-family="Master Photograph" font-size="14.00">2015</text>
</g>
<g id="clust2" class="cluster">
<title>%3</title>
</g>
<g id="clust3" class="cluster">
<title>cluster_2021</title>
<polygon fill="none" stroke="black" stroke-width="0.2" stroke-dasharray="5,2" points="8,-2080 8,-2240.8 472,-2240.8 472,-2080 8,-2080"/>
<text text-anchor="middle" x="240" y="-2224.2" font-family="Master Photograph" font-size="14.00">2021</text>
</g>
<g id="clust4" class="cluster">
<title>%7</title>
</g>
<g id="clust5" class="cluster">
<title>cluster_2022</title>
<polygon fill="none" stroke="black" stroke-width="0.2" stroke-dasharray="5,2" points="8,-1174.8 8,-1971.2 3079,-1971.2 3079,-1174.8 8,-1174.8"/>
<text text-anchor="middle" x="1543.5" y="-1954.6" font-family="Master Photograph" font-size="14.00">2022</text>
</g>
<g id="clust6" class="cluster">
<title>%11</title>
</g>
<g id="clust7" class="cluster">
<title>%15</title>
</g>
<g id="clust8" class="cluster">
<title>%19</title>
</g>
<g id="clust9" class="cluster">
<title>%23</title>
</g>
<g id="clust10" class="cluster">
<title>%27</title>
</g>
<g id="clust11" class="cluster">
<title>%31</title>
</g>
<g id="clust12" class="cluster">
<title>%35</title>
</g>
<g id="clust13" class="cluster">
<title>%39</title>
</g>
<g id="clust14" class="cluster">
<title>%43</title>
</g>
<g id="clust15" class="cluster">
<title>%47</title>
</g>
<g id="clust16" class="cluster">
<title>%51</title>
</g>
<g id="clust17" class="cluster">
<title>%55</title>
</g>
<g id="clust18" class="cluster">
<title>%59</title>
</g>
<g id="clust19" class="cluster">
<title>cluster_2023</title>
<polygon fill="none" stroke="black" stroke-width="0.2" stroke-dasharray="5,2" points="2621,-641.2 2621,-1142 4401,-1142 4401,-641.2 2621,-641.2"/>
<text text-anchor="middle" x="3511" y="-1125.4" font-family="Master Photograph" font-size="14.00">2023</text>
</g>
<g id="clust20" class="cluster">
<title>%63</title>
</g>
<g id="clust21" class="cluster">
<title>%67</title>
</g>
<g id="clust22" class="cluster">
<title>%71</title>
</g>
<g id="clust23" class="cluster">
<title>%75</title>
</g>
<g id="clust24" class="cluster">
<title>%79</title>
</g>
<g id="clust25" class="cluster">
<title>%83</title>
</g>
<g id="clust26" class="cluster">
<title>%87</title>
</g>
<g id="clust27" class="cluster">
<title>cluster_2024</title>
<polygon fill="none" stroke="black" stroke-width="0.2" stroke-dasharray="5,2" points="3940,-371.6 3940,-532.4 4401,-532.4 4401,-371.6 3940,-371.6"/>
<text text-anchor="middle" x="4170.5" y="-515.8" font-family="Master Photograph" font-size="14.00">2024</text>
</g>
<g id="clust28" class="cluster">
<title>%91</title>
</g>
<g id="clust29" class="cluster">
<title>cluster_2025</title>
<polygon fill="none" stroke="black" stroke-width="0.2" stroke-dasharray="5,2" points="3933,-8 3933,-300.8 4675,-300.8 4675,-8 3933,-8"/>
<text text-anchor="middle" x="4304" y="-284.2" font-family="Master Photograph" font-size="14.00">2025</text>
</g>
<g id="clust30" class="cluster">
<title>%95</title>
</g>
<g id="clust31" class="cluster">
<title>%99</title>
</g>
<g id="clust32" class="cluster">
<title>%103</title>
</g>
<!-- 1 -->
<g id="node1" class="node">
<title>1</title>
<ellipse fill="none" stroke="#cf1fc1" cx="117" cy="-2481.2" rx="91.83" ry="22.63"/>
<text text-anchor="start" x="60.07" y="-2475.2" font-family="Simple Plan" font-size="20.00">Initial commit</text>
</g>
<!-- 3 -->
<g id="node3" class="node">
<title>3</title>
<ellipse fill="none" stroke="#cf1fc1" cx="117" cy="-2135.6" rx="92.61" ry="22.63"/>
<text text-anchor="start" x="59.51" y="-2129.6" font-family="Simple Plan" font-size="20.00">v2.0.0&#45;alpha.0</text>
</g>
<!-- 1&#45;&gt;3 -->
<g id="edge27" class="edge">
<title>1&#45;&gt;3</title>
<path fill="none" stroke="#cf1fc1" stroke-width="0.5" d="M117,-2458.38C117,-2441.95 117,-2418.86 117,-2398.6 117,-2398.6 117,-2398.6 117,-2267.8 117,-2234.12 117,-2195.57 117,-2169.02"/>
<polygon fill="#cf1fc1" stroke="#cf1fc1" stroke-width="0.5" points="120.5,-2169.18 117,-2159.18 113.5,-2169.18 120.5,-2169.18"/>
<text text-anchor="start" x="117" y="-2329" font-family="Master Photograph" font-size="14.00">6y 138d 16h 57m 47s +0ms</text>
</g>
<!-- 2 -->
<g id="node2" class="node">
<title>2</title>
<text text-anchor="start" x="258.34" y="-2493.8" font-family="Simple Plan" font-size="14.00">Wed, 25 Feb 2015 01:25:04 GMT</text>
<text text-anchor="start" x="342.33" y="-2477" font-family="Simple Plan" font-size="14.00">0ms</text>
<text text-anchor="start" x="262.43" y="-2460.2" font-family="Simple Plan" font-size="14.00">&#45;10y &#45;97d &#45;17h &#45;2m &#45;46s &#45;194ms</text>
</g>
<!-- 2&#45;&gt;1 -->
<g id="edge1" class="edge">
<title>2&#45;&gt;1</title>
<path fill="none" stroke="black" stroke-width="0.5" stroke-dasharray="1,5" d="M354,-2481.2C305.71,-2481.2 257.41,-2481.2 209.12,-2481.2"/>
</g>
<!-- 5 -->
<g id="node5" class="node">
<title>5</title>
<ellipse fill="none" stroke="#cf1fc1" cx="117" cy="-1866" rx="92.61" ry="22.63"/>
<text text-anchor="start" x="59.51" y="-1860" font-family="Simple Plan" font-size="20.00">v2.0.0&#45;alpha.1</text>
</g>
<!-- 3&#45;&gt;5 -->
<g id="edge28" class="edge">
<title>3&#45;&gt;5</title>
<path fill="none" stroke="#cf1fc1" stroke-width="0.5" d="M117,-2112.7C117,-2065.64 117,-1954.66 117,-1899.41"/>
<polygon fill="#cf1fc1" stroke="#cf1fc1" stroke-width="0.5" points="120.5,-1899.58 117,-1889.58 113.5,-1899.58 120.5,-1899.58"/>
<text text-anchor="start" x="117" y="-2021.4" font-family="Master Photograph" font-size="14.00">291d 18h 25m 40s +0ms</text>
</g>
<!-- 4 -->
<g id="node4" class="node">
<title>4</title>
<text text-anchor="start" x="259.99" y="-2148.2" font-family="Simple Plan" font-size="14.00">Sun, 11 Jul 2021 18:22:51 GMT</text>
<text text-anchor="start" x="290.33" y="-2131.4" font-family="Simple Plan" font-size="14.00">6y 138d 16h 57m 47s</text>
<text text-anchor="start" x="274.01" y="-2114.6" font-family="Simple Plan" font-size="14.00">&#45;3y &#45;324d &#45;4m &#45;59s &#45;194ms</text>
</g>
<!-- 4&#45;&gt;3 -->
<g id="edge2" class="edge">
<title>4&#45;&gt;3</title>
<path fill="none" stroke="black" stroke-width="0.5" stroke-dasharray="1,5" d="M351,-2135.6C303.93,-2135.6 256.85,-2135.6 209.78,-2135.6"/>
</g>
<!-- 7 -->
<g id="node7" class="node">
<title>7</title>
<ellipse fill="none" stroke="#cf1fc1" cx="117" cy="-1680.2" rx="92.61" ry="22.63"/>
<text text-anchor="start" x="59.51" y="-1674.2" font-family="Simple Plan" font-size="20.00">v2.0.0&#45;alpha.2</text>
</g>
<!-- 5&#45;&gt;7 -->
<g id="edge29" class="edge">
<title>5&#45;&gt;7</title>
<path fill="none" stroke="#cf1fc1" stroke-width="0.5" d="M117,-1843.19C117,-1811.08 117,-1750.87 117,-1713.59"/>
<polygon fill="#cf1fc1" stroke="#cf1fc1" stroke-width="0.5" points="120.5,-1714.02 117,-1704.02 113.5,-1714.02 120.5,-1714.02"/>
<text text-anchor="start" x="117" y="-1776.8" font-family="Master Photograph" font-size="14.00">56d 3m 4s +0ms</text>
</g>
<!-- 6 -->
<g id="node6" class="node">
<title>6</title>
<text text-anchor="start" x="260" y="-1878.6" font-family="Simple Plan" font-size="14.00">Fri, 29 Apr 2022 12:48:31 GMT</text>
<text text-anchor="start" x="293.83" y="-1861.8" font-family="Simple Plan" font-size="14.00">7y 65d 11h 23m 27s</text>
<text text-anchor="start" x="262.93" y="-1845" font-family="Simple Plan" font-size="14.00">&#45;3y &#45;32d &#45;5h &#45;39m &#45;19s &#45;194ms</text>
</g>
<!-- 6&#45;&gt;5 -->
<g id="edge3" class="edge">
<title>6&#45;&gt;5</title>
<path fill="none" stroke="black" stroke-width="0.5" stroke-dasharray="1,5" d="M351,-1866C303.93,-1866 256.85,-1866 209.78,-1866"/>
</g>
<!-- 9 -->
<g id="node9" class="node">
<title>9</title>
<ellipse fill="none" stroke="#cf1fc1" cx="574" cy="-1680.2" rx="92.61" ry="22.63"/>
<text text-anchor="start" x="516.51" y="-1674.2" font-family="Simple Plan" font-size="20.00">v2.0.0&#45;alpha.3</text>
</g>
<!-- 7&#45;&gt;9 -->
<g id="edge30" class="edge">
<title>7&#45;&gt;9</title>
<path fill="none" stroke="#cf1fc1" stroke-width="0.5" d="M156.34,-1701.04C187.33,-1716.21 232.13,-1735.47 273.96,-1743.6 359.33,-1760.19 387.54,-1758.25 469,-1727.8 486.71,-1721.18 505.65,-1712.96 522.49,-1705.23"/>
<polygon fill="#cf1fc1" stroke="#cf1fc1" stroke-width="0.5" points="523.86,-1708.45 531.46,-1701.07 520.91,-1702.11 523.86,-1708.45"/>
<text text-anchor="start" x="273.96" y="-1742" font-family="Master Photograph" font-size="14.00">5d 14m 17s +5d 14m 17s</text>
</g>
<!-- 8 -->
<g id="node8" class="node">
<title>8</title>
<text text-anchor="start" x="261.16" y="-1692.8" font-family="Simple Plan" font-size="14.00">Fri, 24 Jun 2022 12:51:35 GMT</text>
<text text-anchor="start" x="290.33" y="-1676" font-family="Simple Plan" font-size="14.00">7y 121d 11h 26m 31s</text>
<text text-anchor="start" x="259.43" y="-1659.2" font-family="Simple Plan" font-size="14.00">&#45;2y &#45;341d &#45;5h &#45;36m &#45;15s &#45;194ms</text>
</g>
<!-- 8&#45;&gt;7 -->
<g id="edge4" class="edge">
<title>8&#45;&gt;7</title>
<path fill="none" stroke="black" stroke-width="0.5" stroke-dasharray="1,5" d="M351,-1680.2C303.93,-1680.2 256.85,-1680.2 209.78,-1680.2"/>
</g>
<!-- 11 -->
<g id="node11" class="node">
<title>11</title>
<ellipse fill="none" stroke="#cf1fc1" cx="117" cy="-1494.4" rx="92.61" ry="22.63"/>
<text text-anchor="start" x="59.51" y="-1488.4" font-family="Simple Plan" font-size="20.00">v2.0.0&#45;alpha.4</text>
</g>
<!-- 9&#45;&gt;11 -->
<g id="edge31" class="edge">
<title>9&#45;&gt;11</title>
<path fill="none" stroke="#cf1fc1" stroke-width="0.5" d="M532.22,-1659.61C513.11,-1650.93 490.08,-1640.84 469,-1632.6 386.81,-1600.49 363.14,-1601.04 281,-1568.8 242.45,-1553.67 199.77,-1534.49 167.62,-1519.53"/>
<polygon fill="#cf1fc1" stroke="#cf1fc1" stroke-width="0.5" points="169.22,-1516.42 158.68,-1515.36 166.26,-1522.76 169.22,-1516.42"/>
<text text-anchor="start" x="383.82" y="-1591" font-family="Master Photograph" font-size="14.00">83d 4h 45m 35s +0ms</text>
</g>
<!-- 10 -->
<g id="node10" class="node">
<title>10</title>
<text text-anchor="start" x="716.12" y="-1692.8" font-family="Simple Plan" font-size="14.00">Wed, 29 Jun 2022 13:05:52 GMT</text>
<text text-anchor="start" x="750.33" y="-1676" font-family="Simple Plan" font-size="14.00">7y 126d 11h 40m 48s</text>
<text text-anchor="start" x="719.43" y="-1659.2" font-family="Simple Plan" font-size="14.00">&#45;2y &#45;336d &#45;5h &#45;21m &#45;58s &#45;194ms</text>
</g>
<!-- 10&#45;&gt;9 -->
<g id="edge5" class="edge">
<title>10&#45;&gt;9</title>
<path fill="none" stroke="black" stroke-width="0.5" stroke-dasharray="1,5" d="M811,-1680.2C763.01,-1680.2 715.03,-1680.2 667.04,-1680.2"/>
</g>
<!-- 13 -->
<g id="node13" class="node">
<title>13</title>
<ellipse fill="none" stroke="#cf1fc1" cx="578" cy="-1494.4" rx="92.61" ry="22.63"/>
<text text-anchor="start" x="520.51" y="-1488.4" font-family="Simple Plan" font-size="20.00">v2.0.0&#45;alpha.5</text>
</g>
<!-- 11&#45;&gt;13 -->
<g id="edge32" class="edge">
<title>11&#45;&gt;13</title>
<path fill="none" stroke="#cf1fc1" stroke-width="0.5" d="M157.4,-1515.05C190.6,-1530.67 239.36,-1550.63 284.71,-1557.8 367.66,-1570.92 393.67,-1569.56 473,-1542 491.1,-1535.71 510.34,-1527.47 527.34,-1519.62"/>
<polygon fill="#cf1fc1" stroke="#cf1fc1" stroke-width="0.5" points="528.81,-1522.8 536.38,-1515.38 525.84,-1516.46 528.81,-1522.8"/>
<text text-anchor="start" x="284.71" y="-1556.2" font-family="Master Photograph" font-size="14.00">16d 2h 39m 39s +0ms</text>
</g>
<!-- 12 -->
<g id="node12" class="node">
<title>12</title>
<text text-anchor="start" x="259.67" y="-1507" font-family="Simple Plan" font-size="14.00">Tue, 20 Sep 2022 17:51:27 GMT</text>
<text text-anchor="start" x="292.33" y="-1490.2" font-family="Simple Plan" font-size="14.00">7y 209d 16h 26m 23s</text>
<text text-anchor="start" x="272.51" y="-1473.4" font-family="Simple Plan" font-size="14.00">&#45;2y &#45;253d &#45;36m &#45;23s &#45;194ms</text>
</g>
<!-- 12&#45;&gt;11 -->
<g id="edge6" class="edge">
<title>12&#45;&gt;11</title>
<path fill="none" stroke="black" stroke-width="0.5" stroke-dasharray="1,5" d="M353,-1494.4C305.37,-1494.4 257.74,-1494.4 210.11,-1494.4"/>
</g>
<!-- 15 -->
<g id="node15" class="node">
<title>15</title>
<ellipse fill="none" stroke="#cf1fc1" cx="1094" cy="-1494.4" rx="92.61" ry="22.63"/>
<text text-anchor="start" x="1036.51" y="-1488.4" font-family="Simple Plan" font-size="20.00">v2.0.0&#45;alpha.6</text>
</g>
<!-- 13&#45;&gt;15 -->
<g id="edge33" class="edge">
<title>13&#45;&gt;15</title>
<path fill="none" stroke="#cf1fc1" stroke-width="0.5" d="M621.25,-1514.79C643.68,-1524.52 671.8,-1535.45 698,-1542 763.53,-1558.37 937.02,-1577.79 1001.54,-1557.8 1023.7,-1550.93 1045.27,-1536.71 1062,-1523.47"/>
<polygon fill="#cf1fc1" stroke="#cf1fc1" stroke-width="0.5" points="1064.18,-1526.21 1069.7,-1517.17 1059.74,-1520.8 1064.18,-1526.21"/>
<text text-anchor="start" x="838.46" y="-1556.2" font-family="Master Photograph" font-size="14.00">5d 22h 9m 5s +5d 22h 9m 5s</text>
</g>
<!-- 14 -->
<g id="node14" class="node">
<title>14</title>
<text text-anchor="start" x="722.67" y="-1507" font-family="Simple Plan" font-size="14.00">Thu, 06 Oct 2022 20:31:06 GMT</text>
<text text-anchor="start" x="762.33" y="-1490.2" font-family="Simple Plan" font-size="14.00">7y 225d 19h 6m 2s</text>
<text text-anchor="start" x="720.93" y="-1473.4" font-family="Simple Plan" font-size="14.00">&#45;2y &#45;236d &#45;21h &#45;56m &#45;44s &#45;194ms</text>
</g>
<!-- 14&#45;&gt;13 -->
<g id="edge7" class="edge">
<title>14&#45;&gt;13</title>
<path fill="none" stroke="black" stroke-width="0.5" stroke-dasharray="1,5" d="M816,-1494.4C767.66,-1494.4 719.31,-1494.4 670.97,-1494.4"/>
</g>
<!-- 17 -->
<g id="node17" class="node">
<title>17</title>
<ellipse fill="none" stroke="#cf1fc1" cx="1603" cy="-1494.4" rx="92.61" ry="22.63"/>
<text text-anchor="start" x="1545.51" y="-1488.4" font-family="Simple Plan" font-size="20.00">v2.0.0&#45;alpha.7</text>
</g>
<!-- 15&#45;&gt;17 -->
<g id="edge34" class="edge">
<title>15&#45;&gt;17</title>
<path fill="none" stroke="#cf1fc1" stroke-width="0.5" d="M1117.64,-1516.69C1135.1,-1531.53 1160.24,-1549.73 1186.21,-1557.8 1243.14,-1575.48 1395.92,-1555.42 1454,-1542 1482.97,-1535.3 1514.43,-1525.63 1540.93,-1516.74"/>
<polygon fill="#cf1fc1" stroke="#cf1fc1" stroke-width="0.5" points="1541.77,-1520.16 1550.12,-1513.63 1539.52,-1513.53 1541.77,-1520.16"/>
<text text-anchor="start" x="1186.21" y="-1556.2" font-family="Master Photograph" font-size="14.00">22h 13m 2s +6d 20h 22m 7s</text>
</g>
<!-- 16 -->
<g id="node16" class="node">
<title>16</title>
<text text-anchor="start" x="1236.73" y="-1507" font-family="Simple Plan" font-size="14.00">Wed, 12 Oct 2022 18:40:11 GMT</text>
<text text-anchor="start" x="1274.83" y="-1490.2" font-family="Simple Plan" font-size="14.00">7y 231d 17h 15m 7s</text>
<text text-anchor="start" x="1236.93" y="-1473.4" font-family="Simple Plan" font-size="14.00">&#45;2y &#45;230d &#45;23h &#45;47m &#45;39s &#45;194ms</text>
</g>
<!-- 16&#45;&gt;15 -->
<g id="edge8" class="edge">
<title>16&#45;&gt;15</title>
<path fill="none" stroke="black" stroke-width="0.5" stroke-dasharray="1,5" d="M1332,-1494.4C1283.66,-1494.4 1235.31,-1494.4 1186.97,-1494.4"/>
</g>
<!-- 19 -->
<g id="node19" class="node">
<title>19</title>
<ellipse fill="none" stroke="#cf1fc1" cx="2162" cy="-1494.4" rx="92.61" ry="22.63"/>
<text text-anchor="start" x="2104.51" y="-1488.4" font-family="Simple Plan" font-size="20.00">v2.0.0&#45;alpha.8</text>
</g>
<!-- 17&#45;&gt;19 -->
<g id="edge35" class="edge">
<title>17&#45;&gt;19</title>
<path fill="none" stroke="#cf1fc1" stroke-width="0.5" d="M1626.87,-1516.69C1644.48,-1531.53 1669.83,-1549.74 1695.96,-1557.8 1735.05,-1569.86 1839.33,-1561.83 1880.04,-1557.8 1915.65,-1554.27 1924.02,-1549.6 1959,-1542 2001.05,-1532.87 2047.82,-1521.95 2085.86,-1512.88"/>
<polygon fill="#cf1fc1" stroke="#cf1fc1" stroke-width="0.5" points="2086.19,-1516.4 2095.1,-1510.67 2084.56,-1509.59 2086.19,-1516.4"/>
<text text-anchor="start" x="1695.96" y="-1556.2" font-family="Master Photograph" font-size="14.00">6d 1h 42m 44s +12d 22h 4m 51s</text>
</g>
<!-- 18 -->
<g id="node18" class="node">
<title>18</title>
<text text-anchor="start" x="1745.67" y="-1507" font-family="Simple Plan" font-size="14.00">Thu, 13 Oct 2022 16:53:13 GMT</text>
<text text-anchor="start" x="1781.83" y="-1490.2" font-family="Simple Plan" font-size="14.00">7y 232d 15h 28m 9s</text>
<text text-anchor="start" x="1747.43" y="-1473.4" font-family="Simple Plan" font-size="14.00">&#45;2y &#45;230d &#45;1h &#45;34m &#45;37s &#45;194ms</text>
</g>
<!-- 18&#45;&gt;17 -->
<g id="edge9" class="edge">
<title>18&#45;&gt;17</title>
<path fill="none" stroke="black" stroke-width="0.5" stroke-dasharray="1,5" d="M1839,-1494.4C1791.37,-1494.4 1743.74,-1494.4 1696.11,-1494.4"/>
</g>
<!-- 21 -->
<g id="node21" class="node">
<title>21</title>
<ellipse fill="none" stroke="#cf1fc1" cx="2721" cy="-1494.4" rx="92.61" ry="22.63"/>
<text text-anchor="start" x="2663.51" y="-1488.4" font-family="Simple Plan" font-size="20.00">v2.0.0&#45;alpha.9</text>
</g>
<!-- 19&#45;&gt;21 -->
<g id="edge36" class="edge">
<title>19&#45;&gt;21</title>
<path fill="none" stroke="#cf1fc1" stroke-width="0.5" d="M2204.55,-1514.84C2226.82,-1524.66 2254.84,-1535.64 2281,-1542 2356.01,-1560.24 2554.27,-1580.56 2628.04,-1557.8 2650.29,-1550.93 2671.98,-1536.71 2688.8,-1523.48"/>
<polygon fill="#cf1fc1" stroke="#cf1fc1" stroke-width="0.5" points="2691,-1526.2 2696.55,-1517.17 2686.58,-1520.77 2691,-1526.2"/>
<text text-anchor="start" x="2443.96" y="-1556.2" font-family="Master Photograph" font-size="14.00">5d 21h 57m 16s +18d 20h 2m 7s</text>
</g>
<!-- 20 -->
<g id="node20" class="node">
<title>20</title>
<text text-anchor="start" x="2304.73" y="-1507" font-family="Simple Plan" font-size="14.00">Wed, 19 Oct 2022 18:35:57 GMT</text>
<text text-anchor="start" x="2339.33" y="-1490.2" font-family="Simple Plan" font-size="14.00">7y 238d 17h 10m 53s</text>
<text text-anchor="start" x="2304.93" y="-1473.4" font-family="Simple Plan" font-size="14.00">&#45;2y &#45;223d &#45;23h &#45;51m &#45;53s &#45;194ms</text>
</g>
<!-- 20&#45;&gt;19 -->
<g id="edge10" class="edge">
<title>20&#45;&gt;19</title>
<path fill="none" stroke="black" stroke-width="0.5" stroke-dasharray="1,5" d="M2400,-1494.4C2351.66,-1494.4 2303.31,-1494.4 2254.97,-1494.4"/>
</g>
<!-- 23 -->
<g id="node23" class="node">
<title>23</title>
<ellipse fill="none" stroke="#cf1fc1" cx="2225" cy="-1362.4" rx="99.68" ry="22.63"/>
<text text-anchor="start" x="2162.51" y="-1356.4" font-family="Simple Plan" font-size="20.00">v2.0.0&#45;alpha.10</text>
</g>
<!-- 21&#45;&gt;23 -->
<g id="edge37" class="edge">
<title>21&#45;&gt;23</title>
<path fill="none" stroke="#cf1fc1" stroke-width="0.5" d="M2656.09,-1477.91C2617.22,-1468.71 2566.83,-1456.9 2522,-1446.8 2446.58,-1429.81 2426.24,-1431.54 2352,-1410 2329.02,-1403.33 2304.22,-1394.59 2282.69,-1386.49"/>
<polygon fill="#cf1fc1" stroke="#cf1fc1" stroke-width="0.5" points="2284.02,-1383.25 2273.43,-1382.96 2281.53,-1389.79 2284.02,-1383.25"/>
<text text-anchor="start" x="2472.43" y="-1424.2" font-family="Master Photograph" font-size="14.00">26d 2h 1m 21s +0ms</text>
</g>
<!-- 22 -->
<g id="node22" class="node">
<title>22</title>
<text text-anchor="start" x="2863.07" y="-1507" font-family="Simple Plan" font-size="14.00">Tue, 25 Oct 2022 16:33:13 GMT</text>
<text text-anchor="start" x="2902.33" y="-1490.2" font-family="Simple Plan" font-size="14.00">7y 244d 15h 8m 9s</text>
<text text-anchor="start" x="2864.43" y="-1473.4" font-family="Simple Plan" font-size="14.00">&#45;2y &#45;218d &#45;1h &#45;54m &#45;37s &#45;194ms</text>
</g>
<!-- 22&#45;&gt;21 -->
<g id="edge11" class="edge">
<title>22&#45;&gt;21</title>
<path fill="none" stroke="black" stroke-width="0.5" stroke-dasharray="1,5" d="M2956,-1494.4C2908.57,-1494.4 2861.14,-1494.4 2813.71,-1494.4"/>
</g>
<!-- 25 -->
<g id="node25" class="node">
<title>25</title>
<ellipse fill="none" stroke="#cf1fc1" cx="1706" cy="-1230.4" rx="99.68" ry="22.63"/>
<text text-anchor="start" x="1643.51" y="-1224.4" font-family="Simple Plan" font-size="20.00">v2.0.0&#45;alpha.11</text>
</g>
<!-- 23&#45;&gt;25 -->
<g id="edge38" class="edge">
<title>23&#45;&gt;25</title>
<path fill="none" stroke="#cf1fc1" stroke-width="0.5" d="M2126.51,-1358.32C2009.25,-1353.12 1821.67,-1339.51 1761.43,-1304.8 1744.47,-1295.03 1731.05,-1277.79 1721.66,-1262.47"/>
<polygon fill="#cf1fc1" stroke="#cf1fc1" stroke-width="0.5" points="1724.75,-1260.83 1716.72,-1253.92 1718.69,-1264.33 1724.75,-1260.83"/>
<text text-anchor="start" x="1761.43" y="-1292.2" font-family="Master Photograph" font-size="14.00">26d 20h 12m 28s +0ms</text>
</g>
<!-- 24 -->
<g id="node24" class="node">
<title>24</title>
<text text-anchor="start" x="2375.11" y="-1375" font-family="Simple Plan" font-size="14.00">Sun, 20 Nov 2022 18:34:34 GMT</text>
<text text-anchor="start" x="2412.83" y="-1358.2" font-family="Simple Plan" font-size="14.00">7y 270d 17h 9m 30s</text>
<text text-anchor="start" x="2374.93" y="-1341.4" font-family="Simple Plan" font-size="14.00">&#45;2y &#45;191d &#45;23h &#45;53m &#45;16s &#45;194ms</text>
</g>
<!-- 24&#45;&gt;23 -->
<g id="edge12" class="edge">
<title>24&#45;&gt;23</title>
<path fill="none" stroke="black" stroke-width="0.5" stroke-dasharray="1,5" d="M2470,-1362.4C2421.67,-1362.4 2373.34,-1362.4 2325.01,-1362.4"/>
</g>
<!-- 27 -->
<g id="node27" class="node">
<title>27</title>
<ellipse fill="none" stroke="#cf1fc1" cx="2179" cy="-1230.4" rx="99.68" ry="22.63"/>
<text text-anchor="start" x="2116.51" y="-1224.4" font-family="Simple Plan" font-size="20.00">v2.0.0&#45;alpha.12</text>
</g>
<!-- 25&#45;&gt;27 -->
<g id="edge39" class="edge">
<title>25&#45;&gt;27</title>
<path fill="none" stroke="#cf1fc1" stroke-width="0.5" d="M1751.21,-1251.03C1819.01,-1279.19 1950.81,-1323.16 2060.54,-1295.13 2089.08,-1287.84 2118.15,-1272.11 2140.35,-1257.98"/>
<polygon fill="#cf1fc1" stroke="#cf1fc1" stroke-width="0.5" points="2142.02,-1261.07 2148.48,-1252.67 2138.19,-1255.21 2142.02,-1261.07"/>
<text text-anchor="start" x="1897.46" y="-1292.2" font-family="Master Photograph" font-size="14.00">3d 4h 9m 24s +3d 4h 9m 24s</text>
</g>
<!-- 26 -->
<g id="node26" class="node">
<title>26</title>
<text text-anchor="start" x="1855.84" y="-1243" font-family="Simple Plan" font-size="14.00">Sat, 17 Dec 2022 14:47:02 GMT</text>
<text text-anchor="start" x="1887.33" y="-1226.2" font-family="Simple Plan" font-size="14.00">7y 297d 13h 21m 58s</text>
<text text-anchor="start" x="1856.43" y="-1209.4" font-family="Simple Plan" font-size="14.00">&#45;2y &#45;165d &#45;3h &#45;40m &#45;48s &#45;194ms</text>
</g>
<!-- 26&#45;&gt;25 -->
<g id="edge13" class="edge">
<title>26&#45;&gt;25</title>
<path fill="none" stroke="black" stroke-width="0.5" stroke-dasharray="1,5" d="M1948,-1230.4C1900.58,-1230.4 1853.15,-1230.4 1805.73,-1230.4"/>
</g>
<!-- 29 -->
<g id="node29" class="node">
<title>29</title>
<ellipse fill="none" stroke="#cf1fc1" cx="2723" cy="-1230.4" rx="85.54" ry="22.63"/>
<text text-anchor="start" x="2670.51" y="-1224.4" font-family="Simple Plan" font-size="20.00">v2.0.0&#45;beta.1</text>
</g>
<!-- 27&#45;&gt;29 -->
<g id="edge40" class="edge">
<title>27&#45;&gt;29</title>
<path fill="none" stroke="#cf1fc1" stroke-width="0.5" d="M2225.18,-1250.87C2248.89,-1260.56 2278.52,-1271.43 2306,-1278 2373.18,-1294.05 2391.5,-1291.32 2460.46,-1295.13 2499.75,-1297.31 2600.24,-1307.67 2637.54,-1295.13 2658.72,-1288.02 2678.83,-1273.33 2694.22,-1259.75"/>
<polygon fill="#cf1fc1" stroke="#cf1fc1" stroke-width="0.5" points="2696.25,-1262.64 2701.26,-1253.3 2691.52,-1257.48 2696.25,-1262.64"/>
<text text-anchor="start" x="2460.46" y="-1292.2" font-family="Master Photograph" font-size="14.00">4d 23h 34m 6s +8d 3h 43m 30s</text>
</g>
<!-- 28 -->
<g id="node28" class="node">
<title>28</title>
<text text-anchor="start" x="2329.9" y="-1243" font-family="Simple Plan" font-size="14.00">Tue, 20 Dec 2022 18:56:26 GMT</text>
<text text-anchor="start" x="2363.33" y="-1226.2" font-family="Simple Plan" font-size="14.00">7y 300d 17h 31m 22s</text>
<text text-anchor="start" x="2328.93" y="-1209.4" font-family="Simple Plan" font-size="14.00">&#45;2y &#45;161d &#45;23h &#45;31m &#45;24s &#45;194ms</text>
</g>
<!-- 28&#45;&gt;27 -->
<g id="edge14" class="edge">
<title>28&#45;&gt;27</title>
<path fill="none" stroke="black" stroke-width="0.5" stroke-dasharray="1,5" d="M2424,-1230.4C2375.67,-1230.4 2327.34,-1230.4 2279.01,-1230.4"/>
</g>
<!-- 31 -->
<g id="node31" class="node">
<title>31</title>
<ellipse fill="none" stroke="#cf1fc1" cx="2723" cy="-1036.8" rx="85.54" ry="22.63"/>
<text text-anchor="start" x="2670.51" y="-1030.8" font-family="Simple Plan" font-size="20.00">v2.0.0&#45;beta.2</text>
</g>
<!-- 29&#45;&gt;31 -->
<g id="edge41" class="edge">
<title>29&#45;&gt;31</title>
<path fill="none" stroke="#cf1fc1" stroke-width="0.5" d="M2723,-1207.42C2723,-1173.8 2723,-1109.4 2723,-1070.35"/>
<polygon fill="#cf1fc1" stroke="#cf1fc1" stroke-width="0.5" points="2726.5,-1070.57 2723,-1060.57 2719.5,-1070.57 2726.5,-1070.57"/>
<text text-anchor="start" x="2723" y="-1154.2" font-family="Master Photograph" font-size="14.00">13d 1h 53m 34s +0ms</text>
</g>
<!-- 30 -->
<g id="node30" class="node">
<title>30</title>
<text text-anchor="start" x="2859.89" y="-1243" font-family="Simple Plan" font-size="14.00">Sun, 25 Dec 2022 18:30:32 GMT</text>
<text text-anchor="start" x="2896.83" y="-1226.2" font-family="Simple Plan" font-size="14.00">7y 305d 17h 5m 28s</text>
<text text-anchor="start" x="2858.93" y="-1209.4" font-family="Simple Plan" font-size="14.00">&#45;2y &#45;156d &#45;23h &#45;57m &#45;18s &#45;195ms</text>
</g>
<!-- 30&#45;&gt;29 -->
<g id="edge15" class="edge">
<title>30&#45;&gt;29</title>
<path fill="none" stroke="black" stroke-width="0.5" stroke-dasharray="1,5" d="M2954,-1230.4C2905.57,-1230.4 2857.15,-1230.4 2808.72,-1230.4"/>
</g>
<!-- 33 -->
<g id="node33" class="node">
<title>33</title>
<ellipse fill="none" stroke="#cf1fc1" cx="3166" cy="-1036.8" rx="85.54" ry="22.63"/>
<text text-anchor="start" x="3113.51" y="-1030.8" font-family="Simple Plan" font-size="20.00">v2.0.0&#45;beta.3</text>
</g>
<!-- 31&#45;&gt;33 -->
<g id="edge42" class="edge">
<title>31&#45;&gt;33</title>
<path fill="none" stroke="#cf1fc1" stroke-width="0.5" d="M2739.44,-1059.06C2759.04,-1083.52 2794.31,-1121.4 2835,-1136.93 2931.74,-1173.87 2972.54,-1177.08 3068,-1136.93 3101,-1123.05 3128.45,-1092.03 3145.83,-1068.17"/>
<polygon fill="#cf1fc1" stroke="#cf1fc1" stroke-width="0.5" points="3148.65,-1070.23 3151.54,-1060.04 3142.93,-1066.2 3148.65,-1070.23"/>
<text text-anchor="start" x="2877.46" y="-1154.2" font-family="Master Photograph" font-size="14.00">6d 21h 58m 2s +6d 21h 58m 2s</text>
</g>
<!-- 32 -->
<g id="node32" class="node">
<title>32</title>
<text text-anchor="start" x="2859.78" y="-1049.4" font-family="Simple Plan" font-size="14.00">Sat, 07 Jan 2023 20:24:06 GMT</text>
<text text-anchor="start" x="2892.83" y="-1032.6" font-family="Simple Plan" font-size="14.00">7y 318d 18h 59m 2s</text>
<text text-anchor="start" x="2858.43" y="-1015.8" font-family="Simple Plan" font-size="14.00">&#45;2y &#45;143d &#45;22h &#45;3m &#45;44s &#45;195ms</text>
</g>
<!-- 32&#45;&gt;31 -->
<g id="edge16" class="edge">
<title>32&#45;&gt;31</title>
<path fill="none" stroke="black" stroke-width="0.5" stroke-dasharray="1,5" d="M2950,-1036.8C2903,-1036.8 2856.01,-1036.8 2809.01,-1036.8"/>
</g>
<!-- 35 -->
<g id="node35" class="node">
<title>35</title>
<ellipse fill="none" stroke="#cf1fc1" cx="3607" cy="-1036.8" rx="85.54" ry="22.63"/>
<text text-anchor="start" x="3554.51" y="-1030.8" font-family="Simple Plan" font-size="20.00">v2.0.0&#45;beta.4</text>
</g>
<!-- 33&#45;&gt;35 -->
<g id="edge43" class="edge">
<title>33&#45;&gt;35</title>
<path fill="none" stroke="#cf1fc1" stroke-width="0.5" d="M3182.44,-1059.06C3202.04,-1083.52 3237.31,-1121.4 3278,-1136.93 3373.91,-1173.56 3414.36,-1176.73 3509,-1136.93 3542,-1123.05 3569.45,-1092.03 3586.83,-1068.17"/>
<polygon fill="#cf1fc1" stroke="#cf1fc1" stroke-width="0.5" points="3589.65,-1070.23 3592.54,-1060.04 3583.93,-1066.2 3589.65,-1070.23"/>
<text text-anchor="start" x="3258.21" y="-1154.2" font-family="Master Photograph" font-size="14.00">10d 1h 57m 4s +0ms</text>
</g>
<!-- 34 -->
<g id="node34" class="node">
<title>34</title>
<text text-anchor="start" x="3301.78" y="-1049.4" font-family="Simple Plan" font-size="14.00">Sat, 14 Jan 2023 18:22:08 GMT</text>
<text text-anchor="start" x="3334.83" y="-1032.6" font-family="Simple Plan" font-size="14.00">7y 325d 16h 57m 4s</text>
<text text-anchor="start" x="3315.01" y="-1015.8" font-family="Simple Plan" font-size="14.00">&#45;2y &#45;137d &#45;5m &#45;42s &#45;195ms</text>
</g>
<!-- 34&#45;&gt;33 -->
<g id="edge17" class="edge">
<title>34&#45;&gt;33</title>
<path fill="none" stroke="black" stroke-width="0.5" stroke-dasharray="1,5" d="M3392,-1036.8C3345.21,-1036.8 3298.42,-1036.8 3251.63,-1036.8"/>
</g>
<!-- 37 -->
<g id="node37" class="node">
<title>37</title>
<ellipse fill="none" stroke="#cf1fc1" cx="4052" cy="-1036.8" rx="85.54" ry="22.63"/>
<text text-anchor="start" x="3999.51" y="-1030.8" font-family="Simple Plan" font-size="20.00">v2.0.0&#45;beta.5</text>
</g>
<!-- 35&#45;&gt;37 -->
<g id="edge44" class="edge">
<title>35&#45;&gt;37</title>
<path fill="none" stroke="#cf1fc1" stroke-width="0.5" d="M3623.44,-1059.06C3643.04,-1083.52 3678.31,-1121.4 3719,-1136.93 3816.57,-1174.19 3857.72,-1177.42 3954,-1136.93 3987,-1123.05 4014.45,-1092.03 4031.83,-1068.17"/>
<polygon fill="#cf1fc1" stroke="#cf1fc1" stroke-width="0.5" points="4034.65,-1070.23 4037.54,-1060.04 4028.93,-1066.2 4034.65,-1070.23"/>
<text text-anchor="start" x="3833.21" y="-1154.2" font-family="Master Photograph" font-size="14.00">17d 21h 43m 57s +0ms</text>
</g>
<!-- 36 -->
<g id="node36" class="node">
<title>36</title>
<text text-anchor="start" x="3742.84" y="-1049.4" font-family="Simple Plan" font-size="14.00">Tue, 24 Jan 2023 20:19:12 GMT</text>
<text text-anchor="start" x="3777.83" y="-1032.6" font-family="Simple Plan" font-size="14.00">7y 335d 18h 54m 8s</text>
<text text-anchor="start" x="3743.43" y="-1015.8" font-family="Simple Plan" font-size="14.00">&#45;2y &#45;126d &#45;22h &#45;8m &#45;38s &#45;195ms</text>
</g>
<!-- 36&#45;&gt;35 -->
<g id="edge18" class="edge">
<title>36&#45;&gt;35</title>
<path fill="none" stroke="black" stroke-width="0.5" stroke-dasharray="1,5" d="M3835,-1036.8C3787.65,-1036.8 3740.3,-1036.8 3692.95,-1036.8"/>
</g>
<!-- 39 -->
<g id="node39" class="node">
<title>39</title>
<ellipse fill="none" stroke="#cf1fc1" cx="3596" cy="-904.8" rx="85.54" ry="22.63"/>
<text text-anchor="start" x="3543.51" y="-898.8" font-family="Simple Plan" font-size="20.00">v2.0.0&#45;beta.6</text>
</g>
<!-- 37&#45;&gt;39 -->
<g id="edge45" class="edge">
<title>37&#45;&gt;39</title>
<path fill="none" stroke="#cf1fc1" stroke-width="0.5" d="M4018.36,-1015.59C4000.01,-1005.68 3976.51,-994.7 3954,-989.2 3923.7,-981.79 3702.2,-991.27 3673.43,-979.2 3651.47,-969.99 3632.03,-951.51 3618.13,-935.4"/>
<polygon fill="#cf1fc1" stroke="#cf1fc1" stroke-width="0.5" points="3620.93,-933.3 3611.86,-927.84 3615.54,-937.77 3620.93,-933.3"/>
<text text-anchor="start" x="3673.43" y="-966.6" font-family="Master Photograph" font-size="14.00">22d 3h 21m 36s +0ms</text>
</g>
<!-- 38 -->
<g id="node38" class="node">
<title>38</title>
<text text-anchor="start" x="4187.61" y="-1049.4" font-family="Simple Plan" font-size="14.00">Sat, 11 Feb 2023 18:03:09 GMT</text>
<text text-anchor="start" x="4221.83" y="-1032.6" font-family="Simple Plan" font-size="14.00">7y 353d 16h 38m 5s</text>
<text text-anchor="start" x="4198.51" y="-1015.8" font-family="Simple Plan" font-size="14.00">&#45;2y &#45;109d &#45;24m &#45;41s &#45;195ms</text>
</g>
<!-- 38&#45;&gt;37 -->
<g id="edge19" class="edge">
<title>38&#45;&gt;37</title>
<path fill="none" stroke="black" stroke-width="0.5" stroke-dasharray="1,5" d="M4279,-1036.8C4232,-1036.8 4185.01,-1036.8 4138.01,-1036.8"/>
</g>
<!-- 41 -->
<g id="node41" class="node">
<title>41</title>
<ellipse fill="none" stroke="#cf1fc1" cx="4045" cy="-904.8" rx="85.54" ry="22.63"/>
<text text-anchor="start" x="3992.51" y="-898.8" font-family="Simple Plan" font-size="20.00">v2.0.0&#45;beta.7</text>
</g>
<!-- 39&#45;&gt;41 -->
<g id="edge46" class="edge">
<title>39&#45;&gt;41</title>
<path fill="none" stroke="#cf1fc1" stroke-width="0.5" d="M3637.16,-925.05C3657.97,-934.57 3683.87,-945.35 3708,-952.4 3756.28,-966.49 3885.17,-981.08 3933.79,-968.2 3960.36,-961.16 3987.22,-946.12 4007.88,-932.46"/>
<polygon fill="#cf1fc1" stroke="#cf1fc1" stroke-width="0.5" points="4009.7,-935.45 4016,-926.94 4005.76,-929.66 4009.7,-935.45"/>
<text text-anchor="start" x="3802.21" y="-966.6" font-family="Master Photograph" font-size="14.00">13d 22h 31m 57s +0ms</text>
</g>
<!-- 40 -->
<g id="node40" class="node">
<title>40</title>
<text text-anchor="start" x="3731.5" y="-917.4" font-family="Simple Plan" font-size="14.00">Sun, 05 Mar 2023 21:24:45 GMT</text>
<text text-anchor="start" x="3768.83" y="-900.6" font-family="Simple Plan" font-size="14.00">8y 10d 19h 59m 41s</text>
<text text-anchor="start" x="3741.43" y="-883.8" font-family="Simple Plan" font-size="14.00">&#45;2y &#45;86d &#45;21h &#45;3m &#45;5s &#45;195ms</text>
</g>
<!-- 40&#45;&gt;39 -->
<g id="edge20" class="edge">
<title>40&#45;&gt;39</title>
<path fill="none" stroke="black" stroke-width="0.5" stroke-dasharray="1,5" d="M3826,-904.8C3777.93,-904.8 3729.87,-904.8 3681.8,-904.8"/>
</g>
<!-- 43 -->
<g id="node43" class="node">
<title>43</title>
<ellipse fill="none" stroke="#cf1fc1" cx="4042" cy="-696.8" rx="85.54" ry="22.63"/>
<text text-anchor="start" x="3989.51" y="-690.8" font-family="Simple Plan" font-size="20.00">v2.0.0&#45;beta.8</text>
</g>
<!-- 41&#45;&gt;43 -->
<g id="edge47" class="edge">
<title>41&#45;&gt;43</title>
<path fill="none" stroke="#cf1fc1" stroke-width="0.5" d="M4044.68,-881.75C4044.15,-845.36 4043.09,-772.53 4042.47,-730.24"/>
<polygon fill="#cf1fc1" stroke="#cf1fc1" stroke-width="0.5" points="4045.98,-730.39 4042.33,-720.44 4038.98,-730.49 4045.98,-730.39"/>
<text text-anchor="start" x="4043.62" y="-796.6" font-family="Master Photograph" font-size="14.00">280d 17h 20m 9s +0ms</text>
</g>
<!-- 42 -->
<g id="node42" class="node">
<title>42</title>
<text text-anchor="start" x="4180.5" y="-917.4" font-family="Simple Plan" font-size="14.00">Sun, 19 Mar 2023 19:56:42 GMT</text>
<text text-anchor="start" x="4217.83" y="-900.6" font-family="Simple Plan" font-size="14.00">8y 24d 18h 31m 38s</text>
<text text-anchor="start" x="4186.93" y="-883.8" font-family="Simple Plan" font-size="14.00">&#45;2y &#45;72d &#45;22h &#45;31m &#45;8s &#45;195ms</text>
</g>
<!-- 42&#45;&gt;41 -->
<g id="edge21" class="edge">
<title>42&#45;&gt;41</title>
<path fill="none" stroke="black" stroke-width="0.5" stroke-dasharray="1,5" d="M4275,-904.8C4226.93,-904.8 4178.87,-904.8 4130.8,-904.8"/>
</g>
<!-- 45 -->
<g id="node45" class="node">
<title>45</title>
<ellipse fill="none" stroke="#cf1fc1" cx="4042" cy="-427.2" rx="85.54" ry="22.63"/>
<text text-anchor="start" x="3989.51" y="-421.2" font-family="Simple Plan" font-size="20.00">v2.0.0&#45;beta.9</text>
</g>
<!-- 43&#45;&gt;45 -->
<g id="edge48" class="edge">
<title>43&#45;&gt;45</title>
<path fill="none" stroke="#cf1fc1" stroke-width="0.5" d="M4042,-673.9C4042,-626.84 4042,-515.86 4042,-460.61"/>
<polygon fill="#cf1fc1" stroke="#cf1fc1" stroke-width="0.5" points="4045.5,-460.78 4042,-450.78 4038.5,-460.78 4045.5,-460.78"/>
<text text-anchor="start" x="4042" y="-582.6" font-family="Master Photograph" font-size="14.00">1y 23h 54m 4s +0ms</text>
</g>
<!-- 44 -->
<g id="node44" class="node">
<title>44</title>
<text text-anchor="start" x="4177.56" y="-709.4" font-family="Simple Plan" font-size="14.00">Mon, 25 Dec 2023 13:16:51 GMT</text>
<text text-anchor="start" x="4213.33" y="-692.6" font-family="Simple Plan" font-size="14.00">8y 305d 11h 51m 47s</text>
<text text-anchor="start" x="4182.43" y="-675.8" font-family="Simple Plan" font-size="14.00">&#45;1y &#45;157d &#45;5h &#45;10m &#45;59s &#45;195ms</text>
</g>
<!-- 44&#45;&gt;43 -->
<g id="edge22" class="edge">
<title>44&#45;&gt;43</title>
<path fill="none" stroke="black" stroke-width="0.5" stroke-dasharray="1,5" d="M4274,-696.8C4225.21,-696.8 4176.43,-696.8 4127.64,-696.8"/>
</g>
<!-- 47 -->
<g id="node47" class="node">
<title>47</title>
<ellipse fill="none" stroke="#cf1fc1" cx="4042" cy="-195.6" rx="92.61" ry="22.63"/>
<text text-anchor="start" x="3984.51" y="-189.6" font-family="Simple Plan" font-size="20.00">v2.0.0&#45;beta.10</text>
</g>
<!-- 45&#45;&gt;47 -->
<g id="edge49" class="edge">
<title>45&#45;&gt;47</title>
<path fill="none" stroke="#cf1fc1" stroke-width="0.5" d="M4042,-404.18C4042,-363.56 4042,-276.62 4042,-229.16"/>
<polygon fill="#cf1fc1" stroke="#cf1fc1" stroke-width="0.5" points="4045.5,-229.31 4042,-219.31 4038.5,-229.31 4045.5,-229.31"/>
<text text-anchor="start" x="4042" y="-332" font-family="Master Photograph" font-size="14.00">115d 4h 43m 57s +0ms</text>
</g>
<!-- 46 -->
<g id="node46" class="node">
<title>46</title>
<text text-anchor="start" x="4177.57" y="-439.8" font-family="Simple Plan" font-size="14.00">Wed, 25 Dec 2024 13:10:55 GMT</text>
<text text-anchor="start" x="4213.33" y="-423" font-family="Simple Plan" font-size="14.00">9y 306d 11h 45m 51s</text>
<text text-anchor="start" x="4193.51" y="-406.2" font-family="Simple Plan" font-size="14.00">&#45;156d &#45;5h &#45;16m &#45;55s &#45;195ms</text>
</g>
<!-- 46&#45;&gt;45 -->
<g id="edge23" class="edge">
<title>46&#45;&gt;45</title>
<path fill="none" stroke="black" stroke-width="0.5" stroke-dasharray="1,5" d="M4274,-427.2C4225.21,-427.2 4176.43,-427.2 4127.64,-427.2"/>
</g>
<!-- 49 -->
<g id="node49" class="node">
<title>49</title>
<ellipse fill="none" stroke="#cf1fc1" cx="3981" cy="-63.6" rx="31.73" ry="22.63"/>
<text text-anchor="start" x="3966.56" y="-57.6" font-family="Simple Plan" font-size="20.00">dev</text>
</g>
<!-- 47&#45;&gt;49 -->
<g id="edge50" class="edge">
<title>47&#45;&gt;49</title>
<path fill="none" stroke="#cf1fc1" stroke-width="0.5" d="M4028.52,-172.98C4022.32,-162.6 4015.1,-149.87 4009.43,-138 4002.97,-124.48 3996.82,-109.07 3991.91,-95.87"/>
<polygon fill="#cf1fc1" stroke="#cf1fc1" stroke-width="0.5" points="3995.23,-94.75 3988.51,-86.55 3988.65,-97.15 3995.23,-94.75"/>
<text text-anchor="start" x="4009.43" y="-125.4" font-family="Master Photograph" font-size="14.00">31d 16h 36m 56s +0ms</text>
</g>
<!-- 48 -->
<g id="node48" class="node">
<title>48</title>
<text text-anchor="start" x="4184.22" y="-208.2" font-family="Simple Plan" font-size="14.00">Sat, 19 Apr 2025 17:54:52 GMT</text>
<text text-anchor="start" x="4215.33" y="-191.4" font-family="Simple Plan" font-size="14.00">10y 56d 16h 29m 48s</text>
<text text-anchor="start" x="4210.09" y="-174.6" font-family="Simple Plan" font-size="14.00">&#45;41d &#45;32m &#45;58s &#45;195ms</text>
</g>
<!-- 48&#45;&gt;47 -->
<g id="edge24" class="edge">
<title>48&#45;&gt;47</title>
<path fill="none" stroke="black" stroke-width="0.5" stroke-dasharray="1,5" d="M4276,-195.6C4228.93,-195.6 4181.85,-195.6 4134.78,-195.6"/>
</g>
<!-- 51 -->
<g id="node51" class="node">
<title>51</title>
<ellipse fill="none" stroke="#cf1fc1" cx="4348" cy="-63.6" rx="51.39" ry="22.63"/>
<text text-anchor="start" x="4319.67" y="-57.6" font-family="Simple Plan" font-size="20.00">nightly</text>
</g>
<!-- 49&#45;&gt;51 -->
<g id="edge51" class="edge">
<title>49&#45;&gt;51</title>
<path fill="none" stroke="#cf1fc1" stroke-width="0.5" d="M3999.22,-82.48C4010.1,-92.61 4024.74,-104.38 4040,-111.2 4083.15,-130.49 4097.85,-124.51 4144.96,-128.33 4176.43,-130.88 4258.05,-140.85 4287.04,-128.33 4303.43,-121.25 4317.45,-107.36 4327.9,-94.25"/>
<polygon fill="#cf1fc1" stroke="#cf1fc1" stroke-width="0.5" points="4330.57,-96.53 4333.79,-86.43 4324.98,-92.32 4330.57,-96.53"/>
<text text-anchor="start" x="4144.96" y="-125.4" font-family="Master Photograph" font-size="14.00">6h 25m 25s +6h 25m 25s</text>
</g>
<!-- 50 -->
<g id="node50" class="node">
<title>50</title>
<text text-anchor="start" x="4063.01" y="-76.2" font-family="Simple Plan" font-size="14.00">Wed, 21 May 2025 10:31:48 GMT</text>
<text text-anchor="start" x="4107.33" y="-59.4" font-family="Simple Plan" font-size="14.00">10y 88d 9h 6m 44s</text>
<text text-anchor="start" x="4091.01" y="-42.6" font-family="Simple Plan" font-size="14.00">&#45;9d &#45;7h &#45;56m &#45;2s &#45;195ms</text>
</g>
<!-- 50&#45;&gt;49 -->
<g id="edge25" class="edge">
<title>50&#45;&gt;49</title>
<path fill="none" stroke="black" stroke-width="0.5" stroke-dasharray="1,5" d="M4161,-63.6C4111.66,-63.6 4062.33,-63.6 4012.99,-63.6"/>
</g>
<!-- 52 -->
<g id="node52" class="node">
<title>52</title>
<text text-anchor="start" x="4449.01" y="-76.2" font-family="Simple Plan" font-size="14.00">Wed, 21 May 2025 16:57:13 GMT</text>
<text text-anchor="start" x="4489.83" y="-59.4" font-family="Simple Plan" font-size="14.00">10y 88d 15h 32m 9s</text>
<text text-anchor="start" x="4473.51" y="-42.6" font-family="Simple Plan" font-size="14.00">&#45;9d &#45;1h &#45;30m &#45;37s &#45;195ms</text>
</g>
<!-- 52&#45;&gt;51 -->
<g id="edge26" class="edge">
<title>52&#45;&gt;51</title>
<path fill="none" stroke="black" stroke-width="0.5" stroke-dasharray="1,5" d="M4547,-63.6C4497.9,-63.6 4448.8,-63.6 4399.69,-63.6"/>
</g>
</g>
</svg>
