<?xml version="1.0" encoding="UTF-8" standalone="no"?>
<!DOCTYPE svg PUBLIC "-//W3C//DTD SVG 1.1//EN"
 "http://www.w3.org/Graphics/SVG/1.1/DTD/svg11.dtd">
<!-- Generated by graphviz version 12.2.1 (20241206.2353)
 -->
<!-- Pages: 1 -->
<svg width="4720pt" height="2602pt"
 viewBox="0.00 0.00 4720.00 2602.40" xmlns="http://www.w3.org/2000/svg" xmlns:xlink="http://www.w3.org/1999/xlink">
<g id="graph0" class="graph" transform="scale(1 1) rotate(0) translate(4 2598.4)">
<polygon fill="white" stroke="none" points="-4,4 -4,-2598.4 4716,-2598.4 4716,4 -4,4"/>
<g id="clust1" class="cluster">
<title>cluster_2015</title>
<polygon fill="none" stroke="black" stroke-width="0.2" stroke-dasharray="5,2" points="9,-2425.6 9,-2586.4 480,-2586.4 480,-2425.6 9,-2425.6"/>
<text text-anchor="middle" x="244.5" y="-2569.8" font-family="Master Photograph" font-size="14.00">2015</text>
</g>
<g id="clust2" class="cluster">
<title>%3</title>
</g>
<g id="clust3" class="cluster">
<title>cluster_2021</title>
<polygon fill="none" stroke="black" stroke-width="0.2" stroke-dasharray="5,2" points="8,-2080 8,-2240.8 473,-2240.8 473,-2080 8,-2080"/>
<text text-anchor="middle" x="240.5" y="-2224.2" font-family="Master Photograph" font-size="14.00">2021</text>
</g>
<g id="clust4" class="cluster">
<title>%7</title>
</g>
<g id="clust5" class="cluster">
<title>cluster_2022</title>
<polygon fill="none" stroke="black" stroke-width="0.2" stroke-dasharray="5,2" points="8,-1174.8 8,-1971.2 3087,-1971.2 3087,-1174.8 8,-1174.8"/>
<text text-anchor="middle" x="1547.5" y="-1954.6" font-family="Master Photograph" font-size="14.00">2022</text>
</g>
<g id="clust6" class="cluster">
<title>%11</title>
</g>
<g id="clust7" class="cluster">
<title>%15</title>
</g>
<g id="clust8" class="cluster">
<title>%19</title>
</g>
<g id="clust9" class="cluster">
<title>%23</title>
</g>
<g id="clust10" class="cluster">
<title>%27</title>
</g>
<g id="clust11" class="cluster">
<title>%31</title>
</g>
<g id="clust12" class="cluster">
<title>%35</title>
</g>
<g id="clust13" class="cluster">
<title>%39</title>
</g>
<g id="clust14" class="cluster">
<title>%43</title>
</g>
<g id="clust15" class="cluster">
<title>%47</title>
</g>
<g id="clust16" class="cluster">
<title>%51</title>
</g>
<g id="clust17" class="cluster">
<title>%55</title>
</g>
<g id="clust18" class="cluster">
<title>%59</title>
</g>
<g id="clust19" class="cluster">
<title>cluster_2023</title>
<polygon fill="none" stroke="black" stroke-width="0.2" stroke-dasharray="5,2" points="2629,-641.2 2629,-1142 4430,-1142 4430,-641.2 2629,-641.2"/>
<text text-anchor="middle" x="3529.5" y="-1125.4" font-family="Master Photograph" font-size="14.00">2023</text>
</g>
<g id="clust20" class="cluster">
<title>%63</title>
</g>
<g id="clust21" class="cluster">
<title>%67</title>
</g>
<g id="clust22" class="cluster">
<title>%71</title>
</g>
<g id="clust23" class="cluster">
<title>%75</title>
</g>
<g id="clust24" class="cluster">
<title>%79</title>
</g>
<g id="clust25" class="cluster">
<title>%83</title>
</g>
<g id="clust26" class="cluster">
<title>%87</title>
</g>
<g id="clust27" class="cluster">
<title>cluster_2024</title>
<polygon fill="none" stroke="black" stroke-width="0.2" stroke-dasharray="5,2" points="3969,-371.6 3969,-532.4 4430,-532.4 4430,-371.6 3969,-371.6"/>
<text text-anchor="middle" x="4199.5" y="-515.8" font-family="Master Photograph" font-size="14.00">2024</text>
</g>
<g id="clust28" class="cluster">
<title>%91</title>
</g>
<g id="clust29" class="cluster">
<title>cluster_2025</title>
<polygon fill="none" stroke="black" stroke-width="0.2" stroke-dasharray="5,2" points="3962,-8 3962,-300.8 4704,-300.8 4704,-8 3962,-8"/>
<text text-anchor="middle" x="4333" y="-284.2" font-family="Master Photograph" font-size="14.00">2025</text>
</g>
<g id="clust30" class="cluster">
<title>%95</title>
</g>
<g id="clust31" class="cluster">
<title>%99</title>
</g>
<g id="clust32" class="cluster">
<title>%103</title>
</g>
<!-- Initial commit -->
<g id="node1" class="node">
<title>Initial commit</title>
<ellipse fill="none" stroke="#cf1fc1" cx="117" cy="-2481.2" rx="91.83" ry="22.63"/>
<text text-anchor="middle" x="117" y="-2475.2" font-family="Simple Plan" font-size="20.00">Initial commit</text>
</g>
<!-- v2.0.0&#45;alpha.0 -->
<g id="node3" class="node">
<title>v2.0.0&#45;alpha.0</title>
<ellipse fill="none" stroke="#cf1fc1" cx="117" cy="-2135.6" rx="92.61" ry="22.63"/>
<text text-anchor="middle" x="117" y="-2129.6" font-family="Simple Plan" font-size="20.00">v2.0.0&#45;alpha.0</text>
</g>
<!-- Initial commit&#45;&gt;v2.0.0&#45;alpha.0 -->
<g id="edge27" class="edge">
<title>Initial commit&#45;&gt;v2.0.0&#45;alpha.0</title>
<path fill="none" stroke="#cf1fc1" stroke-width="0.5" d="M117,-2458.38C117,-2441.95 117,-2418.86 117,-2398.6 117,-2398.6 117,-2398.6 117,-2267.8 117,-2234.12 117,-2195.57 117,-2169.02"/>
<polygon fill="#cf1fc1" stroke="#cf1fc1" stroke-width="0.5" points="120.5,-2169.18 117,-2159.18 113.5,-2169.18 120.5,-2169.18"/>
<text text-anchor="middle" x="195.04" y="-2329" font-family="Master Photograph" font-size="14.00">6y 138d 16h 57m 47s +0ms</text>
</g>
<!-- annotation0 -->
<g id="node2" class="node">
<title>annotation0</title>
<text text-anchor="middle" x="354" y="-2493.8" font-family="Simple Plan" font-size="14.00">Wed, 25 Feb 2015 01:25:04 GMT</text>
<text text-anchor="middle" x="354" y="-2477" font-family="Simple Plan" font-size="14.00">0ms</text>
<text text-anchor="middle" x="354" y="-2460.2" font-family="Simple Plan" font-size="14.00">&#45;10y &#45;97d &#45;12h &#45;39m &#45;55s &#45;353ms</text>
</g>
<!-- annotation0&#45;&gt;Initial commit -->
<g id="edge1" class="edge">
<title>annotation0&#45;&gt;Initial commit</title>
<path fill="none" stroke="black" stroke-width="0.5" stroke-dasharray="1,5" d="M354,-2481.2C305.71,-2481.2 257.41,-2481.2 209.12,-2481.2"/>
</g>
<!-- v2.0.0&#45;alpha.1 -->
<g id="node5" class="node">
<title>v2.0.0&#45;alpha.1</title>
<ellipse fill="none" stroke="#cf1fc1" cx="117" cy="-1866" rx="92.61" ry="22.63"/>
<text text-anchor="middle" x="117" y="-1860" font-family="Simple Plan" font-size="20.00">v2.0.0&#45;alpha.1</text>
</g>
<!-- v2.0.0&#45;alpha.0&#45;&gt;v2.0.0&#45;alpha.1 -->
<g id="edge28" class="edge">
<title>v2.0.0&#45;alpha.0&#45;&gt;v2.0.0&#45;alpha.1</title>
<path fill="none" stroke="#cf1fc1" stroke-width="0.5" d="M117,-2112.7C117,-2065.64 117,-1954.66 117,-1899.41"/>
<polygon fill="#cf1fc1" stroke="#cf1fc1" stroke-width="0.5" points="120.5,-1899.58 117,-1889.58 113.5,-1899.58 120.5,-1899.58"/>
<text text-anchor="middle" x="186.29" y="-2021.4" font-family="Master Photograph" font-size="14.00">291d 18h 25m 40s +0ms</text>
</g>
<!-- annotation1 -->
<g id="node4" class="node">
<title>annotation1</title>
<text text-anchor="middle" x="351" y="-2148.2" font-family="Simple Plan" font-size="14.00">Sun, 11 Jul 2021 18:22:51 GMT</text>
<text text-anchor="middle" x="351" y="-2131.4" font-family="Simple Plan" font-size="14.00">6y 138d 16h 57m 47s</text>
<text text-anchor="middle" x="351" y="-2114.6" font-family="Simple Plan" font-size="14.00">&#45;3y &#45;323d &#45;19h &#45;42m &#45;8s &#45;353ms</text>
</g>
<!-- annotation1&#45;&gt;v2.0.0&#45;alpha.0 -->
<g id="edge2" class="edge">
<title>annotation1&#45;&gt;v2.0.0&#45;alpha.0</title>
<path fill="none" stroke="black" stroke-width="0.5" stroke-dasharray="1,5" d="M351,-2135.6C303.93,-2135.6 256.85,-2135.6 209.78,-2135.6"/>
</g>
<!-- v2.0.0&#45;alpha.2 -->
<g id="node7" class="node">
<title>v2.0.0&#45;alpha.2</title>
<ellipse fill="none" stroke="#cf1fc1" cx="117" cy="-1680.2" rx="92.61" ry="22.63"/>
<text text-anchor="middle" x="117" y="-1674.2" font-family="Simple Plan" font-size="20.00">v2.0.0&#45;alpha.2</text>
</g>
<!-- v2.0.0&#45;alpha.1&#45;&gt;v2.0.0&#45;alpha.2 -->
<g id="edge29" class="edge">
<title>v2.0.0&#45;alpha.1&#45;&gt;v2.0.0&#45;alpha.2</title>
<path fill="none" stroke="#cf1fc1" stroke-width="0.5" d="M117,-1843.19C117,-1811.08 117,-1750.87 117,-1713.59"/>
<polygon fill="#cf1fc1" stroke="#cf1fc1" stroke-width="0.5" points="120.5,-1714.02 117,-1704.02 113.5,-1714.02 120.5,-1714.02"/>
<text text-anchor="middle" x="163.54" y="-1776.8" font-family="Master Photograph" font-size="14.00">56d 3m 4s +0ms</text>
</g>
<!-- annotation2 -->
<g id="node6" class="node">
<title>annotation2</title>
<text text-anchor="middle" x="351" y="-1878.6" font-family="Simple Plan" font-size="14.00">Fri, 29 Apr 2022 12:48:31 GMT</text>
<text text-anchor="middle" x="351" y="-1861.8" font-family="Simple Plan" font-size="14.00">7y 65d 11h 23m 27s</text>
<text text-anchor="middle" x="351" y="-1845" font-family="Simple Plan" font-size="14.00">&#45;3y &#45;32d &#45;1h &#45;16m &#45;28s &#45;353ms</text>
</g>
<!-- annotation2&#45;&gt;v2.0.0&#45;alpha.1 -->
<g id="edge3" class="edge">
<title>annotation2&#45;&gt;v2.0.0&#45;alpha.1</title>
<path fill="none" stroke="black" stroke-width="0.5" stroke-dasharray="1,5" d="M351,-1866C303.93,-1866 256.85,-1866 209.78,-1866"/>
</g>
<!-- v2.0.0&#45;alpha.3 -->
<g id="node9" class="node">
<title>v2.0.0&#45;alpha.3</title>
<ellipse fill="none" stroke="#cf1fc1" cx="574" cy="-1680.2" rx="92.61" ry="22.63"/>
<text text-anchor="middle" x="574" y="-1674.2" font-family="Simple Plan" font-size="20.00">v2.0.0&#45;alpha.3</text>
</g>
<!-- v2.0.0&#45;alpha.2&#45;&gt;v2.0.0&#45;alpha.3 -->
<g id="edge30" class="edge">
<title>v2.0.0&#45;alpha.2&#45;&gt;v2.0.0&#45;alpha.3</title>
<path fill="none" stroke="#cf1fc1" stroke-width="0.5" d="M156.34,-1701.04C187.33,-1716.21 232.13,-1735.47 273.96,-1743.6 359.33,-1760.19 387.54,-1758.25 469,-1727.8 486.71,-1721.18 505.65,-1712.96 522.49,-1705.23"/>
<polygon fill="#cf1fc1" stroke="#cf1fc1" stroke-width="0.5" points="523.86,-1708.45 531.46,-1701.07 520.91,-1702.11 523.86,-1708.45"/>
<text text-anchor="middle" x="345" y="-1742" font-family="Master Photograph" font-size="14.00">5d 14m 17s +5d 14m 17s</text>
</g>
<!-- annotation3 -->
<g id="node8" class="node">
<title>annotation3</title>
<text text-anchor="middle" x="351" y="-1692.8" font-family="Simple Plan" font-size="14.00">Fri, 24 Jun 2022 12:51:35 GMT</text>
<text text-anchor="middle" x="351" y="-1676" font-family="Simple Plan" font-size="14.00">7y 121d 11h 26m 31s</text>
<text text-anchor="middle" x="351" y="-1659.2" font-family="Simple Plan" font-size="14.00">&#45;2y &#45;341d &#45;1h &#45;13m &#45;24s &#45;354ms</text>
</g>
<!-- annotation3&#45;&gt;v2.0.0&#45;alpha.2 -->
<g id="edge4" class="edge">
<title>annotation3&#45;&gt;v2.0.0&#45;alpha.2</title>
<path fill="none" stroke="black" stroke-width="0.5" stroke-dasharray="1,5" d="M351,-1680.2C303.93,-1680.2 256.85,-1680.2 209.78,-1680.2"/>
</g>
<!-- v2.0.0&#45;alpha.4 -->
<g id="node11" class="node">
<title>v2.0.0&#45;alpha.4</title>
<ellipse fill="none" stroke="#cf1fc1" cx="117" cy="-1494.4" rx="92.61" ry="22.63"/>
<text text-anchor="middle" x="117" y="-1488.4" font-family="Simple Plan" font-size="20.00">v2.0.0&#45;alpha.4</text>
</g>
<!-- v2.0.0&#45;alpha.3&#45;&gt;v2.0.0&#45;alpha.4 -->
<g id="edge31" class="edge">
<title>v2.0.0&#45;alpha.3&#45;&gt;v2.0.0&#45;alpha.4</title>
<path fill="none" stroke="#cf1fc1" stroke-width="0.5" d="M532.2,-1659.65C513.1,-1650.97 490.07,-1640.87 469,-1632.6 387.65,-1600.67 364.37,-1600.68 283,-1568.8 244.05,-1553.54 200.85,-1534.37 168.29,-1519.44"/>
<polygon fill="#cf1fc1" stroke="#cf1fc1" stroke-width="0.5" points="169.77,-1516.27 159.23,-1515.27 166.85,-1522.63 169.77,-1516.27"/>
<text text-anchor="middle" x="447.03" y="-1591" font-family="Master Photograph" font-size="14.00">83d 4h 45m 35s +0ms</text>
</g>
<!-- annotation4 -->
<g id="node10" class="node">
<title>annotation4</title>
<text text-anchor="middle" x="811" y="-1692.8" font-family="Simple Plan" font-size="14.00">Wed, 29 Jun 2022 13:05:52 GMT</text>
<text text-anchor="middle" x="811" y="-1676" font-family="Simple Plan" font-size="14.00">7y 126d 11h 40m 48s</text>
<text text-anchor="middle" x="811" y="-1659.2" font-family="Simple Plan" font-size="14.00">&#45;2y &#45;336d &#45;59m &#45;7s &#45;354ms</text>
</g>
<!-- annotation4&#45;&gt;v2.0.0&#45;alpha.3 -->
<g id="edge5" class="edge">
<title>annotation4&#45;&gt;v2.0.0&#45;alpha.3</title>
<path fill="none" stroke="black" stroke-width="0.5" stroke-dasharray="1,5" d="M811,-1680.2C763.01,-1680.2 715.03,-1680.2 667.04,-1680.2"/>
</g>
<!-- v2.0.0&#45;alpha.5 -->
<g id="node13" class="node">
<title>v2.0.0&#45;alpha.5</title>
<ellipse fill="none" stroke="#cf1fc1" cx="581" cy="-1494.4" rx="92.61" ry="22.63"/>
<text text-anchor="middle" x="581" y="-1488.4" font-family="Simple Plan" font-size="20.00">v2.0.0&#45;alpha.5</text>
</g>
<!-- v2.0.0&#45;alpha.4&#45;&gt;v2.0.0&#45;alpha.5 -->
<g id="edge32" class="edge">
<title>v2.0.0&#45;alpha.4&#45;&gt;v2.0.0&#45;alpha.5</title>
<path fill="none" stroke="#cf1fc1" stroke-width="0.5" d="M157.91,-1515.08C191.51,-1530.73 240.87,-1550.69 286.71,-1557.8 370.14,-1570.74 396.21,-1569.56 476,-1542 494.11,-1535.75 513.35,-1527.51 530.35,-1519.66"/>
<polygon fill="#cf1fc1" stroke="#cf1fc1" stroke-width="0.5" points="531.83,-1522.83 539.39,-1515.42 528.85,-1516.5 531.83,-1522.83"/>
<text text-anchor="middle" x="349" y="-1556.2" font-family="Master Photograph" font-size="14.00">16d 2h 39m 39s +0ms</text>
</g>
<!-- annotation5 -->
<g id="node12" class="node">
<title>annotation5</title>
<text text-anchor="middle" x="355" y="-1507" font-family="Simple Plan" font-size="14.00">Tue, 20 Sep 2022 17:51:27 GMT</text>
<text text-anchor="middle" x="355" y="-1490.2" font-family="Simple Plan" font-size="14.00">7y 209d 16h 26m 23s</text>
<text text-anchor="middle" x="355" y="-1473.4" font-family="Simple Plan" font-size="14.00">&#45;2y &#45;252d &#45;20h &#45;13m &#45;32s &#45;354ms</text>
</g>
<!-- annotation5&#45;&gt;v2.0.0&#45;alpha.4 -->
<g id="edge6" class="edge">
<title>annotation5&#45;&gt;v2.0.0&#45;alpha.4</title>
<path fill="none" stroke="black" stroke-width="0.5" stroke-dasharray="1,5" d="M355,-1494.4C306.66,-1494.4 258.31,-1494.4 209.97,-1494.4"/>
</g>
<!-- v2.0.0&#45;alpha.6 -->
<g id="node15" class="node">
<title>v2.0.0&#45;alpha.6</title>
<ellipse fill="none" stroke="#cf1fc1" cx="1097" cy="-1494.4" rx="92.61" ry="22.63"/>
<text text-anchor="middle" x="1097" y="-1488.4" font-family="Simple Plan" font-size="20.00">v2.0.0&#45;alpha.6</text>
</g>
<!-- v2.0.0&#45;alpha.5&#45;&gt;v2.0.0&#45;alpha.6 -->
<g id="edge33" class="edge">
<title>v2.0.0&#45;alpha.5&#45;&gt;v2.0.0&#45;alpha.6</title>
<path fill="none" stroke="#cf1fc1" stroke-width="0.5" d="M624.25,-1514.79C646.68,-1524.52 674.8,-1535.45 701,-1542 766.53,-1558.37 940.02,-1577.79 1004.54,-1557.8 1026.7,-1550.93 1048.27,-1536.71 1065,-1523.47"/>
<polygon fill="#cf1fc1" stroke="#cf1fc1" stroke-width="0.5" points="1067.18,-1526.21 1072.7,-1517.17 1062.74,-1520.8 1067.18,-1526.21"/>
<text text-anchor="middle" x="923" y="-1556.2" font-family="Master Photograph" font-size="14.00">5d 22h 9m 5s +5d 22h 9m 5s</text>
</g>
<!-- annotation6 -->
<g id="node14" class="node">
<title>annotation6</title>
<text text-anchor="middle" x="819" y="-1507" font-family="Simple Plan" font-size="14.00">Thu, 06 Oct 2022 20:31:06 GMT</text>
<text text-anchor="middle" x="819" y="-1490.2" font-family="Simple Plan" font-size="14.00">7y 225d 19h 6m 2s</text>
<text text-anchor="middle" x="819" y="-1473.4" font-family="Simple Plan" font-size="14.00">&#45;2y &#45;236d &#45;17h &#45;33m &#45;53s &#45;354ms</text>
</g>
<!-- annotation6&#45;&gt;v2.0.0&#45;alpha.5 -->
<g id="edge7" class="edge">
<title>annotation6&#45;&gt;v2.0.0&#45;alpha.5</title>
<path fill="none" stroke="black" stroke-width="0.5" stroke-dasharray="1,5" d="M819,-1494.4C770.66,-1494.4 722.31,-1494.4 673.97,-1494.4"/>
</g>
<!-- v2.0.0&#45;alpha.7 -->
<g id="node17" class="node">
<title>v2.0.0&#45;alpha.7</title>
<ellipse fill="none" stroke="#cf1fc1" cx="1606" cy="-1494.4" rx="92.61" ry="22.63"/>
<text text-anchor="middle" x="1606" y="-1488.4" font-family="Simple Plan" font-size="20.00">v2.0.0&#45;alpha.7</text>
</g>
<!-- v2.0.0&#45;alpha.6&#45;&gt;v2.0.0&#45;alpha.7 -->
<g id="edge34" class="edge">
<title>v2.0.0&#45;alpha.6&#45;&gt;v2.0.0&#45;alpha.7</title>
<path fill="none" stroke="#cf1fc1" stroke-width="0.5" d="M1120.64,-1516.69C1138.1,-1531.53 1163.24,-1549.73 1189.21,-1557.8 1246.14,-1575.48 1398.92,-1555.42 1457,-1542 1485.97,-1535.3 1517.43,-1525.63 1543.93,-1516.74"/>
<polygon fill="#cf1fc1" stroke="#cf1fc1" stroke-width="0.5" points="1544.77,-1520.16 1553.12,-1513.63 1542.52,-1513.53 1544.77,-1520.16"/>
<text text-anchor="middle" x="1269" y="-1556.2" font-family="Master Photograph" font-size="14.00">22h 13m 2s +6d 20h 22m 7s</text>
</g>
<!-- annotation7 -->
<g id="node16" class="node">
<title>annotation7</title>
<text text-anchor="middle" x="1335" y="-1507" font-family="Simple Plan" font-size="14.00">Wed, 12 Oct 2022 18:40:11 GMT</text>
<text text-anchor="middle" x="1335" y="-1490.2" font-family="Simple Plan" font-size="14.00">7y 231d 17h 15m 7s</text>
<text text-anchor="middle" x="1335" y="-1473.4" font-family="Simple Plan" font-size="14.00">&#45;2y &#45;230d &#45;19h &#45;24m &#45;48s &#45;354ms</text>
</g>
<!-- annotation7&#45;&gt;v2.0.0&#45;alpha.6 -->
<g id="edge8" class="edge">
<title>annotation7&#45;&gt;v2.0.0&#45;alpha.6</title>
<path fill="none" stroke="black" stroke-width="0.5" stroke-dasharray="1,5" d="M1335,-1494.4C1286.66,-1494.4 1238.31,-1494.4 1189.97,-1494.4"/>
</g>
<!-- v2.0.0&#45;alpha.8 -->
<g id="node19" class="node">
<title>v2.0.0&#45;alpha.8</title>
<ellipse fill="none" stroke="#cf1fc1" cx="2165" cy="-1494.4" rx="92.61" ry="22.63"/>
<text text-anchor="middle" x="2165" y="-1488.4" font-family="Simple Plan" font-size="20.00">v2.0.0&#45;alpha.8</text>
</g>
<!-- v2.0.0&#45;alpha.7&#45;&gt;v2.0.0&#45;alpha.8 -->
<g id="edge35" class="edge">
<title>v2.0.0&#45;alpha.7&#45;&gt;v2.0.0&#45;alpha.8</title>
<path fill="none" stroke="#cf1fc1" stroke-width="0.5" d="M1629.87,-1516.69C1647.48,-1531.53 1672.83,-1549.74 1698.96,-1557.8 1738.05,-1569.86 1842.32,-1561.69 1883.04,-1557.8 1919.97,-1554.27 1928.73,-1549.81 1965,-1542 2006.14,-1533.14 2051.82,-1522.35 2089.12,-1513.28"/>
<polygon fill="#cf1fc1" stroke="#cf1fc1" stroke-width="0.5" points="2089.78,-1516.72 2098.67,-1510.95 2088.13,-1509.92 2089.78,-1516.72"/>
<text text-anchor="middle" x="1791" y="-1556.2" font-family="Master Photograph" font-size="14.00">6d 1h 42m 44s +12d 22h 4m 51s</text>
</g>
<!-- annotation8 -->
<g id="node18" class="node">
<title>annotation8</title>
<text text-anchor="middle" x="1844" y="-1507" font-family="Simple Plan" font-size="14.00">Thu, 13 Oct 2022 16:53:13 GMT</text>
<text text-anchor="middle" x="1844" y="-1490.2" font-family="Simple Plan" font-size="14.00">7y 232d 15h 28m 9s</text>
<text text-anchor="middle" x="1844" y="-1473.4" font-family="Simple Plan" font-size="14.00">&#45;2y &#45;229d &#45;21h &#45;11m &#45;46s &#45;354ms</text>
</g>
<!-- annotation8&#45;&gt;v2.0.0&#45;alpha.7 -->
<g id="edge9" class="edge">
<title>annotation8&#45;&gt;v2.0.0&#45;alpha.7</title>
<path fill="none" stroke="black" stroke-width="0.5" stroke-dasharray="1,5" d="M1844,-1494.4C1795.66,-1494.4 1747.31,-1494.4 1698.97,-1494.4"/>
</g>
<!-- v2.0.0&#45;alpha.9 -->
<g id="node21" class="node">
<title>v2.0.0&#45;alpha.9</title>
<ellipse fill="none" stroke="#cf1fc1" cx="2724" cy="-1494.4" rx="92.61" ry="22.63"/>
<text text-anchor="middle" x="2724" y="-1488.4" font-family="Simple Plan" font-size="20.00">v2.0.0&#45;alpha.9</text>
</g>
<!-- v2.0.0&#45;alpha.8&#45;&gt;v2.0.0&#45;alpha.9 -->
<g id="edge36" class="edge">
<title>v2.0.0&#45;alpha.8&#45;&gt;v2.0.0&#45;alpha.9</title>
<path fill="none" stroke="#cf1fc1" stroke-width="0.5" d="M2207.55,-1514.84C2229.82,-1524.66 2257.84,-1535.64 2284,-1542 2359.01,-1560.24 2557.27,-1580.56 2631.04,-1557.8 2653.29,-1550.93 2674.98,-1536.71 2691.8,-1523.48"/>
<polygon fill="#cf1fc1" stroke="#cf1fc1" stroke-width="0.5" points="2694,-1526.2 2699.55,-1517.17 2689.58,-1520.77 2694,-1526.2"/>
<text text-anchor="middle" x="2539" y="-1556.2" font-family="Master Photograph" font-size="14.00">5d 21h 57m 16s +18d 20h 2m 7s</text>
</g>
<!-- annotation9 -->
<g id="node20" class="node">
<title>annotation9</title>
<text text-anchor="middle" x="2403" y="-1507" font-family="Simple Plan" font-size="14.00">Wed, 19 Oct 2022 18:35:57 GMT</text>
<text text-anchor="middle" x="2403" y="-1490.2" font-family="Simple Plan" font-size="14.00">7y 238d 17h 10m 53s</text>
<text text-anchor="middle" x="2403" y="-1473.4" font-family="Simple Plan" font-size="14.00">&#45;2y &#45;223d &#45;19h &#45;29m &#45;2s &#45;354ms</text>
</g>
<!-- annotation9&#45;&gt;v2.0.0&#45;alpha.8 -->
<g id="edge10" class="edge">
<title>annotation9&#45;&gt;v2.0.0&#45;alpha.8</title>
<path fill="none" stroke="black" stroke-width="0.5" stroke-dasharray="1,5" d="M2403,-1494.4C2354.66,-1494.4 2306.31,-1494.4 2257.97,-1494.4"/>
</g>
<!-- v2.0.0&#45;alpha.10 -->
<g id="node23" class="node">
<title>v2.0.0&#45;alpha.10</title>
<ellipse fill="none" stroke="#cf1fc1" cx="2233" cy="-1362.4" rx="99.68" ry="22.63"/>
<text text-anchor="middle" x="2233" y="-1356.4" font-family="Simple Plan" font-size="20.00">v2.0.0&#45;alpha.10</text>
</g>
<!-- v2.0.0&#45;alpha.9&#45;&gt;v2.0.0&#45;alpha.10 -->
<g id="edge37" class="edge">
<title>v2.0.0&#45;alpha.9&#45;&gt;v2.0.0&#45;alpha.10</title>
<path fill="none" stroke="#cf1fc1" stroke-width="0.5" d="M2659.06,-1478.01C2620.19,-1468.84 2569.8,-1457.04 2525,-1446.8 2451.75,-1430.06 2432.09,-1431.16 2360,-1410 2337.04,-1403.26 2312.25,-1394.51 2290.71,-1386.41"/>
<polygon fill="#cf1fc1" stroke="#cf1fc1" stroke-width="0.5" points="2292.04,-1383.17 2281.45,-1382.89 2289.56,-1389.71 2292.04,-1383.17"/>
<text text-anchor="middle" x="2535.66" y="-1424.2" font-family="Master Photograph" font-size="14.00">26d 2h 1m 21s +0ms</text>
</g>
<!-- annotation10 -->
<g id="node22" class="node">
<title>annotation10</title>
<text text-anchor="middle" x="2962" y="-1507" font-family="Simple Plan" font-size="14.00">Tue, 25 Oct 2022 16:33:13 GMT</text>
<text text-anchor="middle" x="2962" y="-1490.2" font-family="Simple Plan" font-size="14.00">7y 244d 15h 8m 9s</text>
<text text-anchor="middle" x="2962" y="-1473.4" font-family="Simple Plan" font-size="14.00">&#45;2y &#45;217d &#45;21h &#45;31m &#45;46s &#45;354ms</text>
</g>
<!-- annotation10&#45;&gt;v2.0.0&#45;alpha.9 -->
<g id="edge11" class="edge">
<title>annotation10&#45;&gt;v2.0.0&#45;alpha.9</title>
<path fill="none" stroke="black" stroke-width="0.5" stroke-dasharray="1,5" d="M2962,-1494.4C2913.66,-1494.4 2865.31,-1494.4 2816.97,-1494.4"/>
</g>
<!-- v2.0.0&#45;alpha.11 -->
<g id="node25" class="node">
<title>v2.0.0&#45;alpha.11</title>
<ellipse fill="none" stroke="#cf1fc1" cx="1709" cy="-1230.4" rx="99.68" ry="22.63"/>
<text text-anchor="middle" x="1709" y="-1224.4" font-family="Simple Plan" font-size="20.00">v2.0.0&#45;alpha.11</text>
</g>
<!-- v2.0.0&#45;alpha.10&#45;&gt;v2.0.0&#45;alpha.11 -->
<g id="edge38" class="edge">
<title>v2.0.0&#45;alpha.10&#45;&gt;v2.0.0&#45;alpha.11</title>
<path fill="none" stroke="#cf1fc1" stroke-width="0.5" d="M2134.75,-1358.01C2017.44,-1352.5 1829.42,-1338.58 1768.43,-1304.8 1750.68,-1294.97 1736.21,-1277.5 1725.99,-1262.07"/>
<polygon fill="#cf1fc1" stroke="#cf1fc1" stroke-width="0.5" points="1729.16,-1260.54 1720.87,-1253.93 1723.23,-1264.26 1729.16,-1260.54"/>
<text text-anchor="middle" x="1834.21" y="-1292.2" font-family="Master Photograph" font-size="14.00">26d 20h 12m 28s +0ms</text>
</g>
<!-- annotation11 -->
<g id="node24" class="node">
<title>annotation11</title>
<text text-anchor="middle" x="2478" y="-1375" font-family="Simple Plan" font-size="14.00">Sun, 20 Nov 2022 18:34:34 GMT</text>
<text text-anchor="middle" x="2478" y="-1358.2" font-family="Simple Plan" font-size="14.00">7y 270d 17h 9m 30s</text>
<text text-anchor="middle" x="2478" y="-1341.4" font-family="Simple Plan" font-size="14.00">&#45;2y &#45;191d &#45;19h &#45;30m &#45;25s &#45;354ms</text>
</g>
<!-- annotation11&#45;&gt;v2.0.0&#45;alpha.10 -->
<g id="edge12" class="edge">
<title>annotation11&#45;&gt;v2.0.0&#45;alpha.10</title>
<path fill="none" stroke="black" stroke-width="0.5" stroke-dasharray="1,5" d="M2478,-1362.4C2429.67,-1362.4 2381.34,-1362.4 2333.01,-1362.4"/>
</g>
<!-- v2.0.0&#45;alpha.12 -->
<g id="node27" class="node">
<title>v2.0.0&#45;alpha.12</title>
<ellipse fill="none" stroke="#cf1fc1" cx="2187" cy="-1230.4" rx="99.68" ry="22.63"/>
<text text-anchor="middle" x="2187" y="-1224.4" font-family="Simple Plan" font-size="20.00">v2.0.0&#45;alpha.12</text>
</g>
<!-- v2.0.0&#45;alpha.11&#45;&gt;v2.0.0&#45;alpha.12 -->
<g id="edge39" class="edge">
<title>v2.0.0&#45;alpha.11&#45;&gt;v2.0.0&#45;alpha.12</title>
<path fill="none" stroke="#cf1fc1" stroke-width="0.5" d="M1754.43,-1250.94C1822.91,-1279.14 1956.41,-1323.31 2067.54,-1295.13 2096.27,-1287.85 2125.59,-1272.11 2147.99,-1257.98"/>
<polygon fill="#cf1fc1" stroke="#cf1fc1" stroke-width="0.5" points="2149.7,-1261.04 2156.2,-1252.67 2145.9,-1255.16 2149.7,-1261.04"/>
<text text-anchor="middle" x="1986" y="-1292.2" font-family="Master Photograph" font-size="14.00">3d 4h 9m 24s +3d 4h 9m 24s</text>
</g>
<!-- annotation12 -->
<g id="node26" class="node">
<title>annotation12</title>
<text text-anchor="middle" x="1954" y="-1243" font-family="Simple Plan" font-size="14.00">Sat, 17 Dec 2022 14:47:02 GMT</text>
<text text-anchor="middle" x="1954" y="-1226.2" font-family="Simple Plan" font-size="14.00">7y 297d 13h 21m 58s</text>
<text text-anchor="middle" x="1954" y="-1209.4" font-family="Simple Plan" font-size="14.00">&#45;2y &#45;164d &#45;23h &#45;17m &#45;57s &#45;354ms</text>
</g>
<!-- annotation12&#45;&gt;v2.0.0&#45;alpha.11 -->
<g id="edge13" class="edge">
<title>annotation12&#45;&gt;v2.0.0&#45;alpha.11</title>
<path fill="none" stroke="black" stroke-width="0.5" stroke-dasharray="1,5" d="M1954,-1230.4C1905.67,-1230.4 1857.34,-1230.4 1809.01,-1230.4"/>
</g>
<!-- v2.0.0&#45;beta.1 -->
<g id="node29" class="node">
<title>v2.0.0&#45;beta.1</title>
<ellipse fill="none" stroke="#cf1fc1" cx="2731" cy="-1230.4" rx="85.54" ry="22.63"/>
<text text-anchor="middle" x="2731" y="-1224.4" font-family="Simple Plan" font-size="20.00">v2.0.0&#45;beta.1</text>
</g>
<!-- v2.0.0&#45;alpha.12&#45;&gt;v2.0.0&#45;beta.1 -->
<g id="edge40" class="edge">
<title>v2.0.0&#45;alpha.12&#45;&gt;v2.0.0&#45;beta.1</title>
<path fill="none" stroke="#cf1fc1" stroke-width="0.5" d="M2233.18,-1250.87C2256.89,-1260.56 2286.52,-1271.43 2314,-1278 2381.18,-1294.05 2399.5,-1291.32 2468.46,-1295.13 2507.75,-1297.31 2608.24,-1307.67 2645.54,-1295.13 2666.72,-1288.02 2686.83,-1273.33 2702.22,-1259.75"/>
<polygon fill="#cf1fc1" stroke="#cf1fc1" stroke-width="0.5" points="2704.25,-1262.64 2709.26,-1253.3 2699.52,-1257.48 2704.25,-1262.64"/>
<text text-anchor="middle" x="2557" y="-1292.2" font-family="Master Photograph" font-size="14.00">4d 23h 34m 6s +8d 3h 43m 30s</text>
</g>
<!-- annotation13 -->
<g id="node28" class="node">
<title>annotation13</title>
<text text-anchor="middle" x="2431" y="-1243" font-family="Simple Plan" font-size="14.00">Tue, 20 Dec 2022 18:56:26 GMT</text>
<text text-anchor="middle" x="2431" y="-1226.2" font-family="Simple Plan" font-size="14.00">7y 300d 17h 31m 22s</text>
<text text-anchor="middle" x="2431" y="-1209.4" font-family="Simple Plan" font-size="14.00">&#45;2y &#45;161d &#45;19h &#45;8m &#45;33s &#45;354ms</text>
</g>
<!-- annotation13&#45;&gt;v2.0.0&#45;alpha.12 -->
<g id="edge14" class="edge">
<title>annotation13&#45;&gt;v2.0.0&#45;alpha.12</title>
<path fill="none" stroke="black" stroke-width="0.5" stroke-dasharray="1,5" d="M2431,-1230.4C2383.03,-1230.4 2335.05,-1230.4 2287.08,-1230.4"/>
</g>
<!-- v2.0.0&#45;beta.2 -->
<g id="node31" class="node">
<title>v2.0.0&#45;beta.2</title>
<ellipse fill="none" stroke="#cf1fc1" cx="2731" cy="-1036.8" rx="85.54" ry="22.63"/>
<text text-anchor="middle" x="2731" y="-1030.8" font-family="Simple Plan" font-size="20.00">v2.0.0&#45;beta.2</text>
</g>
<!-- v2.0.0&#45;beta.1&#45;&gt;v2.0.0&#45;beta.2 -->
<g id="edge41" class="edge">
<title>v2.0.0&#45;beta.1&#45;&gt;v2.0.0&#45;beta.2</title>
<path fill="none" stroke="#cf1fc1" stroke-width="0.5" d="M2731,-1207.42C2731,-1173.8 2731,-1109.4 2731,-1070.35"/>
<polygon fill="#cf1fc1" stroke="#cf1fc1" stroke-width="0.5" points="2734.5,-1070.57 2731,-1060.57 2727.5,-1070.57 2734.5,-1070.57"/>
<text text-anchor="middle" x="2793.29" y="-1154.2" font-family="Master Photograph" font-size="14.00">13d 1h 53m 34s +0ms</text>
</g>
<!-- annotation14 -->
<g id="node30" class="node">
<title>annotation14</title>
<text text-anchor="middle" x="2962" y="-1243" font-family="Simple Plan" font-size="14.00">Sun, 25 Dec 2022 18:30:32 GMT</text>
<text text-anchor="middle" x="2962" y="-1226.2" font-family="Simple Plan" font-size="14.00">7y 305d 17h 5m 28s</text>
<text text-anchor="middle" x="2962" y="-1209.4" font-family="Simple Plan" font-size="14.00">&#45;2y &#45;156d &#45;19h &#45;34m &#45;27s &#45;354ms</text>
</g>
<!-- annotation14&#45;&gt;v2.0.0&#45;beta.1 -->
<g id="edge15" class="edge">
<title>annotation14&#45;&gt;v2.0.0&#45;beta.1</title>
<path fill="none" stroke="black" stroke-width="0.5" stroke-dasharray="1,5" d="M2962,-1230.4C2913.57,-1230.4 2865.15,-1230.4 2816.72,-1230.4"/>
</g>
<!-- v2.0.0&#45;beta.3 -->
<g id="node33" class="node">
<title>v2.0.0&#45;beta.3</title>
<ellipse fill="none" stroke="#cf1fc1" cx="3181" cy="-1036.8" rx="85.54" ry="22.63"/>
<text text-anchor="middle" x="3181" y="-1030.8" font-family="Simple Plan" font-size="20.00">v2.0.0&#45;beta.3</text>
</g>
<!-- v2.0.0&#45;beta.2&#45;&gt;v2.0.0&#45;beta.3 -->
<g id="edge42" class="edge">
<title>v2.0.0&#45;beta.2&#45;&gt;v2.0.0&#45;beta.3</title>
<path fill="none" stroke="#cf1fc1" stroke-width="0.5" d="M2747.64,-1059.06C2767.45,-1083.53 2803.07,-1121.41 2844,-1136.93 2943.32,-1174.61 2985.08,-1178.11 3083,-1136.93 3116,-1123.05 3143.45,-1092.03 3160.83,-1068.17"/>
<polygon fill="#cf1fc1" stroke="#cf1fc1" stroke-width="0.5" points="3163.65,-1070.23 3166.54,-1060.04 3157.93,-1066.2 3163.65,-1070.23"/>
<text text-anchor="middle" x="2978" y="-1154.2" font-family="Master Photograph" font-size="14.00">6d 21h 58m 2s +6d 21h 58m 2s</text>
</g>
<!-- annotation15 -->
<g id="node32" class="node">
<title>annotation15</title>
<text text-anchor="middle" x="2962" y="-1049.4" font-family="Simple Plan" font-size="14.00">Sat, 07 Jan 2023 20:24:06 GMT</text>
<text text-anchor="middle" x="2962" y="-1032.6" font-family="Simple Plan" font-size="14.00">7y 318d 18h 59m 2s</text>
<text text-anchor="middle" x="2962" y="-1015.8" font-family="Simple Plan" font-size="14.00">&#45;2y &#45;143d &#45;17h &#45;40m &#45;53s &#45;354ms</text>
</g>
<!-- annotation15&#45;&gt;v2.0.0&#45;beta.2 -->
<g id="edge16" class="edge">
<title>annotation15&#45;&gt;v2.0.0&#45;beta.2</title>
<path fill="none" stroke="black" stroke-width="0.5" stroke-dasharray="1,5" d="M2962,-1036.8C2913.57,-1036.8 2865.15,-1036.8 2816.72,-1036.8"/>
</g>
<!-- v2.0.0&#45;beta.4 -->
<g id="node35" class="node">
<title>v2.0.0&#45;beta.4</title>
<ellipse fill="none" stroke="#cf1fc1" cx="3631" cy="-1036.8" rx="85.54" ry="22.63"/>
<text text-anchor="middle" x="3631" y="-1030.8" font-family="Simple Plan" font-size="20.00">v2.0.0&#45;beta.4</text>
</g>
<!-- v2.0.0&#45;beta.3&#45;&gt;v2.0.0&#45;beta.4 -->
<g id="edge43" class="edge">
<title>v2.0.0&#45;beta.3&#45;&gt;v2.0.0&#45;beta.4</title>
<path fill="none" stroke="#cf1fc1" stroke-width="0.5" d="M3197.64,-1059.06C3217.45,-1083.53 3253.07,-1121.41 3294,-1136.93 3393.32,-1174.61 3435.08,-1178.11 3533,-1136.93 3566,-1123.05 3593.45,-1092.03 3610.83,-1068.17"/>
<polygon fill="#cf1fc1" stroke="#cf1fc1" stroke-width="0.5" points="3613.65,-1070.23 3616.54,-1060.04 3607.93,-1066.2 3613.65,-1070.23"/>
<text text-anchor="middle" x="3335" y="-1154.2" font-family="Master Photograph" font-size="14.00">10d 1h 57m 4s +0ms</text>
</g>
<!-- annotation16 -->
<g id="node34" class="node">
<title>annotation16</title>
<text text-anchor="middle" x="3412" y="-1049.4" font-family="Simple Plan" font-size="14.00">Sat, 14 Jan 2023 18:22:08 GMT</text>
<text text-anchor="middle" x="3412" y="-1032.6" font-family="Simple Plan" font-size="14.00">7y 325d 16h 57m 4s</text>
<text text-anchor="middle" x="3412" y="-1015.8" font-family="Simple Plan" font-size="14.00">&#45;2y &#45;136d &#45;19h &#45;42m &#45;51s &#45;354ms</text>
</g>
<!-- annotation16&#45;&gt;v2.0.0&#45;beta.3 -->
<g id="edge17" class="edge">
<title>annotation16&#45;&gt;v2.0.0&#45;beta.3</title>
<path fill="none" stroke="black" stroke-width="0.5" stroke-dasharray="1,5" d="M3412,-1036.8C3363.57,-1036.8 3315.15,-1036.8 3266.72,-1036.8"/>
</g>
<!-- v2.0.0&#45;beta.5 -->
<g id="node37" class="node">
<title>v2.0.0&#45;beta.5</title>
<ellipse fill="none" stroke="#cf1fc1" cx="4081" cy="-1036.8" rx="85.54" ry="22.63"/>
<text text-anchor="middle" x="4081" y="-1030.8" font-family="Simple Plan" font-size="20.00">v2.0.0&#45;beta.5</text>
</g>
<!-- v2.0.0&#45;beta.4&#45;&gt;v2.0.0&#45;beta.5 -->
<g id="edge44" class="edge">
<title>v2.0.0&#45;beta.4&#45;&gt;v2.0.0&#45;beta.5</title>
<path fill="none" stroke="#cf1fc1" stroke-width="0.5" d="M3647.64,-1059.06C3667.45,-1083.53 3703.07,-1121.41 3744,-1136.93 3843.32,-1174.61 3885.08,-1178.11 3983,-1136.93 4016,-1123.05 4043.45,-1092.03 4060.83,-1068.17"/>
<polygon fill="#cf1fc1" stroke="#cf1fc1" stroke-width="0.5" points="4063.65,-1070.23 4066.54,-1060.04 4057.93,-1066.2 4063.65,-1070.23"/>
<text text-anchor="middle" x="3927" y="-1154.2" font-family="Master Photograph" font-size="14.00">17d 21h 43m 57s +0ms</text>
</g>
<!-- annotation17 -->
<g id="node36" class="node">
<title>annotation17</title>
<text text-anchor="middle" x="3862" y="-1049.4" font-family="Simple Plan" font-size="14.00">Tue, 24 Jan 2023 20:19:12 GMT</text>
<text text-anchor="middle" x="3862" y="-1032.6" font-family="Simple Plan" font-size="14.00">7y 335d 18h 54m 8s</text>
<text text-anchor="middle" x="3862" y="-1015.8" font-family="Simple Plan" font-size="14.00">&#45;2y &#45;126d &#45;17h &#45;45m &#45;47s &#45;354ms</text>
</g>
<!-- annotation17&#45;&gt;v2.0.0&#45;beta.4 -->
<g id="edge18" class="edge">
<title>annotation17&#45;&gt;v2.0.0&#45;beta.4</title>
<path fill="none" stroke="black" stroke-width="0.5" stroke-dasharray="1,5" d="M3862,-1036.8C3813.57,-1036.8 3765.15,-1036.8 3716.72,-1036.8"/>
</g>
<!-- v2.0.0&#45;beta.6 -->
<g id="node39" class="node">
<title>v2.0.0&#45;beta.6</title>
<ellipse fill="none" stroke="#cf1fc1" cx="3625" cy="-904.8" rx="85.54" ry="22.63"/>
<text text-anchor="middle" x="3625" y="-898.8" font-family="Simple Plan" font-size="20.00">v2.0.0&#45;beta.6</text>
</g>
<!-- v2.0.0&#45;beta.5&#45;&gt;v2.0.0&#45;beta.6 -->
<g id="edge45" class="edge">
<title>v2.0.0&#45;beta.5&#45;&gt;v2.0.0&#45;beta.6</title>
<path fill="none" stroke="#cf1fc1" stroke-width="0.5" d="M4047.36,-1015.59C4029.01,-1005.68 4005.51,-994.7 3983,-989.2 3952.7,-981.79 3731.2,-991.27 3702.43,-979.2 3680.47,-969.99 3661.03,-951.51 3647.13,-935.4"/>
<polygon fill="#cf1fc1" stroke="#cf1fc1" stroke-width="0.5" points="3649.93,-933.3 3640.86,-927.84 3644.54,-937.77 3649.93,-933.3"/>
<text text-anchor="middle" x="3764.71" y="-966.6" font-family="Master Photograph" font-size="14.00">22d 3h 21m 36s +0ms</text>
</g>
<!-- annotation18 -->
<g id="node38" class="node">
<title>annotation18</title>
<text text-anchor="middle" x="4308" y="-1049.4" font-family="Simple Plan" font-size="14.00">Sat, 11 Feb 2023 18:03:09 GMT</text>
<text text-anchor="middle" x="4308" y="-1032.6" font-family="Simple Plan" font-size="14.00">7y 353d 16h 38m 5s</text>
<text text-anchor="middle" x="4308" y="-1015.8" font-family="Simple Plan" font-size="14.00">&#45;2y &#45;108d &#45;20h &#45;1m &#45;50s &#45;354ms</text>
</g>
<!-- annotation18&#45;&gt;v2.0.0&#45;beta.5 -->
<g id="edge19" class="edge">
<title>annotation18&#45;&gt;v2.0.0&#45;beta.5</title>
<path fill="none" stroke="black" stroke-width="0.5" stroke-dasharray="1,5" d="M4308,-1036.8C4261,-1036.8 4214.01,-1036.8 4167.01,-1036.8"/>
</g>
<!-- v2.0.0&#45;beta.7 -->
<g id="node41" class="node">
<title>v2.0.0&#45;beta.7</title>
<ellipse fill="none" stroke="#cf1fc1" cx="4074" cy="-904.8" rx="85.54" ry="22.63"/>
<text text-anchor="middle" x="4074" y="-898.8" font-family="Simple Plan" font-size="20.00">v2.0.0&#45;beta.7</text>
</g>
<!-- v2.0.0&#45;beta.6&#45;&gt;v2.0.0&#45;beta.7 -->
<g id="edge46" class="edge">
<title>v2.0.0&#45;beta.6&#45;&gt;v2.0.0&#45;beta.7</title>
<path fill="none" stroke="#cf1fc1" stroke-width="0.5" d="M3666.16,-925.05C3686.97,-934.57 3712.87,-945.35 3737,-952.4 3785.28,-966.49 3914.17,-981.08 3962.79,-968.2 3989.36,-961.16 4016.22,-946.12 4036.88,-932.46"/>
<polygon fill="#cf1fc1" stroke="#cf1fc1" stroke-width="0.5" points="4038.7,-935.45 4045,-926.94 4034.76,-929.66 4038.7,-935.45"/>
<text text-anchor="middle" x="3897" y="-966.6" font-family="Master Photograph" font-size="14.00">13d 22h 31m 57s +0ms</text>
</g>
<!-- annotation19 -->
<g id="node40" class="node">
<title>annotation19</title>
<text text-anchor="middle" x="3855" y="-917.4" font-family="Simple Plan" font-size="14.00">Sun, 05 Mar 2023 21:24:45 GMT</text>
<text text-anchor="middle" x="3855" y="-900.6" font-family="Simple Plan" font-size="14.00">8y 10d 19h 59m 41s</text>
<text text-anchor="middle" x="3855" y="-883.8" font-family="Simple Plan" font-size="14.00">&#45;2y &#45;86d &#45;16h &#45;40m &#45;14s &#45;354ms</text>
</g>
<!-- annotation19&#45;&gt;v2.0.0&#45;beta.6 -->
<g id="edge20" class="edge">
<title>annotation19&#45;&gt;v2.0.0&#45;beta.6</title>
<path fill="none" stroke="black" stroke-width="0.5" stroke-dasharray="1,5" d="M3855,-904.8C3806.93,-904.8 3758.87,-904.8 3710.8,-904.8"/>
</g>
<!-- v2.0.0&#45;beta.8 -->
<g id="node43" class="node">
<title>v2.0.0&#45;beta.8</title>
<ellipse fill="none" stroke="#cf1fc1" cx="4071" cy="-696.8" rx="85.54" ry="22.63"/>
<text text-anchor="middle" x="4071" y="-690.8" font-family="Simple Plan" font-size="20.00">v2.0.0&#45;beta.8</text>
</g>
<!-- v2.0.0&#45;beta.7&#45;&gt;v2.0.0&#45;beta.8 -->
<g id="edge47" class="edge">
<title>v2.0.0&#45;beta.7&#45;&gt;v2.0.0&#45;beta.8</title>
<path fill="none" stroke="#cf1fc1" stroke-width="0.5" d="M4073.68,-881.75C4073.15,-845.36 4072.09,-772.53 4071.47,-730.24"/>
<polygon fill="#cf1fc1" stroke="#cf1fc1" stroke-width="0.5" points="4074.98,-730.39 4071.33,-720.44 4067.98,-730.49 4074.98,-730.39"/>
<text text-anchor="middle" x="4138.41" y="-796.6" font-family="Master Photograph" font-size="14.00">280d 17h 20m 9s +0ms</text>
</g>
<!-- annotation20 -->
<g id="node42" class="node">
<title>annotation20</title>
<text text-anchor="middle" x="4304" y="-917.4" font-family="Simple Plan" font-size="14.00">Sun, 19 Mar 2023 19:56:42 GMT</text>
<text text-anchor="middle" x="4304" y="-900.6" font-family="Simple Plan" font-size="14.00">8y 24d 18h 31m 38s</text>
<text text-anchor="middle" x="4304" y="-883.8" font-family="Simple Plan" font-size="14.00">&#45;2y &#45;72d &#45;18h &#45;8m &#45;17s &#45;354ms</text>
</g>
<!-- annotation20&#45;&gt;v2.0.0&#45;beta.7 -->
<g id="edge21" class="edge">
<title>annotation20&#45;&gt;v2.0.0&#45;beta.7</title>
<path fill="none" stroke="black" stroke-width="0.5" stroke-dasharray="1,5" d="M4304,-904.8C4255.93,-904.8 4207.87,-904.8 4159.8,-904.8"/>
</g>
<!-- v2.0.0&#45;beta.9 -->
<g id="node45" class="node">
<title>v2.0.0&#45;beta.9</title>
<ellipse fill="none" stroke="#cf1fc1" cx="4071" cy="-427.2" rx="85.54" ry="22.63"/>
<text text-anchor="middle" x="4071" y="-421.2" font-family="Simple Plan" font-size="20.00">v2.0.0&#45;beta.9</text>
</g>
<!-- v2.0.0&#45;beta.8&#45;&gt;v2.0.0&#45;beta.9 -->
<g id="edge48" class="edge">
<title>v2.0.0&#45;beta.8&#45;&gt;v2.0.0&#45;beta.9</title>
<path fill="none" stroke="#cf1fc1" stroke-width="0.5" d="M4071,-673.9C4071,-626.84 4071,-515.86 4071,-460.61"/>
<polygon fill="#cf1fc1" stroke="#cf1fc1" stroke-width="0.5" points="4074.5,-460.78 4071,-450.78 4067.5,-460.78 4074.5,-460.78"/>
<text text-anchor="middle" x="4129.79" y="-582.6" font-family="Master Photograph" font-size="14.00">1y 23h 54m 4s +0ms</text>
</g>
<!-- annotation21 -->
<g id="node44" class="node">
<title>annotation21</title>
<text text-anchor="middle" x="4303" y="-709.4" font-family="Simple Plan" font-size="14.00">Mon, 25 Dec 2023 13:16:51 GMT</text>
<text text-anchor="middle" x="4303" y="-692.6" font-family="Simple Plan" font-size="14.00">8y 305d 11h 51m 47s</text>
<text text-anchor="middle" x="4303" y="-675.8" font-family="Simple Plan" font-size="14.00">&#45;1y &#45;157d &#45;48m &#45;8s &#45;354ms</text>
</g>
<!-- annotation21&#45;&gt;v2.0.0&#45;beta.8 -->
<g id="edge22" class="edge">
<title>annotation21&#45;&gt;v2.0.0&#45;beta.8</title>
<path fill="none" stroke="black" stroke-width="0.5" stroke-dasharray="1,5" d="M4303,-696.8C4254.21,-696.8 4205.43,-696.8 4156.64,-696.8"/>
</g>
<!-- v2.0.0&#45;beta.10 -->
<g id="node47" class="node">
<title>v2.0.0&#45;beta.10</title>
<ellipse fill="none" stroke="#cf1fc1" cx="4071" cy="-195.6" rx="92.61" ry="22.63"/>
<text text-anchor="middle" x="4071" y="-189.6" font-family="Simple Plan" font-size="20.00">v2.0.0&#45;beta.10</text>
</g>
<!-- v2.0.0&#45;beta.9&#45;&gt;v2.0.0&#45;beta.10 -->
<g id="edge49" class="edge">
<title>v2.0.0&#45;beta.9&#45;&gt;v2.0.0&#45;beta.10</title>
<path fill="none" stroke="#cf1fc1" stroke-width="0.5" d="M4071,-404.18C4071,-363.56 4071,-276.62 4071,-229.16"/>
<polygon fill="#cf1fc1" stroke="#cf1fc1" stroke-width="0.5" points="4074.5,-229.31 4071,-219.31 4067.5,-229.31 4074.5,-229.31"/>
<text text-anchor="middle" x="4136.79" y="-332" font-family="Master Photograph" font-size="14.00">115d 4h 43m 57s +0ms</text>
</g>
<!-- annotation22 -->
<g id="node46" class="node">
<title>annotation22</title>
<text text-anchor="middle" x="4303" y="-439.8" font-family="Simple Plan" font-size="14.00">Wed, 25 Dec 2024 13:10:55 GMT</text>
<text text-anchor="middle" x="4303" y="-423" font-family="Simple Plan" font-size="14.00">9y 306d 11h 45m 51s</text>
<text text-anchor="middle" x="4303" y="-406.2" font-family="Simple Plan" font-size="14.00">&#45;156d &#45;54m &#45;4s &#45;354ms</text>
</g>
<!-- annotation22&#45;&gt;v2.0.0&#45;beta.9 -->
<g id="edge23" class="edge">
<title>annotation22&#45;&gt;v2.0.0&#45;beta.9</title>
<path fill="none" stroke="black" stroke-width="0.5" stroke-dasharray="1,5" d="M4303,-427.2C4254.21,-427.2 4205.43,-427.2 4156.64,-427.2"/>
</g>
<!-- dev -->
<g id="node49" class="node">
<title>dev</title>
<ellipse fill="none" stroke="#cf1fc1" cx="4010" cy="-63.6" rx="31.73" ry="22.63"/>
<text text-anchor="middle" x="4010" y="-57.6" font-family="Simple Plan" font-size="20.00">dev</text>
</g>
<!-- v2.0.0&#45;beta.10&#45;&gt;dev -->
<g id="edge50" class="edge">
<title>v2.0.0&#45;beta.10&#45;&gt;dev</title>
<path fill="none" stroke="#cf1fc1" stroke-width="0.5" d="M4057.52,-172.98C4051.32,-162.6 4044.1,-149.87 4038.43,-138 4031.97,-124.48 4025.82,-109.07 4020.91,-95.87"/>
<polygon fill="#cf1fc1" stroke="#cf1fc1" stroke-width="0.5" points="4024.23,-94.75 4017.51,-86.55 4017.65,-97.15 4024.23,-94.75"/>
<text text-anchor="middle" x="4104.21" y="-125.4" font-family="Master Photograph" font-size="14.00">31d 16h 36m 56s +0ms</text>
</g>
<!-- annotation23 -->
<g id="node48" class="node">
<title>annotation23</title>
<text text-anchor="middle" x="4305" y="-208.2" font-family="Simple Plan" font-size="14.00">Sat, 19 Apr 2025 17:54:52 GMT</text>
<text text-anchor="middle" x="4305" y="-191.4" font-family="Simple Plan" font-size="14.00">10y 56d 16h 29m 48s</text>
<text text-anchor="middle" x="4305" y="-174.6" font-family="Simple Plan" font-size="14.00">&#45;40d &#45;20h &#45;10m &#45;7s &#45;354ms</text>
</g>
<!-- annotation23&#45;&gt;v2.0.0&#45;beta.10 -->
<g id="edge24" class="edge">
<title>annotation23&#45;&gt;v2.0.0&#45;beta.10</title>
<path fill="none" stroke="black" stroke-width="0.5" stroke-dasharray="1,5" d="M4305,-195.6C4257.93,-195.6 4210.85,-195.6 4163.78,-195.6"/>
</g>
<!-- nightly -->
<g id="node51" class="node">
<title>nightly</title>
<ellipse fill="none" stroke="#cf1fc1" cx="4377" cy="-63.6" rx="51.39" ry="22.63"/>
<text text-anchor="middle" x="4377" y="-57.6" font-family="Simple Plan" font-size="20.00">nightly</text>
</g>
<!-- dev&#45;&gt;nightly -->
<g id="edge51" class="edge">
<title>dev&#45;&gt;nightly</title>
<path fill="none" stroke="#cf1fc1" stroke-width="0.5" d="M4028.22,-82.48C4039.1,-92.61 4053.74,-104.38 4069,-111.2 4112.15,-130.49 4126.85,-124.51 4173.96,-128.33 4205.43,-130.88 4287.05,-140.85 4316.04,-128.33 4332.43,-121.25 4346.45,-107.36 4356.9,-94.25"/>
<polygon fill="#cf1fc1" stroke="#cf1fc1" stroke-width="0.5" points="4359.57,-96.53 4362.79,-86.43 4353.98,-92.32 4359.57,-96.53"/>
<text text-anchor="middle" x="4245" y="-125.4" font-family="Master Photograph" font-size="14.00">6h 25m 25s +6h 25m 25s</text>
</g>
<!-- annotation24 -->
<g id="node50" class="node">
<title>annotation24</title>
<text text-anchor="middle" x="4190" y="-76.2" font-family="Simple Plan" font-size="14.00">Wed, 21 May 2025 10:31:48 GMT</text>
<text text-anchor="middle" x="4190" y="-59.4" font-family="Simple Plan" font-size="14.00">10y 88d 9h 6m 44s</text>
<text text-anchor="middle" x="4190" y="-42.6" font-family="Simple Plan" font-size="14.00">&#45;9d &#45;3h &#45;33m &#45;11s &#45;354ms</text>
</g>
<!-- annotation24&#45;&gt;dev -->
<g id="edge25" class="edge">
<title>annotation24&#45;&gt;dev</title>
<path fill="none" stroke="black" stroke-width="0.5" stroke-dasharray="1,5" d="M4190,-63.6C4140.66,-63.6 4091.33,-63.6 4041.99,-63.6"/>
</g>
<!-- annotation25 -->
<g id="node52" class="node">
<title>annotation25</title>
<text text-anchor="middle" x="4576" y="-76.2" font-family="Simple Plan" font-size="14.00">Wed, 21 May 2025 16:57:13 GMT</text>
<text text-anchor="middle" x="4576" y="-59.4" font-family="Simple Plan" font-size="14.00">10y 88d 15h 32m 9s</text>
<text text-anchor="middle" x="4576" y="-42.6" font-family="Simple Plan" font-size="14.00">&#45;8d &#45;21h &#45;7m &#45;46s &#45;354ms</text>
</g>
<!-- annotation25&#45;&gt;nightly -->
<g id="edge26" class="edge">
<title>annotation25&#45;&gt;nightly</title>
<path fill="none" stroke="black" stroke-width="0.5" stroke-dasharray="1,5" d="M4576,-63.6C4526.9,-63.6 4477.8,-63.6 4428.69,-63.6"/>
</g>
</g>
</svg>
