<?xml version="1.0" encoding="UTF-8" standalone="no"?>
<!DOCTYPE svg PUBLIC "-//W3C//DTD SVG 1.1//EN"
 "http://www.w3.org/Graphics/SVG/1.1/DTD/svg11.dtd">
<!-- Generated by graphviz version 12.2.1 (20241206.2353)
 -->
<!-- Pages: 1 -->
<svg width="512pt" height="4077pt"
 viewBox="0.00 0.00 512.00 4076.80" xmlns="http://www.w3.org/2000/svg" xmlns:xlink="http://www.w3.org/1999/xlink">
<g id="graph0" class="graph" transform="scale(1 1) rotate(0) translate(4 4072.8)">
<polygon fill="white" stroke="none" points="-4,4 -4,-4072.8 508,-4072.8 508,4 -4,4"/>
<g id="clust1" class="cluster">
<title>cluster_2008</title>
<polygon fill="none" stroke="black" stroke-width="0.2" stroke-dasharray="5,2" points="8,-3924.8 8,-4060.8 496,-4060.8 496,-3924.8 8,-3924.8"/>
<text text-anchor="middle" x="252" y="-4044.2" font-family="Master Photograph" font-size="14.00">2008</text>
</g>
<g id="clust2" class="cluster">
<title>%3</title>
</g>
<g id="clust3" class="cluster">
<title>cluster_2009</title>
<polygon fill="none" stroke="black" stroke-width="0.2" stroke-dasharray="5,2" points="8,-3680 8,-3816 496,-3816 496,-3680 8,-3680"/>
<text text-anchor="middle" x="252" y="-3799.4" font-family="Master Photograph" font-size="14.00">2009</text>
</g>
<g id="clust4" class="cluster">
<title>%7</title>
</g>
<g id="clust5" class="cluster">
<title>cluster_2010</title>
<polygon fill="none" stroke="black" stroke-width="0.2" stroke-dasharray="5,2" points="8,-3435.2 8,-3571.2 496,-3571.2 496,-3435.2 8,-3435.2"/>
<text text-anchor="middle" x="252" y="-3554.6" font-family="Master Photograph" font-size="14.00">2010</text>
</g>
<g id="clust6" class="cluster">
<title>%11</title>
</g>
<g id="clust7" class="cluster">
<title>cluster_2011</title>
<polygon fill="none" stroke="black" stroke-width="0.2" stroke-dasharray="5,2" points="8,-3190.4 8,-3326.4 496,-3326.4 496,-3190.4 8,-3190.4"/>
<text text-anchor="middle" x="252" y="-3309.8" font-family="Master Photograph" font-size="14.00">2011</text>
</g>
<g id="clust8" class="cluster">
<title>%15</title>
</g>
<g id="clust9" class="cluster">
<title>cluster_2012</title>
<polygon fill="none" stroke="black" stroke-width="0.2" stroke-dasharray="5,2" points="8,-2945.6 8,-3081.6 496,-3081.6 496,-2945.6 8,-2945.6"/>
<text text-anchor="middle" x="252" y="-3065" font-family="Master Photograph" font-size="14.00">2012</text>
</g>
<g id="clust10" class="cluster">
<title>%19</title>
</g>
<g id="clust11" class="cluster">
<title>cluster_2013</title>
<polygon fill="none" stroke="black" stroke-width="0.2" stroke-dasharray="5,2" points="8,-2700.8 8,-2836.8 496,-2836.8 496,-2700.8 8,-2700.8"/>
<text text-anchor="middle" x="252" y="-2820.2" font-family="Master Photograph" font-size="14.00">2013</text>
</g>
<g id="clust12" class="cluster">
<title>%23</title>
</g>
<g id="clust13" class="cluster">
<title>cluster_2014</title>
<polygon fill="none" stroke="black" stroke-width="0.2" stroke-dasharray="5,2" points="8,-2456 8,-2592 496,-2592 496,-2456 8,-2456"/>
<text text-anchor="middle" x="252" y="-2575.4" font-family="Master Photograph" font-size="14.00">2014</text>
</g>
<g id="clust14" class="cluster">
<title>%27</title>
</g>
<g id="clust15" class="cluster">
<title>cluster_2015</title>
<polygon fill="none" stroke="black" stroke-width="0.2" stroke-dasharray="5,2" points="8,-2211.2 8,-2347.2 490,-2347.2 490,-2211.2 8,-2211.2"/>
<text text-anchor="middle" x="249" y="-2330.6" font-family="Master Photograph" font-size="14.00">2015</text>
</g>
<g id="clust16" class="cluster">
<title>%31</title>
</g>
<g id="clust17" class="cluster">
<title>cluster_2016</title>
<polygon fill="none" stroke="black" stroke-width="0.2" stroke-dasharray="5,2" points="8,-1966.4 8,-2102.4 490,-2102.4 490,-1966.4 8,-1966.4"/>
<text text-anchor="middle" x="249" y="-2085.8" font-family="Master Photograph" font-size="14.00">2016</text>
</g>
<g id="clust18" class="cluster">
<title>%35</title>
</g>
<g id="clust19" class="cluster">
<title>cluster_2017</title>
<polygon fill="none" stroke="black" stroke-width="0.2" stroke-dasharray="5,2" points="8,-1721.6 8,-1857.6 490,-1857.6 490,-1721.6 8,-1721.6"/>
<text text-anchor="middle" x="249" y="-1841" font-family="Master Photograph" font-size="14.00">2017</text>
</g>
<g id="clust20" class="cluster">
<title>%39</title>
</g>
<g id="clust21" class="cluster">
<title>cluster_2018</title>
<polygon fill="none" stroke="black" stroke-width="0.2" stroke-dasharray="5,2" points="8,-1476.8 8,-1612.8 490,-1612.8 490,-1476.8 8,-1476.8"/>
<text text-anchor="middle" x="249" y="-1596.2" font-family="Master Photograph" font-size="14.00">2018</text>
</g>
<g id="clust22" class="cluster">
<title>%43</title>
</g>
<g id="clust23" class="cluster">
<title>cluster_2019</title>
<polygon fill="none" stroke="black" stroke-width="0.2" stroke-dasharray="5,2" points="8,-1232 8,-1368 490,-1368 490,-1232 8,-1232"/>
<text text-anchor="middle" x="249" y="-1351.4" font-family="Master Photograph" font-size="14.00">2019</text>
</g>
<g id="clust24" class="cluster">
<title>%47</title>
</g>
<g id="clust25" class="cluster">
<title>cluster_2020</title>
<polygon fill="none" stroke="black" stroke-width="0.2" stroke-dasharray="5,2" points="8,-987.2 8,-1123.2 490,-1123.2 490,-987.2 8,-987.2"/>
<text text-anchor="middle" x="249" y="-1106.6" font-family="Master Photograph" font-size="14.00">2020</text>
</g>
<g id="clust26" class="cluster">
<title>%51</title>
</g>
<g id="clust27" class="cluster">
<title>cluster_2021</title>
<polygon fill="none" stroke="black" stroke-width="0.2" stroke-dasharray="5,2" points="8,-742.4 8,-878.4 490,-878.4 490,-742.4 8,-742.4"/>
<text text-anchor="middle" x="249" y="-861.8" font-family="Master Photograph" font-size="14.00">2021</text>
</g>
<g id="clust28" class="cluster">
<title>%55</title>
</g>
<g id="clust29" class="cluster">
<title>cluster_2022</title>
<polygon fill="none" stroke="black" stroke-width="0.2" stroke-dasharray="5,2" points="8,-497.6 8,-633.6 490,-633.6 490,-497.6 8,-497.6"/>
<text text-anchor="middle" x="249" y="-617" font-family="Master Photograph" font-size="14.00">2022</text>
</g>
<g id="clust30" class="cluster">
<title>%59</title>
</g>
<g id="clust31" class="cluster">
<title>cluster_2023</title>
<polygon fill="none" stroke="black" stroke-width="0.2" stroke-dasharray="5,2" points="8,-252.8 8,-388.8 490,-388.8 490,-252.8 8,-252.8"/>
<text text-anchor="middle" x="249" y="-372.2" font-family="Master Photograph" font-size="14.00">2023</text>
</g>
<g id="clust32" class="cluster">
<title>%63</title>
</g>
<g id="clust33" class="cluster">
<title>cluster_2024</title>
<polygon fill="none" stroke="black" stroke-width="0.2" stroke-dasharray="5,2" points="8,-8 8,-144 468,-144 468,-8 8,-8"/>
<text text-anchor="middle" x="238" y="-127.4" font-family="Master Photograph" font-size="14.00">2024</text>
</g>
<g id="clust34" class="cluster">
<title>%67</title>
</g>
<!-- Let it Roll 2008 -->
<g id="node1" class="node">
<title>Let it Roll 2008</title>
<ellipse fill="none" stroke="#cf261f" cx="125" cy="-3980.4" rx="101.27" ry="22.63"/>
<text text-anchor="middle" x="125" y="-3974.4" font-family="Simple Plan" font-size="20.00">Let it Roll 2008</text>
</g>
<!-- Let it Roll 2009 -->
<g id="node3" class="node">
<title>Let it Roll 2009</title>
<ellipse fill="none" stroke="#cf261f" cx="125" cy="-3735.6" rx="101.27" ry="22.63"/>
<text text-anchor="middle" x="125" y="-3729.6" font-family="Simple Plan" font-size="20.00">Let it Roll 2009</text>
</g>
<!-- Let it Roll 2008&#45;&gt;Let it Roll 2009 -->
<g id="edge18" class="edge">
<title>Let it Roll 2008&#45;&gt;Let it Roll 2009</title>
<path fill="none" stroke="#cf261f" stroke-width="0.5" d="M125,-3957.42C125,-3914.56 125,-3819.58 125,-3769.3"/>
<polygon fill="#cf261f" stroke="#cf261f" stroke-width="0.5" points="128.5,-3769.46 125,-3759.46 121.5,-3769.46 128.5,-3769.46"/>
<text text-anchor="middle" x="156.37" y="-3866.2" font-family="Master Photograph" font-size="14.00">364d +0ms</text>
</g>
<!-- annotation0 -->
<g id="node2" class="node">
<title>annotation0</title>
<text text-anchor="middle" x="371" y="-3993" font-family="Simple Plan" font-size="14.00">Fri Jul 25 2008</text>
<text text-anchor="middle" x="371" y="-3976.2" font-family="Simple Plan" font-size="14.00">0ms</text>
<text text-anchor="middle" x="371" y="-3959.4" font-family="Simple Plan" font-size="14.00">&#45;16y &#45;313d &#45;14h &#45;4m &#45;59s &#45;354ms</text>
</g>
<!-- annotation0&#45;&gt;Let it Roll 2008 -->
<g id="edge1" class="edge">
<title>annotation0&#45;&gt;Let it Roll 2008</title>
<path fill="none" stroke="black" stroke-width="0.5" stroke-dasharray="1,5" d="M371,-3980.4C322.79,-3980.4 274.59,-3980.4 226.38,-3980.4"/>
</g>
<!-- Let it Roll 2010 -->
<g id="node5" class="node">
<title>Let it Roll 2010</title>
<ellipse fill="none" stroke="#cf261f" cx="125" cy="-3490.8" rx="101.27" ry="22.63"/>
<text text-anchor="middle" x="125" y="-3484.8" font-family="Simple Plan" font-size="20.00">Let it Roll 2010</text>
</g>
<!-- Let it Roll 2009&#45;&gt;Let it Roll 2010 -->
<g id="edge19" class="edge">
<title>Let it Roll 2009&#45;&gt;Let it Roll 2010</title>
<path fill="none" stroke="#cf261f" stroke-width="0.5" d="M125,-3712.62C125,-3669.76 125,-3574.78 125,-3524.5"/>
<polygon fill="#cf261f" stroke="#cf261f" stroke-width="0.5" points="128.5,-3524.66 125,-3514.66 121.5,-3524.66 128.5,-3524.66"/>
<text text-anchor="middle" x="156.37" y="-3621.4" font-family="Master Photograph" font-size="14.00">364d +0ms</text>
</g>
<!-- annotation1 -->
<g id="node4" class="node">
<title>annotation1</title>
<text text-anchor="middle" x="371" y="-3748.2" font-family="Simple Plan" font-size="14.00">Fri Jul 24 2009</text>
<text text-anchor="middle" x="371" y="-3731.4" font-family="Simple Plan" font-size="14.00">364d</text>
<text text-anchor="middle" x="371" y="-3714.6" font-family="Simple Plan" font-size="14.00">&#45;15y &#45;314d &#45;14h &#45;4m &#45;59s &#45;354ms</text>
</g>
<!-- annotation1&#45;&gt;Let it Roll 2009 -->
<g id="edge2" class="edge">
<title>annotation1&#45;&gt;Let it Roll 2009</title>
<path fill="none" stroke="black" stroke-width="0.5" stroke-dasharray="1,5" d="M371,-3735.6C322.79,-3735.6 274.59,-3735.6 226.38,-3735.6"/>
</g>
<!-- Let it Roll 2011 -->
<g id="node7" class="node">
<title>Let it Roll 2011</title>
<ellipse fill="none" stroke="#cf261f" cx="125" cy="-3246" rx="101.27" ry="22.63"/>
<text text-anchor="middle" x="125" y="-3240" font-family="Simple Plan" font-size="20.00">Let it Roll 2011</text>
</g>
<!-- Let it Roll 2010&#45;&gt;Let it Roll 2011 -->
<g id="edge20" class="edge">
<title>Let it Roll 2010&#45;&gt;Let it Roll 2011</title>
<path fill="none" stroke="#cf261f" stroke-width="0.5" d="M125,-3467.82C125,-3424.96 125,-3329.98 125,-3279.7"/>
<polygon fill="#cf261f" stroke="#cf261f" stroke-width="0.5" points="128.5,-3279.86 125,-3269.86 121.5,-3279.86 128.5,-3279.86"/>
<text text-anchor="middle" x="156.37" y="-3376.6" font-family="Master Photograph" font-size="14.00">364d +0ms</text>
</g>
<!-- annotation2 -->
<g id="node6" class="node">
<title>annotation2</title>
<text text-anchor="middle" x="371" y="-3503.4" font-family="Simple Plan" font-size="14.00">Fri Jul 23 2010</text>
<text text-anchor="middle" x="371" y="-3486.6" font-family="Simple Plan" font-size="14.00">1y 363d</text>
<text text-anchor="middle" x="371" y="-3469.8" font-family="Simple Plan" font-size="14.00">&#45;14y &#45;315d &#45;14h &#45;4m &#45;59s &#45;354ms</text>
</g>
<!-- annotation2&#45;&gt;Let it Roll 2010 -->
<g id="edge3" class="edge">
<title>annotation2&#45;&gt;Let it Roll 2010</title>
<path fill="none" stroke="black" stroke-width="0.5" stroke-dasharray="1,5" d="M371,-3490.8C322.79,-3490.8 274.59,-3490.8 226.38,-3490.8"/>
</g>
<!-- Let it Roll 2012 -->
<g id="node9" class="node">
<title>Let it Roll 2012</title>
<ellipse fill="none" stroke="#cf261f" cx="125" cy="-3001.2" rx="101.27" ry="22.63"/>
<text text-anchor="middle" x="125" y="-2995.2" font-family="Simple Plan" font-size="20.00">Let it Roll 2012</text>
</g>
<!-- Let it Roll 2011&#45;&gt;Let it Roll 2012 -->
<g id="edge21" class="edge">
<title>Let it Roll 2011&#45;&gt;Let it Roll 2012</title>
<path fill="none" stroke="#cf261f" stroke-width="0.5" d="M125,-3223.02C125,-3180.16 125,-3085.18 125,-3034.9"/>
<polygon fill="#cf261f" stroke="#cf261f" stroke-width="0.5" points="128.5,-3035.06 125,-3025.06 121.5,-3035.06 128.5,-3035.06"/>
<text text-anchor="middle" x="156.37" y="-3131.8" font-family="Master Photograph" font-size="14.00">364d +0ms</text>
</g>
<!-- annotation3 -->
<g id="node8" class="node">
<title>annotation3</title>
<text text-anchor="middle" x="371" y="-3258.6" font-family="Simple Plan" font-size="14.00">Fri Jul 22 2011</text>
<text text-anchor="middle" x="371" y="-3241.8" font-family="Simple Plan" font-size="14.00">2y 362d</text>
<text text-anchor="middle" x="371" y="-3225" font-family="Simple Plan" font-size="14.00">&#45;13y &#45;316d &#45;14h &#45;4m &#45;59s &#45;354ms</text>
</g>
<!-- annotation3&#45;&gt;Let it Roll 2011 -->
<g id="edge4" class="edge">
<title>annotation3&#45;&gt;Let it Roll 2011</title>
<path fill="none" stroke="black" stroke-width="0.5" stroke-dasharray="1,5" d="M371,-3246C322.79,-3246 274.59,-3246 226.38,-3246"/>
</g>
<!-- Let it Roll 2013 -->
<g id="node11" class="node">
<title>Let it Roll 2013</title>
<ellipse fill="none" stroke="#cf261f" cx="125" cy="-2756.4" rx="101.27" ry="22.63"/>
<text text-anchor="middle" x="125" y="-2750.4" font-family="Simple Plan" font-size="20.00">Let it Roll 2013</text>
</g>
<!-- Let it Roll 2012&#45;&gt;Let it Roll 2013 -->
<g id="edge22" class="edge">
<title>Let it Roll 2012&#45;&gt;Let it Roll 2013</title>
<path fill="none" stroke="#cf261f" stroke-width="0.5" d="M125,-2978.22C125,-2935.36 125,-2840.38 125,-2790.1"/>
<polygon fill="#cf261f" stroke="#cf261f" stroke-width="0.5" points="128.5,-2790.26 125,-2780.26 121.5,-2790.26 128.5,-2790.26"/>
<text text-anchor="middle" x="161.62" y="-2887" font-family="Master Photograph" font-size="14.00">1y 13d +0ms</text>
</g>
<!-- annotation4 -->
<g id="node10" class="node">
<title>annotation4</title>
<text text-anchor="middle" x="371" y="-3013.8" font-family="Simple Plan" font-size="14.00">Fri Jul 20 2012</text>
<text text-anchor="middle" x="371" y="-2997" font-family="Simple Plan" font-size="14.00">3y 361d</text>
<text text-anchor="middle" x="371" y="-2980.2" font-family="Simple Plan" font-size="14.00">&#45;12y &#45;317d &#45;14h &#45;4m &#45;59s &#45;355ms</text>
</g>
<!-- annotation4&#45;&gt;Let it Roll 2012 -->
<g id="edge5" class="edge">
<title>annotation4&#45;&gt;Let it Roll 2012</title>
<path fill="none" stroke="black" stroke-width="0.5" stroke-dasharray="1,5" d="M371,-3001.2C322.79,-3001.2 274.59,-3001.2 226.38,-3001.2"/>
</g>
<!-- Let it Roll 2014 -->
<g id="node13" class="node">
<title>Let it Roll 2014</title>
<ellipse fill="none" stroke="#cf261f" cx="125" cy="-2511.6" rx="101.27" ry="22.63"/>
<text text-anchor="middle" x="125" y="-2505.6" font-family="Simple Plan" font-size="20.00">Let it Roll 2014</text>
</g>
<!-- Let it Roll 2013&#45;&gt;Let it Roll 2014 -->
<g id="edge23" class="edge">
<title>Let it Roll 2013&#45;&gt;Let it Roll 2014</title>
<path fill="none" stroke="#cf261f" stroke-width="0.5" d="M125,-2733.42C125,-2690.56 125,-2595.58 125,-2545.3"/>
<polygon fill="#cf261f" stroke="#cf261f" stroke-width="0.5" points="128.5,-2545.46 125,-2535.46 121.5,-2545.46 128.5,-2545.46"/>
<text text-anchor="middle" x="156.37" y="-2642.2" font-family="Master Photograph" font-size="14.00">364d +0ms</text>
</g>
<!-- annotation5 -->
<g id="node12" class="node">
<title>annotation5</title>
<text text-anchor="middle" x="371" y="-2769" font-family="Simple Plan" font-size="14.00">Fri Aug 02 2013</text>
<text text-anchor="middle" x="371" y="-2752.2" font-family="Simple Plan" font-size="14.00">5y 9d</text>
<text text-anchor="middle" x="371" y="-2735.4" font-family="Simple Plan" font-size="14.00">&#45;11y &#45;304d &#45;14h &#45;4m &#45;59s &#45;355ms</text>
</g>
<!-- annotation5&#45;&gt;Let it Roll 2013 -->
<g id="edge6" class="edge">
<title>annotation5&#45;&gt;Let it Roll 2013</title>
<path fill="none" stroke="black" stroke-width="0.5" stroke-dasharray="1,5" d="M371,-2756.4C322.79,-2756.4 274.59,-2756.4 226.38,-2756.4"/>
</g>
<!-- Let it Roll 2015 -->
<g id="node15" class="node">
<title>Let it Roll 2015</title>
<ellipse fill="none" stroke="#cf261f" cx="125" cy="-2266.8" rx="101.27" ry="22.63"/>
<text text-anchor="middle" x="125" y="-2260.8" font-family="Simple Plan" font-size="20.00">Let it Roll 2015</text>
</g>
<!-- Let it Roll 2014&#45;&gt;Let it Roll 2015 -->
<g id="edge24" class="edge">
<title>Let it Roll 2014&#45;&gt;Let it Roll 2015</title>
<path fill="none" stroke="#cf261f" stroke-width="0.5" d="M125,-2488.62C125,-2445.76 125,-2350.78 125,-2300.5"/>
<polygon fill="#cf261f" stroke="#cf261f" stroke-width="0.5" points="128.5,-2300.66 125,-2290.66 121.5,-2300.66 128.5,-2300.66"/>
<text text-anchor="middle" x="156.37" y="-2397.4" font-family="Master Photograph" font-size="14.00">363d +0ms</text>
</g>
<!-- annotation6 -->
<g id="node14" class="node">
<title>annotation6</title>
<text text-anchor="middle" x="371" y="-2524.2" font-family="Simple Plan" font-size="14.00">Fri Aug 01 2014</text>
<text text-anchor="middle" x="371" y="-2507.4" font-family="Simple Plan" font-size="14.00">6y 8d</text>
<text text-anchor="middle" x="371" y="-2490.6" font-family="Simple Plan" font-size="14.00">&#45;10y &#45;305d &#45;14h &#45;4m &#45;59s &#45;355ms</text>
</g>
<!-- annotation6&#45;&gt;Let it Roll 2014 -->
<g id="edge7" class="edge">
<title>annotation6&#45;&gt;Let it Roll 2014</title>
<path fill="none" stroke="black" stroke-width="0.5" stroke-dasharray="1,5" d="M371,-2511.6C322.79,-2511.6 274.59,-2511.6 226.38,-2511.6"/>
</g>
<!-- Let it Roll 2016 -->
<g id="node17" class="node">
<title>Let it Roll 2016</title>
<ellipse fill="none" stroke="#cf261f" cx="125" cy="-2022" rx="101.27" ry="22.63"/>
<text text-anchor="middle" x="125" y="-2016" font-family="Simple Plan" font-size="20.00">Let it Roll 2016</text>
</g>
<!-- Let it Roll 2015&#45;&gt;Let it Roll 2016 -->
<g id="edge25" class="edge">
<title>Let it Roll 2015&#45;&gt;Let it Roll 2016</title>
<path fill="none" stroke="#cf261f" stroke-width="0.5" d="M125,-2243.82C125,-2200.96 125,-2105.98 125,-2055.7"/>
<polygon fill="#cf261f" stroke="#cf261f" stroke-width="0.5" points="128.5,-2055.86 125,-2045.86 121.5,-2055.86 128.5,-2055.86"/>
<text text-anchor="middle" x="156.37" y="-2152.6" font-family="Master Photograph" font-size="14.00">364d +0ms</text>
</g>
<!-- annotation7 -->
<g id="node16" class="node">
<title>annotation7</title>
<text text-anchor="middle" x="368" y="-2279.4" font-family="Simple Plan" font-size="14.00">Thu Jul 30 2015</text>
<text text-anchor="middle" x="368" y="-2262.6" font-family="Simple Plan" font-size="14.00">7y 6d</text>
<text text-anchor="middle" x="368" y="-2245.8" font-family="Simple Plan" font-size="14.00">&#45;9y &#45;307d &#45;14h &#45;4m &#45;59s &#45;355ms</text>
</g>
<!-- annotation7&#45;&gt;Let it Roll 2015 -->
<g id="edge8" class="edge">
<title>annotation7&#45;&gt;Let it Roll 2015</title>
<path fill="none" stroke="black" stroke-width="0.5" stroke-dasharray="1,5" d="M368,-2266.8C320.86,-2266.8 273.71,-2266.8 226.57,-2266.8"/>
</g>
<!-- Let it Roll 2017 -->
<g id="node19" class="node">
<title>Let it Roll 2017</title>
<ellipse fill="none" stroke="#cf261f" cx="125" cy="-1777.2" rx="101.27" ry="22.63"/>
<text text-anchor="middle" x="125" y="-1771.2" font-family="Simple Plan" font-size="20.00">Let it Roll 2017</text>
</g>
<!-- Let it Roll 2016&#45;&gt;Let it Roll 2017 -->
<g id="edge26" class="edge">
<title>Let it Roll 2016&#45;&gt;Let it Roll 2017</title>
<path fill="none" stroke="#cf261f" stroke-width="0.5" d="M125,-1999.02C125,-1956.16 125,-1861.18 125,-1810.9"/>
<polygon fill="#cf261f" stroke="#cf261f" stroke-width="0.5" points="128.5,-1811.06 125,-1801.06 121.5,-1811.06 128.5,-1811.06"/>
<text text-anchor="middle" x="158.12" y="-1907.8" font-family="Master Photograph" font-size="14.00">1y 6d +0ms</text>
</g>
<!-- annotation8 -->
<g id="node18" class="node">
<title>annotation8</title>
<text text-anchor="middle" x="368" y="-2034.6" font-family="Simple Plan" font-size="14.00">Thu Jul 28 2016</text>
<text text-anchor="middle" x="368" y="-2017.8" font-family="Simple Plan" font-size="14.00">8y 5d</text>
<text text-anchor="middle" x="368" y="-2001" font-family="Simple Plan" font-size="14.00">&#45;8y &#45;308d &#45;14h &#45;4m &#45;59s &#45;355ms</text>
</g>
<!-- annotation8&#45;&gt;Let it Roll 2016 -->
<g id="edge9" class="edge">
<title>annotation8&#45;&gt;Let it Roll 2016</title>
<path fill="none" stroke="black" stroke-width="0.5" stroke-dasharray="1,5" d="M368,-2022C320.86,-2022 273.71,-2022 226.57,-2022"/>
</g>
<!-- Let it Roll 2018 -->
<g id="node21" class="node">
<title>Let it Roll 2018</title>
<ellipse fill="none" stroke="#cf261f" cx="125" cy="-1532.4" rx="101.27" ry="22.63"/>
<text text-anchor="middle" x="125" y="-1526.4" font-family="Simple Plan" font-size="20.00">Let it Roll 2018</text>
</g>
<!-- Let it Roll 2017&#45;&gt;Let it Roll 2018 -->
<g id="edge27" class="edge">
<title>Let it Roll 2017&#45;&gt;Let it Roll 2018</title>
<path fill="none" stroke="#cf261f" stroke-width="0.5" d="M125,-1754.22C125,-1711.36 125,-1616.38 125,-1566.1"/>
<polygon fill="#cf261f" stroke="#cf261f" stroke-width="0.5" points="128.5,-1566.26 125,-1556.26 121.5,-1566.26 128.5,-1566.26"/>
<text text-anchor="middle" x="156.37" y="-1663" font-family="Master Photograph" font-size="14.00">363d +0ms</text>
</g>
<!-- annotation9 -->
<g id="node20" class="node">
<title>annotation9</title>
<text text-anchor="middle" x="368" y="-1789.8" font-family="Simple Plan" font-size="14.00">Thu Aug 03 2017</text>
<text text-anchor="middle" x="368" y="-1773" font-family="Simple Plan" font-size="14.00">9y 11d</text>
<text text-anchor="middle" x="368" y="-1756.2" font-family="Simple Plan" font-size="14.00">&#45;7y &#45;302d &#45;14h &#45;4m &#45;59s &#45;355ms</text>
</g>
<!-- annotation9&#45;&gt;Let it Roll 2017 -->
<g id="edge10" class="edge">
<title>annotation9&#45;&gt;Let it Roll 2017</title>
<path fill="none" stroke="black" stroke-width="0.5" stroke-dasharray="1,5" d="M368,-1777.2C320.86,-1777.2 273.71,-1777.2 226.57,-1777.2"/>
</g>
<!-- Let it Roll 2019 -->
<g id="node23" class="node">
<title>Let it Roll 2019</title>
<ellipse fill="none" stroke="#cf261f" cx="125" cy="-1287.6" rx="101.27" ry="22.63"/>
<text text-anchor="middle" x="125" y="-1281.6" font-family="Simple Plan" font-size="20.00">Let it Roll 2019</text>
</g>
<!-- Let it Roll 2018&#45;&gt;Let it Roll 2019 -->
<g id="edge28" class="edge">
<title>Let it Roll 2018&#45;&gt;Let it Roll 2019</title>
<path fill="none" stroke="#cf261f" stroke-width="0.5" d="M125,-1509.42C125,-1466.56 125,-1371.58 125,-1321.3"/>
<polygon fill="#cf261f" stroke="#cf261f" stroke-width="0.5" points="128.5,-1321.46 125,-1311.46 121.5,-1321.46 128.5,-1321.46"/>
<text text-anchor="middle" x="156.37" y="-1418.2" font-family="Master Photograph" font-size="14.00">364d +0ms</text>
</g>
<!-- annotation10 -->
<g id="node22" class="node">
<title>annotation10</title>
<text text-anchor="middle" x="368" y="-1545" font-family="Simple Plan" font-size="14.00">Wed Aug 01 2018</text>
<text text-anchor="middle" x="368" y="-1528.2" font-family="Simple Plan" font-size="14.00">10y 9d</text>
<text text-anchor="middle" x="368" y="-1511.4" font-family="Simple Plan" font-size="14.00">&#45;6y &#45;304d &#45;14h &#45;4m &#45;59s &#45;355ms</text>
</g>
<!-- annotation10&#45;&gt;Let it Roll 2018 -->
<g id="edge11" class="edge">
<title>annotation10&#45;&gt;Let it Roll 2018</title>
<path fill="none" stroke="black" stroke-width="0.5" stroke-dasharray="1,5" d="M368,-1532.4C320.86,-1532.4 273.71,-1532.4 226.57,-1532.4"/>
</g>
<!-- Let it Roll 2020 -->
<g id="node25" class="node">
<title>Let it Roll 2020</title>
<ellipse fill="none" stroke="#cf261f" cx="125" cy="-1042.8" rx="101.27" ry="22.63"/>
<text text-anchor="middle" x="125" y="-1036.8" font-family="Simple Plan" font-size="20.00">Let it Roll 2020</text>
</g>
<!-- Let it Roll 2019&#45;&gt;Let it Roll 2020 -->
<g id="edge29" class="edge">
<title>Let it Roll 2019&#45;&gt;Let it Roll 2020</title>
<path fill="none" stroke="#cf261f" stroke-width="0.5" d="M125,-1264.62C125,-1221.76 125,-1126.78 125,-1076.5"/>
<polygon fill="#cf261f" stroke="#cf261f" stroke-width="0.5" points="128.5,-1076.66 125,-1066.66 121.5,-1076.66 128.5,-1076.66"/>
<text text-anchor="middle" x="149.37" y="-1173.4" font-family="Master Photograph" font-size="14.00">1y +0ms</text>
</g>
<!-- annotation11 -->
<g id="node24" class="node">
<title>annotation11</title>
<text text-anchor="middle" x="368" y="-1300.2" font-family="Simple Plan" font-size="14.00">Wed Jul 31 2019</text>
<text text-anchor="middle" x="368" y="-1283.4" font-family="Simple Plan" font-size="14.00">11y 8d</text>
<text text-anchor="middle" x="368" y="-1266.6" font-family="Simple Plan" font-size="14.00">&#45;5y &#45;305d &#45;14h &#45;4m &#45;59s &#45;355ms</text>
</g>
<!-- annotation11&#45;&gt;Let it Roll 2019 -->
<g id="edge12" class="edge">
<title>annotation11&#45;&gt;Let it Roll 2019</title>
<path fill="none" stroke="black" stroke-width="0.5" stroke-dasharray="1,5" d="M368,-1287.6C320.86,-1287.6 273.71,-1287.6 226.57,-1287.6"/>
</g>
<!-- Let it Roll 2021 -->
<g id="node27" class="node">
<title>Let it Roll 2021</title>
<ellipse fill="none" stroke="#cf261f" cx="125" cy="-798" rx="101.27" ry="22.63"/>
<text text-anchor="middle" x="125" y="-792" font-family="Simple Plan" font-size="20.00">Let it Roll 2021</text>
</g>
<!-- Let it Roll 2020&#45;&gt;Let it Roll 2021 -->
<g id="edge30" class="edge">
<title>Let it Roll 2020&#45;&gt;Let it Roll 2021</title>
<path fill="none" stroke="#cf261f" stroke-width="0.5" d="M125,-1019.82C125,-976.96 125,-881.98 125,-831.7"/>
<polygon fill="#cf261f" stroke="#cf261f" stroke-width="0.5" points="128.5,-831.86 125,-821.86 121.5,-831.86 128.5,-831.86"/>
<text text-anchor="middle" x="158.12" y="-928.6" font-family="Master Photograph" font-size="14.00">1y 7d +0ms</text>
</g>
<!-- annotation12 -->
<g id="node26" class="node">
<title>annotation12</title>
<text text-anchor="middle" x="368" y="-1055.4" font-family="Simple Plan" font-size="14.00">Thu Jul 30 2020</text>
<text text-anchor="middle" x="368" y="-1038.6" font-family="Simple Plan" font-size="14.00">12y 8d</text>
<text text-anchor="middle" x="368" y="-1021.8" font-family="Simple Plan" font-size="14.00">&#45;4y &#45;305d &#45;14h &#45;4m &#45;59s &#45;355ms</text>
</g>
<!-- annotation12&#45;&gt;Let it Roll 2020 -->
<g id="edge13" class="edge">
<title>annotation12&#45;&gt;Let it Roll 2020</title>
<path fill="none" stroke="black" stroke-width="0.5" stroke-dasharray="1,5" d="M368,-1042.8C320.86,-1042.8 273.71,-1042.8 226.57,-1042.8"/>
</g>
<!-- Let it Roll 2022 -->
<g id="node29" class="node">
<title>Let it Roll 2022</title>
<ellipse fill="none" stroke="#cf261f" cx="125" cy="-553.2" rx="101.27" ry="22.63"/>
<text text-anchor="middle" x="125" y="-547.2" font-family="Simple Plan" font-size="20.00">Let it Roll 2022</text>
</g>
<!-- Let it Roll 2021&#45;&gt;Let it Roll 2022 -->
<g id="edge31" class="edge">
<title>Let it Roll 2021&#45;&gt;Let it Roll 2022</title>
<path fill="none" stroke="#cf261f" stroke-width="0.5" d="M125,-775.02C125,-732.16 125,-637.18 125,-586.9"/>
<polygon fill="#cf261f" stroke="#cf261f" stroke-width="0.5" points="128.5,-587.06 125,-577.06 121.5,-587.06 128.5,-587.06"/>
<text text-anchor="middle" x="156.37" y="-683.8" font-family="Master Photograph" font-size="14.00">363d +0ms</text>
</g>
<!-- annotation13 -->
<g id="node28" class="node">
<title>annotation13</title>
<text text-anchor="middle" x="368" y="-810.6" font-family="Simple Plan" font-size="14.00">Fri Aug 06 2021</text>
<text text-anchor="middle" x="368" y="-793.8" font-family="Simple Plan" font-size="14.00">13y 15d</text>
<text text-anchor="middle" x="368" y="-777" font-family="Simple Plan" font-size="14.00">&#45;3y &#45;298d &#45;14h &#45;4m &#45;59s &#45;355ms</text>
</g>
<!-- annotation13&#45;&gt;Let it Roll 2021 -->
<g id="edge14" class="edge">
<title>annotation13&#45;&gt;Let it Roll 2021</title>
<path fill="none" stroke="black" stroke-width="0.5" stroke-dasharray="1,5" d="M368,-798C320.86,-798 273.71,-798 226.57,-798"/>
</g>
<!-- Let it Roll 2023 -->
<g id="node31" class="node">
<title>Let it Roll 2023</title>
<ellipse fill="none" stroke="#cf261f" cx="125" cy="-308.4" rx="101.27" ry="22.63"/>
<text text-anchor="middle" x="125" y="-302.4" font-family="Simple Plan" font-size="20.00">Let it Roll 2023</text>
</g>
<!-- Let it Roll 2022&#45;&gt;Let it Roll 2023 -->
<g id="edge32" class="edge">
<title>Let it Roll 2022&#45;&gt;Let it Roll 2023</title>
<path fill="none" stroke="#cf261f" stroke-width="0.5" d="M125,-530.22C125,-487.36 125,-392.38 125,-342.1"/>
<polygon fill="#cf261f" stroke="#cf261f" stroke-width="0.5" points="128.5,-342.26 125,-332.26 121.5,-342.26 128.5,-342.26"/>
<text text-anchor="middle" x="156.37" y="-439" font-family="Master Photograph" font-size="14.00">364d +0ms</text>
</g>
<!-- annotation14 -->
<g id="node30" class="node">
<title>annotation14</title>
<text text-anchor="middle" x="368" y="-565.8" font-family="Simple Plan" font-size="14.00">Thu Aug 04 2022</text>
<text text-anchor="middle" x="368" y="-549" font-family="Simple Plan" font-size="14.00">14y 13d</text>
<text text-anchor="middle" x="368" y="-532.2" font-family="Simple Plan" font-size="14.00">&#45;2y &#45;300d &#45;14h &#45;4m &#45;59s &#45;355ms</text>
</g>
<!-- annotation14&#45;&gt;Let it Roll 2022 -->
<g id="edge15" class="edge">
<title>annotation14&#45;&gt;Let it Roll 2022</title>
<path fill="none" stroke="black" stroke-width="0.5" stroke-dasharray="1,5" d="M368,-553.2C320.86,-553.2 273.71,-553.2 226.57,-553.2"/>
</g>
<!-- Let it Roll 2024 -->
<g id="node33" class="node">
<title>Let it Roll 2024</title>
<ellipse fill="none" stroke="#cf261f" cx="125" cy="-63.6" rx="101.27" ry="22.63"/>
<text text-anchor="middle" x="125" y="-57.6" font-family="Simple Plan" font-size="20.00">Let it Roll 2024</text>
</g>
<!-- Let it Roll 2023&#45;&gt;Let it Roll 2024 -->
<g id="edge33" class="edge">
<title>Let it Roll 2023&#45;&gt;Let it Roll 2024</title>
<path fill="none" stroke="#cf261f" stroke-width="0.5" d="M125,-285.42C125,-242.56 125,-147.58 125,-97.3"/>
<polygon fill="#cf261f" stroke="#cf261f" stroke-width="0.5" points="128.5,-97.46 125,-87.46 121.5,-97.46 128.5,-97.46"/>
<text text-anchor="middle" x="156.37" y="-194.2" font-family="Master Photograph" font-size="14.00">364d +0ms</text>
</g>
<!-- annotation15 -->
<g id="node32" class="node">
<title>annotation15</title>
<text text-anchor="middle" x="368" y="-321" font-family="Simple Plan" font-size="14.00">Thu Aug 03 2023</text>
<text text-anchor="middle" x="368" y="-304.2" font-family="Simple Plan" font-size="14.00">15y 12d</text>
<text text-anchor="middle" x="368" y="-287.4" font-family="Simple Plan" font-size="14.00">&#45;1y &#45;301d &#45;14h &#45;4m &#45;59s &#45;355ms</text>
</g>
<!-- annotation15&#45;&gt;Let it Roll 2023 -->
<g id="edge16" class="edge">
<title>annotation15&#45;&gt;Let it Roll 2023</title>
<path fill="none" stroke="black" stroke-width="0.5" stroke-dasharray="1,5" d="M368,-308.4C320.86,-308.4 273.71,-308.4 226.57,-308.4"/>
</g>
<!-- annotation16 -->
<g id="node34" class="node">
<title>annotation16</title>
<text text-anchor="middle" x="357" y="-76.2" font-family="Simple Plan" font-size="14.00">Thu Aug 01 2024</text>
<text text-anchor="middle" x="357" y="-59.4" font-family="Simple Plan" font-size="14.00">16y 11d</text>
<text text-anchor="middle" x="357" y="-42.6" font-family="Simple Plan" font-size="14.00">&#45;302d &#45;14h &#45;4m &#45;59s &#45;355ms</text>
</g>
<!-- annotation16&#45;&gt;Let it Roll 2024 -->
<g id="edge17" class="edge">
<title>annotation16&#45;&gt;Let it Roll 2024</title>
<path fill="none" stroke="black" stroke-width="0.5" stroke-dasharray="1,5" d="M357,-63.6C313.5,-63.6 270,-63.6 226.5,-63.6"/>
</g>
</g>
</svg>
