<?xml version="1.0" encoding="UTF-8" standalone="no"?>
<svg
   id="hr3"
   viewBox="0 0 72 72"
   preserveAspectRatio="xMinYMid"
   version="1.1"
   sodipodi:docname="logo-hr3.svg"
   width="72"
   height="72"
   inkscape:version="1.4.2 (ebf0e940d0, 2025-05-08)"
   xmlns:inkscape="http://www.inkscape.org/namespaces/inkscape"
   xmlns:sodipodi="http://sodipodi.sourceforge.net/DTD/sodipodi-0.dtd"
   xmlns="http://www.w3.org/2000/svg"
   xmlns:svg="http://www.w3.org/2000/svg">
  <defs
     id="defs1" />
  <sodipodi:namedview
     id="namedview1"
     pagecolor="#505050"
     bordercolor="#ffffff"
     borderopacity="1"
     inkscape:showpageshadow="0"
     inkscape:pageopacity="0"
     inkscape:pagecheckerboard="1"
     inkscape:deskcolor="#505050"
     inkscape:zoom="2.9537779"
     inkscape:cx="99.702825"
     inkscape:cy="127.29461"
     inkscape:window-width="3840"
     inkscape:window-height="2091"
     inkscape:window-x="0"
     inkscape:window-y="0"
     inkscape:window-maximized="1"
     inkscape:current-layer="hr3" />
  <path
     d="M 26.345404,53.455687 H 19.065357 V 39.795034 c 0,-1.739875 -0.008,-2.526088 -0.507131,-3.022056 -0.428988,-0.427394 -1.25826,-0.644281 -2.671211,-0.644281 -1.062105,0 -2.306013,0.13396 -3.852923,0.387525 v 16.94106 H 4.7396929 v -33.73859 l 7.2943991,-0.460884 v 11.054826 c 1.581995,-0.264729 3.529188,-0.511916 5.186136,-0.511916 3.353765,0 5.575256,0.979179 7.024886,2.428809 1.932841,1.932841 2.101884,4.219716 2.10029,6.90209 z m 10.54929,0.0063 h -7.294399 v -13.91095 c 0,-2.471867 0.09728,-4.690168 2.060421,-6.653309 2.167268,-2.167269 5.605555,-3.002919 13.164683,-3.081062 v 6.189236 c -5.580039,0.151501 -6.852652,0.537432 -7.423574,1.108353 -0.401877,0.401878 -0.507131,0.950473 -0.507131,2.109858 z M 57.393646,38.042401 c 0.01595,0.0032 0.0303,0.0063 0.04625,0.01116 v -0.02552 c -0.01436,0.0048 -0.0303,0.0096 -0.04625,0.01436 m -2.550009,16.299968 c -2.661643,0 -5.093641,-0.524673 -7.229015,-1.561262 l -1.296534,-0.629928 1.5804,-5.814469 1.825992,0.74475 c 1.770176,0.722423 3.535567,1.087621 5.246737,1.087621 1.451225,0 2.639316,-0.368388 3.631252,-1.129085 0.862762,-0.660228 1.263045,-1.440062 1.263045,-2.454325 0,-1.014262 -0.411447,-1.680869 -1.334809,-2.320364 -1.086027,-0.751129 -2.607421,-1.130681 -4.525908,-1.130681 H 51.33837 v -6.002649 h 2.001415 c 1.859481,0 3.380875,-0.366793 4.522718,-1.087621 1.186497,-0.751129 1.337998,-1.567643 1.337998,-2.195975 0,-0.671391 -0.236023,-1.121111 -0.790997,-1.500662 -0.730397,-0.499158 -1.829181,-0.752724 -3.266054,-0.752724 -1.339592,0 -2.892882,0.333304 -4.618404,0.990342 l -1.967925,0.749533 -1.092405,-6.101524 1.31886,-0.524673 c 2.144943,-0.853193 4.342512,-1.285371 6.532108,-1.285371 3.06352,0 5.654993,0.735181 7.701061,2.186406 2.200759,1.559669 3.364928,3.704611 3.364928,6.201994 0,1.789312 -0.690528,3.45264 -2.055636,4.943734 a 9.2565834,9.2565834 0 0 1 -1.084432,1.015857 c 0.61079,0.408257 1.165765,0.877114 1.660138,1.406572 1.424114,1.5198 2.144942,3.270838 2.144942,5.203678 0,2.881719 -1.277397,5.315312 -3.798701,7.233799 -2.377777,1.80845 -5.205273,2.725433 -8.404347,2.725433"
     style="fill:#c20016;stroke-width:0"
     id="path1" />
</svg>
