<?xml version="1.0" encoding="UTF-8" standalone="no"?>
<svg
   id="logo-raf.svg"
   viewBox="0 0 72 72"
   width="72"
   height="72"
   version="1.1"
   sodipodi:docname="logo-raf.svg"
   inkscape:version="1.4.2 (ebf0e940d0, 2025-05-08)"
   xmlns:inkscape="http://www.inkscape.org/namespaces/inkscape"
   xmlns:sodipodi="http://sodipodi.sourceforge.net/DTD/sodipodi-0.dtd"
   xmlns="http://www.w3.org/2000/svg"
   xmlns:svg="http://www.w3.org/2000/svg">
  <defs
     id="defs1" />
  <sodipodi:namedview
     id="namedview1"
     pagecolor="#505050"
     bordercolor="#ffffff"
     borderopacity="1"
     inkscape:showpageshadow="0"
     inkscape:pageopacity="0"
     inkscape:pagecheckerboard="1"
     inkscape:deskcolor="#505050"
     inkscape:zoom="6.3819445"
     inkscape:cx="-14.650707"
     inkscape:cy="42.620239"
     inkscape:window-width="3840"
     inkscape:window-height="2091"
     inkscape:window-x="0"
     inkscape:window-y="0"
     inkscape:window-maximized="1"
     inkscape:current-layer="logo-raf.svg" />
  <g
     id="g71"
     transform="matrix(0.13494083,0,0,0.13494083,4.0300906,4.5710897)">
    <g
       stroke-linecap="round"
       id="g70">
      <path
         d="M 296.43,176.087 473.904,175.848 332.644,284.763 393.321,466.128 244.147,353.374 96.8913,466.128 152.772,287.162 0,176.087 H 186.828 L 240.31,0 Z"
         id="path1" />
      <path
         d="M 296.43,176.087 473.904,175.848 332.644,284.763 393.321,466.128 244.147,353.374 96.8913,466.128 152.772,287.162 0,176.087 H 186.828 L 240.31,0 296.43,176.087"
         fill="none"
         stroke="#000000"
         id="path2" />
      <path
         d="m 240.549,7.917 54.202,170.33 H 466.949 L 330.006,284.043 388.764,459.65067 244.147,350.256 101.208,459.65067 155.41,286.202 7.1949,178.247 H 188.506 Z"
         fill="#ff0000"
         id="path3" />
      <path
         d="m 240.549,7.917 54.202,170.33 H 466.949 L 330.006,284.043 388.764,459.65067 244.147,350.256 101.208,459.65067 155.41,286.202 7.1949,178.247 H 188.506 L 240.549,7.917"
         fill="none"
         stroke="#000000"
         id="path4" />
      <path
         d="m 360.944,202.477 h 0.24 v -0.24 h 0.24 v -0.24 h 0.24 l 0.239,-0.24 0.24,-0.24 0.24,-0.24 h 0.24 v -0.24 h 0.24 v -0.24 h 0.24 l 0.239,-0.24 0.24,-0.24 h 0.24 v -0.239 h 0.24 v -0.24 h 0.24 l 0.24,-0.24 0.239,-0.24 1.2,-0.72 1.678,0.72 h 0.24 v 0.24 h 0.24 0.24 l 0.24,0.24 h 0.239 l 0.24,0.24 h 0.24 l 0.24,0.239 h 0.24 l 0.24,0.24 h 0.239 l 0.24,0.24 0.24,0.24 h 0.24 l 0.24,0.24 h 0.24 l 0.239,0.24 0.24,0.24 h 0.24 l 0.24,0.24 v 0.24 h 0.24 0.24 v 0.24 h 0.239 v 0.24 h 0.24 v 0.239 h 0.24 l 0.24,0.24 0.24,0.24 0.24,0.24 0.239,0.24 0.24,0.24 0.24,0.24 0.24,0.24 v 0.24 h 0.24 v 0.24 h 0.24 v 0.239 h 0.239 v 0.24 l 0.24,0.24 0.24,0.24 v 0.24 h 0.24 v 0.24 h 0.24 v 0.24 0.24 h 0.24 v 0.24 h 0.239 v 0.24 0.239 h 0.24 v 0.24 h 0.72 0.959 l 0.719,-0.24 h 0.96 0.719 0.96 0.719 0.959 0.96 0.719 0.96 0.719 0.959 0.72 0.959 0.72 0.959 0.719 0.96 0.719 0.96 0.719 0.959 l 0.72,-0.239 h 0.959 0.72 0.959 0.72 0.959 0.719 0.96 0.959 V 194.08 h 0.24 0.479 0.48 0.48 0.479 0.48 0.48 0.479 0.48 l 0.48,0.24 h 0.479 0.48 0.48 0.479 0.48 0.48 0.479 0.48 0.24 0.48 0.479 0.48 0.479 0.48 0.48 l 0.479,0.24 h 0.48 0.48 0.479 0.48 0.48 0.479 v 14.394 0.24 h 0.24 v 0.24 0.24 h 0.24 v 0.24 h 0.24 v 0.239 0.24 h 0.24 v 0.24 h 0.24 v 0.24 0.24 h 0.239 v 0.24 h 0.24 v 0.24 0.24 h 0.24 v 0.24 h 0.24 v 0.24 0.239 h 0.24 v 0.24 h 0.24 v 0.24 0.24 h 0.239 v 0.24 h 0.24 v 0.48 0.24 0.24 l 0.24,0.479 v 0.24 0.24 0.48 0.24 l 0.24,0.24 v 0.48 0.24 0.239 l 0.24,0.48 v 0.24 0.24 0.48 l 0.24,0.24 v 0.24 0.479 0.24 l 0.239,0.24 v 0.24 0.48 0.24 0.24 l 0.24,0.48 v 0.239 0.24 0.48 l 0.24,0.24 v 0.24 0.48 h 0.48 0.719 0.48 0.479 0.72 0.48 0.479 0.72 l 0.479,0.24 h 0.48 0.72 0.479 0.72 0.479 0.48 0.72 0.479 0.48 l 0.719,0.24 h 0.48 0.48 0.719 0.48 0.48 0.719 0.48 0.479 0.72 l 0.479,0.24 h 0.48 0.72 0.479 l 0.96,0.479 h 0.239 v 0.24 h 0.24 l 0.24,0.24 h 0.24 v 0.24 h 0.24 v 0.24 h 0.24 v 0.24 h 0.239 v 0.24 0.24 h 0.24 v 0.24 h 0.24 v 0.239 0.24 h 0.24 v 0.24 0.24 0.24 l 0.24,0.24 v 0.24 0.24 0.24 0.24 l 0.24,0.239 v 0.24 0.24 0.24 0.24 0.24 0.24 0.24 0.24 0.24 0.239 0.24 0.24 l 0.239,0.48 -1.918,3.359 -3.598,3.118 -30.698,1.2 -3.118,2.879 -93.773,-0.96 13.91,108.915 -9.353,3.599 -21.825,0.48 -9.114,-65.254 h -0.479 -0.72 -0.479 -0.72 -0.719 -0.48 -0.719 l -0.48,-0.239 h -0.72 -0.719 -0.48 -0.719 -0.48 -0.719 -0.72 -0.48 -0.719 -0.48 l -0.719,-0.24 h -0.72 -0.479 -0.72 -0.48 -0.719 -0.48 -0.719 -0.72 -0.479 l -0.72,-0.24 h -0.479 -0.72 -0.719 l -0.24,0.24 -12.711,6.957 -6.715,0.24 -21.345,-5.278 -4.557,4.798 v 8.876 l -6.715,10.796 -0.48,5.997 -4.797,5.518 -17.028,-4.318 -0.719,-0.48 -0.48,-0.48 -0.479,-0.24 -0.72,-0.48 -0.48,-0.479 -0.479,-0.48 -0.72,-0.48 -0.479,-0.24 -0.72,-0.48 -0.479,-0.479 -0.48,-0.48 -0.72,-0.48 -0.479,-0.48 -0.48,-0.24 -0.719,-0.48 -0.48,-0.479 -0.48,-0.48 -0.719,-0.48 -0.48,-0.48 -0.719,-0.24 -0.48,-0.479 -0.48,-0.48 -0.719,-0.48 -0.48,-0.48 -0.48,-0.48 -0.719,-0.24 -0.48,-0.479 -0.719,-0.48 -0.48,-0.48 -0.479,-0.48 -0.72,-0.24 -0.48,-0.479 14.15,-28.309 10.073,-9.836 -1.679,-7.677 -7.434,-5.038 -28.3,-9.356 h -2.159 -2.158 -1.919 -2.158 -1.919 -2.158 -2.159 -1.919 -2.158 l -2.158,-0.24 h -1.919 -2.159 -2.158 -1.919 -2.158 -1.919 -2.158 -2.159 l -1.918,-0.239 h -2.159 -2.158 -1.919 -2.158 -1.919 -2.159 -2.158 -1.919 -2.158 -2.159 -1.9182 -2.1585 -2.1585 l -22.0643,0.239 -6.7153,3.119 -2.6381,1.919 -5.0364,4.319 -4.7966,11.275 -4.5568,20.152 -2.1585,0.24 -5.2762,0.239 -3.8373,-0.719 -5.5161,-1.919 -0.4796,-1.2 0.2398,-1.439 1.439,-9.836 2.8779,-15.354 7.1949,-36.465 2.878,-3.838 2.3983,-2.16 1.1991,-0.719 2.878,0.24 0.2398,0.24 h 0.2399 0.2398 0.2398 0.2398 0.2399 l 0.2398,0.239 h 0.2398 0.2399 0.2398 l 0.2398,0.24 h 0.2399 0.2398 0.2398 0.2398 l 0.2399,0.24 h 0.2398 0.2398 0.2399 l 0.2398,0.24 h 0.2398 0.2399 0.2398 v 0.24 h 0.2398 0.2398 0.2399 l 0.2398,0.24 h 0.2398 0.2399 l 0.2398,0.24 h 0.2398 0.4797 l 0.2398,0.24 h 0.2398 l 0.4797,0.24 h 0.2398 l 0.4797,0.24 h 0.2398 0.2398 l 0.4797,0.239 h 0.2398 l 0.2399,0.24 h 0.4796 l 0.2399,0.24 h 0.4796 l 0.2398,0.24 h 0.2399 l 0.4796,0.24 h 0.2399 0.4796 l 0.2399,0.24 h 0.2398 l 0.4796,0.24 h 0.2399 l 0.4796,0.24 h 0.2399 l 0.2398,0.24 h 0.4797 0.2398 l 0.4796,0.24 h 0.2399 l 0.4796,0.239 h 0.2399 3.3576 l 3.5974,-0.239 h 3.5975 3.3576 3.5975 l 3.3576,-0.24 h 3.5974 3.3576 3.5971 l 3.598,-0.24 h 3.357 3.598 3.358 l 3.597,-0.24 h 3.358 3.597 3.597 l 3.358,-0.24 h 3.598 3.357 3.598 l 3.357,-0.24 h 3.598 3.597 3.358 l 3.597,-0.24 h 3.358 3.597 l 3.358,-0.24 h 3.597 3.358 3.597 l 1.439,-0.48 1.2,-0.479 1.439,-0.24 1.439,-0.48 1.199,-0.48 1.439,-0.24 1.439,-0.48 1.199,-0.479 1.439,-0.48 1.439,-0.24 1.199,-0.48 1.439,-0.48 1.199,-0.24 1.439,-0.479 1.439,-0.48 1.199,-0.24 1.439,-0.48 1.439,-0.48 1.199,-0.479 1.439,-0.24 1.439,-0.48 1.199,-0.48 1.439,-0.24 1.439,-0.48 1.199,-0.479 1.439,-0.24 1.439,-0.48 1.2,-0.48 1.439,-0.48 1.199,-0.24 1.439,-0.479 1.439,-0.48 h 4.077 4.077 l 4.077,0.24 h 4.077 4.317 4.077 4.077 4.077 4.077 4.078 4.077 4.317 4.077 4.077 4.077 4.077 4.077 4.317 4.077 4.077 4.077 l 4.078,0.24 h 4.077 4.317 4.077 4.077 4.077 4.077 4.077 4.077 4.317 4.077 v -0.24 l 0.24,-0.24 v -0.24 -0.24 l 0.24,-0.24 v -0.24 -0.24 h 0.24 v -0.24 l 0.24,-0.24 v -0.239 l 0.239,-0.24 0.24,-0.24 0.24,-0.24 v -0.24 h 0.24 v -0.24 l 0.24,-0.24 0.24,-0.24 0.239,-0.24 0.24,-0.24 v -0.239 h 0.24 z m -103.367,80.127 h 0.24 0.24 0.24 0.24 0.24 v 0.239 h 0.239 0.24 v -0.239 -0.24 -0.24 -0.24 -0.24 -0.24 -0.24 -0.24 -0.24 l -0.719,-7.916 h -0.24 l -0.24,-0.24 h -0.24 -0.24 -0.239 -0.24 -0.24 -0.24 -0.24 -0.24 -0.239 -0.24 -0.24 -0.24 -0.24 -0.24 -0.239 -0.24 -0.24 -0.24 -0.24 -0.24 -0.239 -0.24 -0.24 -0.24 -0.24 -0.24 -0.239 -0.24 -0.24 v 0.24 0.24 0.239 0.24 0.24 0.24 0.24 0.24 0.24 0.24 0.24 0.24 l 0.24,0.239 v 0.24 0.24 0.24 0.24 0.24 0.24 0.24 0.24 h 0.24 v 0.24 0.239 0.24 0.24 0.24 0.24 l 0.239,0.24 v 0.24 0.24 0.24 0.24 l 0.24,0.239 v 0.24 0.24 0.24 l 0.24,0.24 v 0.24 0.24 h 0.24 v 0.24 h 0.24 0.24 0.239 0.24 0.24 0.24 v 0.24 h 0.24 0.24 0.239 0.24 0.24 0.24 0.24 v 0.24 h 0.24 0.239 0.24 0.24 0.24 0.24 0.24 z"
         fill-rule="evenodd"
         id="path5" />
      <path
         d="m 360.944,202.477 0.959,-0.72 0.96,-0.96 0.959,-0.719 0.959,-0.72 1.2,-0.72 1.678,0.72 1.199,0.48 1.2,0.719 1.199,0.72 1.199,0.72 0.24,0.24 0.479,0.24 0.24,0.24 0.24,0.239 0.959,0.96 0.72,0.96 0.959,0.959 0.72,0.96 0.24,0.24 v 0.24 l 0.239,0.24 0.24,0.479 3.358,-0.24 h 3.357 3.358 3.358 3.357 l 3.358,-0.239 h 3.358 3.597 V 194.08 h 1.679 1.918 l 1.919,0.24 h 1.919 1.679 1.918 l 1.919,0.24 h 1.918 v 14.394 l 0.72,1.199 0.719,1.2 0.72,1.199 0.959,0.96 0.24,1.439 v 1.2 l 0.24,1.199 0.24,1.44 0.24,1.199 0.239,1.2 0.24,1.199 0.24,1.44 h 2.158 2.399 l 2.158,0.24 h 2.399 l 2.158,0.24 h 2.159 2.398 l 2.158,0.24 0.96,0.479 0.479,0.24 0.48,0.24 0.48,0.48 0.239,0.48 0.24,0.48 0.24,0.239 0.24,0.24 v 0.48 l 0.24,1.2 0.24,0.959 v 1.2 1.199 l 0.239,0.48 -1.918,3.359 -3.598,3.118 -30.698,1.2 -3.118,2.879 -93.773,-0.96 13.91,108.915 -9.353,3.599 -21.825,0.48 -9.114,-65.254 h -2.398 l -2.398,-0.239 h -2.638 -2.399 l -2.638,-0.24 h -2.398 -2.398 l -2.638,-0.24 -0.24,0.24 -12.711,6.957 -6.715,0.24 -21.345,-5.278 -4.557,4.798 v 8.876 l -6.715,10.796 -0.48,5.997 -4.797,5.518 -17.028,-4.318 -2.398,-1.68 -2.158,-1.679 -2.399,-1.919 -2.158,-1.679 -2.398,-1.68 -2.159,-1.919 -2.398,-1.679 -2.159,-1.679 14.15,-28.309 10.073,-9.836 -1.679,-7.677 -7.434,-5.038 -28.3,-9.356 h -4.317 -4.077 -4.077 -4.078 l -4.316,-0.24 h -4.078 -4.077 -4.077 -4.317 l -4.077,-0.239 h -4.077 -4.077 -4.317 -4.077 -4.0772 -4.317 l -22.0643,0.239 -6.7153,3.119 -2.6381,1.919 -5.0364,4.319 -4.7966,11.275 -4.5568,20.152 -2.1585,0.24 -5.2762,0.239 -3.8373,-0.719 -5.5161,-1.919 -0.4796,-1.2 0.2398,-1.439 1.439,-9.836 2.8779,-15.354 7.1949,-36.465 2.878,-3.838 2.3983,-2.16 1.1991,-0.719 2.878,0.24 0.9593,0.24 0.9593,0.239 0.9594,0.24 0.9593,0.24 0.9593,0.24 0.7195,0.24 0.9593,0.24 0.9593,0.24 1.439,0.48 1.1991,0.24 1.439,0.479 1.1992,0.48 1.439,0.48 1.4389,0.48 1.1992,0.24 1.439,0.479 6.955,-0.239 h 6.9551 l 6.9551,-0.24 h 6.955 l 7.1951,-0.24 h 6.955 l 6.955,-0.24 h 6.955 l 6.955,-0.24 h 6.955 l 6.955,-0.24 h 7.195 l 6.955,-0.24 h 6.955 l 6.955,-0.24 h 6.955 l 2.639,-0.959 2.878,-0.72 2.638,-0.72 2.638,-0.959 2.878,-0.72 2.638,-0.96 2.638,-0.719 2.638,-0.72 2.878,-0.96 2.638,-0.719 2.638,-0.96 2.878,-0.72 2.638,-0.719 2.639,-0.96 2.638,-0.72 2.878,-0.959 h 8.154 l 8.154,0.24 h 8.394 8.154 8.155 8.394 8.154 8.154 8.394 8.154 l 8.155,0.24 h 8.394 8.154 8.154 8.154 8.394 l 0.48,-1.44 0.719,-1.199 0.96,-1.2 0.959,-1.199"
         fill="none"
         stroke="#000000"
         id="path6" />
      <path
         d="m 257.577,282.604 h 0.48 0.48 l 0.24,0.239 h 0.479 v -0.719 -0.48 -0.48 -0.48 l -0.719,-7.916 -0.96,-0.24 h -0.959 -0.959 -0.96 -0.959 -0.959 -0.96 -0.719 v 1.199 1.2 l 0.24,0.959 v 1.2 l 0.24,1.199 0.239,1.2 0.24,1.199 0.24,1.2 0.72,0.24 h 0.719 l 0.72,0.24 h 0.719 l 0.48,0.24 h 0.719 0.72 0.479"
         fill="none"
         stroke="#000000"
         id="path7" />
      <path
         d="m 50.3643,218.07 0.7195,0.24 h 0.7195 l 0.7195,0.24 h 0.7195 l 0.7194,0.24 h 0.7195 l 0.7195,0.24 0.4797,0.24 h 0.7195 l 0.7195,0.24 0.7195,0.239 0.4796,0.24 h 0.7195 l 0.4797,0.24 0.7194,0.24 0.4797,0.24 h 0.7195 l 0.4797,0.24 0.7194,0.24 0.4797,0.24 0.7195,0.24 0.4797,0.24 h 0.7194 l 0.4797,0.239 0.7195,0.24 0.4797,0.24 0.7194,0.24 h 0.4797 l 0.7195,0.24 0.7195,0.24 0.4796,0.24 h 0.7195 3.5975 3.3576 3.5975 l 3.5974,-0.24 h 3.3576 3.5975 3.3576 l 3.5974,-0.24 h 3.5971 3.358 3.597 l 3.598,-0.24 h 3.358 3.597 3.358 l 3.597,-0.24 h 3.597 3.358 3.598 l 3.597,-0.24 h 3.358 3.597 3.358 l 3.597,-0.24 h 3.598 3.357 l 3.598,-0.239 h 3.597 3.358 3.597 l 3.358,-0.24 h 3.597 l 1.439,-0.48 1.199,-0.24 1.439,-0.48 1.439,-0.48 1.199,-0.24 1.439,-0.479 1.439,-0.48 1.2,-0.24 1.439,-0.48 1.439,-0.48 1.199,-0.24 1.439,-0.479 1.199,-0.48 1.439,-0.48 1.439,-0.24 1.199,-0.48 1.439,-0.479 1.439,-0.24 1.199,-0.48 1.439,-0.48 1.439,-0.24 1.199,-0.48 1.439,-0.479 1.439,-0.48 1.199,-0.24 1.439,-0.48 1.199,-0.48 1.439,-0.24 1.439,-0.479 1.2,-0.48 1.439,-0.24 1.438,-0.48 h 4.078 4.077 4.317 4.077 4.077 4.077 4.317 4.077 4.077 4.317 4.077 l 4.077,0.24 h 4.077 4.317 4.077 4.078 4.316 4.078 4.077 4.317 4.077 4.077 4.077 4.317 4.077 4.077 4.317 4.077 4.077 4.077 4.317 l 4.077,0.24 v -0.48 -0.24 l 0.24,-0.24 v -0.48 l 0.24,-0.239 v -0.24 l 0.24,-0.24 v -0.24 l 0.24,-0.48 0.24,-0.24 v -0.24 l 0.239,-0.24 0.24,-0.24 0.24,-0.479 0.24,-0.24 0.24,-0.24 0.24,-0.24 0.239,-0.24 0.24,-0.24 0.24,-0.24 0.24,-0.24 0.24,-0.24 0.479,-0.239 0.24,-0.48 0.24,-0.24 0.24,-0.24 0.48,-0.24 0.239,-0.24 0.24,-0.24 0.48,-0.24 0.24,-0.24 0.479,-0.24 0.48,0.24 0.24,0.24 0.479,0.24 0.48,0.24 0.48,0.24 h 0.479 l 0.48,0.24 0.24,0.24 0.48,0.24 0.479,0.24 0.24,0.24 0.48,0.239 0.24,0.48 0.479,0.24 0.24,0.24 0.48,0.24 0.24,0.24 0.239,0.24 0.48,0.48 0.24,0.239 0.24,0.24 0.24,0.48 0.239,0.24 0.24,0.24 0.48,0.48 0.24,0.24 0.24,0.479 v 0.24 l 0.239,0.48 0.24,0.24 0.24,0.48 0.24,0.24 h 0.959 0.96 0.719 0.959 0.96 0.959 0.959 0.96 0.959 0.719 0.96 0.959 0.959 l 0.96,-0.24 h 0.959 0.719 0.96 0.959 0.959 0.96 0.959 0.959 0.72 0.959 0.96 0.959 0.959 0.96 0.719 0.959 0.96 0.959 v -0.48 -0.48 -0.48 -0.239 -0.48 -0.48 -0.48 -0.24 -0.48 -0.479 -0.48 -0.24 -0.48 -0.48 -0.479 -0.24 -0.48 -0.48 -0.48 -0.24 -0.48 -0.479 -0.48 -0.24 -0.48 -0.48 -0.479 -0.24 -0.48 -0.48 -0.48 -0.24 h 0.48 0.239 0.48 0.24 0.48 0.239 0.48 0.24 0.48 0.239 0.48 0.24 0.48 0.479 0.24 0.48 0.24 l 0.479,0.24 h 0.24 0.48 0.24 0.479 0.24 0.48 0.479 0.24 0.48 0.24 0.479 0.24 0.48 0.24 v 0.48 0.48 0.24 0.48 0.479 0.48 0.24 0.48 0.48 0.479 0.24 0.48 0.48 0.48 0.24 0.48 0.479 0.48 0.24 0.48 0.48 0.479 0.24 0.48 0.48 0.48 0.24 0.479 0.48 0.48 0.24 0.48 l 0.239,0.24 0.24,0.24 v 0.239 l 0.24,0.24 v 0.24 h 0.24 v 0.24 l 0.24,0.24 v 0.24 h 0.24 v 0.24 l 0.239,0.24 v 0.24 h 0.24 v 0.24 0.239 h 0.24 v 0.24 h 0.24 v 0.24 l 0.24,0.24 v 0.24 h 0.24 v 0.24 l 0.239,0.24 v 0.24 l 0.24,0.24 v 0.479 0.24 0.48 l 0.24,0.24 v 0.48 0.24 0.24 l 0.24,0.479 v 0.24 0.48 0.24 l 0.24,0.48 v 0.24 0.48 l 0.24,0.239 v 0.24 0.48 0.24 l 0.239,0.48 v 0.24 0.48 0.239 l 0.24,0.24 v 0.48 0.24 0.48 l 0.24,0.24 v 0.48 0.24 0.479 l 0.24,0.24 h 0.48 0.719 0.48 0.479 l 0.72,0.24 h 0.479 0.72 0.48 0.719 0.48 0.719 0.48 0.719 0.48 l 0.72,0.24 h 0.479 0.48 0.719 0.48 0.72 0.479 0.72 0.479 0.72 l 0.48,0.24 h 0.719 0.48 0.719 0.48 0.719 0.48 0.48 l 0.479,0.24 h 0.24 l 0.24,0.24 0.24,0.24 0.24,0.24 h 0.239 v 0.239 l 0.24,0.24 v 0.24 h 0.24 v 0.24 l 0.24,0.24 v 0.24 0.24 0.24 l 0.24,0.24 v 0.24 0.239 0.24 0.24 0.24 0.24 0.24 l 0.24,0.24 v 0.24 0.24 0.24 0.239 0.24 0.24 0.24 0.24 l -0.24,0.24 v 0.24 l -0.24,0.24 v 0.24 l -0.24,0.24 v 0.239 l -0.24,0.24 v 0.24 l -0.24,0.24 -0.239,0.24 -0.24,0.24 -0.24,0.24 v 0.24 h -0.24 v 0.24 h -0.24 v 0.24 h -0.24 l -0.239,0.239 -0.24,0.24 -0.24,0.24 -0.24,0.24 h -0.24 l -0.24,0.24 -0.239,0.24 h -0.96 -0.959 -0.959 -0.96 -0.959 l -0.959,0.24 h -0.96 -0.959 -0.959 -0.96 -0.959 l -0.959,0.24 h -0.96 -0.959 -0.959 -0.959 -0.96 -0.959 l -0.959,0.24 h -0.96 -0.959 -0.959 -0.96 -0.959 l -0.959,0.24 h -0.96 -0.959 -0.959 -0.96 -0.959 -0.959 l -0.96,0.239 h -0.239 v 0.24 h -0.24 l -0.24,0.24 -0.24,0.24 -0.24,0.24 h -0.24 v 0.24 h -0.239 v 0.24 h -0.24 v 0.24 h -0.24 v 0.24 h -0.24 v 0.24 h -0.24 l -0.24,0.239 h -0.239 v 0.24 h -3.118 -2.878 -2.878 -3.118 -2.878 l -3.118,-0.24 h -2.878 -2.878 -3.117 -2.878 -2.878 -3.118 -2.878 -2.878 -3.118 l -2.878,-0.239 h -3.118 -2.877 -2.878 -3.118 -2.878 -2.878 -3.118 -2.878 -2.878 l -3.118,-0.24 h -2.878 -3.117 -2.878 -2.878 -3.118 -2.878 l 0.48,3.358 0.479,3.359 0.24,3.598 0.48,3.359 0.479,3.359 0.48,3.358 0.48,3.599 0.24,3.358 0.479,3.359 0.48,3.359 0.48,3.358 0.479,3.599 0.24,3.358 0.48,3.359 0.479,3.359 0.48,3.598 0.24,3.359 0.48,3.358 0.479,3.359 0.48,3.599 0.479,3.358 0.24,3.359 0.48,3.358 0.48,3.599 0.479,3.359 0.48,3.358 0.24,3.359 0.479,3.598 0.48,3.359 0.48,3.358 0.479,3.359 0.24,3.599 h -0.24 -0.239 l -0.24,0.24 h -0.24 l -0.24,0.239 h -0.24 -0.24 l -0.239,0.24 h -0.24 l -0.24,0.24 h -0.24 l -0.24,0.24 h -0.24 -0.239 l -0.24,0.24 h -0.24 l -0.24,0.24 h -0.24 -0.24 l -0.239,0.24 h -0.24 l -0.24,0.24 h -0.24 -0.24 l -0.239,0.24 h -0.24 l -0.24,0.24 h -0.24 l -0.24,0.239 h -0.24 -0.239 l -0.24,0.24 h -0.72 -0.719 -0.48 -0.719 -0.48 -0.72 -0.719 -0.48 -0.719 -0.72 -0.479 -0.72 -0.48 -0.719 l -0.72,0.24 h -0.479 -0.72 -0.719 -0.48 -0.719 -0.48 -0.719 -0.72 -0.48 -0.719 -0.48 -0.719 -0.72 -0.479 -0.72 -0.719 -0.48 l -0.24,-1.919 -0.48,-2.159 -0.239,-1.919 -0.24,-2.159 -0.24,-1.92 -0.24,-2.159 -0.24,-1.919 -0.479,-1.919 -0.24,-2.159 -0.24,-1.919 -0.24,-2.16 -0.24,-1.919 -0.239,-2.159 -0.48,-1.919 -0.24,-2.159 -0.24,-1.919 -0.24,-2.16 -0.239,-1.919 -0.48,-2.159 -0.24,-1.919 -0.24,-2.159 -0.24,-1.919 -0.239,-2.159 -0.24,-1.92 -0.48,-2.159 -0.24,-1.919 -0.24,-2.159 -0.239,-1.919 -0.24,-2.159 -0.48,-1.92 -0.24,-2.159 -0.24,-1.919 h -0.719 -0.72 -0.479 l -0.72,-0.24 h -0.719 -0.72 -0.719 -0.48 -0.719 -0.72 -0.719 -0.72 -0.719 l -0.48,-0.24 h -0.719 -0.72 -0.719 -0.72 -0.719 -0.48 -0.72 -0.719 -0.72 l -0.719,-0.24 h -0.48 -0.719 -0.72 -0.719 -0.72 -0.719 -0.48 -0.719 l -0.48,0.24 h -0.48 l -0.239,0.24 -0.48,0.24 -0.48,0.24 -0.24,0.24 -0.479,0.24 -0.48,0.24 -0.24,0.24 -0.479,0.239 -0.48,0.24 -0.48,0.24 -0.24,0.24 -0.479,0.24 h -0.48 l -0.24,0.24 -0.479,0.24 -0.48,0.24 -0.24,0.24 -0.479,0.24 -0.48,0.239 -0.24,0.24 -0.48,0.24 -0.479,0.24 -0.48,0.24 -0.24,0.24 -0.479,0.24 -0.48,0.24 h -0.24 l -0.48,0.24 -0.479,0.24 -0.24,0.239 h -0.24 -0.24 -0.24 -0.239 l -0.24,0.24 h -0.24 -0.24 -0.24 -0.24 -0.239 -0.24 -0.24 -0.24 -0.24 -0.24 -0.239 -0.24 -0.24 -0.24 -0.24 l -0.24,0.24 h -0.239 -0.24 -0.24 -0.24 -0.24 -0.239 l -0.72,-0.24 -0.48,-0.24 h -0.719 l -0.72,-0.239 -0.719,-0.24 h -0.72 l -0.719,-0.24 -0.72,-0.24 -0.719,-0.24 h -0.48 l -0.719,-0.24 -0.72,-0.24 h -0.719 l -0.72,-0.24 -0.719,-0.24 -0.72,-0.24 h -0.719 l -0.48,-0.239 -0.719,-0.24 -0.72,-0.24 h -0.719 l -0.72,-0.24 -0.719,-0.24 h -0.72 l -0.479,-0.24 -0.72,-0.24 -0.719,-0.24 h -0.72 l -0.719,-0.24 -0.72,-0.24 h -0.719 l -0.72,-0.239 v 0.239 h -0.24 l -0.239,0.24 v 0.24 l -0.24,0.24 h -0.24 l -0.24,0.24 v 0.24 l -0.24,0.24 -0.24,0.24 h -0.239 v 0.24 l -0.24,0.24 -0.24,0.239 -0.24,0.24 -0.24,0.24 -0.24,0.24 -0.239,0.24 -0.24,0.24 v 0.24 l -0.24,0.24 h -0.24 l -0.24,0.24 v 0.24 l -0.24,0.239 h -0.239 v 0.24 l -0.24,0.24 -0.24,0.24 -0.24,0.24 v 0.24 0.24 0.24 0.24 0.24 0.479 0.24 0.24 0.24 0.24 0.48 0.24 0.24 0.239 0.24 0.24 0.48 0.24 0.24 0.24 0.24 0.479 0.24 0.24 0.24 0.24 0.24 0.48 0.24 0.24 0.24 0.239 0.48 l -0.24,0.24 -0.24,0.48 -0.239,0.24 -0.24,0.24 -0.24,0.48 -0.24,0.239 -0.24,0.24 v 0.48 l -0.24,0.24 -0.239,0.48 -0.24,0.24 -0.24,0.24 -0.24,0.479 -0.24,0.24 -0.24,0.48 v 0.24 l -0.239,0.24 -0.24,0.48 -0.24,0.24 -0.24,0.479 -0.24,0.24 -0.24,0.24 -0.239,0.48 v 0.24 l -0.24,0.24 -0.24,0.48 -0.24,0.24 -0.24,0.479 -0.24,0.24 -0.239,0.24 -0.24,0.48 v 0.24 0.24 0.24 0.24 0.239 0.24 0.24 0.24 0.24 0.24 0.24 0.24 0.24 0.24 l -0.24,0.239 v 0.24 0.24 0.24 0.24 0.24 0.24 0.24 0.24 0.24 l -0.24,0.239 v 0.24 h -0.24 v 0.24 h -0.239 v 0.24 h -0.24 v 0.24 l -0.24,0.24 -0.24,0.24 -0.24,0.24 -0.24,0.24 v 0.24 h -0.239 v 0.239 h -0.24 v 0.24 h -0.24 v 0.24 h -0.24 v 0.24 l -0.24,0.24 -0.24,0.24 h -0.239 v 0.24 h -0.24 v 0.24 l -0.24,0.24 -0.48,-0.24 h -0.479 l -0.48,-0.24 h -0.48 l -0.479,-0.24 -0.48,-0.24 h -0.48 l -0.479,-0.24 h -0.48 l -0.48,-0.24 h -0.479 l -0.48,-0.24 h -0.48 l -0.479,-0.24 h -0.48 l -0.48,-0.239 h -0.479 l -0.72,-0.24 h -0.479 l -0.48,-0.24 h -0.48 l -0.479,-0.24 h -0.48 l -0.48,-0.24 h -0.479 l -0.48,-0.24 h -0.48 l -0.479,-0.24 h -0.48 l -0.48,-0.24 h -0.479 l -0.48,-0.24 -0.48,-0.479 -0.719,-0.24 -0.48,-0.48 -0.48,-0.48 -0.479,-0.24 -0.48,-0.48 -0.719,-0.479 -0.48,-0.24 -0.48,-0.48 -0.479,-0.48 -0.72,-0.48 -0.479,-0.24 -0.48,-0.479 -0.48,-0.48 -0.479,-0.24 -0.72,-0.48 -0.48,-0.48 -0.479,-0.24 -0.48,-0.479 -0.48,-0.48 -0.719,-0.48 -0.48,-0.24 -0.479,-0.48 -0.48,-0.48 -0.48,-0.239 -0.719,-0.48 -0.48,-0.48 -0.48,-0.24 -0.479,-0.48 -0.48,-0.48 -0.719,-0.239 -0.48,-0.48 0.48,-0.96 0.479,-0.72 0.24,-0.959 0.48,-0.72 0.479,-0.959 0.48,-0.72 0.24,-0.96 0.48,-0.72 0.479,-0.959 0.48,-0.72 0.24,-0.959 0.479,-0.72 0.48,-0.96 0.48,-0.719 0.24,-0.96 0.479,-0.72 0.48,-0.959 0.48,-0.72 0.239,-0.96 0.48,-0.719 0.48,-0.96 0.479,-0.72 0.24,-0.959 0.48,-0.72 0.48,-0.96 0.479,-0.719 0.24,-0.96 0.48,-0.72 0.479,-0.959 0.24,-0.72 0.48,-0.96 0.479,-0.719 0.24,-0.24 0.48,-0.48 0.24,-0.24 0.479,-0.24 0.24,-0.48 0.24,-0.239 0.48,-0.24 0.24,-0.48 0.239,-0.24 0.48,-0.24 0.24,-0.48 0.48,-0.24 0.239,-0.24 0.24,-0.479 0.48,-0.24 0.24,-0.24 0.479,-0.48 0.24,-0.24 0.24,-0.24 0.48,-0.48 0.24,-0.239 0.239,-0.24 0.48,-0.48 0.24,-0.24 0.48,-0.24 0.239,-0.48 0.24,-0.24 0.48,-0.479 0.24,-0.24 0.479,-0.24 0.24,-0.48 0.24,-0.24 v -0.24 -0.24 -0.24 l -0.24,-0.479 v -0.24 -0.24 -0.24 l -0.24,-0.24 v -0.24 -0.48 l -0.239,-0.24 v -0.24 -0.239 -0.24 l -0.24,-0.48 v -0.24 -0.24 -0.24 l -0.24,-0.24 v -0.48 -0.239 -0.24 l -0.24,-0.24 v -0.24 -0.24 -0.48 l -0.24,-0.24 v -0.24 -0.24 -0.24 l -0.24,-0.479 v -0.24 H 198.1 l -0.24,-0.24 -0.24,-0.24 -0.24,-0.24 h -0.24 l -0.24,-0.24 -0.239,-0.24 h -0.48 l -0.24,-0.24 -0.24,-0.24 -0.24,-0.239 h -0.239 l -0.24,-0.24 -0.24,-0.24 h -0.24 l -0.24,-0.24 -0.24,-0.24 -0.239,-0.24 h -0.24 l -0.24,-0.24 -0.48,-0.24 -0.24,-0.24 h -0.239 l -0.24,-0.24 -0.24,-0.239 h -0.24 l -0.24,-0.24 -0.24,-0.24 -0.239,-0.24 h -0.24 l -0.24,-0.24 -0.24,-0.24 -0.959,-0.24 -0.959,-0.24 -0.96,-0.24 -0.719,-0.479 -0.96,-0.24 -0.959,-0.24 -0.959,-0.24 -0.72,-0.48 -0.959,-0.24 -0.959,-0.24 -0.96,-0.24 -0.719,-0.479 -0.96,-0.24 -0.959,-0.24 -0.959,-0.24 -0.72,-0.24 -0.959,-0.48 -0.959,-0.24 -0.96,-0.24 -0.719,-0.24 -0.959,-0.479 -0.96,-0.24 -0.959,-0.24 -0.72,-0.24 -0.959,-0.48 -0.959,-0.24 -0.959,-0.24 -0.72,-0.24 -0.959,-0.479 -0.96,-0.24 -0.719,-0.24 -0.959,-0.24 h -2.878 -2.878 -2.638 l -2.878,-0.24 h -2.639 -2.878 -2.877 -2.639 -2.878 -2.638 l -2.878,-0.24 h -2.638 -2.878 -2.638 -2.878 -2.638 -2.878 l -2.638,-0.24 h -2.878 -2.638 -2.878 -2.638 -2.8782 -2.878 -2.6381 -2.878 -2.6381 -2.8779 l -2.878,0.24 h -2.878 -2.6381 -2.878 l -0.4796,0.24 -0.4797,0.24 -0.7195,0.24 -0.4796,0.24 -0.4797,0.24 -0.4796,0.24 -0.4797,0.239 -0.4797,0.24 h -0.4796 l -0.4797,0.24 -0.4796,0.24 -0.4797,0.48 -0.2398,0.24 -0.4797,0.24 -0.4797,0.24 -0.4796,0.24 -0.4797,0.239 -0.4796,0.24 -0.4797,0.48 -0.4797,0.24 -0.4796,0.48 -0.4797,0.24 -0.4796,0.48 -0.4797,0.239 -0.4797,0.48 -0.4796,0.48 -0.4797,0.24 -0.4796,0.48 -0.4797,0.48 -0.4796,0.479 -0.4797,0.72 -0.4797,0.48 -0.2398,0.48 -0.2398,0.24 v 0.479 l -0.2399,0.24 -0.2398,0.48 v 0.24 l -0.2398,0.48 -0.2398,0.24 v 0.479 l -0.2399,0.24 -0.2398,0.48 v 0.24 l -0.2398,0.24 -0.2399,0.48 v 0.24 l -0.2398,0.479 -0.2398,0.24 v 0.48 l -0.2399,0.24 -0.2398,0.48 v 0.24 l -0.2398,0.24 -0.2398,0.48 -0.2399,0.239 v 0.48 l -0.2398,0.24 -0.2398,0.48 v 0.24 l -0.2399,0.48 v 0.24 l -0.2398,0.479 -0.2398,0.48 v 0.48 l -0.2399,0.72 v 0.479 l -0.2398,0.72 -0.2398,0.48 v 0.72 l -0.2398,0.479 v 0.72 l -0.2399,0.48 v 0.72 l -0.2398,0.479 v 0.72 l -0.2398,0.48 -0.2399,0.72 v 0.479 l -0.2398,0.72 v 0.48 l -0.2398,0.72 v 0.719 l -0.2399,0.48 -0.2398,0.72 v 0.48 l -0.2398,0.719 v 0.48 l -0.2398,0.72 v 0.48 l -0.2399,0.719 v 0.48 l -0.2398,0.72 -0.2398,0.48 v 0.719 l -0.2399,0.48 -0.4796,0.24 H 46.527 46.0474 45.3279 44.8482 l -0.4797,0.24 h -0.4796 -0.4797 -0.4796 -0.2399 l -0.4796,-0.24 h -0.4797 -0.4796 -0.4797 -0.2398 l -0.4797,-0.24 h -0.4797 -0.4796 l -0.2398,-0.24 h -0.4797 -0.4797 l -0.2398,-0.24 h -0.4797 l -0.4796,-0.239 h -0.2398 l -0.4797,-0.24 -0.4797,-0.24 h -0.4796 l -0.2399,-0.24 -0.4796,-0.24 H 33.816 l -0.4796,-0.24 v -0.24 -0.48 -0.719 -0.96 l 0.2398,-0.96 0.2398,-1.199 0.2399,-1.44 0.2398,-1.439 0.2398,-1.679 0.2398,-1.919 0.4797,-1.92 0.2398,-1.919 0.4797,-2.159 0.4797,-2.159 0.4796,-2.399 0.4797,-2.399 0.4796,-2.399 0.4797,-2.399 0.4797,-2.399 0.4796,-2.639 0.4797,-2.639 0.4796,-2.399 0.4797,-2.639 0.4797,-2.399 0.4796,-2.639 0.4797,-2.399 0.4796,-2.399 0.4797,-2.399 0.4797,-2.159 0.4796,-2.399 0.2398,-1.919 0.4797,-2.159 v -0.24 h 0.2398 l 0.2399,-0.24 v -0.24 l 0.2398,-0.24 v -0.24 l 0.2398,-0.24 0.2399,-0.24 0.2398,-0.24 v -0.239 l 0.2398,-0.24 0.2398,-0.24 0.2399,-0.24 v -0.24 l 0.2398,-0.24 0.2398,-0.24 0.2399,-0.24 0.2398,-0.24 0.2398,-0.24 0.2399,-0.239 0.2398,-0.24 0.2398,-0.24 h 0.2398 l 0.2399,-0.24 0.2398,-0.24 h 0.2398 l 0.2399,-0.24 z m 199.0587,53.018 h 0.24 0.48 0.239 0.48 0.48 0.24 0.479 0.24 0.48 0.24 l 0.239,-0.24 h 0.48 0.24 0.48 0.239 0.24 0.48 0.24 0.24 0.479 0.24 l 0.24,0.24 h 0.48 0.239 0.24 0.48 0.24 0.24 0.239 0.48 l 0.24,0.24 h 0.24 v 0.48 l 0.24,0.24 v 0.48 0.48 0.479 l 0.239,0.24 v 0.48 0.48 0.48 0.24 0.479 l 0.24,0.48 v 0.48 0.48 0.24 0.479 0.48 0.48 0.24 0.48 0.48 0.479 0.24 0.48 0.48 0.24 0.48 0.239 0.48 0.24 0.48 0.24 h -0.479 -0.24 -0.48 -0.24 -0.479 -0.24 -0.24 -0.48 -0.24 -0.239 -0.24 -0.24 l -0.24,-0.24 h -0.24 -0.24 -0.239 -0.24 -0.24 -0.24 -0.24 l -0.24,-0.24 h -0.239 -0.24 -0.24 -0.48 -0.24 l -0.239,-0.24 h -0.24 -0.48 -0.24 -0.24 l -0.479,-0.24 v -0.24 h -0.24 v -0.24 l -0.24,-0.239 v -0.24 -0.48 l -0.24,-0.24 v -0.24 -0.24 l -0.24,-0.48 v -0.24 -0.479 l -0.239,-0.24 v -0.48 -0.48 l -0.24,-0.24 v -0.48 -0.479 -0.24 l -0.24,-0.48 v -0.48 -0.48 -0.479 -0.48 -0.48 l -0.24,-0.48 v -0.48 -0.479 -0.48 -0.48 -0.48 z"
         fill-rule="evenodd"
         id="path8" />
      <path
         d="m 50.3643,218.07 2.878,0.48 2.6381,0.72 2.6381,0.719 2.3983,0.72 2.3983,0.72 2.3983,0.719 2.3983,0.72 2.6381,0.72 h 6.9551 l 7.1949,-0.24 h 6.9551 l 6.955,-0.24 h 6.9551 l 7.195,-0.24 h 6.955 l 6.955,-0.24 h 6.955 l 7.195,-0.24 h 6.955 l 6.955,-0.24 h 6.955 l 7.195,-0.239 h 6.955 l 6.955,-0.24 2.638,-0.72 2.878,-0.96 2.638,-0.719 2.639,-0.72 2.878,-0.96 2.638,-0.719 2.638,-0.96 2.638,-0.72 2.878,-0.719 2.638,-0.96 2.638,-0.72 2.878,-0.959 2.638,-0.72 2.638,-0.72 2.639,-0.959 2.877,-0.72 h 8.155 8.394 8.154 8.394 8.394 l 8.154,0.24 h 8.394 8.155 8.394 8.394 8.154 8.394 8.154 8.394 8.154 l 8.394,0.24 0.24,-1.44 0.48,-0.959 0.719,-1.2 0.96,-1.199 0.959,-0.96 1.199,-1.199 1.199,-0.96 1.439,-0.96 1.679,0.96 1.679,0.72 1.679,0.959 1.439,1.2 1.199,1.199 0.959,1.2 0.96,1.439 0.959,1.44 h 3.597 3.838 3.597 l 3.597,-0.24 h 3.838 3.597 3.838 3.597 v -1.679 -1.68 -1.679 -1.679 -1.68 -1.679 -1.679 -1.68 h 1.439 1.439 1.439 1.679 l 1.439,0.24 h 1.439 1.439 1.439 v 1.68 1.679 1.679 1.68 1.679 1.679 1.679 1.68 l 0.959,1.199 0.719,1.2 0.72,1.199 0.719,1.2 0.24,1.439 0.24,1.2 0.48,1.439 0.24,1.439 0.239,1.44 0.24,1.199 0.24,1.44 0.24,1.439 h 2.158 l 2.399,0.24 h 2.398 l 2.398,0.24 h 2.399 2.398 l 2.398,0.24 h 2.159 l 1.678,1.199 0.72,1.68 0.24,1.919 0.24,1.919 -0.72,1.679 -0.959,1.2 -0.96,0.96 -1.678,1.439 h -3.838 l -3.837,0.24 -3.837,0.24 h -3.837 l -3.838,0.24 h -3.837 l -3.837,0.24 -3.838,0.239 -0.719,0.48 -0.959,0.72 -0.72,0.72 -0.719,0.719 h -5.996 -5.996 l -5.996,-0.24 h -5.756 -5.995 -5.996 -5.756 l -5.996,-0.239 h -5.995 -5.996 -5.756 -5.996 l -5.996,-0.24 h -5.995 -5.756 -5.996 l 0.959,6.717 0.72,6.957 0.959,6.717 0.72,6.957 0.959,6.718 0.959,6.957 0.72,6.717 0.959,6.957 0.72,6.717 0.959,6.958 0.719,6.717 0.96,6.957 0.959,6.717 0.719,6.957 0.96,6.717 0.719,6.958 -0.959,0.24 -0.959,0.479 -0.96,0.48 -0.959,0.24 -0.959,0.48 -0.96,0.24 -0.959,0.48 -0.959,0.479 h -2.638 -2.399 -2.638 l -2.398,0.24 h -2.638 -2.399 -2.638 -2.398 l -0.72,-4.078 -0.479,-4.078 -0.48,-4.079 -0.719,-3.838 -0.48,-4.078 -0.48,-4.079 -0.719,-4.078 -0.48,-4.078 -0.479,-4.079 -0.72,-4.078 -0.48,-4.078 -0.479,-4.079 -0.72,-4.078 -0.479,-4.078 -0.72,-4.079 -0.48,-4.078 -2.638,-0.24 h -2.638 -2.878 l -2.638,-0.24 h -2.638 l -2.878,-0.24 h -2.638 -2.638 l -1.679,0.72 -1.679,0.96 -1.679,0.959 -1.439,0.72 -1.678,0.96 -1.679,0.959 -1.679,0.96 -1.439,0.719 -1.679,0.24 h -1.679 -1.439 l -1.678,0.24 -2.639,-0.719 -2.878,-0.72 -2.638,-0.72 -2.878,-0.72 -2.638,-0.719 -2.878,-0.48 -2.638,-0.72 -2.878,-0.719 -1.199,1.439 -1.439,1.439 -1.439,1.44 -1.439,1.679 v 0.96 1.199 1.2 0.959 1.2 1.199 1.2 0.959 l -0.719,1.44 -0.96,1.199 -0.719,1.44 -0.96,1.439 -0.719,1.2 -0.959,1.439 -0.72,1.2 -0.959,1.439 v 1.439 1.44 l -0.24,1.439 v 1.44 l -0.959,1.199 -0.96,1.2 -0.959,0.959 -1.199,1.2 -1.919,-0.48 -1.918,-0.72 -1.919,-0.48 -1.919,-0.479 -2.158,-0.48 -1.919,-0.48 -1.918,-0.48 -1.919,-0.48 -2.159,-1.679 -2.158,-1.439 -2.158,-1.68 -2.159,-1.679 -1.919,-1.679 -2.158,-1.68 -2.159,-1.439 -2.158,-1.679 1.679,-3.359 1.679,-3.359 1.678,-3.358 1.679,-3.359 1.679,-3.358 1.679,-3.359 1.679,-3.359 1.678,-3.358 1.439,-1.2 1.2,-1.439 1.439,-1.2 1.199,-1.199 1.439,-1.44 1.199,-1.199 1.439,-1.439 1.199,-1.2 -0.24,-1.199 -0.24,-0.96 -0.239,-1.2 -0.24,-1.199 -0.24,-1.2 -0.24,-0.959 -0.24,-1.2 -0.24,-1.199 -0.959,-0.72 -1.199,-0.48 -0.959,-0.719 -0.96,-0.72 -0.959,-0.72 -1.199,-0.72 -0.96,-0.719 -0.959,-0.72 -3.597,-1.199 -3.598,-1.2 -3.597,-1.199 -3.598,-0.96 -3.597,-1.2 -3.598,-1.199 -3.597,-1.2 -3.597,-1.199 h -5.756 l -5.516,-0.24 h -5.517 -5.516 -5.516 l -5.516,-0.24 h -5.516 -5.516 l -5.516,-0.24 h -5.516 -5.516 -5.7562 -5.5161 -5.516 l -5.756,0.24 h -5.5161 l -2.1584,0.96 -1.9187,0.959 -1.9186,0.96 -1.6788,0.96 -1.9187,1.199 -1.9186,1.439 -1.9186,1.68 -1.9187,2.159 -0.7195,1.439 -0.7194,1.44 -0.4797,1.439 -0.7195,1.439 -0.7195,1.44 -0.7195,1.199 -0.4796,1.44 -0.7195,1.679 -0.4797,2.399 -0.4796,2.399 -0.4797,2.399 -0.7195,2.399 -0.4797,2.399 -0.4796,2.399 -0.4797,2.399 -0.7195,2.399 -2.1584,0.24 -1.9187,0.24 -1.6788,-0.24 -1.6788,-0.24 -1.6788,-0.24 -1.6788,-0.479 -1.6788,-0.48 -1.6788,-0.72 v -0.72 -1.679 l 0.4796,-2.159 0.4797,-2.879 0.4796,-3.598 0.7195,-3.839 0.9594,-4.318 0.9593,-4.798 0.9593,-4.798 0.9593,-5.038 0.9593,-5.038 0.9594,-5.038 0.9593,-5.038 0.9593,-4.798 0.9593,-4.558 0.7195,-4.078 0.9593,-1.44 1.1992,-1.679 1.439,-1.439 1.9186,-1.44"
         fill="none"
         stroke="#000000"
         id="path9" />
      <path
         d="m 249.423,271.088 h 1.439 1.439 l 1.439,-0.24 h 1.199 1.439 l 1.199,0.24 h 1.2 l 1.199,0.24 0.24,1.68 0.239,1.679 0.24,1.679 v 1.679 1.68 1.679 1.439 1.44 h -1.439 -1.439 -0.959 l -0.959,-0.24 h -0.96 l -0.959,-0.24 -1.199,-0.24 -1.439,-0.24 -0.48,-0.719 -0.24,-1.2 -0.24,-1.439 -0.479,-1.44 -0.24,-1.679 v -1.919 l -0.24,-1.919 v -1.92"
         fill="none"
         stroke="#000000"
         id="path10" />
      <path
         d="m 249.423,271.088 h 1.439 1.439 l 1.439,-0.24 h 1.199 1.439 l 1.199,0.24 h 1.2 l 1.199,0.24 0.24,1.68 0.239,1.679 0.24,1.679 v 1.679 1.68 1.679 1.439 1.44 h -1.439 -1.439 -0.959 l -0.959,-0.24 h -0.96 l -0.959,-0.24 -1.199,-0.24 -1.439,-0.24 -0.48,-0.719 -0.24,-1.2 -0.24,-1.439 -0.479,-1.44 -0.24,-1.679 v -1.919 l -0.24,-1.919 v -1.92"
         fill="none"
         stroke="#000000"
         id="path11" />
      <path
         d="m 43.1694,278.285 h 0.2398 l 0.2399,-0.24 0.2398,-0.479 0.4796,-0.72 0.2399,-0.72 0.4796,-0.959 0.2399,-0.96 0.4796,-1.439 0.2399,-1.2 0.4796,-1.439 0.4797,-1.44 0.2398,-1.679 0.4797,-1.439 0.4796,-1.68 0.2399,-1.679 0.4796,-1.919 0.2398,-1.68 0.4797,-1.679 0.2398,-1.679 0.4797,-1.679 0.2398,-1.68 0.2399,-1.679 0.4796,-1.439 0.2398,-1.44 0.2399,-1.199 0.2398,-1.44 v -0.959 l 0.2398,-0.96 0.2399,-0.96 v -0.719 -0.48 l 0.2398,-0.24 -0.2398,-0.24 h -0.2399 v -0.24 h -0.2398 l -0.2398,-0.24 H 51.5634 51.3236 51.0838 50.844 50.6041 50.3643 50.1245 49.8846 49.6448 49.405 49.1651 l -0.2398,0.24 h -0.2398 -0.2398 l -0.2399,0.24 H 47.966 v 0.48 l -0.2398,0.24 v 0.48 l -0.2399,0.479 v 0.24 0.48 l -0.2398,0.48 v 0.48 l -0.2398,0.48 v 0.239 l -0.2399,0.48 v 0.48 0.48 l -0.2398,0.48 v 0.479 0.48 l -0.2398,0.48 v 0.48 0.48 l -0.2398,0.479 v 0.48 0.48 l -0.2399,0.48 v 0.24 0.48 0.479 l -0.2398,0.48 v 0.48 0.48 l -0.2398,0.48 v 0.479 0.48 l -0.2399,0.72 v 0.72 l -0.2398,0.959 v 0.96 l -0.2398,0.719 v 0.96 l -0.2399,0.96 v 0.959 l -0.2398,0.96 -0.2398,0.959 v 0.96 l -0.2398,0.96 v 0.959 l -0.2399,0.96 v 0.96 0.959 l -0.2398,0.96 v 0.719 0.96 l -0.2398,0.72 v 0.719 0.72 0.72 0.72 l -0.2399,0.479 v 0.72 l 0.2399,0.48 v 0.24 0.48 0.239 0.24 z"
         fill="#ffffff"
         id="path12" />
      <path
         d="m 43.1694,278.285 1.1991,-1.439 1.439,-4.078 1.439,-5.758 1.6788,-6.717 1.439,-6.717 1.1991,-6.238 0.7195,-4.558 0.4797,-2.399 -0.7195,-0.48 -1.1991,-0.24 h -1.1992 l -1.6788,0.48 -0.4797,1.679 -0.2398,1.68 -0.4797,1.679 -0.2398,1.919 -0.4796,1.919 -0.2399,1.68 -0.2398,1.919 -0.2398,1.919 -0.4797,3.359 -0.4797,3.598 -0.7194,3.839 -0.2399,3.838 -0.4796,3.359 v 2.879 1.919 l 0.2398,0.959"
         fill="none"
         stroke="#ffffff"
         id="path13" />
      <path
         d="m 51.3236,229.585 h 2.6381 2.6382 2.6381 l 2.878,-0.239 h 3.1177 2.878 3.1178 3.1178 3.1178 3.1178 3.1178 3.1177 3.1178 3.1178 3.1178 l 2.878,-0.24 h 2.8782 2.878 2.638 2.638 2.398 l 2.399,-0.24 h 2.158 1.919 1.918 l 1.679,-0.24 h 1.439 1.199 l 0.96,-0.24 h 0.719 0.72 l 0.239,-0.24 h -0.479 l -0.72,-0.24 -0.959,-0.24 h -1.199 l -1.439,-0.24 h -1.439 l -1.679,-0.24 h -1.919 -2.158 l -2.159,-0.239 h -2.398 -2.398 -2.638 -2.638 l -2.878,-0.24 h -2.8784 -2.8779 -2.878 -3.1178 -2.8779 -3.1178 -3.1178 -2.878 -3.1178 -3.1178 -2.8779 -2.878 -2.8779 -2.6382 -2.8779 -2.3983 -2.6382 -0.2398 l -0.2398,0.24 H 50.844 v 0.239 h -0.2399 l -0.2398,0.24 -0.2398,0.24 v 0.24 0.24 0.24 0.24 h 0.2398 v 0.24 l 0.2398,0.24 0.2399,0.24 h 0.2398 z"
         fill="#ffffff"
         id="path14" />
      <path
         d="m 51.3236,229.585 h 5.2763 l 5.5161,-0.239 h 5.9957 6.2356 6.2356 6.2355 6.2356 l 5.9958,-0.24 h 5.7562 5.276 l 4.797,-0.24 h 4.077 l 3.597,-0.24 h 2.638 l 1.679,-0.24 0.959,-0.24 -1.199,-0.24 -2.158,-0.24 -2.878,-0.24 -3.598,-0.24 -4.317,-0.239 h -4.796 -5.276 l -5.7564,-0.24 H 92.0947 86.099 79.8634 73.8676 67.8719 62.116 56.5999 51.5634 l -0.7194,0.479 -0.7195,0.48 v 0.96 l 1.1991,0.959"
         fill="none"
         stroke="#ffffff"
         id="path15" />
      <path
         d="m 149.174,227.906 h 0.48 0.48 0.479 0.24 l 0.48,-0.24 h 0.479 0.48 0.24 0.48 0.479 0.24 0.48 0.479 0.48 0.24 0.479 0.48 0.24 0.48 0.479 0.24 0.48 0.479 0.48 0.24 0.48 0.479 l 0.24,0.24 h 0.48 0.479 0.48 0.24 l -0.24,0.24 h -0.24 l -0.24,0.24 h -0.239 -0.24 -0.24 l -0.24,0.24 h -0.24 -0.24 -0.239 l -0.24,0.24 h -0.24 -0.24 -0.24 -0.24 -0.479 l -0.24,0.24 h -0.24 -0.24 -0.24 -0.239 -0.24 -0.24 l -0.24,0.24 h -0.24 -0.24 -0.239 -0.24 -0.24 -0.24 -0.24 -0.24 -0.239 -0.24 -0.24 v -0.24 h -0.24 -0.24 -0.239 -0.24 -0.24 -0.24 -0.24 -0.24 v -0.24 h -0.239 -0.24 -0.24 -0.24 l -0.24,-0.24 h -0.24 -0.239 v -0.24 h -0.24 -0.24 v -0.24 h -0.24 z"
         fill="#ffffff"
         id="path16" />
      <path
         d="m 149.174,227.906 h 1.679 l 1.679,-0.24 h 1.679 1.678 1.679 1.679 l 1.439,0.24 h 1.679 l -0.48,0.24 -0.959,0.24 -0.72,0.24 -0.959,0.24 -1.199,0.24 h -0.959 l -0.96,0.24 h -0.959 l -1.679,-0.24 -1.679,-0.24 -1.678,-0.24 -0.96,-0.72"
         fill="none"
         stroke="#ffffff"
         id="path17" />
      <path
         d="m 198.819,288.361 -0.24,0.24 -0.24,0.24 -0.239,0.48 -0.24,0.24 -0.24,0.24 -0.24,0.24 v 0.479 l -0.24,0.24 -0.24,0.24 -0.239,0.48 -0.24,0.24 -0.24,0.24 -0.24,0.48 -0.24,0.239 -0.24,0.24 -0.239,0.48 v 0.24 l -0.24,0.24 -0.24,0.48 -0.24,0.24 -0.24,0.24 -0.24,0.479 -0.239,0.24 v 0.24 l -0.24,0.48 -0.24,0.24 -0.24,0.24 -0.24,0.48 v 0.239 l -0.24,0.48 -0.239,0.24 -0.24,0.24 v 0.24 0.24 0.24 h -0.24 v 0.24 0.24 l -0.24,0.239 v 0.24 0.24 l -0.24,0.24 v 0.24 l -0.24,0.24 v 0.24 0.24 l -0.239,0.24 v 0.24 l -0.24,0.239 v 0.24 0.24 l -0.24,0.24 v 0.24 l -0.24,0.24 v 0.24 0.24 l -0.24,0.24 v 0.24 0.24 0.239 0.24 0.24 0.24 0.24 0.24 0.24 0.24 0.24 h 0.24 v 0.24 0.239 0.24 0.24 0.24 l 0.24,0.24 0.48,0.24 0.239,0.24 0.24,0.24 0.24,0.24 0.24,0.24 0.24,0.239 0.24,0.24 0.239,0.24 0.24,0.24 h 0.24 l 0.24,0.24 0.24,0.24 h 0.24 l 0.239,0.24 0.24,0.24 h 0.24 l 0.24,0.24 h 0.24 l 0.24,0.24 h 0.239 0.24 l 0.24,0.239 h 0.24 0.24 l 0.24,0.24 h 0.479 0.24 0.24 0.48 0.239 0.24 l 0.24,-0.24 0.24,-0.239 0.24,-0.24 v -0.24 -0.24 -0.24 -0.24 -0.24 -0.24 -0.24 l -0.24,-0.24 v -0.239 l -0.24,-0.24 v -0.24 l -0.24,-0.24 v -0.24 l -0.24,-0.24 -0.239,-0.24 v -0.24 l -0.24,-0.24 -0.24,-0.24 v -0.239 l -0.24,-0.24 -0.24,-0.24 v -0.24 l -0.24,-0.24 -0.239,-0.24 v -0.24 -0.24 -0.24 h -0.24 v -0.24 -0.239 -0.24 -0.24 -0.24 -0.24 l -0.24,-0.24 v -0.24 -0.24 -0.24 -0.24 -0.24 -0.239 -0.24 -0.24 -0.24 -0.24 -0.24 -0.24 -0.24 -0.24 -0.24 -0.239 -0.24 l 0.24,-0.24 v -0.48 l 0.24,-0.24 0.239,-0.48 0.24,-0.24 0.24,-0.479 0.24,-0.24 v -0.24 l 0.24,-0.48 0.24,-0.24 0.239,-0.48 0.24,-0.24 v -0.479 l 0.24,-0.24 0.24,-0.48 v -0.24 l 0.24,-0.24 0.24,-0.48 v -0.24 l 0.239,-0.24 v -0.239 l 0.24,-0.48 v -0.24 l 0.24,-0.24 V 291.24 291 h 0.24 v -0.24 -0.24 -0.24 -0.239 -0.24 l 0.24,-0.24 h -0.24 v -0.24 -0.24 -0.24 h -0.24 v -0.24 h -0.24 v -0.24 h -0.24 -0.239 l -0.24,-0.24 h -0.24 -0.24 z"
         fill="#ffffff"
         id="path18" />
      <path
         d="m 198.819,288.361 -0.959,1.2 -0.72,1.199 -0.959,1.2 -0.959,1.439 -0.72,1.2 -0.719,1.199 -0.96,1.44 -0.719,1.199 -0.48,1.439 -0.48,1.44 -0.479,1.439 -0.72,1.44 v 0.959 0.96 l 0.24,0.96 v 0.959 l 1.199,0.96 0.72,0.719 0.959,0.72 0.959,0.72 0.96,0.48 0.959,0.479 1.199,0.24 h 1.199 l 0.96,-1.199 -0.24,-1.679 -1.199,-1.92 -1.199,-1.919 -0.24,-1.199 -0.24,-1.44 v -1.679 -1.919 l 0.719,-1.44 0.72,-1.199 0.959,-1.44 0.48,-1.439 0.719,-1.2 0.48,-1.199 0.24,-0.72 v -0.48 -0.959 l -0.24,-0.72 -0.719,-0.24 h -0.72"
         fill="none"
         stroke="#ffffff"
         id="path19" />
      <path
         d="m 208.412,314.271 -0.24,0.479 v 0.48 l -0.239,0.48 v 0.24 l -0.24,0.48 v 0.24 l -0.24,0.479 v 0.24 l -0.24,0.24 v 0.24 l -0.24,0.24 h -0.24 v 0.24 l -0.239,0.24 h -0.24 v 0.24 l -0.24,0.24 -0.24,0.239 h -0.24 l -0.24,0.24 -0.239,0.24 h -0.24 v 0.24 h -0.24 v 0.24 h -0.24 v 0.24 0.24 l -0.24,0.24 h 0.24 v 0.24 l 0.24,0.24 0.24,0.239 0.24,0.24 h 0.239 v 0.24 h 0.24 l 0.24,0.24 h 0.24 0.24 0.24 0.239 0.24 0.24 0.24 0.24 v -0.24 h 0.24 0.239 0.24 v -0.24 h 0.24 v -0.24 l 0.24,-0.239 v -0.24 h 0.24 v -0.24 -0.24 l 0.24,-0.24 v -0.24 -0.24 l 0.239,-0.24 v -0.24 -0.24 -0.239 l 0.24,-0.24 v -0.24 -0.24 -0.24 -0.24 -0.24 -0.24 l 0.24,-0.24 v -0.24 -0.479 -0.24 -0.24 l 0.24,-0.24 v -0.24 -0.24 -0.24 -0.24 h -0.24 v -0.24 h -0.24 v -0.239 h -0.24 -0.239 -0.24 -0.24 -0.24 z"
         fill="#ffffff"
         id="path20" />
      <path
         d="m 208.412,314.271 -0.959,3.118 -1.199,1.44 -1.199,0.959 -0.96,1.2 0.96,0.959 1.199,0.48 h 0.959 l 1.199,-0.48 0.96,-1.439 0.239,-1.439 0.48,-1.92 0.24,-2.159 -0.24,-0.48 -0.48,-0.239 h -0.719 -0.48"
         fill="none"
         stroke="#ffffff"
         id="path21" />
      <path
         d="m 211.53,305.874 v -0.24 l 0.24,-0.24 v -0.24 h 0.24 v -0.24 h 0.24 v -0.239 l 0.239,-0.24 0.24,-0.24 0.24,-0.24 0.24,-0.24 0.24,-0.24 0.239,-0.24 0.24,-0.24 0.24,-0.24 0.24,-0.24 0.24,-0.24 0.24,-0.239 0.239,-0.24 0.24,-0.24 0.24,-0.24 0.24,-0.24 h 0.24 v 0.24 0.24 h 0.24 v 0.24 0.24 0.239 0.24 l 0.239,0.24 v 0.24 l -0.239,0.24 v 0.24 0.24 0.24 l -0.24,0.24 v 0.24 l -0.24,0.24 v 0.239 0.24 h -0.24 v 0.24 h -0.24 v 0.24 h -0.24 l -0.239,0.24 h -0.24 l -0.24,0.24 h -0.24 -0.24 -0.24 v 0.24 h -0.239 -0.24 -0.24 -0.24 -0.24 -0.239 -0.24 v -0.24 h -0.24 -0.24 z"
         fill="#ffffff"
         id="path22" />
      <path
         d="m 211.53,305.874 0.24,-0.48 0.719,-0.959 1.439,-1.44 1.919,-1.919 0.48,0.72 0.239,0.959 -0.239,0.96 -0.48,1.439 -0.959,0.72 -1.2,0.24 -1.199,0.24 -0.959,-0.48"
         fill="none"
         stroke="#ffffff"
         id="path23" />
      <path
         d="m 219.205,288.361 h -0.24 -0.24 -0.24 -0.24 v 0.24 h -0.24 -0.239 -0.24 -0.24 v 0.24 h -0.24 -0.24 v 0.24 h -0.24 l -0.239,0.24 h -0.24 -0.24 -0.24 v 0.24 h -0.24 -0.24 v 0.24 h -0.239 v 0.24 0.239 0.24 0.24 h -0.24 v 0.24 0.24 0.24 l 0.24,0.24 v 0.24 h 0.239 l 0.24,0.24 h 0.24 0.24 0.24 0.24 0.239 0.24 0.24 0.24 0.24 0.24 l 0.239,-0.24 h 0.24 0.24 l 0.24,-0.24 h 0.24 l 0.24,-0.24 v -0.24 h 0.239 V 291 290.76 l 0.24,-0.24 v -0.24 -0.239 -0.24 -0.24 -0.24 -0.24 l -0.24,-0.24 v -0.24 z"
         fill="#ffffff"
         id="path24" />
      <path
         d="m 219.205,288.361 h -0.72 l -0.959,0.24 -0.72,0.24 -0.719,0.48 h -0.48 l -0.48,0.24 -0.239,0.719 v 1.68 l 0.959,0.24 h 0.959 l 1.199,-0.24 0.96,-0.24 0.479,-0.48 0.24,-0.96 v -0.959 l -0.479,-0.96"
         fill="none"
         stroke="#ffffff"
         id="path25" />
      <path
         d="m 230.716,216.151 h 5.277 5.516 5.516 l 5.276,0.24 h 5.516 5.516 5.277 5.516 5.276 5.516 5.516 5.276 5.516 l 5.517,0.24 h 5.276 5.516 5.276 5.516 5.516 5.277 5.516 5.516 l 5.276,0.24 h 5.516 5.276 5.516 5.517 5.276 5.516 5.516 5.276 5.516 l 0.24,-0.24 v -0.24 h -0.24 v -0.24 -0.24 h -0.24 v -0.24 h -0.239 v -0.24 h -5.516 l -5.756,-0.24 h -6.236 -6.236 -6.475 l -6.715,-0.24 h -6.955 -6.955 l -6.955,-0.239 h -7.195 -7.195 l -6.955,-0.24 h -7.195 -6.955 l -6.955,-0.24 h -6.716 -6.475 l -6.475,-0.24 h -6.236 -5.996 -5.516 l -5.276,-0.24 h -5.036 -4.557 -4.077 -3.838 -3.117 -2.878 -2.159 -1.679 -0.959 -0.48 v 0.24 h -0.239 -0.24 l -0.24,0.24 h -0.24 v 0.24 h -0.24 v 0.24 h -0.24 v 0.239 h -0.239 v 0.24 0.24 h -0.24 v 0.24 0.24 h 0.24 v 0.24 z"
         fill="#ffffff"
         id="path26" />
      <path
         d="m 230.716,216.151 h 5.277 5.516 5.516 l 5.276,0.24 h 5.516 5.516 5.277 5.516 5.276 5.516 5.516 5.276 5.516 l 5.517,0.24 h 5.276 5.516 5.276 5.516 5.516 5.277 5.516 5.516 l 5.276,0.24 h 5.516 5.276 5.516 5.517 5.276 5.516 5.516 5.276 5.516 l 0.24,-0.24 -0.24,-0.48 -0.24,-0.24 -0.239,-0.48 h -5.516 l -5.756,-0.24 h -6.236 -6.236 -6.475 l -6.715,-0.24 h -6.955 -6.955 l -6.955,-0.239 h -7.195 -7.195 l -6.955,-0.24 h -7.195 -6.955 l -6.955,-0.24 h -6.716 -6.475 l -6.475,-0.24 h -6.236 -5.996 -5.516 l -5.276,-0.24 h -5.036 -4.557 -4.077 -3.838 -3.117 -2.878 -2.159 -1.679 -0.959 -0.48 l -0.959,0.72 -0.719,0.479 -0.24,0.72 0.479,0.48"
         fill="none"
         stroke="#ffffff"
         id="path27" />
      <path
         d="m 207.933,241.101 92.334,1.439 -0.24,-3.359 -92.574,-2.399 z"
         fill="#ffffff"
         id="path28" />
      <path
         d="m 207.933,241.101 92.334,1.439 -0.24,-3.359 -92.574,-2.399 0.48,4.319"
         fill="none"
         stroke="#ffffff"
         id="path29" />
      <path
         d="m 294.271,289.801 0.24,1.679 0.24,1.679 0.24,1.68 0.24,1.919 0.24,1.679 0.239,1.679 0.24,1.68 0.24,1.679 v 1.679 l 0.24,1.92 0.24,1.679 0.239,1.679 0.24,1.679 0.24,1.68 0.24,1.919 0.24,1.679 0.24,1.68 0.239,1.679 0.24,1.679 0.24,1.679 v 1.92 l 0.24,1.679 0.24,1.679 0.24,1.68 0.239,1.679 0.24,1.919 0.24,1.679 0.24,1.68 0.24,1.679 0.24,1.679 0.239,1.68 v 1.919 h 0.24 0.24 0.24 v 0.24 h 0.24 0.24 0.239 v -0.24 h 0.24 l -0.24,-1.679 -0.239,-1.68 -0.24,-1.919 -0.24,-1.679 -0.24,-1.68 v -1.679 l -0.24,-1.919 -0.24,-1.679 -0.239,-1.68 -0.24,-1.679 -0.24,-1.679 -0.24,-1.92 -0.24,-1.679 -0.24,-1.679 -0.239,-1.679 -0.24,-1.92 v -1.679 l -0.24,-1.679 -0.24,-1.68 -0.24,-1.919 -0.24,-1.679 -0.239,-1.679 -0.24,-1.68 -0.24,-1.679 -0.24,-1.919 -0.24,-1.68 -0.24,-1.679 v -1.679 l -0.239,-1.919 -0.24,-1.68 -0.24,-1.679 -0.24,-1.679 h -0.24 v -0.24 h -0.239 v 0.24 h -0.24 -0.24 -0.24 -0.24 v 0.24 z"
         fill="#ffffff"
         id="path30" />
      <path
         d="m 294.271,289.801 0.48,3.358 0.48,3.599 0.479,3.358 0.48,3.359 0.24,3.599 0.479,3.358 0.48,3.359 0.48,3.598 0.479,3.359 0.48,3.358 0.24,3.599 0.48,3.359 0.479,3.598 0.48,3.359 0.48,3.358 0.239,3.599 h 0.48 l 0.48,0.24 h 0.479 l 0.24,-0.24 -0.479,-3.359 -0.48,-3.598 -0.24,-3.359 -0.48,-3.598 -0.479,-3.359 -0.48,-3.599 -0.48,-3.358 -0.479,-3.599 -0.24,-3.358 -0.48,-3.599 -0.479,-3.358 -0.48,-3.359 -0.48,-3.599 -0.24,-3.358 -0.479,-3.599 -0.48,-3.358 -0.479,-0.24 -0.48,0.24 h -0.24 l -0.48,0.24"
         fill="none"
         stroke="#ffffff"
         id="path31" />
      <path
         d="m 308.421,299.157 v 0.48 0.239 0.24 0.24 0.48 0.24 l 0.24,0.24 v 0.24 0.24 0.479 0.24 0.24 0.24 l 0.24,0.48 v 0.24 0.24 0.24 0.24 0.479 l 0.24,0.24 v 0.24 0.24 0.48 0.24 0.24 0.24 l 0.24,0.479 v 0.24 0.24 0.24 0.48 0.24 l 0.239,0.24 h 0.24 0.24 l 0.24,0.24 h 0.24 0.24 0.239 0.24 0.24 0.24 0.24 0.24 0.479 0.24 0.24 0.24 0.24 0.239 l 0.24,-0.24 h 0.24 0.24 l 0.24,-0.24 h 0.24 l 0.239,-0.24 h 0.24 l 0.24,-0.24 0.24,-0.24 v -0.24 l -0.24,-0.24 v -0.24 -0.239 -0.24 -0.24 l -0.24,-0.24 v -0.24 -0.48 -0.24 -0.48 -0.239 -0.48 -0.24 -0.48 -0.24 -0.48 -0.24 l -0.24,-0.479 v -0.24 -0.48 -0.24 -0.24 -0.48 -0.24 -0.24 -0.239 -0.24 -0.24 -0.24 h -0.239 l -0.24,-0.24 h -0.24 -0.24 -0.24 -0.24 -0.239 -0.24 -0.24 -0.24 -0.24 -0.24 -0.239 -0.24 -0.24 -0.24 l -0.24,0.24 h -0.24 -0.239 -0.24 -0.24 l -0.24,0.24 h -0.24 -0.24 -0.239 -0.24 -0.24 -0.24 z"
         fill="#ffffff"
         id="path32" />
      <path
         d="m 308.421,299.157 v 1.199 l 0.24,1.2 v 1.199 l 0.24,1.2 0.24,1.199 v 1.2 l 0.24,1.199 v 1.2 l 1.918,0.48 h 2.159 l 1.679,-0.48 0.959,-0.72 -0.24,-0.959 -0.24,-0.96 v -1.439 -1.44 l -0.24,-1.439 v -1.44 -0.959 l -0.239,-0.48 -1.439,-0.24 h -1.679 l -1.679,0.24 -1.919,0.24"
         fill="none"
         stroke="#ffffff"
         id="path33" />
      <path
         d="m 311.299,316.909 v 0.24 0.24 0.24 0.24 0.48 0.24 0.24 0.24 0.239 0.48 0.24 0.24 0.24 0.24 0.48 0.24 0.239 0.24 0.24 0.24 0.24 0.48 l 0.24,0.24 v 0.24 0.24 0.239 0.24 0.24 l 0.24,0.24 v 0.24 0.24 l 0.24,0.24 h 0.24 0.239 0.24 0.24 0.24 l 0.24,0.24 h 0.24 0.239 0.24 0.24 0.24 0.24 0.24 l 0.239,-0.24 h 0.24 0.24 0.24 0.24 0.24 l 0.239,-0.24 h 0.24 v -0.24 h 0.24 0.24 v -0.24 h 0.24 v -0.24 -0.24 l 0.24,-0.24 v -0.239 -0.24 -0.24 -0.24 -0.24 -0.24 -0.24 -0.24 -0.24 -0.24 -0.239 -0.24 -0.48 -0.24 -0.24 l -0.24,-0.24 v -0.24 -0.24 -0.24 -0.239 -0.24 -0.24 l -0.24,-0.24 v -0.24 -0.24 -0.24 -0.24 -0.24 -0.24 l -0.24,-0.239 h -0.24 -0.24 -0.239 -0.24 -0.24 l -0.24,-0.24 h -0.24 -0.24 -0.239 -0.24 -0.24 -0.24 -0.24 -0.24 -0.239 -0.24 -0.24 -0.24 l -0.24,0.24 h -0.24 -0.239 -0.24 -0.24 -0.24 v 0.239 z"
         fill="#ffffff"
         id="path34" />
      <path
         d="m 311.299,316.909 v 0.96 1.2 1.199 1.2 0.959 l 0.24,1.2 v 0.959 l 0.24,0.72 1.919,0.48 1.678,-0.24 1.439,-0.24 0.96,-0.72 0.24,-0.959 v -0.96 -0.96 -1.199 l -0.24,-0.96 v -0.959 l -0.24,-0.96 -0.24,-0.959 -1.679,-0.24 h -1.679 l -1.199,0.24 -1.439,0.239"
         fill="none"
         stroke="#ffffff"
         id="path35" />
      <path
         d="m 312.978,334.182 v 0.24 0.24 0.24 0.24 0.24 l 0.24,0.24 v 0.48 0.239 0.24 0.24 0.24 0.24 0.24 0.24 0.24 0.48 0.239 l 0.24,0.24 v 0.24 0.24 0.24 0.24 0.24 l 0.24,0.24 v 0.24 0.24 0.239 0.24 h 0.239 v 0.24 h 0.24 0.24 0.24 0.24 0.24 l 0.239,0.24 h 0.24 0.24 0.24 0.24 0.24 0.239 l 0.24,-0.24 h 0.24 0.24 0.24 0.24 0.239 0.24 v -0.24 h 0.24 0.24 0.24 l 0.24,-0.24 h 0.239 v -0.239 -0.24 l 0.24,-0.24 v -0.24 -0.24 -0.24 -0.24 -0.24 -0.24 -0.24 -0.239 -0.24 -0.24 -0.24 -0.24 -0.24 -0.24 -0.24 -0.24 -0.24 l -0.24,-0.239 v -0.24 -0.24 -0.24 -0.24 -0.24 -0.24 -0.48 l -0.239,-0.24 v -0.239 -0.24 -0.24 h -0.24 -0.24 -0.24 -0.24 -0.24 -0.239 -0.24 -0.24 -0.24 -0.24 -0.24 -0.239 -0.24 -0.24 l -0.24,0.24 h -0.24 -0.24 -0.239 -0.24 l -0.24,0.24 h -0.24 -0.24 -0.24 v 0.239 h -0.239 -0.24 -0.24 z"
         fill="#ffffff"
         id="path36" />
      <path
         d="m 312.978,334.182 v 0.96 l 0.24,1.199 v 0.96 1.2 l 0.24,0.959 v 0.72 l 0.24,0.72 0.239,0.719 1.439,0.24 1.679,-0.24 h 1.439 l 1.199,-0.48 0.24,-0.959 v -0.96 -0.959 -0.96 -0.96 l -0.24,-0.959 v -1.2 l -0.239,-0.959 h -1.439 -1.679 l -1.679,0.48 -1.679,0.479"
         fill="none"
         stroke="#ffffff"
         id="path37" />
      <path
         d="m 315.616,350.736 v 0.239 0.24 0.24 0.24 0.24 h 0.24 v 0.24 h 0.24 l 0.24,0.24 h 0.24 0.239 0.24 l 0.24,-0.24 h 0.24 0.24 0.24 0.239 v -0.24 h 0.24 0.24 0.24 l 0.24,-0.24 h 0.24 l 0.239,-0.24 h 0.24 l 0.24,-0.24 h 0.24 0.24 v -0.24 h 0.239 0.24 v -0.239 h 0.24 l 0.24,-0.24 v -0.24 -0.24 -0.24 -0.24 -0.24 -0.24 -0.24 -0.24 -0.239 -0.24 l -0.24,-0.24 v -0.24 -0.24 h -0.24 -0.24 l -0.239,0.24 h -0.24 v 0.24 h -0.24 l -0.24,0.24 -0.24,0.24 h -0.239 v 0.239 h -0.24 l -0.24,0.24 h -0.24 v 0.24 l -0.24,0.24 h -0.24 l -0.239,0.24 -0.24,0.24 h -0.24 l -0.24,0.24 -0.24,0.24 h -0.24 v 0.24 h -0.239 -0.24 l -0.24,0.24 h -0.24 z"
         fill="#ffffff"
         id="path38" />
      <path
         d="m 315.616,350.736 v 0.479 0.48 l 0.24,0.24 0.24,0.24 h 1.439 l 1.439,-0.24 1.439,-0.72 1.199,-0.719 v -0.96 -0.96 l -0.24,-0.719 v -0.48 l -1.199,0.48 -1.439,0.959 -1.439,1.2 -1.679,0.72"
         fill="none"
         stroke="#ffffff"
         id="path39" />
      <path
         d="m 308.901,288.361 h 0.24 0.24 0.239 0.24 v 0.24 h 0.24 0.24 0.24 0.24 0.239 0.24 0.24 0.24 0.24 l 0.24,-0.24 h 0.239 0.24 0.24 0.24 0.24 0.24 l 0.239,-0.24 v -0.24 -0.479 -0.24 -0.24 -0.24 -0.48 -0.24 l -0.239,-0.48 v -0.239 -0.48 -0.48 l -0.24,-0.48 v -0.24 -0.48 l -0.24,-0.479 v -0.48 -0.48 l -0.24,-0.48 v -0.48 l -0.24,-0.479 v -0.48 -0.48 l -0.24,-0.48 v -0.48 -0.479 -0.48 l -0.239,-0.48 v -0.48 -0.48 -0.479 -0.24 l -0.24,-0.24 h -0.24 -0.24 -0.24 -0.24 -0.239 -0.24 -0.24 -0.24 -0.24 -0.24 -0.239 -0.24 -0.24 l -0.24,0.24 h -0.24 -0.24 -0.239 -0.24 -0.24 -0.24 -0.24 v 0.479 0.48 l 0.24,0.24 v 0.48 0.48 l 0.24,0.24 v 0.479 0.48 0.48 l 0.24,0.24 v 0.48 0.48 0.239 l 0.24,0.48 v 0.48 0.48 0.24 l 0.239,0.48 v 0.479 0.24 0.48 l 0.24,0.48 v 0.48 0.24 l 0.24,0.479 v 0.48 0.24 0.48 l 0.24,0.48 v 0.48 0.239 z"
         fill="#ffffff"
         id="path40" />
      <path
         d="m 308.901,288.361 1.439,0.24 h 1.439 l 0.959,-0.24 1.199,-0.24 v -0.959 -1.2 l -0.239,-1.679 -0.48,-1.679 -0.24,-1.92 -0.48,-1.919 -0.239,-1.919 v -1.679 l -1.439,-0.24 h -1.439 l -1.2,0.24 h -1.199 l 0.24,1.679 0.24,1.679 0.24,1.68 0.24,1.679 0.239,1.439 0.24,1.68 0.24,1.679 0.24,1.679"
         fill="none"
         stroke="#ffffff"
         id="path41" />
      <path
         d="m 272.687,250.217 h 21.824 l -1.679,6.957 -20.145,-0.24 z"
         fill="#ffffff"
         id="path42" />
      <path
         d="m 272.687,250.217 h 21.824 l -1.679,6.957 -20.145,-0.24 v -6.717"
         fill="none"
         stroke="#ffffff"
         id="path43" />
      <path
         d="m 365.741,204.396 -1.199,0.72 -0.72,0.959 -0.24,0.96 0.24,0.959 0.959,0.48 1.2,0.24 0.959,-0.24 1.199,-0.24 v -0.959 l -0.24,-0.96 -0.959,-0.96 -1.199,-0.959"
         fill="none"
         stroke="#000000"
         id="path44" />
      <path
         d="m 410.349,210.633 0.24,-0.24 h 0.24 v -0.24 h 0.24 v -0.239 h 0.239 0.24 v -0.24 h 0.24 0.24 v -0.24 h 0.24 0.24 0.239 l 0.24,-0.24 h 0.24 0.24 0.24 0.24 0.239 l 0.24,0.24 v 0.24 h 0.24 v 0.24 0.239 h 0.24 v 0.24 0.24 0.24 0.24 0.24 0.24 l -0.24,0.24 h -0.24 -0.24 -0.239 -0.24 -0.24 -0.24 -0.24 -0.24 -0.239 v -0.24 h -0.24 -0.24 -0.24 l -0.24,-0.24 h -0.24 l -0.239,-0.24 h -0.24 v -0.24 h -0.24 z"
         fill="#ffffff"
         id="path45" />
      <path
         d="m 410.349,210.633 0.72,-0.48 0.719,-0.479 1.199,-0.48 h 0.96 l 0.719,0.48 0.24,0.719 v 0.48 0.72 l -1.199,0.24 -1.199,-0.24 -1.2,-0.24 -0.959,-0.72"
         fill="none"
         stroke="#ffffff"
         id="path46" />
      <path
         d="m 328.567,234.144 h 1.919 1.918 1.919 1.919 1.918 1.919 1.919 1.918 1.919 1.918 1.919 1.919 2.158 1.919 1.918 1.919 1.919 1.918 1.919 1.919 1.918 1.919 1.919 1.918 1.919 2.158 1.919 1.919 1.918 1.919 1.919 1.918 v -0.24 -0.24 -0.24 -0.24 -0.24 l -0.24,-0.24 h -0.239 v -0.24 h -0.24 l -61.157,-0.959 z"
         fill="#ffffff"
         id="path47" />
      <path
         d="m 328.567,234.144 h 3.837 3.838 3.837 3.837 3.837 3.838 4.077 3.837 3.837 3.838 3.837 3.837 4.077 3.838 3.837 3.837 v -0.48 -0.48 l -0.24,-0.48 -0.479,-0.24 -61.157,-0.959 v 2.639"
         fill="none"
         stroke="#ffffff"
         id="path48" />
      <path
         d="m 400.516,231.984 v 0.24 h 0.24 v 0.24 0.24 0.24 0.24 l 0.24,0.24 v 0.24 l 0.24,0.24 v 0.24 h 0.239 0.24 l 0.24,0.239 h 0.24 0.24 0.24 0.239 l 0.24,0.24 h 0.24 0.24 0.24 0.239 l 0.24,-0.24 h 0.24 0.24 0.24 0.24 0.239 0.24 0.24 v -0.239 h 0.24 0.24 0.24 0.239 v -0.24 h 0.24 v -0.24 h 0.24 v -0.24 h 0.24 v -0.24 -0.24 -0.24 -0.24 -0.24 h -0.24 v -0.24 h -0.24 -0.24 -0.239 -0.24 -0.24 v -0.239 h -0.24 -0.24 -0.24 -0.239 -0.24 -0.24 -0.24 -0.24 l -0.24,-0.24 h -0.239 -0.24 -0.24 -0.24 -0.24 -0.239 -0.24 l -0.24,0.24 h -0.24 -0.24 -0.24 -0.239 -0.24 -0.24 v 0.239 z"
         fill="#ffffff"
         id="path49" />
      <path
         d="m 400.516,231.984 0.24,0.48 v 0.72 l 0.24,0.48 0.479,0.48 1.2,0.239 1.199,0.24 1.439,-0.24 1.199,-0.239 h 0.24 0.239 v -0.24 l 0.24,-0.24 0.24,-0.24 0.24,-0.24 v -0.24 -0.24 -0.48 h -0.24 l -0.24,-0.24 h -0.24 -0.239 -0.24 l -1.199,-0.239 -1.439,-0.24 h -1.439 l -1.439,0.24 h -0.24 v 0.239 h -0.24"
         fill="none"
         stroke="#ffffff"
         id="path50" />
      <path
         d="m 414.906,231.025 h -0.24 -0.24 -0.24 -0.239 v 0.24 h -0.24 v 0.24 h -0.24 v 0.24 0.239 0.24 0.24 0.24 h 0.24 v 0.24 h 0.24 l 0.239,0.24 h 0.24 0.24 v 0.24 h 0.24 0.24 0.239 0.24 0.24 0.24 0.24 0.24 0.239 0.24 0.24 0.24 0.24 0.24 v -0.24 h 0.239 0.24 0.24 0.24 0.24 0.24 0.239 0.24 0.24 0.24 l 0.24,-0.24 h 0.24 0.239 l 0.24,-0.24 h 0.24 v -0.24 l 0.24,-0.24 v -0.24 -0.239 h -0.24 v -0.24 h -0.24 v -0.24 h -0.24 -0.239 -0.24 l -0.24,-0.24 h -0.24 -0.24 -0.24 -0.239 -0.24 -0.24 -0.24 -0.24 -0.24 l -0.239,0.24 h -0.24 -0.24 -0.24 -0.24 -0.24 l -0.239,-0.24 h -0.24 -0.24 -0.24 -0.24 -0.24 -0.239 z"
         fill="#ffffff"
         id="path51" />
      <path
         d="m 414.906,231.025 h -0.72 -0.239 l -0.24,0.24 -0.24,0.48 v 0.239 0.48 l 0.24,0.24 v 0.24 h 0.24 l 0.239,0.24 h 0.24 l 0.72,0.24 h 1.199 0.959 l 0.72,-0.24 h 1.199 1.199 l 0.959,-0.48 0.48,-0.959 -1.199,-0.48 -1.439,-0.24 -1.679,0.24 -1.439,-0.24 h -0.24 -0.48 -0.239 -0.24"
         fill="none"
         stroke="#ffffff"
         id="path52" />
      <path
         d="m 429.296,230.305 -0.96,0.24 h -0.24 v 0.24 h -0.239 v 0.24 0.24 0.24 h 0.239 v 0.24 l 0.24,0.239 h 0.24 v 0.24 h 0.24 v 0.24 h 0.24 0.24 v 0.24 h 0.239 0.24 0.24 0.24 0.24 0.24 0.239 l 5.996,0.24 h 0.24 0.24 0.24 0.24 0.239 0.24 0.24 0.24 0.24 0.239 0.24 0.24 0.24 0.24 0.24 0.239 v -0.24 h 0.24 0.24 l 0.24,-0.24 v -0.24 h 0.24 v -0.24 -0.239 -0.24 -0.24 -0.24 l -0.24,-0.24 h -0.24 v -0.24 h -0.24 -0.24 -0.239 -0.24 -0.24 -0.24 -0.24 -0.24 -0.239 l -0.24,-0.24 h -0.24 -0.24 -0.24 -0.239 -0.24 -0.24 -0.24 -0.24 -0.24 -0.239 -0.24 -0.24 -0.24 -0.24 -0.24 -0.239 v -0.24 h -0.24 -0.24 -0.24 -0.24 -0.24 -0.239 -0.24 -0.24 -0.24 -0.24 -0.24 -0.239 l -0.24,0.24 h -0.24 -0.24 -0.24 -0.24 -0.239 -0.24 -0.24 -0.24 -0.24 -0.24 z"
         fill="#ffffff"
         id="path53" />
      <path
         d="m 429.296,230.305 -0.96,0.24 h -0.24 v 0.24 h -0.239 l 0.239,0.72 0.24,0.479 0.48,0.48 0.719,0.24 h 0.24 0.48 0.48 0.239 l 5.996,0.24 h 0.72 1.199 0.959 0.72 l 0.239,-0.24 h 0.24 0.24 l 0.24,-0.24 0.24,-0.48 v -0.479 -0.48 l -0.48,-0.24 -0.48,-0.24 h -0.719 -0.48 l -0.719,-0.24 h -0.72 -0.719 -0.959 -0.72 l -1.679,-0.24 h -1.679 l -1.678,0.24 h -1.439"
         fill="none"
         stroke="#ffffff"
         id="path54" />
      <path
         d="m 196.421,218.79 v 8.876 h -9.114 v -8.876 z m -6.955,35.745 h 0.239 0.24 0.24 0.24 0.24 0.24 0.239 0.24 0.24 0.24 0.24 0.24 0.239 0.24 0.24 0.24 0.24 0.24 0.239 0.24 0.24 0.24 0.24 0.24 0.239 0.24 v 0.24 h 0.24 0.24 0.24 v 35.745 h 28.3 v -40.303 l -7.195,-9.596 6.475,-8.397 -0.479,-39.583 h -62.596 v 98.119 h 25.662 v -35.985 h 0.24 0.239 0.24 0.24 0.24 0.24 0.24 0.239 0.24 0.24 0.24 z"
         fill-rule="evenodd"
         id="path55" />
      <path
         d="m 196.421,218.79 v 8.876 h -9.114 v -8.876 h 9.114"
         fill="none"
         stroke="#000000"
         id="path56" />
      <path
         d="m 189.466,254.535 h 0.959 0.959 1.199 0.96 0.719 0.72 l 0.719,0.24 h 0.72 v 35.745 h 28.3 v -40.303 l -7.195,-9.596 6.475,-8.397 -0.479,-39.583 h -62.596 v 98.119 h 25.662 v -35.985 h 0.719 0.72 0.719 l 0.72,-0.24"
         fill="none"
         stroke="#000000"
         id="path57" />
      <path
         d="m 184.189,215.671 v 15.114 h 15.35 v -15.114 z m -20.145,-19.912 v 91.883 h 19.426 v -35.986 h 1.439 1.199 1.199 0.96 l 1.199,-0.24 h 0.959 0.719 0.96 0.719 0.72 0.719 0.48 0.719 l 0.48,0.24 h 0.48 0.24 0.479 0.24 l 0.48,0.24 h 0.24 0.239 l 0.24,0.24 h 0.24 v 0.24 h 0.24 v 0.24 l 0.24,0.24 0.24,0.24 v 0.24 0.24 0.239 33.587 h 22.064 v -35.986 l -8.154,-10.795 7.195,-9.356 -0.24,-35.506 z"
         fill="#ffffff"
         fill-rule="evenodd"
         id="path58" />
      <path
         d="m 184.189,215.671 v 15.114 h 15.35 v -15.114 h -15.35"
         fill="none"
         stroke="#000000"
         id="path59" />
      <path
         d="m 164.044,195.759 v 91.883 h 19.426 v -35.986 h 4.797 l 3.837,-0.24 h 2.638 l 1.919,0.24 1.439,0.24 0.719,0.48 0.48,0.48 0.24,0.959 v 33.587 h 22.064 v -35.986 l -8.154,-10.795 7.195,-9.356 -0.24,-35.506 h -56.36"
         fill="none"
         stroke="#000000"
         id="path60" />
      <path
         d="m 252.301,247.098 h 2.159 l -0.96,-5.757 z m 15.829,-54.457 22.064,97.639 h -28.3 l -3.837,-20.631 h -9.353 l -3.838,20.392 h -25.422 l 17.988,-97.4 z"
         fill-rule="evenodd"
         id="path61" />
      <path
         d="m 252.301,247.098 h 2.159 l -0.96,-5.757 -1.199,5.757"
         fill="none"
         stroke="#000000"
         id="path62" />
      <path
         d="m 268.13,192.641 22.064,97.639 h -28.3 l -3.837,-20.631 h -9.353 l -3.838,20.392 h -25.422 l 17.988,-97.4 h 30.698"
         fill="none"
         stroke="#000000"
         id="path63" />
      <path
         d="m 253.5,224.308 4.797,25.909 h -9.833 z m -13.43,-28.549 h 25.662 l 20.385,91.403 h -21.585 l -3.837,-20.632 h -14.629 l -3.838,20.392 h -18.946 z"
         fill="#ffffff"
         fill-rule="evenodd"
         id="path64" />
      <path
         d="m 253.5,224.308 4.797,25.909 h -9.833 l 5.036,-25.909"
         fill="none"
         stroke="#000000"
         id="path65" />
      <path
         d="m 240.07,195.759 h 25.662 l 20.385,91.403 h -21.585 l -3.837,-20.632 h -14.629 l -3.838,20.392 h -18.946 l 16.788,-91.163"
         fill="none"
         stroke="#000000"
         id="path66" />
      <path
         d="m 284.199,290.28 h 28.299 v -39.823 h 21.585 V 227.426 H 312.019 V 217.35 h 26.621 v -23.99 l -54.441,-0.24 z"
         id="path67" />
      <path
         d="m 284.199,290.28 h 28.299 v -39.823 h 21.585 V 227.426 H 312.019 V 217.35 h 26.621 v -23.99 l -54.441,-0.24 v 97.16"
         fill="none"
         stroke="#000000"
         id="path68" />
      <path
         d="m 287.316,196.239 v 90.923 h 22.065 v -39.824 h 21.584 v -16.793 h -22.064 v -16.313 h 26.381 v -17.753 z"
         fill="#ffffff"
         id="path69" />
      <path
         d="m 287.316,196.239 v 90.923 h 22.065 v -39.824 h 21.584 v -16.793 h -22.064 v -16.313 h 26.381 v -17.753 l -47.966,-0.24"
         fill="none"
         stroke="#000000"
         id="path70" />
    </g>
  </g>
</svg>
