<?xml version="1.0" encoding="UTF-8" standalone="no"?>
<svg
   width="72"
   height="72"
   version="1.1"
   desc="Created with imagetracer.js version 1.2.6"
   id="svg1923"
   xml:space="preserve"
   xmlns="http://www.w3.org/2000/svg"
   xmlns:svg="http://www.w3.org/2000/svg"><defs
     id="defs1923" /><rect
     style="fill:#ffffff;stroke:#00ff00;stroke-width:0.00377953"
     id="rect2766"
     width="69.893616"
     height="30.893616"
     x="1.7999997"
     y="23.213888"
     rx="0.36602524" /><g
     id="g2765"
     transform="matrix(0.09754742,0,0,0.09754742,-2.9235752,-3.1383237)"><path
       style="fill:#f50808"
       d="M 108,765.34886 C 69.578783,760.13838 34.948101,726.20398 34.177692,693.0108 34.079961,688.80008 33.55,685.35008 33,685.34414 32.45,685.33819 32,556.93333 32,400 c 0,-156.93333 0.496084,-285.33333 1.10241,-285.33333 0.606325,0 0.850393,-1.7171 0.542374,-3.81577 -3.87553,-26.405671 28.768062,-64.483834 63.802222,-74.424143 13.308954,-3.776175 591.797034,-3.776175 605.105984,0 30.92755,8.775133 53.11096,30.687357 62.38186,61.619275 2.9239,9.755448 4.53301,570.839558 1.69935,592.549588 -4.572,35.02828 -28.23386,62.2511 -63.39019,72.93004 -8.37886,2.54512 -577.07626,4.28701 -595.24401,1.8232 z m 45.60104,-230.83253 c 19.73587,-4.14422 37.67025,-17.20133 45.44306,-33.08478 l 4.28923,-8.76488 0.4411,-30.21364 c 0.97342,-66.67709 -29.80767,-96.99808 -74.89748,-73.77791 -3.55101,1.82868 -6.70101,3.32488 -7,3.32488 -1.6749,0 -0.35373,-40.15542 1.52986,-46.49814 6.87785,-23.16026 28.53961,-14.44548 28.58016,11.49814 l 0.013,8.33333 h 26 26 l -0.0326,-11 C 203.74605,279.63065 90.387932,264.37691 71.193236,336.46692 c -2.834614,10.64603 -2.677281,145.16802 0.182626,156.14795 7.797937,29.9383 46.142208,49.47831 82.225178,41.90146 z m -22.55098,-42.02232 c -12.18983,-6.01038 -14.40255,-56.01332 -2.98397,-67.43189 13.92674,-13.92675 23.93416,0.425 23.89719,34.27121 -0.0327,29.9336 -6.53799,40.24861 -20.91322,33.16068 z m 183.9842,41.41074 c 19.26369,-4.99173 36.1984,-17.92867 43.13996,-32.95595 L 362,492.66667 l 0.42282,-74 c 0.51133,-89.49 0.16886,-91.85868 -15.55491,-107.58667 -39.42754,-39.43814 -109.62515,-21.12107 -117.69461,30.71074 -2.07328,13.31708 -0.75264,146.71861 1.52217,153.75933 9.41891,29.15221 49.50344,47.38142 84.33879,38.35468 z m -23.70093,-40.4481 c -3.72334,-1.59439 -6.87978,-5.37882 -9.28248,-11.12929 -2.60525,-6.23525 -3.07325,-122.76217 -0.54047,-134.57212 3.79842,-17.71139 19.64699,-21.23316 26.60462,-5.91191 3.28625,7.23658 3.94544,134.94932 0.73569,142.53283 -3.29517,7.7853 -11.09725,11.82967 -17.51736,9.08049 z m 182.59694,40.50549 c 27.3197,-7.11588 44.19548,-24.84001 47.56602,-49.95719 4.67652,-34.84937 -0.74029,-66.54485 -13.2497,-77.52826 l -4.5808,-4.02199 4.76409,-4.89402 c 9.95334,-10.22478 15.18455,-28.80773 13.57628,-48.22735 C 515.27993,268.11472 388,270.87313 388,352.23752 v 13.15339 l 25.66667,-0.36212 25.66666,-0.36212 L 440.06403,354 c 2.30415,-33.63586 29.2693,-28.77131 29.2693,5.28022 V 372 l -5.125,5.125 C 458.17725,383.15608 454.85785,384 437.16667,384 H 424 v 17.81023 17.81023 l 15,0.92969 c 27.99471,1.73509 30.33333,4.67378 30.33333,38.11652 0,29.17394 -3.9801,37.66077 -16.57917,35.35197 -10.18065,-1.86562 -12.72661,-8.14404 -13.10927,-32.32786 L 439.33333,442 l -25.7671,-0.36248 -25.76709,-0.36247 0.43376,26.36247 c 0.84795,51.53503 36.51096,79.13605 85.69737,66.32462 z M 628,414 V 292 l -20.33333,0.0188 -20.33334,0.0188 -7.17757,7.22341 c -7.72114,7.77044 -18.33793,14.00207 -28.48909,16.72194 l -6.33334,1.69694 v 18.01084 18.01085 l 9,-0.91686 c 4.95,-0.50427 11.6449,-1.81222 14.87756,-2.90657 8.55586,-2.8964 8.18733,-7.29614 7.8072,93.20677 l -0.35142,92.91542 25.66666,-1.8e-4 L 628,536 Z m 106.66667,0 V 292 h -20.12891 -20.12891 l -8.39483,7.66667 c -9.02583,8.24294 -19.26703,14.16177 -28.34735,16.38316 L 652,317.43612 v 18.13273 18.13274 l 8.78089,-0.89963 c 4.82949,-0.4948 11.72949,-2.02001 15.33333,-3.38936 l 6.55245,-2.48974 V 441.46143 536 h 26 26 z"
       id="path2766" /><path
       style="fill:#252fa8"
       d="M 108,765.34886 C 69.578783,760.13838 34.948101,726.20398 34.177692,693.0108 34.079961,688.80008 33.55,685.35008 33,685.34414 32.45,685.33819 32,556.93333 32,400 c 0,-156.93333 0.496084,-285.33333 1.10241,-285.33333 0.606325,0 0.850393,-1.7171 0.542374,-3.81577 -3.87553,-26.405671 28.768062,-64.483834 63.802222,-74.424143 13.308954,-3.776175 591.797034,-3.776175 605.105984,0 30.92755,8.775133 53.11096,30.687357 62.38186,61.619275 2.9239,9.755448 4.53301,570.839558 1.69935,592.549588 -4.572,35.02828 -28.23386,62.2511 -63.39019,72.93004 -8.37886,2.54512 -577.07626,4.28701 -595.24401,1.8232 z m 339.33333,-47.88265 c 5.86667,-0.7409 13.66667,-1.94746 17.33334,-2.68124 3.66666,-0.73377 9.96666,-1.95714 14,-2.7186 15.73953,-2.97147 19.89226,-4.02862 30.75321,-7.82871 C 572.60354,682.13059 616.70053,641.18131 634.59259,588 c 1.60367,-4.76667 3.39325,-9.86667 3.97683,-11.33333 2.63783,-6.62937 7.69795,-27.95583 10.75621,-45.33334 5.13166,-29.15889 6.95073,-64.82249 6.43813,-126.22201 l -0.43043,-51.55534 7.33334,-0.91299 c 4.03333,-0.50215 10.18333,-1.9946 13.66666,-3.31656 l 6.33334,-2.40357 V 441.46143 536 h 26 26 V 414 292 h -20.15513 -20.15512 l -7.76715,7.19101 C 677.67228,307.44657 666.76313,314.05973 660,315.3095 l -4.66667,0.86236 V 211.75259 107.33333 L 583.66667,106.98842 512,106.6435 v 105.45018 105.45018 l -6.27272,-6.27272 C 462.00287,267.54673 388,293.29802 388,352.23752 v 13.15339 l 25.66667,-0.36212 25.66666,-0.36212 L 440.06403,354 c 2.30415,-33.63586 29.2693,-28.77131 29.2693,5.28022 V 372 l -5.125,5.125 C 458.17725,383.15608 454.85785,384 437.16667,384 H 424 v 17.81023 17.81023 l 15,0.92969 c 27.99471,1.73509 30.33333,4.67378 30.33333,38.11652 0,29.17394 -3.9801,37.66077 -16.57917,35.35197 -10.18065,-1.86562 -12.72661,-8.14404 -13.10927,-32.32786 L 439.33333,442 l -25.7671,-0.36248 -25.76709,-0.36247 0.43376,26.36247 c 1.0193,61.94889 61.86936,91.36856 111.65019,53.98041 l 4.54975,-3.41712 -0.9731,3.23293 c -0.53521,1.77811 -1.47409,5.03293 -2.08641,7.23293 -2.4577,8.83034 -8.57229,24.23107 -11.11689,28 -19.72526,29.21597 -40.77319,40.11608 -80.25644,41.5625 -29.26698,1.07216 -61.41038,-6.04995 -70,-15.51011 -0.36667,-0.40383 -2.97076,-2.45261 -5.78687,-4.55285 -9.14654,-6.82144 -23.72605,-29.68335 -25.09533,-39.35162 -0.40511,-2.86042 0.36506,-3.41417 7.54887,-5.42769 18.80436,-5.27059 34.69427,-17.68854 41.50755,-32.4381 L 362,492.66667 l 0.42282,-74 c 0.45389,-79.43835 0.2032,-83.27183 -6.22748,-95.22652 -9.16395,-17.03588 -31.04207,-31.17405 -51.86201,-33.51448 L 296,288.98889 v -91.16111 -91.16111 h -72 -72 v 91.85245 91.85245 l -11,-0.65664 c -32.24795,-1.92503 -62.184384,18.12442 -69.806764,46.75199 -2.834614,10.64603 -2.677281,145.16802 0.182626,156.14795 7.669913,29.44678 47.284508,49.96929 81.253368,42.09367 6.49036,-1.50478 5.48811,-2.97899 8.63793,12.70541 2.98891,14.88314 4.87292,22.05786 7.33131,27.91938 0.92271,2.2 3.03806,8.2 4.70077,13.33334 3.60713,11.13637 10.97738,26.02099 18.91834,38.2066 8.64636,13.26806 16.41577,21.92633 35.55797,39.62594 2.44322,2.25909 8.74322,6.89546 14,10.30304 5.25678,3.40758 11.05778,7.20618 12.89112,8.44132 4.33426,2.92006 27.21566,13.97467 34.78074,16.80351 3.23726,1.21052 7.08592,2.69567 8.55259,3.30035 6.16637,2.54227 12.0049,3.9859 16.12028,3.9859 2.41395,0 4.71191,0.52246 5.10656,1.16103 0.39465,0.63856 3.58006,1.5381 7.07869,1.99899 3.49862,0.46088 9.96114,1.44305 14.36114,2.1826 4.4,0.73954 13.58269,1.87269 20.40598,2.5181 6.8233,0.64542 12.82002,1.58751 13.32606,2.09354 1.28365,1.28366 59.94871,-0.18137 72.93462,-1.82138 z M 131.05006,492.49401 c -12.18983,-6.01038 -14.40255,-56.01332 -2.98397,-67.43189 13.92674,-13.92675 23.93416,0.425 23.89719,34.27121 -0.0327,29.9336 -6.53799,40.24861 -20.91322,33.16068 z m 160.28327,0.96264 c -3.72334,-1.59439 -6.87978,-5.37882 -9.28248,-11.12929 -2.60525,-6.23525 -3.07325,-122.76217 -0.54047,-134.57212 3.79842,-17.71139 19.64699,-21.23316 26.60462,-5.91191 3.28625,7.23658 3.94544,134.94932 0.73569,142.53283 -3.29517,7.7853 -11.09725,11.82967 -17.51736,9.08049 z m -170,-121.21465 c 0,-27.24772 3.21277,-37.3217 12.65864,-39.69246 11.80904,-2.96388 17.9579,8.35475 17.91598,32.97922 l -0.0287,16.87425 -8.27294,1.45346 c -4.55012,0.79941 -11.17832,2.95873 -14.72933,4.7985 -3.55101,1.83977 -6.70101,3.34503 -7,3.34503 -0.29899,0 -0.54362,-8.8911 -0.54362,-19.758 z"
       id="path2765" /></g></svg>
